<?xml version="1.0" encoding="utf-8"?>
<!-- Generator: Adobe Illustrator 16.0.0, SVG Export Plug-In . SVG Version: 6.00 Build 0)  -->
<!DOCTYPE svg PUBLIC "-//W3C//DTD SVG 1.1//EN" "http://www.w3.org/Graphics/SVG/1.1/DTD/svg11.dtd">
<svg version="1.1" id="Layer_1" xmlns="http://www.w3.org/2000/svg" xmlns:xlink="http://www.w3.org/1999/xlink" x="0px" y="0px"
	 width="50px" height="50px" viewBox="-315.5 -315.5 50 50" enable-background="new -315.5 -315.5 50 50" xml:space="preserve">
<path d="M-270.089-295.597l-6.338-7.062c-0.083-0.093-0.215-0.124-0.332-0.08c-0.116,0.045-0.192,0.158-0.191,0.283l0.014,1.363
	l-0.143,0.08v-1.446c0-0.096-0.046-0.187-0.124-0.243c-0.078-0.056-0.177-0.072-0.27-0.042c-0.319,0.105-7.709,2.592-9.393,7.131
	l-10.95,0l-0.35-0.022c-0.124,0-0.232,0.017-0.351,0.021h-12.171c-0.166,0-0.3,0.134-0.3,0.3c0,0.388,0.169,0.75,0.502,1.074
	c0.832,0.811,2.7,1.334,4.714,1.334c0.1,0,0.199-0.001,0.299-0.004c0.862-0.022,1.876-0.148,2.755-0.332
	c-0.257,0.488-0.459,1.044-0.595,1.684c-0.33,1.556,0.254,3.493,1.574,4.685c-0.024,0.033-0.059,0.056-0.068,0.097l-0.678,3.003
	c-0.035,0.153,0.054,0.306,0.204,0.353l1.482,0.458l-0.327,1.926c-0.024,0.146,0.061,0.289,0.201,0.335l6.856,2.275
	c0.031,0.01,0.063,0.015,0.095,0.015h1.736c0.136,0,0.255-0.091,0.29-0.223c0.035-0.131-0.023-0.27-0.141-0.337l-5.396-3.1
	c0.025-0.047,0.056-0.108,0.086-0.167l3.505,1.023c0.027,0.008,0.056,0.012,0.084,0.012c0.057,0,0.113-0.016,0.163-0.047
	c0.073-0.047,0.122-0.124,0.134-0.21l0.185-1.288c0.019-0.134-0.053-0.264-0.177-0.318l-2.891-1.254
	c-0.009-0.004-0.019,0.002-0.028,0c0.14-0.33,0.28-0.678,0.413-1.035c0.533,0.158,1.976,0.527,3.946,0.527
	c1.321,0,2.872-0.168,4.524-0.68c0.023-0.007,0.031-0.031,0.051-0.042c0.23,0.083,0.487,0.156,0.757,0.225l-0.292,1.268
	l-4.531,0.318c-0.132,0.009-0.243,0.104-0.271,0.233l-0.282,1.25c-0.019,0.084-0.001,0.173,0.05,0.243
	c0.052,0.07,0.131,0.114,0.217,0.122l5.714,0.479c0.008,0.001,0.017,0.001,0.025,0.001c0.096,0,0.186-0.045,0.243-0.124l2.357-3.249
	c0.008-0.011,0.002-0.024,0.008-0.035c0.385,0.036,0.738,0.064,1.007,0.082l-4.902,5.727c-0.069,0.081-0.09,0.192-0.056,0.293
	c0.035,0.1,0.12,0.175,0.224,0.196l1.326,0.271c0.02,0.004,0.04,0.006,0.06,0.006c0.076,0,0.15-0.029,0.206-0.082l6.919-6.541
	c0.065-0.062,0.1-0.149,0.093-0.239l-0.113-1.625c-0.009-0.125-0.095-0.232-0.215-0.267l-2.686-0.781l4.964-7.212
	c1.119,0.514,2.256,0.11,2.664-0.07c0.448,0.244,1.591,0.835,2.167,0.796c0.499-0.037,1.501-0.748,1.697-0.891
	c0.069-0.05,0.113-0.126,0.122-0.211S-270.033-295.534-270.089-295.597z M-277.679-302.032v1.355l-8.368,4.675
	C-284.325-299.354-279.151-301.483-277.679-302.032z M-305.487-293.508c-1.933,0.052-3.826-0.427-4.579-1.16
	c-0.116-0.112-0.2-0.228-0.254-0.345h9.329c-0.491,0.264-0.909,0.613-1.255,1.048C-303.179-293.718-304.47-293.535-305.487-293.508z
	 M-301.837-283.91l0.585-2.592c0.298,0.202,0.615,0.38,0.97,0.502l-0.414,2.442L-301.837-283.91z M-296.632-283.767l2.681,1.163
	l-0.103,0.719l-3.069-0.896c0.142-0.29,0.302-0.629,0.471-1.007C-296.644-283.783-296.642-283.771-296.632-283.767z
	 M-286.244-282.022l-5.202-0.436l0.157-0.696l4.53-0.318c0.132-0.009,0.242-0.104,0.271-0.232l0.342-1.486
	c0.652,0.133,1.341,0.23,1.98,0.303L-286.244-282.022z M-271.877-294.862c-0.364,0.021-1.354-0.451-1.967-0.796
	c-0.091-0.051-0.203-0.051-0.294,0c-0.086,0.049-2.136,1.167-3.444-0.997c-0.087-0.142-0.271-0.188-0.412-0.102
	s-0.187,0.27-0.102,0.412c0.281,0.465,0.594,0.799,0.917,1.043l-4.208,6.114c0.17-0.839,0.18-1.863-0.386-2.782
	c-0.086-0.14-0.27-0.186-0.413-0.098c-0.141,0.087-0.185,0.271-0.098,0.413c1.008,1.637-0.218,3.838-0.23,3.86
	c-0.045,0.08-0.052,0.176-0.017,0.261s0.106,0.149,0.194,0.175l3.025,0.88l0.089,1.275l-6.703,6.336l-0.674-0.137l4.965-5.8
	c0.075-0.087,0.093-0.209,0.047-0.315c-0.045-0.105-0.147-0.175-0.262-0.18c-0.033-0.001-2.535-0.113-4.406-0.524
	c-0.017-0.007-0.025-0.026-0.043-0.031c-0.018-0.004-0.033,0.009-0.051,0.009c-0.567-0.13-1.073-0.287-1.421-0.479
	c-1.138-0.629-1.798-1.127-2.248-2.104c-0.069-0.151-0.246-0.215-0.397-0.147c-0.151,0.069-0.217,0.247-0.147,0.397
	c0.526,1.147,1.344,1.723,2.285,2.257c-3.615,0.957-6.681,0.243-7.526,0.003c0.453-1.324,0.764-2.7,0.58-3.678
	c-0.031-0.163-0.186-0.267-0.351-0.239c-0.163,0.031-0.27,0.188-0.239,0.351c0.43,2.284-2.303,7.34-2.331,7.391
	c-0.078,0.143-0.027,0.322,0.114,0.404l4.672,2.684h-0.563l-6.566-2.179l0.843-4.971c0.026-0.152-0.068-0.299-0.217-0.34
	c-2.289-0.623-3.208-3.293-2.86-4.933c0.495-2.334,1.838-3.471,4.169-3.582h0.307c0.02,0,0.032-0.018,0.051-0.021
	c0.004,0,0.008,0,0.012,0l11.516,0.022c0.001,0,0.002,0,0.003,0c0.003,0,0.005-0.002,0.008-0.002
	c0.049-0.001,0.096-0.012,0.139-0.036l10.031-5.604c0.096-0.053,0.155-0.155,0.153-0.265l-0.007-0.746l5.58,6.217
	C-271.208-295.15-271.697-294.875-271.877-294.862z M-275.586-298.924c0.066-0.137,0.276-0.156,0.47-0.044
	c0.193,0.113,0.297,0.316,0.231,0.453c-0.066,0.138-0.276,0.157-0.47,0.044C-275.548-298.583-275.651-298.786-275.586-298.924z"/>
</svg>
