<?xml version="1.0" encoding="utf-8"?>
<!-- Generator: Adobe Illustrator 16.0.0, SVG Export Plug-In . SVG Version: 6.00 Build 0)  -->
<!DOCTYPE svg PUBLIC "-//W3C//DTD SVG 1.1//EN" "http://www.w3.org/Graphics/SVG/1.1/DTD/svg11.dtd">
<svg version="1.1" id="Layer_1" xmlns="http://www.w3.org/2000/svg" xmlns:xlink="http://www.w3.org/1999/xlink" x="0px" y="0px"
	 width="50px" height="50px" viewBox="-245.5 -315.5 50 50" enable-background="new -245.5 -315.5 50 50" xml:space="preserve">
<path d="M-200.089-295.597l-6.338-7.062c-0.084-0.093-0.215-0.124-0.332-0.08c-0.116,0.045-0.192,0.158-0.191,0.283l0.014,1.363
	l-0.143,0.08v-1.446c0-0.096-0.046-0.187-0.124-0.243c-0.078-0.056-0.177-0.072-0.27-0.042c-0.319,0.105-7.709,2.592-9.393,7.131
	h-0.424c-0.05-0.106-0.11-0.208-0.134-0.323c-0.003-0.016-0.02-0.022-0.025-0.037c0.001-0.034,0.01-0.066,0.01-0.101
	c0-0.166-0.134-0.3-0.3-0.3h-9.917c-0.166,0-0.3,0.134-0.3,0.3c0,0.156,0.033,0.303,0.046,0.456l-0.256-0.016
	c-0.124,0-0.232,0.017-0.351,0.021h-12.171c-0.166,0-0.3,0.134-0.3,0.3c0,0.388,0.169,0.75,0.502,1.074
	c0.832,0.811,2.7,1.334,4.714,1.334c0.1,0,0.199-0.001,0.299-0.004c0.863-0.022,1.876-0.148,2.755-0.332
	c-0.257,0.488-0.459,1.044-0.595,1.684c-0.33,1.556,0.254,3.492,1.574,4.685c-0.024,0.033-0.059,0.056-0.068,0.097l-0.678,3.003
	c-0.035,0.153,0.054,0.306,0.204,0.353l1.482,0.458l-0.327,1.926c-0.024,0.146,0.061,0.289,0.201,0.335l6.856,2.275
	c0.031,0.01,0.063,0.015,0.095,0.015h1.736c0.136,0,0.255-0.091,0.29-0.223c0.035-0.131-0.023-0.27-0.141-0.337l-5.396-3.1
	c0.025-0.047,0.056-0.108,0.086-0.167l3.505,1.023c0.027,0.008,0.056,0.012,0.084,0.012c0.057,0,0.113-0.016,0.163-0.047
	c0.073-0.047,0.122-0.124,0.134-0.21l0.185-1.288c0.019-0.134-0.053-0.264-0.177-0.318l-2.891-1.254
	c-0.009-0.004-0.019,0.002-0.028,0c0.14-0.33,0.28-0.678,0.413-1.035c0.532,0.158,1.976,0.527,3.946,0.527
	c1.321,0,2.872-0.168,4.524-0.68c0.023-0.007,0.031-0.031,0.051-0.042c0.23,0.083,0.487,0.156,0.757,0.225l-0.292,1.268
	l-4.531,0.318c-0.132,0.009-0.243,0.104-0.271,0.233l-0.282,1.25c-0.019,0.084-0.001,0.173,0.05,0.243
	c0.052,0.07,0.131,0.114,0.217,0.122l5.714,0.479c0.008,0.001,0.017,0.001,0.025,0.001c0.096,0,0.186-0.045,0.243-0.124l2.357-3.249
	c0.008-0.011,0.002-0.024,0.008-0.035c0.385,0.036,0.738,0.064,1.007,0.082l-4.902,5.727c-0.069,0.081-0.09,0.192-0.056,0.293
	c0.035,0.1,0.12,0.175,0.224,0.196l1.326,0.271c0.02,0.004,0.04,0.006,0.06,0.006c0.076,0,0.15-0.029,0.206-0.082l6.919-6.541
	c0.065-0.062,0.1-0.149,0.093-0.239l-0.113-1.625c-0.009-0.125-0.095-0.232-0.215-0.267l-2.686-0.781l3.794-5.512
	c1.859-0.248,3.396-0.786,4.367-1.497c0.509,0.247,1.168,0.525,1.577,0.525c0.02,0,0.039,0,0.058-0.002
	c0.499-0.037,1.501-0.748,1.697-0.891c0.069-0.05,0.113-0.126,0.122-0.211S-200.033-295.534-200.089-295.597z M-207.679-302.032
	v1.355l-8.368,4.675C-214.325-299.354-209.151-301.483-207.679-302.032z M-218.048-295.773c-0.154,2.441-2.18,4.379-4.648,4.379
	s-4.495-1.938-4.649-4.379H-218.048z M-235.487-293.508c-1.928,0.052-3.826-0.427-4.579-1.16c-0.116-0.112-0.2-0.228-0.254-0.345
	h9.329c-0.491,0.264-0.909,0.613-1.255,1.048C-233.178-293.718-234.47-293.535-235.487-293.508z M-231.837-283.91l0.585-2.592
	c0.298,0.202,0.615,0.38,0.97,0.502l-0.414,2.442L-231.837-283.91z M-226.632-283.767l2.681,1.163l-0.103,0.719l-3.069-0.896
	c0.142-0.29,0.302-0.629,0.471-1.007C-226.644-283.783-226.642-283.771-226.632-283.767z M-225.226-289.598
	c-0.031-0.163-0.188-0.267-0.351-0.239c-0.163,0.031-0.27,0.188-0.239,0.351c0.43,2.284-2.303,7.34-2.331,7.391
	c-0.078,0.143-0.027,0.322,0.114,0.404l4.672,2.684h-0.563l-6.566-2.179l0.843-4.971c0.026-0.152-0.068-0.299-0.217-0.34
	c-2.289-0.623-3.208-3.293-2.86-4.933c0.495-2.334,1.838-3.471,4.17-3.582h0.306c0.02,0,0.032-0.018,0.051-0.021
	c0.004,0,0.008,0,0.012,0l0.33,0.021c0.002,0,0.004-0.002,0.006-0.002c0.47,2.308,2.45,4.051,4.852,4.19v5.359
	c-1.37-0.086-2.377-0.332-2.809-0.455C-225.353-287.244-225.042-288.62-225.226-289.598z M-216.244-282.022l-5.202-0.436
	l0.157-0.696l4.53-0.318c0.132-0.009,0.242-0.104,0.271-0.232l0.342-1.486c0.652,0.133,1.341,0.23,1.98,0.303L-216.244-282.022z
	 M-211.387-289.188c0.169-0.839,0.18-1.863-0.386-2.782c-0.086-0.14-0.27-0.186-0.413-0.098c-0.141,0.087-0.185,0.271-0.098,0.413
	c1.008,1.637-0.218,3.838-0.23,3.86c-0.045,0.08-0.052,0.176-0.017,0.261s0.106,0.149,0.194,0.175l3.025,0.88l0.089,1.275
	l-6.703,6.336l-0.674-0.137l4.965-5.8c0.075-0.087,0.093-0.209,0.047-0.315c-0.045-0.105-0.147-0.175-0.262-0.18
	c-0.033-0.001-2.535-0.113-4.406-0.524c-0.017-0.007-0.025-0.026-0.043-0.031c-0.018-0.004-0.033,0.009-0.05,0.009
	c-0.567-0.13-1.073-0.287-1.422-0.479c-1.138-0.629-1.798-1.127-2.248-2.104c-0.068-0.151-0.248-0.215-0.397-0.147
	c-0.151,0.069-0.217,0.247-0.147,0.397c0.526,1.147,1.344,1.723,2.285,2.257c-1.508,0.399-2.92,0.511-4.117,0.483v-5.385
	c2.374-0.138,4.33-1.845,4.829-4.114c0.957,1.203,3.372,1.801,7.376,1.801c0.54,0,1.064-0.023,1.57-0.066L-211.387-289.188z
	 M-204.366-294.922c-0.749,0.406-1.769,0.746-3.003,0.956l0.705-1.023C-205.79-294.587-204.906-294.747-204.366-294.922z
	 M-201.877-294.862c-0.212,0.012-0.644-0.148-1.089-0.351c0.394-0.412,0.611-0.868,0.611-1.35c0-0.166-0.134-0.3-0.3-0.3
	s-0.3,0.134-0.3,0.3c0,0.359-0.207,0.725-0.583,1.069c-0.108-0.057-0.212-0.112-0.306-0.165c-0.091-0.051-0.203-0.051-0.294,0
	c-0.086,0.049-2.136,1.167-3.444-0.997c-0.086-0.142-0.27-0.188-0.412-0.102c-0.142,0.086-0.187,0.27-0.102,0.412
	c0.281,0.465,0.594,0.799,0.917,1.043l-0.997,1.449c-0.63,0.073-1.302,0.116-2.017,0.116c-3.418,0-5.636-0.43-6.64-1.275h0.163
	c0.001,0,0.002,0,0.003,0c0.003,0,0.005-0.002,0.008-0.002c0.048-0.001,0.096-0.012,0.139-0.036l10.031-5.604
	c0.096-0.053,0.155-0.155,0.153-0.265l-0.007-0.746l5.58,6.217C-201.208-295.15-201.697-294.875-201.877-294.862z M-205.586-298.924
	c0.066-0.137,0.276-0.156,0.47-0.044c0.193,0.113,0.297,0.316,0.231,0.453c-0.066,0.138-0.276,0.157-0.47,0.044
	C-205.548-298.583-205.651-298.786-205.586-298.924z"/>
</svg>
