<?xml version="1.0" encoding="utf-8"?>
<!-- Generator: Adobe Illustrator 16.0.0, SVG Export Plug-In . SVG Version: 6.00 Build 0)  -->
<!DOCTYPE svg PUBLIC "-//W3C//DTD SVG 1.1//EN" "http://www.w3.org/Graphics/SVG/1.1/DTD/svg11.dtd">
<svg version="1.1" id="Layer_1" xmlns="http://www.w3.org/2000/svg" xmlns:xlink="http://www.w3.org/1999/xlink" x="0px" y="0px"
	 width="50px" height="50px" viewBox="-35.5 -315.5 50 50" enable-background="new -35.5 -315.5 50 50" xml:space="preserve">
<path d="M7.76-288.942l-1.44-1.501c-0.055-0.058-0.13-0.091-0.21-0.092l-4.823-0.1l0.009-4.094c0.528-0.253,1.009-0.525,1.413-0.784
	c0.562-0.359,1.34-0.945,1.986-1.515c0.842,0.284,1.506,0.271,1.958-0.071c0.722-0.546,0.595-1.651,0.589-1.698
	c-0.012-0.097-0.07-0.182-0.156-0.228c-0.906-0.487-5.391-2.823-6.275-3.283l-0.133-2.389c-0.007-0.138-0.109-0.253-0.245-0.278
	c-0.14-0.025-0.272,0.047-0.328,0.173l-0.616,1.385l-0.187-1.551c-0.016-0.133-0.118-0.239-0.25-0.261
	c-0.133-0.018-0.262,0.048-0.319,0.168l-1.21,2.571c-0.833,0.512-1.296,1.757-1.606,2.59l-0.117,0.31
	c-0.208,0.534-0.383,0.993-0.534,1.387c-0.758,1.99-0.859,2.251-1.544,2.444c-0.03-0.024-0.059-0.049-0.088-0.075v-0.002
	c0-0.166-0.134-0.3-0.3-0.3h-0.175c0,0-0.001,0-0.002,0H-14.5c-0.166,0-0.3,0.134-0.3,0.3v0.013l-0.22-0.05
	c-1.522-0.342-4.057,0.012-5.752,1.34c-0.362,0.283-0.666,0.604-0.925,0.95c-0.018,0.001-0.032-0.013-0.05-0.009
	c-0.038,0.007-3.769,0.793-3.567,4.027c0.241,3.884-0.502,5.318-1.168,5.837c-0.493,0.384-1.138,0.442-1.97,0.176
	c-0.107-0.035-0.225-0.005-0.304,0.074c-0.08,0.08-0.107,0.197-0.073,0.304c0.009,0.026,0.773,2.286,3.298,2.286
	c0.313,0,0.654-0.035,1.023-0.113c2.207-0.466,2.739-2.517,2.07-8.113c0.074,0.267,0.169,0.573,0.297,0.98
	c0.129,0.413,0.292,0.928,0.493,1.6l-0.443,3.991c-0.006,0.052,0.002,0.105,0.023,0.153l2.806,6.408
	c0.047,0.107,0.152,0.178,0.27,0.18l1.621,0.03c0.001,0,0.003,0,0.005,0c0.096,0,0.186-0.045,0.243-0.123
	c0.058-0.08,0.073-0.182,0.041-0.274l-1.849-5.374c0.58-0.444,2.346-1.946,3.234-4.28l-0.168,3.434
	c-0.002,0.043,0.005,0.086,0.021,0.126l2.461,6.123c0.045,0.114,0.156,0.188,0.278,0.188h1.5c0.096,0,0.187-0.046,0.243-0.124
	c0.056-0.078,0.072-0.178,0.042-0.27l-1.823-5.528l0.522-1.08h5.953c0.166,0,0.3-0.134,0.3-0.3v-2.593
	c0.852-0.132,1.755-0.303,2.704-0.52l2.508,3.966l0.416,6.287c0.01,0.157,0.141,0.28,0.299,0.28h1.321c0.166,0,0.3-0.134,0.3-0.3
	v-10.073c1.391-0.252,2.626-0.76,3.322-1.095l-1.092,4.556c-0.021,0.085-0.003,0.175,0.048,0.246l0.78,1.08
	c0.057,0.079,0.147,0.124,0.243,0.124c0.011,0,0.022,0,0.033-0.001c0.107-0.012,0.2-0.081,0.243-0.18l3.061-7.143
	C7.867-288.727,7.843-288.855,7.76-288.942z M1.297-295.396l0.003-1.513c0.834,0.237,1.678,0.16,2.298,0.027
	C2.959-296.379,2.173-295.846,1.297-295.396z M-4.173-297.987c0.15-0.394,0.324-0.851,0.532-1.383l0.121-0.318
	c0.29-0.778,0.727-1.955,1.416-2.322c0.057-0.03,0.103-0.079,0.13-0.137l0.805-1.711l0.192,1.595
	c0.016,0.134,0.12,0.241,0.253,0.261c0.13,0.018,0.264-0.052,0.318-0.175l0.553-1.244l0.074,1.319
	c0.006,0.106,0.067,0.201,0.161,0.25c0,0,4.971,2.588,6.271,3.279c0.002,0.25-0.037,0.751-0.362,0.998
	c-0.234,0.178-0.61,0.199-1.091,0.081c0.442-0.44,0.732-0.824,0.668-1.016c-0.052-0.156-0.219-0.242-0.379-0.19
	c-0.1,0.033-0.171,0.114-0.196,0.209c-0.075,0.121-0.334,0.412-0.732,0.785c-0.008-0.003-0.015-0.004-0.022-0.008
	c-0.074-0.031-0.159-0.031-0.233,0c-0.024,0.011-2.505,1.032-3.997-0.431c-0.117-0.115-0.307-0.114-0.424,0.004
	c-0.116,0.118-0.114,0.308,0.004,0.424c0.257,0.253,0.539,0.427,0.826,0.571c-0.001,0.011-0.012,0.018-0.012,0.03l-0.004,2.006
	c-0.675,0.298-1.389,0.538-2.125,0.66c-1.574,0.263-3.007-0.04-4.277-0.88C-5.072-295.63-4.859-296.186-4.173-297.987z
	 M-24.631-281.585c-1.974,0.418-2.947-0.576-3.364-1.239c0.741,0.112,1.371-0.03,1.882-0.428c1.134-0.884,1.605-3.019,1.398-6.347
	c-0.128-2.066,1.653-2.942,2.567-3.254c-0.182,0.372-0.309,0.771-0.389,1.189c-0.938,0.827-0.526,2.402-0.515,2.429
	C-22.241-282.641-23.288-281.869-24.631-281.585z M-19.454-281.901c-0.112,0.076-0.16,0.218-0.116,0.347l1.781,5.177l-1-0.019
	l-2.697-6.159l0.441-3.971c0.004-0.04,0-0.081-0.011-0.119c-0.21-0.704-0.378-1.24-0.513-1.667c-0.412-1.31-0.486-1.546-0.466-2.473
	c0.029-1.347,0.578-2.448,1.632-3.273c1.549-1.214,3.861-1.538,5.251-1.227l0.352,0.081v7.58c-0.338-0.404-0.346-0.727-0.347-0.741
	c0.001-0.033-0.023-0.055-0.032-0.085c0.018-0.842-0.095-1.748-0.401-2.716c-0.05-0.158-0.221-0.245-0.376-0.196
	c-0.158,0.05-0.246,0.219-0.196,0.376C-14.382-285.393-19.246-282.041-19.454-281.901z M-12.019-276.549h-0.883l-2.361-5.874
	l0.225-4.582c0.07,0.067,0.154,0.133,0.238,0.2v3.554c0,0.166,0.134,0.3,0.3,0.3h1.214l-0.449,0.928
	c-0.034,0.07-0.039,0.15-0.015,0.224L-12.019-276.549z M-6.966-283.55H-14.2v-11.983h7.234V-283.55z M0.582-276.43h-0.74
	l-0.402-6.083c-0.003-0.05-0.019-0.098-0.046-0.14l-2.613-4.118c0.271,0.16,0.551,0.306,0.857,0.412
	c0.952,0.332,1.973,0.369,2.944,0.255V-276.43z M4.416-282.197l-0.389-0.539l1.212-5.059c0.028-0.116-0.016-0.238-0.112-0.31
	s-0.225-0.079-0.329-0.02c-0.04,0.022-3.977,2.243-6.965,1.2c-1.242-0.433-2.163-1.382-2.736-2.821
	c-0.061-0.153-0.235-0.227-0.39-0.167c-0.154,0.062-0.229,0.236-0.167,0.39c0.446,1.118,1.099,1.956,1.923,2.539
	c-0.031-0.002-0.061-0.009-0.091-0.001c-0.963,0.223-1.876,0.397-2.738,0.534v-8.606c1.258,0.938,2.572,1.292,3.83,1.292
	c1.157,0,2.261-0.298,3.232-0.697l-0.009,4.122c0,0.164,0.13,0.297,0.293,0.3l4.993,0.103l1.217,1.268L4.416-282.197z
	 M1.223-299.994c0-0.259,0.21-0.469,0.469-0.469s0.469,0.21,0.469,0.469s-0.21,0.469-0.469,0.469S1.223-299.735,1.223-299.994z
	 M-10.6-286.25c1.567,0,2.841-1.275,2.841-2.842c0-1.566-1.274-2.841-2.841-2.841s-2.841,1.274-2.841,2.841
	C-13.441-287.524-12.167-286.25-10.6-286.25z M-10.6-291.333c1.236,0,2.242,1.005,2.242,2.241c0,1.236-1.006,2.242-2.242,2.242
	s-2.242-1.006-2.242-2.242C-12.842-290.327-11.836-291.333-10.6-291.333z M-10.247-287.988c0.097-0.105,0.146-0.243,0.146-0.414
	c0-0.149-0.048-0.271-0.146-0.362c-0.085-0.079-0.193-0.124-0.324-0.133c-0.073-0.005-0.14-0.009-0.202-0.009
	c-0.063-0.001-0.102,0.001-0.12,0.006v-0.513c0.02,0.003,0.061,0.003,0.124,0.001c0.063-0.003,0.129-0.008,0.201-0.016
	c0.109-0.013,0.197-0.051,0.261-0.114c0.081-0.077,0.121-0.188,0.121-0.331c0-0.137-0.04-0.248-0.119-0.333
	c-0.079-0.084-0.184-0.127-0.314-0.127c-0.151,0-0.269,0.049-0.352,0.145s-0.126,0.232-0.129,0.41h-0.639
	c0.005-0.36,0.108-0.637,0.311-0.831s0.487-0.292,0.855-0.292c0.316,0,0.575,0.092,0.776,0.276c0.202,0.184,0.302,0.42,0.302,0.708
	c0,0.25-0.104,0.455-0.314,0.615l-0.094,0.063c0.081,0.03,0.152,0.071,0.213,0.121c0.202,0.156,0.302,0.392,0.302,0.706
	c0,0.347-0.109,0.622-0.328,0.825c-0.219,0.203-0.513,0.305-0.884,0.305c-0.382,0-0.679-0.101-0.889-0.301
	c-0.21-0.201-0.318-0.486-0.323-0.857h0.675c0.003,0.198,0.048,0.35,0.134,0.453s0.211,0.156,0.374,0.156
	C-10.471-287.831-10.344-287.883-10.247-287.988z"/>
</svg>
