<?xml version="1.0" encoding="utf-8"?>
<!-- Generator: Adobe Illustrator 16.0.0, SVG Export Plug-In . SVG Version: 6.00 Build 0)  -->
<!DOCTYPE svg PUBLIC "-//W3C//DTD SVG 1.1//EN" "http://www.w3.org/Graphics/SVG/1.1/DTD/svg11.dtd">
<svg version="1.1" id="Layer_1" xmlns="http://www.w3.org/2000/svg" xmlns:xlink="http://www.w3.org/1999/xlink" x="0px" y="0px"
	 width="50px" height="50px" viewBox="34.5 -315.5 50 50" enable-background="new 34.5 -315.5 50 50" xml:space="preserve">
<path d="M69.979-288.377c0.731-0.828,1.744-2.767,1.753-2.785c0.555-1.103,2.399-2.8,2.438-2.837c0.77-0.89,1.093-2.806,0.769-4.554
	c-0.379-2.043-1.548-3.682-3.291-4.614c-1.046-0.56-2.185-0.844-3.383-0.844c-2.68,0-4.739,1.396-4.825,1.456
	c-0.059,0.041-0.098,0.104-0.106,0.175c-0.009,0.071,0.014,0.143,0.061,0.196l1.399,1.589c-0.977,0.602-1.608,2.143-1.825,2.748
	c-0.57-0.179-0.959-0.15-1.181,0.079c-0.148,0.154-0.15,0.334-0.149,0.36c0,0.988,0.762,1.586,0.795,1.611
	c0.057,0.043,0.13,0.06,0.2,0.048c0.07-0.014,0.132-0.057,0.168-0.119c0.205-0.35,0.42-0.551,0.591-0.551
	c0.052,0,0.093,0.019,0.114,0.032c0.222,0.443-0.141,0.891-0.156,0.911c-0.058,0.07-0.073,0.167-0.039,0.252
	c0.033,0.085,0.11,0.145,0.201,0.156l0.975,0.12c0.077,0.013,0.149-0.016,0.203-0.067c0.055-0.052,0.082-0.125,0.076-0.2
	c-0.088-1.11,0.144-1.663,0.327-1.92c0.221,0.49,0.505,0.737,0.849,0.737c0.465,0,0.866-0.481,1.115-0.873
	c0.471,1.348-0.206,2.439-0.224,2.469c-0.475,0.587-1.383,0.885-2.697,0.885c-2.395,0-5.281-1.007-5.311-1.017
	c-2.313-0.816-3.326-1.078-4.174-1.078c-0.48,0-0.886,0.089-1.345,0.224c-0.261,0.076-0.898,0.284-1.222,0.389
	c-0.915-1.642-1.102-3.022-0.552-4.105c1.042-2.056,4.412-2.432,4.446-2.436c0.083-0.009,0.156-0.058,0.194-0.132
	c0.039-0.074,0.039-0.163-0.001-0.236l-2.207-4.075c-0.042-0.077-0.121-0.127-0.209-0.131c-4.292-0.172-5.955,2.624-6.459,3.808
	c-0.931,2.182-1.032,4.1-0.301,5.7c0.786,1.719,2.311,2.591,3.072,2.935c-2.396,2.293-0.965,5.412-0.761,5.821
	c0.077,0.628-0.055,1.143-0.391,1.527c-0.738,0.845-2.258,0.856-2.338,0.856c-0.001,0-0.003,0-0.004,0
	c-0.087,0-0.169,0.046-0.214,0.121c-2.187,3.625-2.417,10.711-2.426,11.011c-0.004,0.122,0.081,0.228,0.2,0.252
	c0.017,0.003,0.033,0.005,0.05,0.005c0.102,0,0.194-0.062,0.232-0.159c0.743-1.89,2.936-7.147,3.335-8.104
	c0.774-0.032,1.598-0.279,2.38-0.613c-0.073,1.269-0.273,6.395,1.144,8.703c0.046,0.075,0.127,0.119,0.213,0.119
	c0.021,0,0.041-0.002,0.062-0.008c0.106-0.027,0.183-0.121,0.188-0.23c0.17-3.456,0.485-7.229,0.737-7.934
	c0.678-0.096,3.55-0.677,4.985-3.517c2.659,0.061,5.685,0.728,6.57,0.938c-1.45,4.903,0.626,10.384,0.717,10.618
	c0.043,0.11,0.148,0.174,0.272,0.157c0.116-0.019,0.204-0.115,0.211-0.233c0.071-1.235,1.585-9.761,1.803-10.981
	c0.252-0.077,0.565-0.115,0.935-0.115c1.167,0,2.586,0.388,3.259,0.594c-0.771,0.661-2.628,1.92-3.383,2.417
	c-0.093,0.062-0.135,0.177-0.101,0.284c0.033,0.106,0.13,0.17,0.245,0.175c5.028-0.135,6.912-2.519,6.989-2.621
	c0.071-0.093,0.068-0.222-0.006-0.312C73.727-286.794,70.986-287.978,69.979-288.377z M52.292-283.184
	c-0.073,0.007-0.14,0.045-0.182,0.104c-0.394,0.554-0.692,5.074-0.817,7.29c-0.987-2.747-0.659-7.576-0.644-7.797
	c1.677-0.811,3.052-1.917,3.13-1.981c0.634-0.422,1.693-0.639,3.128-0.656C55.387-283.511,52.324-283.187,52.292-283.184z
	 M68.885-282.918c0.988-0.67,2.625-1.812,3.01-2.273c0.052-0.063,0.07-0.148,0.049-0.227c-0.022-0.079-0.081-0.142-0.158-0.169
	c-0.087-0.031-2.146-0.748-3.814-0.748c-0.497,0-0.916,0.065-1.246,0.194c-0.081,0.032-0.14,0.103-0.155,0.189
	c-0.061,0.339-1.276,7.142-1.697,10.048c-0.545-1.877-1.433-5.922-0.283-9.481c0.021-0.065,0.014-0.137-0.02-0.197
	c-0.033-0.061-0.09-0.104-0.157-0.122c-0.04-0.01-4.052-1.027-7.329-1.027c-1.632,0-2.837,0.251-3.601,0.761
	c-0.033,0.027-3.388,2.733-5.896,2.733c-0.101,0-0.191,0.061-0.23,0.154c-0.021,0.05-1.754,4.197-2.823,6.826
	c0.188-2.286,0.725-6.58,2.188-9.113c0.448-0.019,1.809-0.149,2.574-1.025c0.442-0.506,0.611-1.167,0.504-1.965
	c-0.005-0.03-0.014-0.059-0.028-0.086c-0.018-0.032-1.708-3.212,0.802-5.408l0.112-0.041c0.101-0.036,0.167-0.132,0.165-0.239
	c-0.002-0.107-0.071-0.201-0.174-0.234c-0.022-0.007-2.27-0.754-3.226-2.852c-0.669-1.466-0.565-3.246,0.307-5.291
	c0.451-1.056,1.898-3.513,5.605-3.513c0.076,0,0.153,0.001,0.232,0.003l1.968,3.634c-0.958,0.162-3.515,0.762-4.475,2.653
	c-0.651,1.283-0.428,2.884,0.665,4.76c0.06,0.103,0.186,0.15,0.294,0.111c0.001,0,1.048-0.345,1.4-0.448
	c1.185-0.346,1.776-0.367,5.212,0.846c0.121,0.042,2.995,1.045,5.477,1.045c1.473,0,2.512-0.36,3.102-1.092
	c0.043-0.066,1.025-1.632,0.066-3.44c-0.044-0.083-0.137-0.122-0.227-0.133c-0.095,0.002-0.18,0.058-0.22,0.143
	c-0.199,0.419-0.628,1.041-0.917,1.041c-0.166,0-0.355-0.278-0.506-0.745c-0.022-0.067-0.07-0.122-0.135-0.151
	c-0.064-0.029-0.138-0.029-0.202-0.002c-0.098,0.042-0.912,0.448-0.848,2.316l-0.299-0.037c0.129-0.29,0.222-0.719-0.034-1.159
	c-0.011-0.019-0.023-0.036-0.039-0.052c-0.02-0.02-0.199-0.19-0.486-0.19c-0.301,0-0.585,0.179-0.849,0.533
	c-0.174-0.205-0.401-0.563-0.396-1.035c0.044-0.044,0.198-0.136,0.888,0.126c0.063,0.025,0.137,0.023,0.198-0.009
	c0.063-0.03,0.109-0.084,0.13-0.151c0.206-0.666,0.952-2.471,1.92-2.827c0.078-0.028,0.136-0.093,0.156-0.173
	c0.021-0.08,0-0.165-0.055-0.227l-1.42-1.612c0.605-0.354,2.284-1.218,4.301-1.218c1.115,0,2.174,0.264,3.146,0.784
	c1.607,0.86,2.686,2.374,3.036,4.265c0.335,1.807-0.088,3.479-0.636,4.115c-0.078,0.072-1.932,1.776-2.529,2.965
	c-0.17,0.347-1.399,2.563-1.9,2.887c-0.08,0.052-0.123,0.144-0.112,0.238s0.073,0.174,0.163,0.207
	c0.036,0.013,3.502,1.28,5.015,2.911C73.985-284.667,72.315-283.225,68.885-282.918z M65.724-299.567
	c0.115,0.141,0.05,0.383-0.145,0.541c-0.194,0.159-0.444,0.173-0.56,0.033c-0.114-0.141-0.05-0.383,0.145-0.542
	C65.357-299.694,65.608-299.709,65.724-299.567z"/>
</svg>
