<?xml version="1.0" encoding="utf-8"?>
<!-- Generator: Adobe Illustrator 16.0.0, SVG Export Plug-In . SVG Version: 6.00 Build 0)  -->
<!DOCTYPE svg PUBLIC "-//W3C//DTD SVG 1.1//EN" "http://www.w3.org/Graphics/SVG/1.1/DTD/svg11.dtd">
<svg version="1.1" id="Layer_1" xmlns="http://www.w3.org/2000/svg" xmlns:xlink="http://www.w3.org/1999/xlink" x="0px" y="0px"
	 width="50px" height="50px" viewBox="104.5 -315.5 50 50" enable-background="new 104.5 -315.5 50 50" xml:space="preserve">
<path fill="#020202" d="M129.545-283.999c0.638,0.61-0.204,0.644-0.39,0.742c-0.697,0.375-1.101,1.272-3.067,0.775
	c-0.629-0.159-2.486-0.775-2.486-0.775c-1.049-0.329-1.029-1.951-0.832-3.251c0.558-0.077,1.251-0.222,1.929-0.483
	c-0.213,0.605-0.353,1.082-0.353,1.082c-0.708,1.769,0.247,1.7,0.711,1.824c2.968,0.791,2.825,0.369,2.825,0.369
	c-0.318-0.318,0.192-0.713,0.192-0.713C128.437-284.582,129.251-284.279,129.545-283.999z M141.804-293.938
	c1.891,1.743,1.83,6.256,8.648,4.827c0,0-1.034-1.495-3.481-2.382c-0.581-0.211-1.412-0.788-1.613-1.87
	c-0.229-1.231-1.547-4.451-4.691-1.759c-0.323,0.276-0.295,0.476-1.65,0.403c0,0-2.69-0.988-6.781,0.366
	c-1.389,0.46-3.922,1.026-5.682-1.393c0,0-1.034-2.059-2.57-3.972c-0.114-0.142-0.229-0.283-0.348-0.421
	c-0.107-0.125-0.215-0.249-0.326-0.371c-1.074-1.181-2.325-2.173-3.61-2.384l-1.209-1.54c0,0,0.027,0.755-0.013,0.97
	c-0.029,0.161-0.267,0.533-0.267,0.533s-1.664,0.488-2.934,1.857c0,0-2.236,0.46-1.956,1.564c0,0,0.284,0.625,0.644,0.927
	c0.283,0.237,0.367,0.372,1.451,0.053c0.882-0.26,1.792,0.144,3.623-0.626c0,0-0.366,4.508,0.99,6.635c0,0-0.444,0.888-0.515,1.209
	c-0.285,1.318-0.146,1.979,0.845,3.739c0,0-6.818,7.624-7.331,8.871c0,0-1.063,0.806-0.294,0.917l1.247-0.037
	c0,0,0.989,0,0.879-0.953c0,0-0.072-0.44-0.257-0.44c0,0,4.49-3.647,6.513-5.384c0.791-0.024,4.564-0.278,5.617-2.908
	c0.062-0.154,0.104-0.29,0.141-0.42c0.053,0.208,0.033,0.495-0.11,0.903c-0.104,0.294-0.253,0.551-0.426,0.788
	c2.051,0.137,5.795,0.186,7.254-1.116c0,0,0.407,2.358,1.724,3.738c0.296,0.312,0.696,0.99-0.478,1.65c0,0-3.483,2.419-3.922,3.886
	c0,0-0.44,0.366,0.696,0.366c0,0,1.576,0.147,1.027-1.137c0,0,2.968-2.309,3.628-2.639c0,0,1.87-0.55,0.77-2.383
	c0,0-0.599-1.637,0.28-2.679c-0.874-0.321-2.106-0.95-3.059-2.48c0,0,1.264,1.812,3.887,1.973c0.296-0.047,0.701-0.007,1.201,0.327
	c0.409,0.274,0.902,0.547,1.449,0.869c0.705,0.414,1.5,0.908,2.326,1.587c0.914,0.751,1.749,2.383,2.152,4.215
	c0,0,0.326,0.746,1.256,0.88c0.133,0.019,0.515,0.146,0.515,0.146s0.91,0.908,0.952,0.073c0.025-0.524-0.229-1.495-1.539-1.429
	l-0.272,0.04c0,0-0.608-1.663-1.23-3.705c0,0-0.381-1.361-2.439-2.655c-0.623-0.392-1.042-0.424-1.08-2.843
	c0,0,0.149-2.495-0.807-4.105C140.481-293.906,140.811-294.853,141.804-293.938z"/>
</svg>
