<?xml version="1.0" encoding="utf-8"?>
<!-- Generator: Adobe Illustrator 16.0.0, SVG Export Plug-In . SVG Version: 6.00 Build 0)  -->
<!DOCTYPE svg PUBLIC "-//W3C//DTD SVG 1.1//EN" "http://www.w3.org/Graphics/SVG/1.1/DTD/svg11.dtd">
<svg version="1.1" id="Layer_1" xmlns="http://www.w3.org/2000/svg" xmlns:xlink="http://www.w3.org/1999/xlink" x="0px" y="0px"
	 width="50px" height="50px" viewBox="174.5 -315.5 50 50" enable-background="new 174.5 -315.5 50 50" xml:space="preserve">
<path fill="#020202" d="M214.394-279.179c-3.614-1.4-3.044-4.151-2.621-5.648c0.973-3.436,0.723-3.614,0.723-3.614
	c-0.18,2.079-4.201,4.428-4.201,4.428c-1.988,1.446-0.903,3.162-0.903,3.162c0.271,1.446-1.356,3.569-1.356,3.569
	c-0.27,1.943-1.987,3.479-1.987,3.479c0,2.124-1.942,1.671-1.942,1.671c-1.581,0,0.542-1.897,0.542-1.897
	c2.484-2.711,1.897-3.705,1.897-3.705c-0.542,0.858-3.208,3.569-3.208,3.569c0.046,0.226,0.091,0.497,0.091,0.497
	c-0.136,1.22-1.221,1.627-1.221,1.627c-2.846,0-1.038-1.355-1.038-1.355l4.563-5.105c-0.135-0.949,1.175-2.892,1.175-2.892
	c-0.226-1.084,0.452-4.292,0.452-4.292c-0.904,0.361-6.506-0.271-6.506-0.271c-3.66,0-5.016,1.897-5.016,1.897
	c-3.659,1.084-3.027,5.467-3.027,5.467c0.362,0.994,1.763,1.4,1.763,1.4c0.995,1.084-0.316,2.124-0.316,2.124
	c-1.762,0.135-2.169-2.169-2.169-2.169c-1.084-0.813-0.769-5.06-0.769-5.06c-0.405,0.452-1.941,3.705-1.941,3.705
	c0.135,1.265-0.724,1.445-0.724,1.445c0.226,0.543,0,1.537,0,1.537c-0.723,1.582-1.942,1.174-1.942,1.174
	c-1.13-0.678,0.858-2.847,0.858-2.847c0.271-1.716,2.757-6.958,2.757-6.958c0.271-0.406,0.992-1.49,0.992-1.49
	c0.182-1.4,1.04-4.699,1.04-4.699c-0.813-3.795,0.994-4.79,0.994-4.79c0.678-0.632,0.09-1.988,0.09-1.988
	c-0.046,0.679-0.542,0.679-0.542,0.679c-1.445,0.36-2.078-1.672-2.078-1.672l0.045-3.705c-1.038-1.582-0.181-2.666-0.181-2.666
	c0.813-0.497,0.227-1.175,0.227-1.175l-1.627-0.406l1.627-0.497l-0.136-2.034l0.768,1.537c0.497-0.271,2.26,0.225,2.26,0.225
	s1.264-1.897,1.354-2.033s-0.315,2.124-0.315,2.124c4.563,0.633,5.061,5.558,5.061,5.558c0.857,2.665,2.349,4.744,2.349,4.744
	c1.491,2.033,4.431,0.102,5.828-0.316c4.917-1.472,6.732,3.976,6.732,3.976c2.937,2.982,1.445,6.461,1.445,6.461
	C212.948-282.839,214.394-279.179,214.394-279.179z"/>
</svg>
