<?xml version="1.0" encoding="utf-8"?>
<!-- Generator: Adobe Illustrator 16.0.0, SVG Export Plug-In . SVG Version: 6.00 Build 0)  -->
<!DOCTYPE svg PUBLIC "-//W3C//DTD SVG 1.1//EN" "http://www.w3.org/Graphics/SVG/1.1/DTD/svg11.dtd">
<svg version="1.1" id="Layer_1" xmlns="http://www.w3.org/2000/svg" xmlns:xlink="http://www.w3.org/1999/xlink" x="0px" y="0px"
	 width="50px" height="50px" viewBox="244.5 -315.5 50 50" enable-background="new 244.5 -315.5 50 50" xml:space="preserve">
<path d="M273.685-282.18h-1.214c-1.433,0-0.991-1.065-0.991-1.065c-1.006,0.136-3.373-0.872-4.542-1.407
	c0.09-0.314,0.206-0.793,0.29-1.369c1.185,0.726,5.098,2.041,5.098,2.041C273.942-283.245,273.685-282.18,273.685-282.18z
	 M285.928-300.047c-0.57-0.489-1.801-1.642-2.316-1.911l-0.735-1.312l-0.331,1.312l-0.845-1.287l-0.037,1.851
	c0,0-5.379-1.237-8.787,5.208c0,0-3.382,0.441-5.295-0.221c0,0-4.338-2.206-8.014,0.882c0,0-7.206,4.78-8.896,1.104
	c0,0-0.295,4.779,4.484,3.823c0,0,3.239-0.722,3.875-2.95c-0.113,0.356-0.535,2.271,2.412,4.875
	c0.735,0.647,2.205,2.169,2.205,2.169s0.368,2.391,1.435,3.774c0,0,3.382,3.603,4.265,3.896c0,0-0.667,1.104,1.14,1.104h0.956
	c0,0,0.552-0.257-0.515-1.287c0,0-3.663-3.005-4.596-4.265c-0.253-0.34-0.589-1.213-0.073-1.69c0.329-0.738,0.495-1.439,0.558-2.092
	c-0.002-0.156,0.006-0.316,0.032-0.462c0.052-2.333-1.224-3.911-1.224-3.911c1.127,0.911,1.562,2.181,1.672,3.4
	c0.091,0.001,0.195,0.024,0.321,0.086c1.521,0.744,3.682,1.116,6.6,0.801c-0.66-1.059-1.03-2.475-1.03-2.475
	c0.695,1.425,1.324,2.122,1.753,2.471c0.458,0.241,2.223,1.148,3.303,1.372c0,0,0.772,1.397-2.536,1.25c0,0,0.367-1.029-1.471-1.029
	c-0.772,0-1.471,0.294,0.551,1.618c0,0,0.883,0.734,2.28,0.184c0,0,4.633-0.662,2.096-2.794c0,0-2.179-1.25-0.037-1.25
	c0.074,0,1.691-0.503,2.758-0.393c0,0,0.771-0.416,0.588,3.113c0,0-0.368,0.257,0.036,0.845c0,0,0.074,0.625-0.441,0.441
	c0,0-0.955-0.073,0.368,1.25c0,0,0.662,0.735,0.81-0.184l0.146-5.515c0,0,0.26-1.809-1.728-1.434
	c-0.636,0.119-2.023,0.79-2.316-1.164c-0.11-0.735-0.625-4.008,2.684-6.557c0,0,1.766,1.065,3.419,0.294c0,0,1.507,1.309,2.5,0.147
	C288.549-297.659,288.799-297.579,285.928-300.047z"/>
</svg>
