<?xml version="1.0" encoding="utf-8"?>
<!-- Generator: Adobe Illustrator 16.0.0, SVG Export Plug-In . SVG Version: 6.00 Build 0)  -->
<!DOCTYPE svg PUBLIC "-//W3C//DTD SVG 1.1//EN" "http://www.w3.org/Graphics/SVG/1.1/DTD/svg11.dtd">
<svg version="1.1" id="Layer_1" xmlns="http://www.w3.org/2000/svg" xmlns:xlink="http://www.w3.org/1999/xlink" x="0px" y="0px"
	 width="50px" height="50px" viewBox="314.5 -315.5 50 50" enable-background="new 314.5 -315.5 50 50" xml:space="preserve">
<path fill="#020202" d="M338.284-279.134c0.882,0.88-0.422,1.337-0.422,1.337h-0.809c-1.056,0.141-1.056-0.281-1.056-0.281
	c0-0.704,1.478-1.513,1.478-1.513v-1.02c-0.491-0.317-0.704-1.443-0.704-1.443c-1.223-0.995-2.328-3.456-2.707-4.366
	c0.752-0.368,1.312-0.762,1.723-1.162c-0.019,0.136,0.033,0.25,0.033,0.25l2.321,6.122
	C338.915-279.978,338.284-279.134,338.284-279.134z M345.818-288.769c0.021,0.057,0.047,0.104,0.065,0.172
	c0,0,0.809,2.076,1.76,2.639c0,0,0.105,0.808-0.704,1.512c-0.809,0.703-0.809,0.703-0.809,0.703s-1.583,1.125-1.232,2.393
	c0,0-0.635,1.054-0.036,1.688c0,0,0.495,0.246,0.948-0.634c0,0,1.129-0.774,0.248-1.23c0,0,0.072-0.669,0.738-1.126
	c0,0,2.431-2.252,2.71-2.885c0,0-0.106-0.672-0.424-1.262C347.587-287.43,346.532-288.105,345.818-288.769z M357.001-289.019
	c0,0-2.747-8.021-7.494-6.896c0,0-1.443,0.035-1.9-0.528c0,0-3.959-0.637-6.857,0.423c-1.757,0.642-4.682,0.388-7.216-1.971
	c0,0-4.535-4.609-7.809-3.659l-1.266-1.583l0.316,1.724l-1.126-1.337l0.526,1.831c-0.069,0.105-0.562,1.161-0.668,2.181
	c0,0-2.287,2.533-1.229,4.01c0,0,1.301,0.985,2.074-0.739c0,0,2.075-0.246,2.953-1.407c0,0,0.6,3.272,3.165,5.206
	c0,0-0.349,1.513,0.635,2.638c0,0,0.304,1.085-0.913,1.689c-0.85,0.422-2.287,1.337-2.042,3.202c0,0-0.245,2.498,0.39,3.271
	c0,0,0.279,2.04,1.157,1.97c0,0,0.285,0.28,0.285-1.021c0,0,0.175-1.056-0.669-1.232c0,0,0.174-1.02-0.282-1.512
	c0,0-0.177-1.83,1.126-2.604c0,0,2.321-0.739,2.991-1.443c0,0,0.233-0.317,0.483-0.257c0.604-0.07,3.229-0.568,3.013-3.968
	c0,0,0.77,1.524-0.531,3.1c0.199-0.08,0.504-0.124,1.009-0.071c0,0,5.065,0.634,7.739-1.301c0,0,0.195-0.09,0.423-0.038
	c-1.555-1.886-0.715-3.526-0.715-3.526c-0.887,2.477,2.881,4.844,4.125,5.545c-0.056-0.054-0.109-0.11-0.172-0.153
	c0,0,0.189,0.123,0.457,0.31c0.064,0.034,0.11,0.058,0.11,0.058l0.023,0.035c0.58,0.414,1.441,1.077,1.905,1.673
	c0,0,1.582,1.301,1.757,2.602l0.425,2.674c0,0-1.513,1.232-1.374,1.97c0,0-0.069,0.528,1.27,0.248c0,0,1.088-0.035,0.983-1.056
	c0,0-0.244-0.387,0.035-0.598c0,0,0.422,0-0.035-2.146c0,0,0.316-3.483-1.618-5.102c0,0-1.408-0.422-1.269-2.814
	c0,0,0.426-4.01-0.948-5.065c0,0-0.069-0.773,0.634-0.071c0,0,1.02,5.241,4.15,5.593c0,0-0.74-1.161-0.528-1.829
	C354.501-290.988,355.276-289.019,357.001-289.019z"/>
</svg>
