<?xml version="1.0" encoding="utf-8"?>
<!-- Generator: Adobe Illustrator 16.0.0, SVG Export Plug-In . SVG Version: 6.00 Build 0)  -->
<!DOCTYPE svg PUBLIC "-//W3C//DTD SVG 1.1//EN" "http://www.w3.org/Graphics/SVG/1.1/DTD/svg11.dtd">
<svg version="1.1" id="Layer_1" xmlns="http://www.w3.org/2000/svg" xmlns:xlink="http://www.w3.org/1999/xlink" x="0px" y="0px"
	 width="50px" height="50px" viewBox="314.5 314.5 50 50" enable-background="new 314.5 314.5 50 50" xml:space="preserve">
<path d="M349.172,341.045c0,0,0.089-0.555-0.376-1.421l-0.467-0.776c0,0,0.089-0.709-0.488-1.242l-0.11-1.51l-0.532,1.089
	l-0.355-1.089l-0.511,1.021c0,0-2.753,1.79-3.926,3.592c-0.204-0.073-0.401-0.161-0.475-0.256c-0.106-0.136-0.153-0.521-0.094-0.683
	c0.094-0.259,0.001-1.351,0.001-1.351c0.627-0.015,0.88-0.709,0.88-0.709l0.355,0.171c0.164-0.26,0.021-0.895-0.073-1.104
	c-0.534-1.194-1.761-0.49-1.761-0.49c-0.789,0.555-0.161,0.959-0.161,0.959c-0.351-0.01-1.398,0.201-1.847,0.363
	c-0.854,0.309-2.381,1.875-2.381,1.875c-0.776,0.762-0.354,1.458-0.354,1.458c0.177,0.403,1.449,1.162,2.013,1.483
	c-0.026-0.003-0.051-0.003-0.076-0.005c0,0-1.643-0.667-3.151,0.088c0,0-2.175-0.71-2.884,2.396c0,0-0.134,2.53-1.465,2.974
	c0,0,2.041,0.665,2.974-2.796c0,0-0.179-0.732,0.398-1.088c0,0-0.577,1.065,0.178,2.574c0,0,0.288,0.954-0.909,1.487
	c0,0-1.042,0.311-0.799,1.73c0,0-0.311,2.462,0.178,2.974c0,0,0.088,0.177-0.155,0.532c0,0-0.71,0.954,0.665,0.954
	c0,0,1.34-0.08,0.488-0.977c-0.582-0.613-0.776-0.555-0.443-3.351c0,0,0.399-0.909,0.731-0.977c0,0,1.687-0.354,2.063-1.375
	c0,0,0.688-0.111,0.399,1.043c0,0-1.176,1.131-0.355,1.708c0,0,1.465,1.375,1.82,1.486c0,0-0.066,0.333,0.178,0.555
	c0,0-0.399,0.178-0.333,0.467c0,0-0.333,0.599,0.909,0.599c0,0,1.176,0.044,0.222-0.843c0,0-0.11-1.11-0.843-1.288
	c0,0-1.375-1.242-0.665-1.996c0,0,1.131-1.043,1.309-1.931c0,0,2.241,0.466,3.772-0.066c0,0-0.288,1.31,0.222,2.196
	c0,0-0.089,1.842,0.267,2.219l0.044,1.598c0,0-0.332,0.577-0.089,0.976c0,0-0.311,0.711,0.178,0.733h1.109
	c0,0,0.377-0.199,0.021-0.399c0,0,0.511,0.133,0.467-0.222c0,0-0.222-0.844-0.666-1.132c0,0-0.177-1.421-0.044-2.175
	c0,0,0.532-2.041,0.754-3.15c0,0,1.109-1.509,0.977-2.552c-0.008-0.067-0.017-0.126-0.023-0.178
	c-0.005-0.035-0.009-0.064-0.013-0.094l0.169-3.612c0,0,0-1.331,0.932-1.286c0,0,0.334,0.51,0.821,0.731
	C347.841,340.955,348.396,341.754,349.172,341.045z M340.906,339.64c0,0,0.11,0.772,0.27,0.885c0,0-0.454-0.027-0.529-0.165
	c-0.059-0.108-0.082-0.614-0.082-0.614L340.906,339.64z M340.717,342.151c-0.403-0.558-1.267-1.226-1.267-1.226
	c-0.583-0.554,0.313-0.753,0.313-0.753l0.216,0.848c0.349,0.623,1.799,0.37,1.952,0.342
	C341.695,341.599,341.297,341.918,340.717,342.151z M339.5,323.035c-9.847,0-17.857,9.176-17.857,20.455
	c0,4.446,1.231,8.682,3.562,12.248c0.152,0.23,0.462,0.295,0.692,0.146l5.023-3.281c0.231-0.151,0.296-0.461,0.146-0.692
	c-1.585-2.427-2.423-5.339-2.423-8.42c0-7.419,4.871-13.455,10.857-13.455s10.857,6.036,10.857,13.455
	c0,3.081-0.838,5.993-2.423,8.42c-0.15,0.231-0.086,0.541,0.146,0.692l5.023,3.281c0.084,0.055,0.179,0.081,0.273,0.081
	c0.163,0,0.322-0.08,0.419-0.227c2.33-3.566,3.562-7.802,3.562-12.248C357.357,332.211,349.347,323.035,339.5,323.035z
	 M353.227,354.77l-4.188-2.735c1.519-2.502,2.318-5.444,2.318-8.544c0-7.971-5.319-14.455-11.857-14.455
	s-11.857,6.484-11.857,14.455c0,3.1,0.8,6.042,2.318,8.544l-4.188,2.735c-2.05-3.313-3.131-7.202-3.131-11.279
	c0-10.728,7.563-19.455,16.857-19.455s16.857,8.728,16.857,19.455C356.357,347.567,355.276,351.456,353.227,354.77z
	 M351.102,331.988c0.654,0.892,0.811,1.926,0.35,2.307c-0.461,0.383-1.366-0.031-2.021-0.924c-0.654-0.892-0.811-1.926-0.35-2.307
	C349.541,330.682,350.445,331.096,351.102,331.988z M354.5,340.502c0.053,1.13-0.38,2.07-0.964,2.1
	c-0.585,0.03-1.101-0.862-1.151-1.993c-0.052-1.129,0.38-2.069,0.964-2.1C353.934,338.479,354.448,339.371,354.5,340.502z
	 M329.92,331.064c0.461,0.381,0.305,1.415-0.35,2.307c-0.655,0.893-1.561,1.307-2.021,0.924c-0.461-0.381-0.305-1.415,0.35-2.307
	C328.555,331.096,329.459,330.682,329.92,331.064z M326.615,340.608c-0.051,1.131-0.566,2.023-1.151,1.993
	c-0.584-0.029-1.017-0.97-0.964-2.1c0.052-1.131,0.566-2.023,1.151-1.993C326.235,338.539,326.667,339.479,326.615,340.608z
	 M340.854,326.867c0,0.863-0.658,1.563-1.471,1.563c-0.813,0-1.471-0.699-1.471-1.563s0.657-1.563,1.471-1.563
	C340.195,325.305,340.854,326.004,340.854,326.867z"/>
</svg>
