<?xml version="1.0" encoding="utf-8"?>
<!-- Generator: Adobe Illustrator 16.0.0, SVG Export Plug-In . SVG Version: 6.00 Build 0)  -->
<!DOCTYPE svg PUBLIC "-//W3C//DTD SVG 1.1//EN" "http://www.w3.org/Graphics/SVG/1.1/DTD/svg11.dtd">
<svg version="1.1" id="Layer_1" xmlns="http://www.w3.org/2000/svg" xmlns:xlink="http://www.w3.org/1999/xlink" x="0px" y="0px"
	 width="50px" height="50px" viewBox="-315.5 -245.5 50 50" enable-background="new -315.5 -245.5 50 50" xml:space="preserve">
<path fill="#010101" d="M-304.621-230.636c0,0-0.076-1.824-0.114-1.976s0.912,1.482,0.912,1.482l0.228-1.482l1.559,2.09
	c2.774,0.646,8.436,5.244,8.436,5.244c2.09,2.318,6.879,1.482,6.879,1.482c3.99-1.559,8.322-0.038,8.322-0.038
	c5.852,1.481,4.408,7.6,4.408,7.6c-0.722,1.33-0.38,4.598-0.38,4.598c-2.546-2.052-1.33-7.296-1.33-7.296
	c-0.228-2.622-1.331-3.154-1.331-3.154s-0.152,0,0,0.19c1.528,1.911-0.304,5.206-0.304,5.206c-0.836,3.116,0.76,4.332,0.76,4.332
	c1.634,1.748,1.14,4.94,1.14,4.94c0.38,0.836,0.304,2.28,0.304,2.28c-0.342,0.379-0.266,1.026-0.266,1.026
	c0.608,1.406-0.304,1.52-0.304,1.52h-1.521c-0.836-0.266,0.608-1.444,0.608-1.444c0.266-0.342,0.114-0.798,0.114-0.798
	c-0.19-0.76-0.456-4.332-0.456-4.332c-0.722-0.684-1.862-3.079-1.862-3.079c-0.494-0.076-0.189,0.457-0.189,0.457
	c0.57,1.292-0.343,4.446-0.343,4.446c0.038,2.356-0.721,2.47-0.721,2.47c-0.57,0.418-0.342,0.874-0.342,0.874
	c0.456,0.684-0.152,0.95-0.152,0.95h-1.824c-0.722,0,0.038-0.721,0.038-0.721c0.608-0.267,1.216-1.179,1.672-2.28
	c0.456-1.103-0.114-5.282-0.114-5.282c-0.874-1.672-1.9-4.94-1.9-4.94c-0.57-0.684-2.014-0.038-2.014-0.038
	c-2.204,1.9-8.17,1.14-8.17,1.14c-1.748,0.342-0.38,6.574-0.38,6.574c0.57,1.672,0.342,3.23,0.342,3.23
	c-0.304,0.114-0.228,0.684-0.228,0.684c0.494,0.76,0.228,1.178,0.228,1.178h-1.862c-0.836-0.038,0.228-1.026,0.228-1.026
	c0.494-0.266,0.722-1.672,0.722-1.672c0-1.558-0.646-3.079-0.646-3.079c-0.456-0.456-0.342,1.406-0.342,1.406
	c0.114,1.786-0.228,2.85-0.228,2.85c-0.532,0.38-0.418,1.064-0.418,1.064c0.228,1.026-0.798,0.836-0.798,0.836
	c-1.253,0-1.368-0.152-1.368-0.152c-0.152-0.456,1.026-1.102,1.026-1.102c1.178-0.608,0.722-4.561,0.722-4.561
	c-0.456-2.09-0.912-6.156-0.912-6.156c-2.091-1.521-1.672-4.789-1.672-4.789c-1.787-1.102-3.268-6.118-3.268-6.118
	c-0.457-0.57-1.026-0.076-1.026-0.076c-0.532,1.14-2.204,1.102-2.204,1.102c-0.76,1.292-1.824,0.646-1.824,0.646
	c-1.179-1.026,0.76-3.496,0.76-3.496C-305.685-228.242-304.621-230.636-304.621-230.636z"/>
</svg>
