<?xml version="1.0" encoding="utf-8"?>
<!-- Generator: Adobe Illustrator 16.0.0, SVG Export Plug-In . SVG Version: 6.00 Build 0)  -->
<!DOCTYPE svg PUBLIC "-//W3C//DTD SVG 1.1//EN" "http://www.w3.org/Graphics/SVG/1.1/DTD/svg11.dtd">
<svg version="1.1" id="Layer_1" xmlns="http://www.w3.org/2000/svg" xmlns:xlink="http://www.w3.org/1999/xlink" x="0px" y="0px"
	 width="50px" height="50px" viewBox="-245.5 -245.5 50 50" enable-background="new -245.5 -245.5 50 50" xml:space="preserve">
<path fill="#010101" d="M-205.05-235.514l-0.167,1.673l1.339-1.394l-0.502,2.343c0.725,0.782,0.669,3.904,0.669,3.904
	c0.782,3.904-0.893,3.96-0.893,3.96c-1.562,0.055-1.562-1.841-1.562-1.841c-1.339-0.614-1.729-2.063-1.729-2.063
	c-0.055,2.121-1.395,4.519-1.395,4.519c-0.669,1.451,0.278,2.175,0.278,2.175c1.115,2.399-0.947,5.021-0.947,5.021
	c0.669,0.391,1.951,2.398,1.951,2.398c1.562,1.116,1.004,3.013,1.004,3.013c-0.558,2.9-3.124,4.685-3.124,4.685
	c-1.115,1.953-1.282,0-1.282,0c0.056-1.952,1.45-1.338,1.45-1.338c-0.056-0.502,0.725-1.171,0.725-1.171
	c1.284-1.673,0.557-3.571,0.557-3.571c-1.338-1.395-3.793-2.566-3.793-2.566c0.056,1.394-1.562,5.69-1.562,5.69
	c-1.061,2.008-0.334,3.794-0.334,3.794c0.502,0.334,0.949,1.45,0.949,1.45c0.112,1.004-1.563,0.613-1.563,0.613
	c-1.283,0-0.391-1.952-0.391-1.952c-1.227-0.391-0.39-2.064-0.39-2.064c0.893-2.958,0.724-8.033,0.724-8.033
	c-2.398,1.45-8.869-0.78-8.869-0.78c0,1.563-0.947,4.964-0.947,4.964c-0.224,6.191,3.123,6.694,3.123,6.694
	c0.892,0.948-0.724,1.004-0.724,1.004c-1.618,0-1.563-1.282-1.563-1.282c-1.115,0-2.064-4.017-2.064-4.017
	c-1.395-1.282-0.724-4.239-0.724-4.239c-0.278-2.064-1.841-2.175-1.841-2.175c-0.389,1.003-4.407,5.299-4.407,5.299
	c-1.339,2.623-0.335,5.577-0.335,5.577c0.335,1.283-1.228,0.615-1.228,0.615c-1.338-0.948-0.278-1.451-0.278-1.451
	c0.224-0.335-0.224-1.059-0.224-1.059c-0.669-1.338,1.06-4.351,1.06-4.351c0.224-3.291,1.339-3.18,1.339-3.18
	c1.505-1.338,0.947-3.179,0.947-3.179c-1.115-3.402,0-5.579,0-5.579c-2.008,0.391-1.896,3.18-1.896,3.18
	c-1.06,6.861-3.96,5.746-3.96,5.746c2.064-0.781,1.228-4.742,1.228-4.742c0.167-6.75,5.355-5.3,5.355-5.3
	c1.673-2.455,6.526-1.673,6.526-1.673c1.117,0.557,5.41,0.782,5.41,0.782c3.514-0.502,5.913-5.076,5.913-5.076
	c3.514-5.913,6.917-3.403,6.917-3.403L-205.05-235.514z"/>
</svg>
