<?xml version="1.0" encoding="utf-8"?>
<!-- Generator: Adobe Illustrator 16.0.0, SVG Export Plug-In . SVG Version: 6.00 Build 0)  -->
<!DOCTYPE svg PUBLIC "-//W3C//DTD SVG 1.1//EN" "http://www.w3.org/Graphics/SVG/1.1/DTD/svg11.dtd">
<svg version="1.1" id="Layer_1" xmlns="http://www.w3.org/2000/svg" xmlns:xlink="http://www.w3.org/1999/xlink" x="0px" y="0px"
	 width="50px" height="50px" viewBox="-175.5 -245.5 50 50" enable-background="new -175.5 -245.5 50 50" xml:space="preserve">
<path fill="#131313" d="M-134.449-221.649c-0.884-0.946-2.614-1.482-5.098-0.915c0,0-2.832-2.962-7.275-1.743
	c0,0-4.749,1.481-7.45-0.784c0,0-2.544-2.106-3.311-3.877c-0.985-2.275-3.398-5.924-8.582-4.967l-1.395-1.742l-0.043,1.307
	l-0.915-1.002l0.508,2.178c0,0-0.989,0.349-1.221,5.461c0,0-0.638,3.136,0.756,3.485c0,0,1.453,0.582,1.917-1.335
	c0,0,1.742-1.163,1.655-2.6c0,0,0.697-0.567,0.697,2.048c0,0-0.218,2.135,0.74,3.528c0,0,0.218,1.525-0.479,2.048
	c0,0-0.784,1.438,0.479,2.483c0,0,0.479,0.653-0.872,0.653c0,0-2.396-0.653-2.353,1.22c0,0-1.176,1.524,0.871,2.57l1.961,1.22
	c0,0,0.871,0.392,2.875,0.305l0.043-0.392c0,0,1.525,0.435,0.784-1.046l-0.13-0.566c0,0,1.743,0.523,1.743-0.566
	c0,0,7.231,2.396,10.717,0.087c0,0,1.089-0.566,1.351,0.131c0,0,0.131,2.439,6.579,2.308c0,0,0.522-0.086,0.479,0.828
	c0,0-0.872,3.921,0.392,5.271c1.264,1.351,1.699,1.787,1.83,0.916l0.043-1.003c0,0,0.479-0.174,0.349-1.83
	c0,0-0.436-0.348-0.916-0.13c0,0-0.392-3.137,0.305-4.575c0,0,1.177-1.96-0.958-2.178c0,0-1.568,0.393-1.307-0.784
	c0,0,2.526-3.355,1.002-5.837c0,0,0.174-0.523,0.915,0.218c0,0,5.968,4.53,6.927,0.653
	C-130.833-220.604-133.624-220.766-134.449-221.649z M-164.815-215.506c0,0,1.743,0.522,2.091,1.481
	C-162.724-214.025-164.031-213.938-164.815-215.506z"/>
</svg>
