<?xml version="1.0" encoding="utf-8"?>
<!-- Generator: Adobe Illustrator 16.0.0, SVG Export Plug-In . SVG Version: 6.00 Build 0)  -->
<!DOCTYPE svg PUBLIC "-//W3C//DTD SVG 1.1//EN" "http://www.w3.org/Graphics/SVG/1.1/DTD/svg11.dtd">
<svg version="1.1" id="Layer_1" xmlns="http://www.w3.org/2000/svg" xmlns:xlink="http://www.w3.org/1999/xlink" x="0px" y="0px"
	 width="50px" height="50px" viewBox="-105.5 -245.5 50 50" enable-background="new -105.5 -245.5 50 50" xml:space="preserve">
<path d="M-62.25-227.525c0,0-0.641-6.583-1.539-7.566l-0.384-2.223l-1.467,1.996c0,0-6.042-1.938-9.462,6.953
	c0,0-3.484,6.176-9.689,4.217c-1.961-0.618-3.647-2.28-7.865,2.394c0,0-7.639,0-5.929,9.576c0,0,2.85-1.368,3.648-5.244
	c0,0,0.57-2.964,2.052-2.622c0,0-1.026,4.674,4.787,7.067c0,0,0.115,1.482-0.797,2.166c0,0-1.141,1.71,2.279,2.964
	c0,0,3.377,1.481,4.061,2.764c0,0,0.684,0.427,1.625,0.256c0,0-0.385,1.111,1.24,1.111c0,0,1.411,0.214,1.411-0.513
	c0,0-0.47-1.196-1.368-1.325c0,0-1.154-1.625-2.693-1.753c0,0-2.607-0.299-2.522-2.779c0,0,1.667-2.821,1.282-5.3
	c0,0,8.763,1.838,11.499-0.257c0,0,0.214,0.897,0.983,0.854l0.085,0.685c0,0-0.513,0.042-0.727,0.598c0,0-0.128,0.385,0.641,0.342
	v0.813c0,0,0.043,0.727,1.411-0.171c0,0,2.607-0.342,3.462-1.881c0,0,3.719-1.582,2.607-3.334c0,0-0.727-1.625-2.479-1.196
	l-1.881,0.085c0,0,1.069-1.838-0.213-3.505c0,0,1.282-4.574,0.983-7.267c0,0,0.897,2.266,2.009,2.607c0,0-0.128,1.667,2.009,1.496
	C-63.19-225.516-61.822-225.645-62.25-227.525z M-66.566-216.24c-0.599,0.984-2.608,1.44-2.608,1.44
	C-68.833-215.455-66.566-216.24-66.566-216.24z"/>
</svg>
