<?xml version="1.0" encoding="utf-8"?>
<!-- Generator: Adobe Illustrator 16.0.0, SVG Export Plug-In . SVG Version: 6.00 Build 0)  -->
<!DOCTYPE svg PUBLIC "-//W3C//DTD SVG 1.1//EN" "http://www.w3.org/Graphics/SVG/1.1/DTD/svg11.dtd">
<svg version="1.1" id="Layer_1" xmlns="http://www.w3.org/2000/svg" xmlns:xlink="http://www.w3.org/1999/xlink" x="0px" y="0px"
	 width="50px" height="50px" viewBox="-35.5 -245.5 50 50" enable-background="new -35.5 -245.5 50 50" xml:space="preserve">
<path fill="#131313" d="M-7.333-229.343c2.094-3.915,8.466-8.057,8.466-8.057l1.047-2.093l0.729,2.23l1.092-2.23l0.228,3.095
	c1.183,1.092,1.002,2.549,1.002,2.549l0.956,1.593c0.956,1.775,0.773,2.913,0.773,2.913c-1.593,1.457-2.731-0.182-2.731-0.182
	c-1.001-0.455-1.685-1.502-1.685-1.502c-1.912-0.091-1.912,2.641-1.912,2.641l-0.364,7.784c0,0-0.163-1.713,0.042-0.183
	c0.014,0.105,0.032,0.226,0.049,0.364c0.272,2.139-2.003,5.234-2.003,5.234c-0.455,2.276-1.547,6.463-1.547,6.463
	c-0.273,1.548,0.091,4.461,0.091,4.461c0.911,0.592,1.366,2.321,1.366,2.321c0.091,0.728-0.956,0.455-0.956,0.455
	c0.728,0.41-0.046,0.819-0.046,0.819h-2.276c-1.001-0.046-0.364-1.502-0.364-1.502c-0.5-0.819,0.182-2.002,0.182-2.002l-0.09-3.278
	c-0.729-0.773-0.546-4.552-0.546-4.552c-1.047-1.82-0.455-4.506-0.455-4.506c-3.141,1.093-7.738,0.137-7.738,0.137
	c-0.364,1.821-2.685,3.96-2.685,3.96c-1.457,1.547,1.365,4.096,1.365,4.096c1.502,0.364,1.729,2.64,1.729,2.64
	c1.957,1.821-0.455,1.729-0.455,1.729c-2.549,0-1.866-1.229-1.866-1.229c-0.137-0.592,0.683-0.956,0.683-0.956
	c-0.501-0.455-0.365-1.138-0.365-1.138c-0.728-0.228-3.732-3.05-3.732-3.05c-1.684-1.183,0.729-3.504,0.729-3.504
	c0.591-2.368-0.82-2.14-0.82-2.14c-0.773,2.094-4.233,2.822-4.233,2.822c-0.683,0.137-1.502,2.003-1.502,2.003
	c-0.682,5.735-0.285,5.616,0.911,6.873c1.747,1.841-1.001,2.003-1.001,2.003c-2.822,0-1.366-1.958-1.366-1.958
	c0.5-0.728,0.318-1.092,0.318-1.092c-1-1.047-0.364-6.099-0.364-6.099c-0.5-2.913,1.639-3.55,1.639-3.55
	c2.458-1.093,1.866-3.05,1.866-3.05c-1.548-3.095-0.364-5.281-0.364-5.281c-1.184,0.729-0.819,2.231-0.819,2.231
	c-1.912,7.1-6.099,5.735-6.099,5.735c2.731-0.91,3.004-6.1,3.004-6.1c1.457-6.373,5.918-4.917,5.918-4.917
	c3.095-1.547,6.463-0.182,6.463-0.182C-9.608-225.884-7.333-229.343-7.333-229.343z"/>
</svg>
