<?xml version="1.0" encoding="utf-8"?>
<!-- Generator: Adobe Illustrator 16.0.0, SVG Export Plug-In . SVG Version: 6.00 Build 0)  -->
<!DOCTYPE svg PUBLIC "-//W3C//DTD SVG 1.1//EN" "http://www.w3.org/Graphics/SVG/1.1/DTD/svg11.dtd">
<svg version="1.1" id="Layer_1" xmlns="http://www.w3.org/2000/svg" xmlns:xlink="http://www.w3.org/1999/xlink" x="0px" y="0px"
	 width="50px" height="50px" viewBox="34.5 -245.5 50 50" enable-background="new 34.5 -245.5 50 50" xml:space="preserve">
<path fill="#131313" d="M65.172-239.231l0.894,1.966l0.536-1.907l0.357,2.085c2.146,1.728,1.609,2.622,1.609,2.622l1.431,1.668
	c1.252,1.372,0,2.325,0,2.325c-1.014,1.251-2.563-0.478-2.563-0.478c-1.314-0.061-1.968-0.477-1.968-0.477
	c0.833,1.788,0.357,5.245,0.357,5.245c2.263,1.014,1.788,3.337,1.788,3.337c0.18,2.979,3.933,1.37,3.933,1.37
	c2.325-0.596,3.934,2.682,3.934,2.682c1.131,0.894,0.895,2.861,0.895,2.861c0.357,2.146-0.895,1.729-0.895,1.729
	c-2.087-1.31-0.833-1.848-0.833-1.848c0.774-0.06,0.716-0.476,0.716-0.476c-0.776-0.596-2.087-3.04-2.087-3.04
	c-0.894-0.537-1.97,0.179-1.97,0.179c-1.787,1.43-4.466,1.073-4.466,1.073c-1.551-0.239-1.788,0.715-1.788,0.715
	c-1.072,1.728,0.179,4.231,0.179,4.231c0.715,0.773,1.014,2.444,1.014,2.444c0.238,2.682,2.146,4.767,2.146,4.767
	c1.726,1.609,0.475,2.027,0.475,2.027h-1.369c-1.135,0.06-0.656-1.848-0.656-1.848c-0.895-0.238-0.836-0.834-0.836-0.834
	l-1.548-4.351c-2.622-2.921-2.979-5.185-2.979-5.185c-1.668,1.609-7.568,1.012-7.568,1.012c-0.598,1.371-2.324,1.908-2.324,1.908
	c0.179,1.252-0.179,2.026-0.179,2.026c-1.193,2.145,2.146,2.324,2.146,2.324c1.489-0.12,3.04,2.742,3.04,2.742
	c1.011,1.669-1.313,1.133-1.313,1.133c-1.609,0-0.357-1.609-0.357-1.609c-0.12-0.774-1.727-1.311-1.727-1.311
	c-1.85,0.06-3.696-0.715-3.696-0.715c-0.357,3.039,2.204,4.172,2.204,4.172c1.609,1.788-0.832,1.489-0.832,1.489
	c-1.608-0.061-0.956-1.549-0.956-1.549c-1.907-0.536-2.203-4.469-2.203-4.469s1.43,1.669,0.059-0.239
	c-1.372-1.908-0.358-2.682-0.358-2.682c1.012-0.656,1.252-1.489,1.252-1.489c-3.994-1.667-4.051-5.423-4.051-5.423
	c-0.24-1.012-0.598,0.061-0.598,0.061c0.773,5.721-3.576,8.104-3.576,8.104c1.669-1.014,1.015-4.767,1.015-4.767
	c-0.299-4.588,3.098-6.377,3.098-6.377c2.085-4.887,10.191-3.04,10.191-3.04c3.218-0.299,3.458-2.919,3.458-2.919
	c0.475-8.343,6.437-9.06,6.437-9.06L65.172-239.231z"/>
</svg>
