<?xml version="1.0" encoding="utf-8"?>
<!-- Generator: Adobe Illustrator 16.0.0, SVG Export Plug-In . SVG Version: 6.00 Build 0)  -->
<!DOCTYPE svg PUBLIC "-//W3C//DTD SVG 1.1//EN" "http://www.w3.org/Graphics/SVG/1.1/DTD/svg11.dtd">
<svg version="1.1" id="Layer_1" xmlns="http://www.w3.org/2000/svg" xmlns:xlink="http://www.w3.org/1999/xlink" x="0px" y="0px"
	 width="50px" height="50px" viewBox="104.5 -245.5 50 50" enable-background="new 104.5 -245.5 50 50" xml:space="preserve">
<path d="M144.568-232.922l-0.108,1.966l0.859-1.68l-0.18,1.93c0.93,0.179,0.93,0.858,0.93,0.858
	c-0.715-0.429-0.536,0.214-0.536,0.214c0.644,0.572,1.967,4.683,1.967,4.683c-0.107,1.573-1.788,1.501-1.788,1.501
	c-0.93-0.143-1.381-1.593-1.787-2.181c-0.993-1.44-1.649-0.595-1.858-0.179c-1.141,2.265-2.619,3.078-3.184,4.219
	c-0.252,0.514-0.071,1.716-0.106,2.288c-0.103,1.82,1.573,2.752,1.573,2.752c2.681,1.538,3.074,6.471,3.074,6.471
	c0.644,1.859-0.25,1.859-0.25,1.859l-1.251-1.108c-0.573-0.857,0.429-1.036,0.429-1.036c-0.214-0.25-0.322-0.465-0.322-0.465
	c-0.751-4.79-2.762-4.539-3.753-4.826c-1.358-0.394-1.538,0.107-1.538,0.107c-0.32,2.431-1.93,3.79-1.93,3.79
	c-1.717,2.467-2.824,2.359-2.824,2.359c-0.465,0.036-0.966,0.25-0.966,0.25c-2.145,1.072-1.43-0.214-1.43-0.214l0.715-1
	c0.823-0.68,1.001,0.071,1.001,0.071c1.395-0.179,2.753-2.038,2.753-2.038c1.572-2.502,0.536-4.647,0.536-4.647
	c-5.934,1.18-8.58-0.786-8.58-0.786c-1.572-1.001-2.216,1.788-2.216,1.788c-0.823,1.644-0.608,2.538-0.608,2.538l3.11,2.466
	c1.573,1.108,1.144,2.646,1.144,2.646l-1.501-0.572c-0.75-0.25-0.106-1.072-0.106-1.072c-0.466-0.25-3.325-2.324-3.325-2.324
	c-2.109-0.822-1.108-2.252-1.108-2.252c1.037-2.288,0.035-2.109,0.035-2.109c-0.535,0.608-1.926,1.208-2.645,1.43
	c-2.559,0.792-2.539,3.61-2.539,3.61c-0.394,2.467-1.787,2.932-1.787,2.932c-1.073,1.251-1.216,0.179-1.216,0.179l0.286-1.465
	c0.179-0.966,0.965-0.5,0.965-0.5c0.858-0.858,1.122-3.396,1.216-4.576c0.091-1.143,0.601-1.258,1.001-1.43
	c0.604-0.259,2.288-1.287,2.288-1.287c-1.93-3.36-0.357-5.863-0.357-5.863c-1.572,0-1.858,2.002-2.503,2.646
	c-2.573,2.574-4.646,3.503-4.646,3.503c1.215-8.294,8.365-7.15,8.365-7.15c1.144-1.001,3.132-1.124,4.219-1.072
	c8.557,0.4,12.44-2.288,12.44-2.288c3.79-4.576,7.007-3.503,7.007-3.503L144.568-232.922z"/>
</svg>
