<?xml version="1.0" encoding="utf-8"?>
<!-- Generator: Adobe Illustrator 16.0.0, SVG Export Plug-In . SVG Version: 6.00 Build 0)  -->
<!DOCTYPE svg PUBLIC "-//W3C//DTD SVG 1.1//EN" "http://www.w3.org/Graphics/SVG/1.1/DTD/svg11.dtd">
<svg version="1.1" id="Layer_1" xmlns="http://www.w3.org/2000/svg" xmlns:xlink="http://www.w3.org/1999/xlink" x="0px" y="0px"
	 width="50px" height="50px" viewBox="174.5 -245.5 50 50" enable-background="new 174.5 -245.5 50 50" xml:space="preserve">
<path d="M214.177-236.646l-0.219,1.974l1.151-1.754l-0.493,2.248c1.097,1.588,0.769,3.289,0.769,3.289
	c1.366,4.386-0.165,4.387-0.165,4.387c-1.151,0.165-2.03-1.536-2.03-1.536c-0.931-0.604-1.424-1.974-1.424-1.974
	c-1.372,1.151-0.274,6.634-0.274,6.634c0.822,2.083-0.934,4.605-0.934,4.605s-0.602,0.165,0.222,0.274
	c0.822,0.109,3.397,2.631,3.397,2.631c2.795,1.151,2.795,6.744,2.795,6.744c0.493,2.137-0.107,1.972-0.107,1.972
	c-2.686-1.207-1.591-2.026-1.591-2.026c0.711-0.165,0.658-0.769,0.658-0.769c-0.876-0.493-1.151-3.125-1.151-3.125
	c-0.547-1.426-2.85-2.412-2.85-2.412c-2.082-1.042-1.701,0.055-1.701,0.055c1.809,1.755,0.878,2.796,0.878,2.796l-0.493,4.112
	c-0.219,2.137-1.208,2.302-1.208,2.302c-1.04,0-0.822-1.479-0.822-1.479c0-1.151,1.098-1.042,1.098-1.042
	c-0.164-0.767,0.383-1.151,0.383-1.151l-0.164-3.125c-0.931-1.151-2.796-3.674-2.796-3.674c-0.384-0.987-1.096-0.438-1.096-0.438
	c-3.566,2.303-9.925,0.603-9.925,0.603c0,1.754-0.987,3.071-0.987,3.071c-0.986,2.029-0.054,3.179-0.054,3.179l4.058,3.124
	c1.26,1.096,0.822,1.974,0.822,1.974h-1.59c-1.316,0-0.439-1.645-0.439-1.645c-1.038-0.275-4.494-2.795-4.494-2.795
	c-1.591-0.329-0.605-2.741-0.605-2.741c0-1.59-0.546-1.316-0.546-1.316c-0.219,0.767-1.591,2.576-1.591,2.576
	c-0.931,3.671,3.288,5.702,3.288,5.702c0.937,0.658,0.552,1.041,0.552,1.041h-1.48c-1.101,0-0.604-1.041-0.604-1.041
	c-1.205-0.053-2.742-3.015-2.742-3.015c-2.575-2.138-1.205-3.125-1.205-3.125c1.645-1.316,1.534-3.29,1.534-3.29
	c-3.454-3.345-2.575-6.744-2.575-6.744c-0.935-0.384-1.372,0.713-1.372,0.713c-0.931,7.128-4.056,7.182-4.056,7.182
	c-1.315-9.814,5.811-9.046,5.811-9.046c2.961-4.441,11.238-2.467,11.238-2.467c4.111-0.876,6.031-4.496,6.031-4.496
	c2.713-6.99,7.977-5.674,7.977-5.674L214.177-236.646z"/>
</svg>
