<?xml version="1.0" encoding="utf-8"?>
<!-- Generator: Adobe Illustrator 16.0.0, SVG Export Plug-In . SVG Version: 6.00 Build 0)  -->
<!DOCTYPE svg PUBLIC "-//W3C//DTD SVG 1.1//EN" "http://www.w3.org/Graphics/SVG/1.1/DTD/svg11.dtd">
<svg version="1.1" id="Layer_1" xmlns="http://www.w3.org/2000/svg" xmlns:xlink="http://www.w3.org/1999/xlink" x="0px" y="0px"
	 width="50px" height="50px" viewBox="244.5 -245.5 50 50" enable-background="new 244.5 -245.5 50 50" xml:space="preserve">
<path fill="#020202" d="M283.13-227.499c-0.743,0.558-1.413-0.297-1.413-0.297c-1.115,0.372-2.193-0.967-2.193-0.967
	c-0.483-0.111-0.855,0-0.855,0c-1.152,0.223-0.706,2.38-0.706,2.38c0.93,3.383-1.413,9.109-1.413,9.109
	c-0.967,1.265,1.339,2.045,1.339,2.045c1.189,0.483,1.562,2.082,1.562,2.082l1.821,5.986c0.224,0.855-0.892,0.632-0.892,0.632
	c-1.822-1.004-0.93-1.859-0.93-1.859c0.521-0.186,0.409-0.409,0.409-0.409c-0.335-0.112-0.521-0.372-0.521-0.372
	c-0.483-4.165-2.752-5.094-2.752-5.094c-2.119-0.781-1.896,0.521-1.896,0.521c0.148,2.082-0.558,2.231-0.558,2.231
	c-1.004,0.929-0.409,4.908-0.409,4.908c0.261,0.521,1.153,1.785,1.153,1.785c0.297,1.041-1.004,0.818-1.004,0.818
	c-2.009-0.446-1.413-1.748-1.413-1.748c0.223-0.372-0.112-0.781-0.112-0.781c-0.632-0.855,0.149-1.636,0.149-1.636l0.223-3.346
	c-0.483-1.413,0.335-4.313,0.335-4.313c-1.265,0-1.524-1.338-1.524-1.338c-1.041,0.818-6.619,0.521-6.619,0.521
	c-0.111,1.264-1.375,2.491-1.375,2.491c-0.967,1.153,1.189,3.532,1.189,3.532c1.636,0.855,2.231,3.495,2.231,3.495
	c0.26,1.376-1.302,0.409-1.302,0.409c-1.302-0.744-0.744-1.375-0.744-1.375c0.559-0.186,0.224-0.558,0.224-0.558
	c-0.818-0.037-0.818-0.855-0.818-0.855c-0.297-0.93-2.38-2.343-2.38-2.343c-1.524-1.078-0.78-2.082-0.78-2.082
	c0.354-0.747,0.42-1.332,0.367-1.777c3.354-0.374,3.478-4.462,3.478-4.462c-1.25,4.333-4.031,3.339-4.031,3.339
	c-0.669,2.083-3.755,2.863-3.755,2.863c-0.372,1.562-1.189,2.528-1.189,2.528l-0.298,2.9c0.595,0.223,0.446,1.562,0.446,1.562
	c0.372,0.074,0.967,1.116,0.967,1.116c0.223,1.041-1.115,0.818-1.115,0.818c-1.711,0-0.818-2.008-0.818-2.008
	c-1.041-0.744,0-5.057,0-5.057c-0.148-2.9,0.595-3.198,0.595-3.198c2.306-0.892,2.454-2.975,2.454-2.975
	c-1.339-4.09,0.446-5.726,0.446-5.726c-0.595-0.521-1.115,0.967-1.115,0.967c-0.893,5.578-4.016,7.362-4.016,7.362
	c-0.744-9.296,6.395-9.37,6.395-9.37c2.009-1.487,4.054-0.395,5.354-0.074c5.144,1.269,5.875-1.636,5.875-1.636
	c2.454-6.396,6.842-6.916,6.842-6.916l1.45-2.045l0.223,2.157l0.855-1.822l0.111,2.045c0.483,0.111,2.082,3.309,2.082,3.309
	C284.208-228.54,283.13-227.499,283.13-227.499z"/>
</svg>
