<?xml version="1.0" encoding="utf-8"?>
<!-- Generator: Adobe Illustrator 16.0.0, SVG Export Plug-In . SVG Version: 6.00 Build 0)  -->
<!DOCTYPE svg PUBLIC "-//W3C//DTD SVG 1.1//EN" "http://www.w3.org/Graphics/SVG/1.1/DTD/svg11.dtd">
<svg version="1.1" id="Layer_1" xmlns="http://www.w3.org/2000/svg" xmlns:xlink="http://www.w3.org/1999/xlink" x="0px" y="0px"
	 width="50px" height="50px" viewBox="314.5 -245.5 50 50" enable-background="new 314.5 -245.5 50 50" xml:space="preserve">
<path fill="#020202" d="M350.646-211.431c-1.021-0.373-2.472-0.966-2.738-3.383c0,0,0.322-4.673-6.338-7.948
	c0,0-4.174-0.666-4.672-6.766c-0.224-2.741-0.858-6.927-6.711-8.699l-0.805-1.343l-0.539,1.558c0,0-0.967-0.214-1.556,0.322
	l0.856,0.268c0,0-1.181,1.236-2.256,3.92c0,0-1.608,1.825,0.111,2.953c0,0,0.75,0.698,1.61-0.59c0,0,1.661,0.269,2.522-1.235
	c0,0-0.861,2.576-0.322,4.081c0,0-2.042,1.182-1.934,3.759c0,0-0.697-0.054-1.556-0.966c0,0-0.805-0.913-1.558,0.054
	c0,0-1.236,1.126-0.697,2.308l1.45,2.847c0,0,0.536,0.538,1.502,1.127c0,0,1.236,1.933,1.559,0.322c0,0,0.372,0.267,0.428-0.43
	l-0.105-0.751c0,0,0.44,0.147,1.045,0.166l-0.006-0.018c0,0,0.009,0.007,0.021,0.018c0.291,0.008,0.619-0.021,0.955-0.104
	c0.48-0.392,1.076-1.382,1.648-3.727c0,0,0.382,2.866-0.677,4.757c0.917,1.236,2.698,3.254,5.346,4.638
	c1.442-1.95,3.331-2.957,3.331-2.957c-2.211,1.929-3.022,4.189-3.322,5.561c-0.161,0.832-0.243,1.786-0.073,2.675
	c0,0-1.128,1.557-3.383,2.201c0,0-1.503,0.27-2.256,1.504c0,0-1.61,1.128,1.45,1.128c0,0,1.556-0.268,2.308-1.772
	c0,0,5.425-1.29,5.425-2.954c0,0-0.539-1.879,1.02-1.557c0,0,3.488-0.161,5.477-2.417c0,0-0.71,3.691,2.899,3.544
	c1.075-0.044,3.116-0.536,3.813,1.987C353.92-207.349,354.265-210.11,350.646-211.431z M325.891-223.621
	c0.979,1.826,1.261,2.712,1.261,2.712C326.104-221.714,325.891-223.621,325.891-223.621z"/>
</svg>
