<?xml version="1.0" encoding="utf-8"?>
<!-- Generator: Adobe Illustrator 16.0.0, SVG Export Plug-In . SVG Version: 6.00 Build 0)  -->
<!DOCTYPE svg PUBLIC "-//W3C//DTD SVG 1.1//EN" "http://www.w3.org/Graphics/SVG/1.1/DTD/svg11.dtd">
<svg version="1.1" id="Layer_1" xmlns="http://www.w3.org/2000/svg" xmlns:xlink="http://www.w3.org/1999/xlink" x="0px" y="0px"
	 width="50px" height="50px" viewBox="-175.5 -175.5 50 50" enable-background="new -175.5 -175.5 50 50" xml:space="preserve">
<path d="M-130.888-158.918c0.326,1.377,1.123,4.855,1.123,4.855c0.688,1.848-0.543,2.464-0.543,2.464
	c-1.522,0.326-1.559-1.45-1.559-1.45c-0.797-0.616-1.631-1.703-1.631-1.703c-1.993-1.123-1.775-2.645-1.775-2.645
	c-2.282-0.724-3.84,0.87-3.84,0.87c-0.145,0.725-0.617,1.703-0.617,1.703c1.015-0.253,3.225,0.435,3.225,0.435
	c2.247,0.797-1.087,4.929-1.087,4.929c-0.507,0.905-2.464,0.652-2.464,0.652c-1.739,0.362-1.848-0.145-1.848-0.145
	c0.362-1.305,1.083-1.451,1.486-1.196c0.357,0.226,1.087,0.145,1.087,0.145c1.377-0.942,1.521-2.356,1.521-2.356l-2.79,0.688
	c-1.957,1.269-2.573,0.616-2.573,0.616c-0.435-0.434-1.051-0.072-1.051-0.072c-2.428,1.124-6.558,0.436-6.558,0.436
	c-2.283-0.652-2.972,0.796-2.972,0.796c-0.688,1.703-4.855,4.928-4.855,4.928c-2.5,2.247-2.971,5.001-2.971,5.001
	c-0.109,2.391-1.414,5.252-1.414,5.252c-0.688,1.849-1.123,1.196-1.123,1.196l-0.435-1.159c-0.182-0.797,0.942-1.704,0.942-1.704
	c-0.362-0.29-0.218-0.833-0.218-0.833c0.906-0.725,1.123-4.458,1.123-4.458c0.036-1.92,0.833-2.718,0.833-2.718
	c2.283-1.956,1.976-3.064,1.595-4.094c-1.202-3.244-0.326-5.58-0.326-5.58c-2.029-0.037-2.754,6.414-2.754,6.414
	c-1.703,6.269-7.174,5.001-7.174,5.001c3.914-2.174,5.073-8.842,5.073-8.842c2.898-5.979,5.906-3.841,5.906-3.841
	c0.472-1.341,5.001-2.464,5.001-2.464c5.979-0.471,7.972-3.043,7.972-3.043c0.471-0.471,1.268-0.29,1.268-0.29
	c6.559-3.842,12.754,0.036,12.754,0.036c2.537-0.362,2.573,0.073,2.573,0.073C-131.36-159.752-131.021-159.476-130.888-158.918z"/>
</svg>
