<?xml version="1.0" encoding="utf-8"?>
<!-- Generator: Adobe Illustrator 16.0.0, SVG Export Plug-In . SVG Version: 6.00 Build 0)  -->
<!DOCTYPE svg PUBLIC "-//W3C//DTD SVG 1.1//EN" "http://www.w3.org/Graphics/SVG/1.1/DTD/svg11.dtd">
<svg version="1.1" id="Layer_1" xmlns="http://www.w3.org/2000/svg" xmlns:xlink="http://www.w3.org/1999/xlink" x="0px" y="0px"
	 width="50px" height="50px" viewBox="-105.5 -175.5 50 50" enable-background="new -105.5 -175.5 50 50" xml:space="preserve">
<path d="M-79.106-171.501c0.502-0.056,1.061,1.061,1.061,1.061l1.005-0.167c0.838-0.503,2.96-0.224,2.96-0.224
	c2.513-0.782,2.681,0.224,2.681,0.224c0.838,2.01-0.893,1.787-0.893,1.787c-1.229,2.178-2.514,2.458-2.514,2.458
	c6.312,2.737,6.507,9.55,6.507,9.55c2.988,0.308,2.569,0.81,2.569,0.81c2.457,0,1.871,2.29,1.871,2.29
	c-0.363,0.782-0.335,2.988-0.335,2.988c-0.363-0.083-0.502,0.615-0.502,0.615c-0.335,2.402-1.145,2.123-1.145,2.123
	c-1.424-2.039,0.307-2.737,0.307-2.737l0.028-0.837c0.81-0.615,0.475-2.625,0.475-2.625c-0.922-0.67-0.782,1.647-0.782,1.647
	c0.084,0.838-0.782,1.536-0.782,1.536c-0.223,0.754-0.949,1.592-0.949,1.592c-0.587,0.726-0.699-0.978-0.699-0.978
	c0.056-1.48,0.922-1.117,0.922-1.117c0-0.782,0.67-2.402,0.67-2.402c-3.547-0.167-4.021,1.257-4.021,1.257
	c-0.559,1.647-4.664,4.775-4.664,4.775c-1.704,1.089-1.173,2.122-1.173,2.122c0.838,1.424,0.14,2.988,0.14,2.988
	c-0.586,0.559-1.145,2.877-1.145,2.877c-1.145,2.234-1.368,4.244-1.368,4.244c0.838,3.519,2.234,3.994,2.234,3.994
	c1.647,0.167,1.704,1.731,1.704,1.731c-0.028,0.643-2.01,0.363-2.01,0.363c-0.559-0.056-0.308-1.229-0.308-1.229
	c-0.391,0.168-0.782,0.028-0.782,0.028c-0.922-0.753-2.905-5.501-2.905-5.501c-0.139,0.363,0.307,2.29,0.307,2.29
	c0.531,0.279,0.587,1.089,0.587,1.089c1.145,0.642,0.866,1.787,0.866,1.787c-1.396,0.195-1.676-0.782-1.676-0.782v-0.502
	l-0.195,0.112c-0.363-0.028-0.502-0.307-0.502-0.307c0.028-1.145-0.643-3.072-0.643-3.072c-1.117-2.262-0.558-2.541-0.558-2.541
	c1.731-3.016,0.865-3.546,0.865-3.546c-3.127-0.224-2.904-4.244-2.904-4.244c-5.027,12.584-12.399,7.147-12.399,7.147
	c3.128,0.894,5.511-2.458,5.511-2.458c3.706-5.565,2.607-5.584,5.827-6.144c0.936-0.162,1.173-0.67,1.173-0.67
	c0.391-1.34,1.334-2.412,2.011-3.016c2.732-2.441,4.468-5.25,4.468-5.25C-84.189-161.057-79.106-171.501-79.106-171.501z"/>
</svg>
