<?xml version="1.0" encoding="utf-8"?>
<!-- Generator: Adobe Illustrator 16.0.0, SVG Export Plug-In . SVG Version: 6.00 Build 0)  -->
<!DOCTYPE svg PUBLIC "-//W3C//DTD SVG 1.1//EN" "http://www.w3.org/Graphics/SVG/1.1/DTD/svg11.dtd">
<svg version="1.1" id="Layer_1" xmlns="http://www.w3.org/2000/svg" xmlns:xlink="http://www.w3.org/1999/xlink" x="0px" y="0px"
	 width="50px" height="50px" viewBox="-35.5 -175.5 50 50" enable-background="new -35.5 -175.5 50 50" xml:space="preserve">
<path d="M-17.6-161.466c0,0-1.033,1.55-2.422,1.712c0,0-0.162,1.647-1.841,0.743c-0.448-0.241-0.615-1.259-0.162-1.906l0.356-0.517
	c0,0,0.936-2.907,1.776-3.747c0,0,0.291-1.453,0-2.131c0,0,0.517,0.291,0.678,0.581c0,0-0.064-0.873-0.226-1.034
	c0,0,1.583,0.97,1.68,1.519c0,0,3.198-0.937,5.814,1.583c0,0-1.001-0.258-1.356-0.129c0,0,3.197,1.809,3.779,3.941
	c0,0-1.034-0.679-1.357-0.582c0,0,2.293,2.003,1.873,5.491c0,0,0.259,0.711,2.94,0.84c0,0,4.167,0.033,5.782,2.391
	c0,0,2.681-0.194,4.749,2.325c0,0,1.841,3.199,4.038,2.778c0,0-2.164,1.001-3.198,0.097c0,0,0.388,1.712,6.008,2.875
	c0,0-8.212,3.27-8.916-2.551c-0.111-0.922,0.258-3.844-1.712-3.295c0,0,0.905,3.037-3.392,5.912c0,0-1.001,1.163,0.097,3.65
	c0,0,0.55,1.744-1.615,1.97c0,0-2.003,0.84-2.843,2.616c0,0-0.71,0.355-1.26,0.355c0,0-0.387,1.421-1.13,1.195
	c0,0-2.067-0.193-1.292-1.034l0.291-0.452c0,0-1.001,0.258,0-1.066c0,0,0.484-0.614,2.326-0.582c0,0,0.355-0.775,2.164-1.518
	c0,0,1.228-0.614-0.323-3.198c0,0-0.743-2.229-1.227-2.584c0,0,0.097-1.292-0.388-1.841c0,0-3.295,1.905-8.561-2.778l-1.001,0.938
	c0,0-2.39-0.065-2.939-1.196c0,0-1.421,0.84-0.872,3.037c0,0,0.129,0.743-0.032,1.098c0,0,1.098-0.129,0.969,1.325
	c0,0,0.161,1.777-0.646,1.324c0,0-0.711-0.387-0.775-1.453c0,0-0.323-0.937-0.84-1.292c0,0-0.516-0.646,0.129-1.68
	c0,0,0.259-0.84,0.292-1.647c0,0,0.194-0.937,0.42-1.13c0,0-2.261-0.388-2.326,4.069l0.388,0.129c0,0,1.13,2.002-0.356,2.746
	c0,0-0.517,0.226-0.742-0.582l-0.162-1.745c0,0-0.775-1.454-0.194-2.681c0,0,0.839-1.001,1.098-2.681c0,0,0.065-1.324,2.294-0.97
	c0,0,1.776,0.582,3.165,0.033c0,0-0.101-2.627,0.938-3.974C-16.855-157.218-15.726-160.498-17.6-161.466z"/>
</svg>
