<?xml version="1.0" encoding="utf-8"?>
<!-- Generator: Adobe Illustrator 16.0.0, SVG Export Plug-In . SVG Version: 6.00 Build 0)  -->
<!DOCTYPE svg PUBLIC "-//W3C//DTD SVG 1.1//EN" "http://www.w3.org/Graphics/SVG/1.1/DTD/svg11.dtd">
<svg version="1.1" id="Layer_1" xmlns="http://www.w3.org/2000/svg" xmlns:xlink="http://www.w3.org/1999/xlink" x="0px" y="0px"
	 width="50px" height="50px" viewBox="34.5 -175.5 50 50" enable-background="new 34.5 -175.5 50 50" xml:space="preserve">
<path fill="#131313" d="M78.991-160.816l-0.21,1.679c0.713,0.714,0.797,6.423,0.797,6.423c0.252,2.435-0.923,2.226-0.923,2.226
	c-1.721-0.084-1.764-2.183-1.764-2.183c-0.839-0.168-1.974-2.268-1.974-2.268c-0.293,1.932-3.442,5.374-3.442,5.374
	c0.169,1.889-1.049,3.19-1.049,3.19c-0.883,0.672-0.462,1.092-0.462,1.092c1.344,0.336,2.896,1.679,2.896,1.679
	c0.798,2.645-0.63,3.778-0.63,3.778c-0.965,2.645-3.694,2.939-3.694,2.939c-1.595,1.007-1.553,0.083-1.553,0.083l0.63-1.217
	c0.714-1.008,1.302-0.126,1.302-0.126l0.336-0.168c0.336-0.546,2.099-1.889,2.099-1.889c0.377-0.839-0.042-0.881-0.042-0.881
	c-0.799,1.385-3.443,1.553-3.443,1.553c-1.722,0.881-0.336-1.217-0.336-1.217c1.051-1.176,1.134,0.168,1.134,0.168l0.545-0.084
	c0.38-0.504,1.302-1.259,1.302-1.259c-1.553,0.084-4.449-1.596-4.449-1.596c-8.061-1.931-12.679-5.583-12.679-5.583
	c-0.587-1.008-1.47-0.168-1.47-0.168c-0.924,2.771-6.506-0.504-6.506-0.504c-1.26-0.881-2.185-0.084-2.185-0.084
	c-0.546,2.813-2.98,3.443-2.98,3.443c-0.924,0.755-1.89,0.462-1.89,0.462c-0.587-0.546,0.505-1.637,0.505-1.637
	c0.713-0.42,0.755,0.251,0.755,0.251c0.505,0.168,1.05-0.923,1.05-0.923c-0.545,0.21-0.587-0.084-0.587-0.084
	c-2.395,1.301-1.387-0.461-1.387-0.461c0.588-1.26,1.218-0.546,1.218-0.546c0.336,0.504,0.714,0.126,0.714,0.126l2.393-3.778
	c0.672-1.302,1.806-0.21,1.806-0.21c1.217,1.511,2.016,0.966,2.016,0.966c0.125-4.324,2.099-4.912,2.099-4.912
	c0.882-0.63,0.042-0.63,0.042-0.63c-7.725,2.435-9.235-1.091-9.235-1.091c1.008,1.007,4.281-0.672,4.281-0.672
	c4.03-1.847,6.381,1.259,6.381,1.259c4.535-1.763,9.825,3.022,9.825,3.022c3.106,1.26,6.296-1.007,6.296-1.007
	c5.459-4.786,11.085-3.106,11.085-3.106L78.991-160.816z"/>
</svg>
