<?xml version="1.0" encoding="utf-8"?>
<!-- Generator: Adobe Illustrator 16.0.0, SVG Export Plug-In . SVG Version: 6.00 Build 0)  -->
<!DOCTYPE svg PUBLIC "-//W3C//DTD SVG 1.1//EN" "http://www.w3.org/Graphics/SVG/1.1/DTD/svg11.dtd">
<svg version="1.1" id="Layer_1" xmlns="http://www.w3.org/2000/svg" xmlns:xlink="http://www.w3.org/1999/xlink" x="0px" y="0px"
	 width="50px" height="50px" viewBox="104.5 -175.5 50 50" enable-background="new 104.5 -175.5 50 50" xml:space="preserve">
<path fill="#020202" d="M142.388-153.179c0.795,2.615,1.998,2.156,2.916,2.248c1.948,0.196,2.529,3.057,2.529,3.057
	c-2.775,0.386-4.566-1.581-4.566-1.581c-0.351,0.351,0.175,0.773,0.175,0.773c-2.88-0.633-4.04-4.638-4.04-4.638
	c-1.3-0.913-1.334,0.316-1.334,0.316c1.616,1.3,0.702,5.55,0.702,5.55c0.773,0.141,2.073,1.476,2.073,1.476
	c1.229,0.316,1.687,3.267,1.687,3.267c0.421,0.878,1.018,2.564,1.018,2.564c0.211-0.315,0.844-0.21,0.844-0.21
	c1.37,1.405,0.422,1.722,0.422,1.722c-0.352-0.176-1.125-0.492-1.125-0.492c-1.861-0.316-1.687-2.143-1.687-2.143l-1.439-2.916
	c-2.214-0.457-4.777-2.775-4.777-2.775c-0.141,0.387-0.879,0.737-0.879,0.737c-1.09,1.476,0,3.197,0,3.197
	c0.563,0.878-0.703,1.405-0.703,1.405c-0.421,0.07-2.704,1.897-2.704,1.897c-0.633,0.457-0.949,1.089-0.949,1.089
	c0.105,1.054-1.58,0.842-1.58,0.842c-0.878,0,0.14-0.702,0.14-0.702c0.703-1.616,2.636-2.635,2.636-2.635
	c1.721-1.089,1.37-2.073,1.37-2.073c-0.983-1.019-1.02-2.6-1.02-2.6c-0.176-1.581-0.878-1.229-0.878-1.229
	c-2.038,1.299-8.08,0.913-8.08,0.913c-0.315,0.844-1.44,3.899-1.44,3.899c1.37,1.792,3.829,1.054,3.829,1.054
	c-0.457-0.246-0.246-0.527-0.246-0.527s-0.562,0.246,0.141,0c0.702-0.246,1.897,0.246,1.897,0.246
	c0.457,0.633-1.616,1.23-1.616,1.23c-1.265,0.667-4.251-0.562-4.251-0.562c-2.037-0.387-0.632-4.076-0.632-4.076
	c0-0.913-0.422-0.632-0.422-0.632l-3.161,2.494c-1.722,0.843-4.111,4.005-4.111,4.005c0.246-0.07,0.212,0.316,0.212,0.316
	c-0.036,1.159-1.687,0.877-1.687,0.877c-1.02,0-0.105-0.772-0.105-0.772c0.351-0.773,6.078-7.307,6.078-7.307
	c1.37-0.878,1.018-1.581,1.018-1.581c-1.018-0.843-1.063-2.432-0.597-3.056c0.801-1.077,0.456-1.371,0.456-1.371
	c-1.546-1.51-0.983-5.585-0.983-5.585c-1.896,0.246-2.846-0.667-2.846-0.667c-0.597,0.492-1.3,0.457-1.3,0.457
	c-1.44,0.175-0.633-0.737-0.633-0.737c-0.808,0.316-0.855,0.093-0.855,0.093c-0.843-1.921,1.502-1.732,1.502-1.732
	c0.889-0.702,3.184-1.827,3.184-1.827c0-1.125,0.563-1.358,0.563-1.358c0.188,1.219,1.031,1.546,1.031,1.546
	c2.2,0.562,5.151,5.152,5.151,5.152c2.059,4.168,7.307,2.811,7.307,2.811c2.017-1.172,5.388-0.563,5.388-0.563
	c2.154,0.563,2.092-0.304,2.715-0.609C140.667-155.849,142.095-154.148,142.388-153.179z"/>
</svg>
