<?xml version="1.0" encoding="utf-8"?>
<!-- Generator: Adobe Illustrator 16.0.0, SVG Export Plug-In . SVG Version: 6.00 Build 0)  -->
<!DOCTYPE svg PUBLIC "-//W3C//DTD SVG 1.1//EN" "http://www.w3.org/Graphics/SVG/1.1/DTD/svg11.dtd">
<svg version="1.1" id="Layer_1" xmlns="http://www.w3.org/2000/svg" xmlns:xlink="http://www.w3.org/1999/xlink" x="0px" y="0px"
	 width="50px" height="50px" viewBox="174.5 -175.5 50 50" enable-background="new 174.5 -175.5 50 50" xml:space="preserve">
<path fill="#020202" d="M217.475-150.831c0.155,0.838,1.358,2.476,1.358,2.476c-4.433-0.479-5.352-6.19-5.352-6.19
	c-0.719-1.558-1.598-1.358-1.598-1.358c1.638,0.919,0.759,5.192,0.759,5.192c-0.08,2.237,1.337,3.013,2.276,3.435
	c1.957,0.878,1.718,6.549,1.718,6.549c0.559,0.719,0,1.558,0,1.558c-0.68,0.16-0.28,0.839-0.28,0.839
	c0.479,0.918-1.118,1.078-1.118,1.078c-1.317,0-1.117-0.12-1.117-0.12c-0.121-1.198,1.396-2.276,1.396-2.276
	c0.12-1.038-0.416-3.629-0.759-4.793c-0.6-2.037-4.034-3.594-4.034-3.594c-0.917-0.16,0,1.158,0,1.158
	c0.6,0.799-2.795,3.155-2.795,3.155c-0.799,0.918-1.837,1.837-1.837,1.837c-0.439,0.199-0.279,0.479-0.279,0.479
	c0.958,0.32-0.479,1.398-0.479,1.398c-0.879,0.799-1.158,0.239-1.158,0.239c-0.16-1.318,0.639-2.037,0.639-2.037
	c-0.039-1.678,2.676-3.076,2.676-3.076c1.878-1.158,1.119-1.997,1.119-1.997c-1.638-1.876-1.519-3.674-1.519-3.674
	c-1.597,1.518-9.825,1.917-9.825,1.917c-1.836,0.4,2.277,5.991,2.277,5.991c1.198,0.2,1.797,1.158,1.797,1.158
	c0.798-0.639,1.358,0.599,1.358,0.599c1.277,1.318,0.6,1.598,0.6,1.598c-0.919-0.08-1.798-0.919-1.798-0.919
	c-1.638-0.319-2.597-2.196-2.597-2.196c-2.516-1.837-3.395-4.313-3.395-4.313c-0.759-0.519-0.319,1.478-0.319,1.478
	c0.4,0.639,0.52,1.598,0.52,1.598l0.119,3.274c0.56,0.599,0.081,1.358,0.081,1.358c-0.439,0.28-0.04,1.238-0.04,1.238
	c0.358,0.799-1.158,0.719-1.158,0.719c-1.279,0-1.159-0.2-1.159-0.2c-0.239-0.878,0.88-1.278,0.88-1.278
	c0.398-0.319,0.479-0.958,0.479-0.958c0.199-1.398-0.359-3.476-0.359-3.476c-0.359-0.998-1.917-4.992-1.917-4.992
	c-2.396-2.955-1.518-5.192-1.518-5.192c-2.676-0.839-4.913-4.553-4.913-4.553c-1.157,1.158-3.793,1.518-3.793,1.518
	c-1.398,1.597-2.196,0-2.196,0c-0.479-1.158,2.915-4.993,2.915-4.993c0.919-2.196,2.476-1.797,2.476-1.797
	c1.358-1.598,2.315-0.759,2.315-0.759c-0.878,0.719-0.878,1.438-0.878,1.438c2.437,0.04,8.228,3.555,8.228,3.555
	c2.717,2.196,8.746,0.998,8.746,0.998c3.834-1.558,7.468,0.759,7.468,0.759C216.317-157.181,217.081-152.941,217.475-150.831z"/>
</svg>
