<?xml version="1.0" encoding="utf-8"?>
<!-- Generator: Adobe Illustrator 16.0.0, SVG Export Plug-In . SVG Version: 6.00 Build 0)  -->
<!DOCTYPE svg PUBLIC "-//W3C//DTD SVG 1.1//EN" "http://www.w3.org/Graphics/SVG/1.1/DTD/svg11.dtd">
<svg version="1.1" id="Layer_1" xmlns="http://www.w3.org/2000/svg" xmlns:xlink="http://www.w3.org/1999/xlink" x="0px" y="0px"
	 width="50px" height="50px" viewBox="244.5 -175.5 50 50" enable-background="new 244.5 -175.5 50 50" xml:space="preserve">
<path fill="#020202" d="M267.449-158.425c0.823,0.275,2.662,0.118,3.544,0.224c1.8,0.215,3.319-0.644,4.087-1.405
	c4.222-4.191,6.703-3.672,6.703-3.672l0.606-1.532l0.544,0.926l0.319-0.798l0.224,1.277l2.906,3.48c0,0-1.31-0.958-0.033,0.128
	c1.278,1.084,0.352,2.17,0.352,2.17c-0.926,0.862-2.49-0.861-2.49-0.861c-1.533-0.256-1.979-0.958-1.979-0.958
	c-0.288,1.565-2.777,3.64-2.777,3.64c-0.799,1.564-0.225,2.81-0.225,2.81c0.831,0,2.332,0.99,2.332,0.99
	c1.309-0.032,2.171,0.638,2.171,0.638l4.214,3.64c0.718,0.719,0,0.798,0,0.798l-0.798,0.032c-1.118,0-0.734-1.149-0.734-1.149
	c-0.99,0-1.884-1.628-1.884-1.628c-0.768-0.415-2.107-0.958-2.107-0.958c-2.459-0.798-3.065-0.191-3.065-0.191
	c0.671,0.638,2.268,4.023,2.268,4.023c0.574,1.277,3.416,3.576,3.416,3.576c1.149,1.054,0.064,1.022,0.064,1.022h-1.183
	c-1.053,0-0.51-1.182-0.51-1.182l-0.383,0.032c-0.862,0-1.055-1.277-1.055-1.277c-0.575-0.447-4.47-5.396-4.47-5.396
	c-0.671-1.085-1.214-0.894-1.214-0.894c-4.693,1.181-8.109-0.319-8.109-0.319c-2.363-1.277-2.97-0.638-2.97-0.638
	c-0.511,2.011-3.448,3.224-3.448,3.224c-1.5,0.67-1.724,2.427-1.724,2.427l0.031,2.203c0.607,0.064,1.725,1.182,1.725,1.182
	c0.926,0.926-0.735,0.83-0.799,0.798c-1.058-0.529-0.733-0.671-0.733-0.671c0-0.351-0.128-0.287-0.128-0.287
	c-1.436-0.319-0.958-1.021-0.958-1.021l0.032-2.842c0.032-1.5,0.542-2.011,0.542-2.011c1.149-0.606,1.149-1.054,1.149-1.054
	c-0.574-0.383-2.107,0.67-2.107,0.67c-1.946,0.862-3.959,3.001-3.959,3.001c-0.382,1.118-1.661,0.831-1.661,0.831
	c-0.35,0.255-0.925,0.447-0.925,0.447c-1.947,0.448-0.927-0.734-0.927-0.734c0.703-1.085,1.533-0.894,1.533-0.894
	c0.064,0.319,0.543,0.127,0.543,0.127c0.128-0.511,2.746-2.362,2.746-2.362c0.574-1.15,2.362-2.235,2.362-2.235
	c2.235-1.341,1.979-2.043,1.979-2.043c-0.063-2.107,0.702-3.129,0.702-3.129c0.768-0.958,0.065-0.767,0.065-0.767
	c-1.979,1.916-8.621,3.64-8.621,3.64c2.235-5.938,9.705-4.853,9.705-4.853C264.511-159.478,266.235-158.828,267.449-158.425z"/>
</svg>
