<?xml version="1.0" encoding="utf-8"?>
<!-- Generator: Adobe Illustrator 16.0.0, SVG Export Plug-In . SVG Version: 6.00 Build 0)  -->
<!DOCTYPE svg PUBLIC "-//W3C//DTD SVG 1.1//EN" "http://www.w3.org/Graphics/SVG/1.1/DTD/svg11.dtd">
<svg version="1.1" id="Layer_1" xmlns="http://www.w3.org/2000/svg" xmlns:xlink="http://www.w3.org/1999/xlink" x="0px" y="0px"
	 width="50px" height="50px" viewBox="314.5 -175.5 50 50" enable-background="new 314.5 -175.5 50 50" xml:space="preserve">
<path d="M321.375-167.543l1.258,1.677l-0.124-1.856l1.32,1.737c7.609-1.377,10.243,7.608,10.243,7.608
	c3.954,3.715,9.885,2.456,9.885,2.456c4.914-0.899,7.486,2.396,7.486,2.396c5.031,0.299,5.273,6.289,5.273,6.289
	c-0.062,3.296,2.156,5.332,2.156,5.332c-4.913,0.059-5.751-6.229-5.751-6.229c-0.42-4.733-1.319-4.015-1.319-4.015
	c0.961,3.714-3.774,7.487-3.774,7.487c0.181,0.599,1.022,0.779,1.022,0.779c2.274,1.258,0.958,1.738,0.958,1.738
	c-0.778,1.259-1.919,1.019-1.919,1.019c0.119,1.438-1.438,2.516-1.438,2.516c-0.898,2.156-2.813,3.774-2.813,3.774
	c-0.359,0-0.539,0.42-0.539,0.42c0,1.138-1.499,1.137-1.499,1.137c-1.021,0-1.138-0.299-1.138-0.299
	c0.18-1.498,2.396-1.916,2.396-1.916c0.898-0.659,0.241-0.84,0.241-0.84c-1.379,0.359-0.539-1.558-0.539-1.558
	c0.06-2.275,1.915-2.756,1.915-2.756c0.778-0.18,0.84-0.598,0.84-0.598c-1.2-1.019-1.738-4.255-1.738-4.255
	c-0.719,0.119-1.735-0.658-1.735-0.658c-3.656,1.916-10.724-0.42-10.724-0.42c0,1.736-0.899,4.074-0.899,4.074
	c0.418,4.255-0.12,5.751-0.12,5.751c-0.48,1.078-0.539,1.018-0.539,1.018c0.897,1.198-0.36,1.378-0.36,1.378h-1.137
	c-1.918-0.121-0.719-1.078-0.719-1.078c1.855-1.199,1.617-2.755,1.617-2.755c-0.059-0.958-0.301-5.392-0.301-5.392
	c-0.12-1.916-0.777-2.517-0.777-2.517c-0.66,0.899-4.552,1.317-4.552,1.317c-1.258,2.216,1.676,4.313,1.676,4.313
	c0.54-0.959,1.38,0.18,1.38,0.18c0.836,1.737,0.297,1.797,0.297,1.797c-0.719,0.059-1.915-1.018-1.915-1.018
	c-2.277-0.479-3.477-4.554-3.477-4.554c-0.719-2.217,2.758-2.755,2.758-2.755c2.876-1.078,1.797-1.977,1.797-1.977
	c-1.618-2.336-0.3-3.715-0.3-3.715c0.66-0.719,0.598-2.097,0.598-2.097c-1.199-2.576-1.138-5.75-1.138-5.75
	c-0.358,1.318-1.977,2.336-1.977,2.336s0.36-2.276,0,0.24c-0.358,2.516-2.395,1.197-2.395,1.197
	c-1.438-0.898-0.242-3.115-0.242-3.115c-0.063-2.457,1.199-5.271,1.199-5.271L321.375-167.543z"/>
</svg>
