<?xml version="1.0" encoding="utf-8"?>
<!-- Generator: Adobe Illustrator 16.0.0, SVG Export Plug-In . SVG Version: 6.00 Build 0)  -->
<!DOCTYPE svg PUBLIC "-//W3C//DTD SVG 1.1//EN" "http://www.w3.org/Graphics/SVG/1.1/DTD/svg11.dtd">
<svg version="1.1" id="Layer_1" xmlns="http://www.w3.org/2000/svg" xmlns:xlink="http://www.w3.org/1999/xlink" x="0px" y="0px"
	 width="50px" height="50px" viewBox="-315.5 -105.5 50 50" enable-background="new -315.5 -105.5 50 50" xml:space="preserve">
<path d="M-274.327-81.152c-0.006,0.124-0.023,0.247-0.056,0.363c-0.064,0.236-0.182,0.447-0.32,0.621
	c-0.14,0.166-0.297,0.305-0.454,0.405c-0.074,0.054-0.168,0.103-0.256,0.15l-0.067,0.035l-0.044,0.02l-0.085,0.037l-0.157,0.069
	l-0.143,0.069l-0.356,0.176c-0.261,0.118-0.571,0.251-0.995,0.284c-0.21,0.014-0.456-0.006-0.694-0.093
	c-0.239-0.086-0.45-0.233-0.607-0.391c-0.317-0.323-0.457-0.654-0.564-0.951c-0.125-0.366-0.186-0.708-0.225-1.042
	c-0.117-0.029-0.235-0.058-0.349-0.094c-0.325-0.102-0.642-0.229-0.947-0.383c-0.612-0.307-1.179-0.731-1.645-1.254
	c-0.466-0.522-0.808-1.148-1.028-1.791c-0.113-0.322-0.191-0.65-0.249-0.978c-0.032-0.18-0.054-0.36-0.07-0.539
	c-0.057-0.02-0.113-0.041-0.17-0.058c-0.186-0.049-0.372-0.083-0.556-0.092c-0.367-0.016-0.715,0.068-1.032,0.262
	c-0.642,0.392-1.102,1.207-1.425,2.061c-0.074,0.21-0.15,0.424-0.215,0.668l-0.095,0.335c-0.031,0.112-0.056,0.227-0.082,0.341
	c-0.105,0.458-0.186,0.93-0.236,1.408c-0.048,0.477-0.085,0.959-0.087,1.443c0.003,0.485,0.017,0.971,0.111,1.457
	c-0.202-0.448-0.356-0.934-0.448-1.423c-0.048-0.245-0.09-0.493-0.122-0.742c-0.037-0.249-0.052-0.499-0.068-0.75
	c-0.027-0.502-0.035-1.009,0.009-1.52c0.013-0.127,0.022-0.255,0.042-0.384l0.028-0.202l0.034-0.181
	c0.039-0.235,0.099-0.493,0.163-0.751c0.136-0.502,0.305-1.007,0.57-1.49c0.261-0.481,0.625-0.948,1.117-1.31
	c0.493-0.362,1.123-0.57,1.735-0.585c0.307-0.01,0.609,0.021,0.899,0.088c0.3,0.075,0.547,0.148,0.873,0.315l0.321,0.164l0.042,0.42
	c0.026,0.267,0.061,0.53,0.117,0.785c0.057,0.254,0.127,0.503,0.222,0.737c0.183,0.472,0.45,0.892,0.781,1.248
	c0.33,0.358,0.732,0.654,1.185,0.873c0.226,0.11,0.463,0.201,0.706,0.273c0.121,0.037,0.244,0.068,0.365,0.093
	c0.114,0.024,0.263,0.048,0.331,0.053l0.701,0.058l0.051,0.707c0.033,0.45,0.1,0.904,0.21,1.244c0.052,0.168,0.13,0.298,0.163,0.329
	c0.04,0.026-0.033,0.009,0.044,0.016c0.073-0.001,0.235-0.044,0.422-0.131l0.313-0.148l0.192-0.091l0.185-0.078l0.085-0.036
	l0.041-0.018l0.014-0.01c0.02-0.014,0.038-0.016,0.063-0.037c0.054-0.031,0.08-0.062,0.104-0.082l0.021-0.032
	c0.003-0.002,0.001-0.003,0.003-0.003c-0.001,0.001,0.001,0,0.001,0.005c0.004,0.012-0.006-0.012,0.015,0.063l-0.026-0.131
	c-0.035-0.298-0.091-0.643-0.159-0.984c-0.064-0.342-0.137-0.688-0.212-1.033c-0.149-0.692-0.309-1.386-0.473-2.08l-0.471-2.09
	c-0.155-0.698-0.325-1.393-0.47-2.096l-0.22-1.056l-0.027-0.133c0.001-0.002-0.019-0.075-0.027-0.11l-0.066-0.26
	c-0.04-0.185-0.101-0.312-0.149-0.471c-0.228-0.619-0.548-1.239-0.94-1.809c-0.195-0.287-0.41-0.562-0.632-0.833
	c-0.224-0.27-0.459-0.532-0.708-0.783c-0.502-0.495-1.031-0.976-1.639-1.358c0.338,0.125,0.655,0.302,0.967,0.485
	c0.314,0.181,0.61,0.393,0.902,0.61c0.291,0.219,0.57,0.454,0.842,0.7c0.268,0.25,0.523,0.515,0.767,0.792
	c0.483,0.56,0.923,1.167,1.249,1.867c0.075,0.176,0.175,0.372,0.225,0.534l0.089,0.253c0.018,0.051,0.025,0.064,0.05,0.147
	l0.04,0.127l0.322,1.021c0.429,1.364,0.844,2.735,1.252,4.112c0.195,0.69,0.387,1.383,0.57,2.083
	c0.092,0.35,0.182,0.701,0.266,1.059c0.079,0.333,0.153,0.669,0.212,1.045c0.021,0.093,0.025,0.133,0.031,0.196
	C-274.326-81.277-274.327-81.215-274.327-81.152z M-287.058-74.24c-0.036-0.209-0.079-0.427-0.19-0.687
	c-0.058-0.13-0.131-0.274-0.269-0.432c-0.132-0.154-0.36-0.326-0.639-0.388c-0.277-0.066-0.523-0.018-0.699,0.041
	c-0.178,0.061-0.309,0.137-0.423,0.211l-0.086,0.056l-0.083,0.094c-0.09,0.102-0.207,0.228-0.315,0.34l-0.342,0.342
	c-0.232,0.223-0.469,0.442-0.711,0.652c-0.485,0.423-1,0.8-1.526,1.129c-0.265,0.162-0.535,0.307-0.808,0.43
	c-0.273,0.122-0.547,0.224-0.821,0.294c-0.138,0.038-0.273,0.058-0.409,0.081c-0.134,0.011-0.269,0.025-0.4,0.019
	c-0.132-0.001-0.262-0.013-0.388-0.039c-0.128-0.019-0.25-0.062-0.374-0.1l-0.761-0.229l-0.189,0.675
	c-0.044,0.158-0.119,0.36-0.183,0.543c-0.067,0.188-0.142,0.376-0.22,0.562c-0.158,0.372-0.334,0.738-0.529,1.094
	c-0.194,0.356-0.411,0.701-0.633,1.042c-0.225,0.339-0.471,0.665-0.736,0.974c-0.13,0.157-0.271,0.304-0.412,0.452
	c-0.143,0.146-0.285,0.294-0.437,0.432c-0.148,0.142-0.307,0.271-0.466,0.403c-0.163,0.127-0.326,0.253-0.499,0.367
	c-0.337,0.24-0.696,0.457-1.074,0.64c-0.189,0.095-0.378,0.185-0.574,0.265c-0.193,0.088-0.401,0.15-0.6,0.23
	c0.214-0.026,0.427-0.04,0.639-0.083c0.213-0.038,0.43-0.078,0.638-0.14c0.213-0.051,0.416-0.129,0.626-0.196
	c0.202-0.082,0.413-0.153,0.609-0.251c0.796-0.376,1.551-0.873,2.205-1.479c0.331-0.3,0.643-0.621,0.934-0.959
	c0.295-0.337,0.56-0.697,0.81-1.068c0.249-0.372,0.479-0.755,0.69-1.151c0.103-0.195,0.203-0.392,0.297-0.594
	c0.18,0.042,0.362,0.071,0.543,0.084c0.208,0.02,0.414,0.014,0.62,0.006c0.202-0.019,0.404-0.04,0.599-0.08
	c0.786-0.147,1.486-0.466,2.128-0.833c0.643-0.369,1.227-0.804,1.774-1.269c0.275-0.232,0.54-0.474,0.793-0.726
	c0.113-0.111,0.224-0.226,0.334-0.34c0.014,0.093,0.025,0.189,0.034,0.291c0.024,0.303,0.038,0.625,0.034,0.95l-0.013,0.49
	l-0.019,0.309l-0.042,0.058c-0.061,0.091-0.112,0.178-0.167,0.268c-0.106,0.177-0.199,0.35-0.288,0.524
	c-0.114,0.215-0.212,0.432-0.308,0.65l-1.329-0.051l-0.181-0.007l-0.112,0.059c-0.113,0.06-0.219,0.129-0.313,0.208
	c-0.091,0.08-0.172,0.166-0.242,0.254c-0.139,0.177-0.236,0.361-0.314,0.542c-0.152,0.364-0.226,0.72-0.274,1.068
	c-0.048,0.349-0.067,0.692-0.061,1.033c0.005,0.343,0.025,0.673,0.066,1.019l0.042,0.346l0.297-0.061
	c0.498-0.102,0.971-0.245,1.44-0.42c0.234-0.085,0.463-0.188,0.683-0.311c0.11-0.059,0.215-0.129,0.317-0.2
	c0.102-0.074,0.192-0.162,0.271-0.255c-0.101,0.071-0.208,0.126-0.317,0.175c-0.112,0.044-0.224,0.086-0.339,0.116
	c-0.231,0.063-0.465,0.113-0.701,0.152c-0.352,0.058-0.709,0.09-1.063,0.115c0.018-0.209,0.04-0.42,0.071-0.626
	c0.051-0.31,0.105-0.616,0.185-0.906c0.079-0.289,0.182-0.567,0.315-0.791c0.066-0.11,0.139-0.207,0.214-0.276
	c0.027-0.025,0.053-0.044,0.08-0.063l1.638,0.219l0.428,0.057l0.232-0.442c0.161-0.307,0.343-0.625,0.517-0.924
	c0.088-0.149,0.179-0.298,0.271-0.433c0.046-0.064,0.092-0.135,0.137-0.195l0.127-0.153l0.149-0.18l0.03-0.222
	c0.027-0.193,0.046-0.365,0.065-0.547l0.044-0.542c0.022-0.363,0.038-0.731,0.016-1.116
	C-287.006-73.834-287.023-74.031-287.058-74.24z M-286.4-94.783c-0.16,0.354-0.289,0.707-0.35,1.104
	c-0.055,0.449-0.026,0.768-0.036,1.109c0.002,0.332-0.01,0.646-0.048,0.947c-0.04,0.301-0.091,0.591-0.169,0.861
	c-0.082,0.269-0.166,0.526-0.267,0.758c-0.101,0.229-0.2,0.444-0.298,0.629c-0.107,0.178-0.182,0.353-0.268,0.479
	c-0.159,0.261-0.248,0.419-0.248,0.419s0.143-0.104,0.388-0.302c0.124-0.098,0.257-0.234,0.413-0.391
	c0.149-0.161,0.319-0.348,0.475-0.575c0.158-0.225,0.322-0.48,0.454-0.774c0.129-0.293,0.261-0.613,0.331-0.96
	c0.075-0.344,0.127-0.707,0.148-1.064c0.017-0.346,0.014-0.729,0.055-0.976c0.056-0.292,0.141-0.611,0.261-0.886
	c0.124-0.277,0.266-0.538,0.44-0.766c0.176-0.225,0.375-0.424,0.584-0.595c0.213-0.167,0.436-0.305,0.653-0.422
	c0.44-0.221,0.851-0.353,1.146-0.431c0.295-0.078,0.474-0.105,0.474-0.105s-0.172-0.057-0.488-0.089
	c-0.314-0.03-0.78-0.041-1.327,0.101c-0.274,0.067-0.566,0.177-0.856,0.34c-0.292,0.159-0.581,0.376-0.832,0.648
	C-286.017-95.452-286.241-95.134-286.4-94.783z M-288.982-94.106c-0.037,0.08-0.066,0.162-0.097,0.245
	c-0.018,0.05-0.026,0.063-0.048,0.144l-0.032,0.115l-0.063,0.232l-0.051,0.281c-0.051,0.367-0.059,0.722-0.024,1.053
	c0.026,0.33,0.074,0.632,0.099,0.911c0.024,0.276,0.033,0.538,0,0.785c-0.024,0.248-0.075,0.485-0.141,0.704
	c-0.072,0.215-0.13,0.424-0.211,0.597c-0.079,0.174-0.132,0.337-0.2,0.46c-0.121,0.253-0.186,0.405-0.186,0.405
	s0.122-0.107,0.326-0.309c0.104-0.1,0.216-0.233,0.344-0.39c0.129-0.155,0.257-0.348,0.387-0.566
	c0.121-0.224,0.244-0.478,0.328-0.769c0.085-0.291,0.125-0.611,0.146-0.934c0.01-0.321-0.003-0.636-0.006-0.935
	c-0.005-0.297,0.016-0.585,0.064-0.849l0.036-0.191l0.065-0.229l0.033-0.115c-0.002,0.002,0.021-0.056,0.029-0.082
	c0.023-0.067,0.044-0.134,0.074-0.197c0.105-0.258,0.23-0.5,0.375-0.721c0.144-0.221,0.308-0.419,0.479-0.598
	c0.17-0.181,0.36-0.326,0.536-0.464c0.361-0.268,0.711-0.446,0.961-0.567c0.253-0.118,0.41-0.175,0.41-0.175
	s-0.164-0.04-0.457-0.033c-0.292,0.003-0.718,0.055-1.202,0.245c-0.245,0.091-0.492,0.233-0.744,0.404
	c-0.251,0.172-0.49,0.397-0.701,0.659C-288.664-94.73-288.846-94.429-288.982-94.106z M-300.836-82.878
	c0.067,0.269,0.117,0.526,0.123,0.775c0.015,0.249,0.002,0.492-0.029,0.717c-0.038,0.224-0.062,0.439-0.115,0.623
	c-0.05,0.184-0.078,0.354-0.125,0.485c-0.08,0.269-0.12,0.43-0.12,0.43s0.103-0.125,0.273-0.356
	c0.087-0.115,0.176-0.265,0.278-0.439c0.104-0.173,0.2-0.383,0.293-0.619c0.084-0.24,0.166-0.511,0.204-0.811
	c0.039-0.301,0.028-0.623-0.002-0.945c-0.041-0.319-0.103-0.628-0.153-0.922c-0.051-0.292-0.076-0.58-0.069-0.849l0.004-0.194
	l0.029-0.236l0.015-0.119c-0.002,0.004,0.012-0.059,0.016-0.085c0.012-0.069,0.024-0.139,0.042-0.207
	c0.064-0.271,0.149-0.529,0.258-0.771c0.108-0.241,0.238-0.463,0.379-0.666c0.139-0.206,0.303-0.378,0.456-0.543
	c0.314-0.321,0.632-0.551,0.861-0.711c0.03-0.02,0.055-0.036,0.082-0.054c-0.001,0.01-0.002,0.019-0.004,0.032l-0.013,0.119
	l-0.025,0.239l-0.007,0.285c0.007,0.37,0.056,0.722,0.142,1.043c0.078,0.322,0.172,0.613,0.241,0.884
	c0.067,0.269,0.116,0.526,0.123,0.774c0.015,0.25,0.002,0.492-0.028,0.718c-0.037,0.224-0.062,0.439-0.115,0.622
	c-0.05,0.184-0.078,0.354-0.125,0.486c-0.08,0.269-0.121,0.43-0.121,0.43s0.103-0.125,0.273-0.356
	c0.087-0.115,0.177-0.265,0.278-0.439c0.103-0.173,0.2-0.383,0.293-0.62c0.084-0.24,0.166-0.51,0.204-0.811
	c0.039-0.3,0.028-0.623-0.002-0.945c-0.041-0.319-0.103-0.628-0.153-0.922c-0.051-0.292-0.076-0.581-0.069-0.849l0.004-0.194
	l0.029-0.236l0.015-0.118c-0.002,0.003,0.012-0.059,0.016-0.085c0.013-0.069,0.023-0.139,0.042-0.207
	c0.064-0.271,0.149-0.53,0.257-0.771c0.108-0.241,0.238-0.462,0.38-0.666c0.139-0.206,0.304-0.378,0.457-0.542
	c0.314-0.321,0.632-0.551,0.86-0.711c0.083-0.056,0.15-0.098,0.208-0.135c-0.02,0.06-0.04,0.12-0.058,0.18
	c-0.014,0.051-0.022,0.065-0.039,0.146l-0.023,0.117l-0.047,0.237l-0.032,0.283c-0.026,0.37-0.01,0.724,0.046,1.052
	c0.049,0.328,0.116,0.626,0.16,0.901c0.043,0.274,0.069,0.535,0.052,0.784c-0.007,0.25-0.042,0.489-0.093,0.711
	c-0.058,0.22-0.102,0.432-0.171,0.609c-0.067,0.179-0.109,0.346-0.169,0.472c-0.104,0.261-0.158,0.417-0.158,0.417
	s0.113-0.115,0.304-0.33c0.098-0.106,0.199-0.248,0.317-0.412c0.119-0.163,0.233-0.364,0.349-0.59
	c0.105-0.231,0.211-0.494,0.276-0.789c0.066-0.296,0.084-0.618,0.083-0.941c-0.012-0.321-0.046-0.635-0.069-0.932
	c-0.024-0.297-0.023-0.585,0.008-0.853l0.022-0.193l0.05-0.232l0.025-0.117c-0.002,0.003,0.018-0.057,0.023-0.083
	c0.019-0.068,0.036-0.136,0.06-0.202c0.088-0.265,0.196-0.514,0.326-0.745c0.13-0.229,0.279-0.438,0.438-0.628
	c0.158-0.192,0.337-0.349,0.504-0.499c0.342-0.292,0.679-0.492,0.921-0.63c0.223-0.123,0.364-0.187,0.388-0.198
	c-0.104,0.166-0.2,0.34-0.278,0.524c-0.037,0.08-0.066,0.162-0.097,0.245c-0.018,0.049-0.027,0.063-0.048,0.143l-0.032,0.115
	l-0.063,0.232l-0.051,0.281c-0.051,0.366-0.059,0.721-0.024,1.052c0.026,0.33,0.074,0.633,0.099,0.91
	c0.024,0.276,0.032,0.538,0,0.785c-0.024,0.249-0.075,0.485-0.14,0.704c-0.072,0.215-0.13,0.424-0.211,0.596
	c-0.079,0.174-0.133,0.338-0.2,0.46c-0.121,0.253-0.186,0.406-0.186,0.406s0.121-0.107,0.326-0.31
	c0.104-0.099,0.216-0.233,0.344-0.39c0.129-0.155,0.257-0.347,0.387-0.566c0.121-0.224,0.244-0.478,0.329-0.769
	c0.085-0.291,0.125-0.61,0.146-0.934c0.01-0.321-0.003-0.636-0.006-0.935c-0.005-0.297,0.016-0.585,0.065-0.849l0.035-0.192
	l0.065-0.229l0.033-0.114c-0.002,0.002,0.021-0.057,0.029-0.082c0.023-0.066,0.045-0.133,0.073-0.197
	c0.106-0.258,0.231-0.5,0.375-0.721s0.308-0.42,0.479-0.599c0.17-0.181,0.359-0.325,0.536-0.464
	c0.361-0.268,0.711-0.445,0.961-0.567c0.253-0.117,0.41-0.175,0.41-0.175s-0.164-0.039-0.458-0.033
	c-0.292,0.004-0.717,0.055-1.201,0.246c-0.244,0.091-0.491,0.233-0.743,0.404c-0.251,0.172-0.49,0.396-0.701,0.658
	c-0.09,0.111-0.171,0.232-0.249,0.356c-0.016-0.002-0.175-0.026-0.453-0.001c-0.292,0.023-0.712,0.103-1.183,0.325
	c-0.238,0.107-0.475,0.265-0.715,0.453c-0.239,0.189-0.462,0.429-0.656,0.704c-0.187,0.266-0.343,0.568-0.457,0.888
	c-0.078,0.004-0.186,0.014-0.323,0.039c-0.288,0.049-0.7,0.167-1.148,0.431c-0.227,0.128-0.449,0.307-0.671,0.515
	c-0.221,0.21-0.421,0.469-0.589,0.761c-0.167,0.292-0.3,0.617-0.384,0.958c-0.02,0.066-0.032,0.134-0.045,0.202
	c-0.057,0.006-0.122,0.015-0.195,0.028c-0.288,0.05-0.7,0.167-1.148,0.432c-0.227,0.128-0.449,0.307-0.671,0.516
	c-0.221,0.21-0.422,0.469-0.589,0.76c-0.168,0.292-0.301,0.617-0.385,0.958c-0.023,0.084-0.04,0.17-0.057,0.257
	c-0.009,0.052-0.016,0.067-0.025,0.149l-0.013,0.119l-0.025,0.239l-0.006,0.285c0.007,0.371,0.055,0.722,0.141,1.043
	C-300.999-83.439-300.905-83.148-300.836-82.878z"/>
</svg>
