<?xml version="1.0" encoding="utf-8"?>
<!-- Generator: Adobe Illustrator 16.0.0, SVG Export Plug-In . SVG Version: 6.00 Build 0)  -->
<!DOCTYPE svg PUBLIC "-//W3C//DTD SVG 1.1//EN" "http://www.w3.org/Graphics/SVG/1.1/DTD/svg11.dtd">
<svg version="1.1" id="Layer_1" xmlns="http://www.w3.org/2000/svg" xmlns:xlink="http://www.w3.org/1999/xlink" x="0px" y="0px"
	 width="50px" height="50px" viewBox="-245.5 -105.5 50 50" enable-background="new -245.5 -105.5 50 50" xml:space="preserve">
<path fill="#231F20" d="M-228.789-93.429l-0.289-0.505l0.63,0.004c0.224,0.002,0.474-0.006,0.713-0.023
	c0.24-0.015,0.482-0.036,0.722-0.063c0.48-0.057,0.96-0.117,1.434-0.212c0.474-0.088,0.94-0.206,1.403-0.332
	c0.46-0.124,0.927-0.272,1.355-0.439c0.213-0.075,0.446-0.179,0.674-0.276l0.676-0.298c0.195-0.081,0.415-0.158,0.653-0.218
	l-1.824-0.3l2.659-0.667c0.265-0.067,0.45-0.084,0.668-0.103c0.211-0.017,0.42-0.02,0.626-0.008c0.415,0.019,0.82,0.083,1.215,0.176
	c0.792,0.186,1.536,0.513,2.204,0.936c0.675,0.41,1.267,0.93,1.804,1.485c0.267,0.278,0.509,0.578,0.748,0.877
	c0.234,0.306,0.442,0.624,0.647,0.944c-0.267-0.27-0.548-0.529-0.825-0.78c-0.281-0.25-0.57-0.488-0.865-0.713
	c-0.59-0.452-1.217-0.843-1.872-1.153c-0.643-0.302-1.318-0.51-1.998-0.621c0.224,0.228,0.419,0.477,0.586,0.739
	c0.096,0.151,0.183,0.307,0.263,0.466c0.04,0.081,0.078,0.162,0.113,0.246c0.038,0.088,0.068,0.157,0.106,0.274l0.611,1.814
	l-1.595-1.101c-0.399-0.274-0.799-0.548-1.202-0.78c-0.2-0.116-0.398-0.228-0.595-0.319c-0.194-0.088-0.386-0.163-0.561-0.196
	c-0.179-0.04-0.333-0.045-0.506-0.013c-0.171,0.029-0.367,0.093-0.581,0.179l-0.335,0.14l-0.188,0.075l-0.175,0.066
	c-0.233,0.085-0.46,0.174-0.72,0.252c-0.505,0.168-0.997,0.295-1.504,0.406c-0.503,0.111-1.013,0.179-1.522,0.236
	c-0.51,0.053-1.021,0.084-1.533,0.085c-0.256-0.001-0.512-0.009-0.768-0.023c-0.044-0.002-0.09-0.009-0.135-0.012
	c0.048,0.076,0.094,0.153,0.148,0.224c0.184,0.237,0.411,0.442,0.67,0.601c0.259,0.163,0.555,0.279,0.867,0.34
	c0.313,0.064,0.642,0.088,0.97,0.044c-0.622,0.228-1.351,0.241-2.015-0.026C-227.893-92.271-228.436-92.813-228.789-93.429z
	 M-231.316-85.276c0.118-0.131,0.24-0.249,0.36-0.373c-0.14,0.021-0.278,0.032-0.417,0.068c-0.5,0.136-0.992,0.348-1.463,0.611
	l-2.578,1.438l1.766-2.399c0.235-0.318,0.476-0.659,0.704-0.992c0.233-0.333,0.457-0.672,0.66-1.015
	c0.193-0.342,0.394-0.687,0.512-1.003c0.029-0.078,0.052-0.152,0.065-0.214c0.007-0.03,0.011-0.058,0.014-0.079l-0.654-0.129
	l0.259-0.558c0.056-0.118,0.098-0.192,0.15-0.278c0.05-0.085,0.104-0.163,0.157-0.242c0.112-0.154,0.224-0.307,0.353-0.443
	c0.256-0.275,0.538-0.521,0.843-0.726c0.075-0.054,0.156-0.098,0.236-0.144c0.08-0.043,0.155-0.093,0.24-0.13
	c0.166-0.077,0.326-0.159,0.5-0.211c0.166-0.062,0.346-0.102,0.517-0.146c0.173-0.035,0.344-0.052,0.519-0.07
	c-0.148,0.092-0.308,0.166-0.451,0.263c-0.142,0.092-0.283,0.175-0.413,0.283c-0.134,0.098-0.261,0.203-0.383,0.311
	c-0.064,0.05-0.119,0.113-0.177,0.168c-0.057,0.058-0.115,0.113-0.165,0.176c-0.223,0.23-0.412,0.487-0.572,0.754
	c-0.066,0.113-0.128,0.223-0.187,0.336c0.169,0.142,0.294,0.343,0.328,0.512c0.048,0.203,0.039,0.364,0.026,0.511
	c-0.017,0.146-0.044,0.276-0.077,0.399c-0.133,0.487-0.321,0.895-0.538,1.285c-0.106,0.193-0.224,0.371-0.337,0.556
	c0.289-0.049,0.582-0.083,0.882-0.081c0.17,0.003,0.341,0.015,0.516,0.042c0.087,0.015,0.175,0.033,0.266,0.058
	c0.1,0.029,0.167,0.042,0.324,0.117l0.049,0.027c0.021,0.017,0.017,0.004,0.104,0.08c0.016,0.015,0.031,0.03,0.045,0.046
	c0.032,0.055-0.017-0.052,0.085,0.142c0.094,0.168,0.001,0.491-0.115,0.572l-0.019,0.017l-0.011,0.009l-0.04,0.036l-0.084,0.072
	l-0.167,0.144l-0.334,0.287c-0.231,0.189-0.436,0.386-0.635,0.583c-0.198,0.202-0.413,0.384-0.602,0.602l-0.586,0.63l-0.549,0.663
	c-0.176,0.227-0.339,0.462-0.51,0.694c-0.167,0.234-0.319,0.479-0.479,0.719c-0.151,0.245-0.291,0.496-0.435,0.747
	c-0.125,0.258-0.268,0.513-0.383,0.777c-0.125,0.264-0.235,0.531-0.336,0.804c-0.195,0.547-0.377,1.105-0.458,1.689
	c-0.016-0.591,0.077-1.184,0.206-1.765c0.066-0.29,0.144-0.579,0.236-0.862c0.079-0.29,0.201-0.563,0.301-0.845
	c0.122-0.274,0.238-0.551,0.367-0.821c0.14-0.265,0.268-0.538,0.42-0.798c0.157-0.255,0.307-0.516,0.471-0.768l0.515-0.742
	l0.557-0.711C-231.739-84.835-231.516-85.048-231.316-85.276z M-231.64-89.225c0.009,0.007,0.015,0.017,0.025,0.02
	c0.037,0.015,0.027-0.009-0.023-0.019L-231.64-89.225z M-205.592-81.081c-0.007-0.064-0.013-0.112-0.034-0.203
	c-0.06-0.326-0.116-0.667-0.191-0.965l-0.24-0.989c-0.17-0.65-0.339-1.3-0.521-1.943c-0.171-0.646-0.375-1.282-0.564-1.922
	l-0.586-1.913c-0.199-0.635-0.412-1.268-0.62-1.901c-0.063-0.185-0.109-0.316-0.176-0.488c-0.069-0.167-0.135-0.338-0.211-0.492
	c-0.141-0.319-0.312-0.621-0.483-0.917c-0.352-0.59-0.741-1.15-1.161-1.679c-0.43-0.525-0.875-1.033-1.371-1.49l-0.303-0.279
	l0.137,0.37c0.056,0.153,0.108,0.312,0.151,0.471c0.036,0.159,0.093,0.321,0.062,0.487c0.038-0.077,0.041-0.166,0.046-0.25
	c0.003-0.085-0.002-0.17-0.008-0.255c-0.003-0.033-0.009-0.067-0.012-0.101c0.687,0.977,1.284,2.014,1.752,3.084
	c0.124,0.298,0.242,0.598,0.343,0.898c0.055,0.151,0.093,0.295,0.137,0.442c0.041,0.142,0.086,0.332,0.117,0.465l0.426,1.95
	l0.874,3.885c0.15,0.646,0.288,1.29,0.427,1.934l0.187,0.959c0.069,0.324,0.09,0.608,0.144,0.913l0.028,0.138
	c-0.021-0.079-0.012-0.056-0.016-0.069c0-0.005-0.003-0.006,0-0.007c-0.003-0.002,0-0.004-0.003-0.004c0,0-0.003,0.004-0.017,0.023
	c-0.021,0.018-0.046,0.048-0.1,0.078c-0.024,0.02-0.042,0.022-0.061,0.036l-0.014,0.009l-0.042,0.019l-0.087,0.036l-0.188,0.08
	l-0.198,0.093l-0.317,0.151c-0.19,0.088-0.354,0.13-0.422,0.131c-0.01-0.001-0.012-0.001-0.017-0.001c0-0.001,0-0.003-0.007-0.008
	c-0.029-0.025-0.107-0.155-0.16-0.325c-0.112-0.343-0.18-0.806-0.213-1.263l-0.055-0.748l-0.74-0.06
	c-0.067-0.006-0.22-0.029-0.333-0.054c-0.124-0.025-0.249-0.057-0.372-0.094c-0.246-0.073-0.488-0.165-0.716-0.277
	c-0.459-0.222-0.868-0.521-1.202-0.885c-0.336-0.361-0.608-0.787-0.795-1.267c-0.096-0.237-0.167-0.489-0.226-0.747
	c-0.058-0.26-0.093-0.528-0.12-0.8l-0.045-0.443l-0.338-0.172c-0.336-0.172-0.589-0.248-0.897-0.324
	c-0.299-0.069-0.61-0.101-0.924-0.09c-0.631,0.015-1.279,0.23-1.785,0.602c-0.506,0.372-0.879,0.852-1.146,1.346
	c-0.272,0.496-0.444,1.013-0.583,1.527c-0.063,0.265-0.126,0.529-0.165,0.769l-0.034,0.184l-0.029,0.208
	c-0.019,0.131-0.029,0.262-0.042,0.393c-0.043,0.523-0.033,1.041-0.005,1.554c0.019,0.257,0.034,0.513,0.073,0.767
	c0.033,0.254,0.077,0.508,0.127,0.758c0.095,0.5,0.257,0.997,0.463,1.453c-0.095-0.498-0.106-0.993-0.107-1.488
	c0.004-0.495,0.044-0.988,0.094-1.475c0.053-0.487,0.137-0.968,0.245-1.435c0.028-0.117,0.052-0.235,0.085-0.348l0.096-0.342
	c0.068-0.249,0.146-0.465,0.221-0.681c0.332-0.87,0.803-1.698,1.451-2.092c0.322-0.195,0.673-0.279,1.043-0.262
	c0.187,0.008,0.375,0.043,0.562,0.093c0.058,0.017,0.115,0.038,0.171,0.058c0.018,0.178,0.025,0.355,0.056,0.532
	c0.059,0.336,0.139,0.673,0.254,1.004c0.225,0.658,0.576,1.302,1.055,1.839c0.478,0.536,1.06,0.972,1.687,1.287
	c0.314,0.159,0.64,0.289,0.973,0.393c0.111,0.035,0.225,0.062,0.339,0.091c0.04,0.337,0.102,0.683,0.229,1.053
	c0.111,0.306,0.254,0.647,0.583,0.982c0.164,0.163,0.381,0.316,0.63,0.405c0.248,0.091,0.503,0.111,0.721,0.097
	c0.438-0.034,0.757-0.171,1.025-0.293l0.364-0.18l0.146-0.07l0.16-0.07l0.087-0.038l0.044-0.02l0.071-0.036
	c0.091-0.05,0.188-0.1,0.265-0.156c0.161-0.104,0.323-0.247,0.469-0.419c0.143-0.18,0.266-0.399,0.333-0.644
	c0.033-0.122,0.051-0.249,0.058-0.376C-205.586-80.947-205.585-81.011-205.592-81.081z M-218.592-73.826
	c-0.036-0.215-0.081-0.438-0.195-0.708c-0.061-0.134-0.136-0.285-0.28-0.449c-0.138-0.16-0.376-0.34-0.667-0.404
	c-0.29-0.07-0.547-0.019-0.728,0.042c-0.187,0.063-0.322,0.141-0.44,0.219l-0.09,0.058l-0.088,0.1
	c-0.091,0.104-0.21,0.232-0.321,0.346l-0.348,0.349c-0.237,0.227-0.479,0.45-0.726,0.665c-0.494,0.432-1.018,0.816-1.555,1.152
	c-0.27,0.164-0.544,0.313-0.822,0.438c-0.278,0.124-0.555,0.229-0.834,0.298c-0.139,0.039-0.276,0.06-0.413,0.083
	c-0.137,0.012-0.273,0.025-0.405,0.02c-0.134-0.001-0.266-0.012-0.393-0.04c-0.129-0.02-0.253-0.062-0.377-0.099l-0.805-0.241
	l-0.199,0.711c-0.044,0.159-0.121,0.367-0.186,0.554c-0.068,0.191-0.143,0.383-0.224,0.572c-0.16,0.38-0.339,0.754-0.537,1.118
	c-0.199,0.364-0.418,0.716-0.644,1.063c-0.229,0.348-0.479,0.68-0.75,0.996c-0.132,0.162-0.276,0.312-0.418,0.464
	c-0.146,0.148-0.292,0.3-0.446,0.44c-0.15,0.146-0.313,0.279-0.474,0.413c-0.165,0.129-0.332,0.259-0.507,0.377
	c-0.344,0.245-0.71,0.468-1.096,0.656c-0.192,0.097-0.386,0.19-0.585,0.273c-0.197,0.09-0.409,0.155-0.612,0.237
	c0.219-0.025,0.437-0.039,0.653-0.083c0.219-0.039,0.439-0.079,0.652-0.141c0.432-0.114,0.857-0.265,1.267-0.454
	c0.815-0.384,1.588-0.888,2.259-1.508c0.338-0.306,0.659-0.633,0.957-0.979c0.303-0.344,0.575-0.712,0.831-1.091
	c0.255-0.38,0.491-0.772,0.708-1.176c0.104-0.195,0.203-0.392,0.298-0.593c0.178,0.041,0.359,0.074,0.539,0.088
	c0.216,0.02,0.427,0.015,0.637,0.006c0.207-0.02,0.415-0.041,0.615-0.082c0.806-0.15,1.524-0.477,2.182-0.852
	c0.659-0.378,1.255-0.824,1.817-1.298c0.282-0.239,0.552-0.485,0.812-0.744c0.101-0.1,0.199-0.203,0.298-0.305
	c0.011,0.078,0.024,0.152,0.032,0.235c0.024,0.308,0.04,0.636,0.036,0.968l-0.013,0.501l-0.018,0.308l-0.04,0.053
	c-0.061,0.094-0.114,0.184-0.171,0.275c-0.107,0.182-0.202,0.359-0.293,0.537c-0.114,0.218-0.213,0.435-0.309,0.654l-1.34-0.049
	l-0.192-0.007l-0.118,0.061c-0.117,0.063-0.226,0.134-0.323,0.214c-0.095,0.083-0.179,0.171-0.25,0.262
	c-0.143,0.183-0.243,0.373-0.322,0.559c-0.157,0.375-0.231,0.739-0.28,1.096c-0.049,0.358-0.067,0.709-0.061,1.058
	c0.007,0.35,0.029,0.688,0.072,1.042l0.044,0.366l0.313-0.066c0.51-0.104,0.992-0.252,1.471-0.433
	c0.24-0.088,0.474-0.194,0.697-0.32c0.113-0.061,0.221-0.134,0.325-0.205c0.103-0.078,0.196-0.167,0.276-0.263
	c-0.104,0.073-0.212,0.127-0.325,0.177c-0.115,0.045-0.229,0.087-0.348,0.119c-0.236,0.063-0.475,0.114-0.716,0.152
	c-0.352,0.057-0.709,0.088-1.064,0.112c0.019-0.21,0.034-0.42,0.065-0.628c0.052-0.316,0.108-0.627,0.191-0.923
	c0.081-0.295,0.187-0.578,0.322-0.803c0.068-0.113,0.142-0.209,0.218-0.279c0.03-0.027,0.055-0.034,0.083-0.053l1.655,0.224
	l0.449,0.06l0.248-0.466c0.164-0.311,0.351-0.636,0.527-0.942c0.09-0.152,0.184-0.303,0.276-0.439
	c0.047-0.066,0.093-0.138,0.139-0.198l0.128-0.155l0.157-0.188l0.032-0.235c0.028-0.199,0.048-0.374,0.067-0.561l0.046-0.554
	c0.022-0.372,0.04-0.749,0.016-1.143C-218.54-73.41-218.557-73.612-218.592-73.826z"/>
</svg>
