<?xml version="1.0" encoding="utf-8"?>
<!-- Generator: Adobe Illustrator 16.0.0, SVG Export Plug-In . SVG Version: 6.00 Build 0)  -->
<!DOCTYPE svg PUBLIC "-//W3C//DTD SVG 1.1//EN" "http://www.w3.org/Graphics/SVG/1.1/DTD/svg11.dtd">
<svg version="1.1" id="Layer_1" xmlns="http://www.w3.org/2000/svg" xmlns:xlink="http://www.w3.org/1999/xlink" x="0px" y="0px"
	 width="50px" height="50px" viewBox="-175.5 -105.5 50 50" enable-background="new -175.5 -105.5 50 50" xml:space="preserve">
<path d="M-160.396-68.05c-0.307,0.361-0.748,0.979-1.362,2.044c0,0-0.147,1.112-1.781,1.668c0,0-1.646,1.179-2.069,0.289
	c0,0,0.408-1.844,1.73-1.39c0,0,1.276-1.537,1.701-2.542C-161.539-67.958-160.944-67.984-160.396-68.05z M-139.769-74.332
	l-0.035,0.729c0,0,0.693,0.114,1.76-0.834c0.248-0.223,0.449-0.559,0.449-0.559s-0.849,0.317-1.151,0.399
	C-138.979-74.532-139.769-74.332-139.769-74.332z M-130.464-84.725c0,0,0.025,0.461-0.669,0.395
	c-0.305-0.03-0.873,0.054-1.017-0.617l-0.264-0.446c0,0-1.53,0.333-2.574-0.174c-1.342-0.741-0.817-2.595-0.817-2.595
	c-0.394,0.759-0.476,1.459-0.419,2.051c-0.832,0.325-2.55,1.247-3.71,3.59c-0.149,0.302-0.554,1.574,0.383,1.205
	c0.705-0.28,1.922-1.152,2.656-1.517c0.017-0.007,0.087-0.039,0.104-0.043c0.451-0.137,1.191-0.563,1.511,0.769
	c0.216,0.893,0.421,1.875-0.159,3.762c-0.27,0.882-0.586,2.274-1.792,2.794c0,0-1.648,0.564-1.974,0.7
	c-0.515,0.217-1.655,0.321-2.167,0.189c-0.235-0.059-0.194-0.106-0.895-0.344l1.507-1.696c0,0,1.023,0.478,1.711,0.343
	c0,0,2.488-0.533,2.046-3.7c0,0-0.173-0.191-0.725,0.432c-0.989,1.111-3.433,3.419-4.761,3.554c0,0-0.201,0.067-0.482,0.087
	c-1.605-0.101-1.462-2.612-1.493-2.525c-0.521,1.471-0.491,2.433-0.315,3.035c-1.601,1.245-5.202,3.622-8.297,2.641
	c-0.045-1.014-0.642-2.352-3.277-2.888c0,0,2.363,1.068,2.589,2.608c0,0,0,0-0.001,0c0,0,0.001,0.002,0.001,0.004
	c0.014,0.104,0.02,0.207,0.014,0.313c-0.018,0.235-0.101,0.584-0.375,1.005c-0.041,0.059-0.084,0.116-0.132,0.178h0.009
	c-0.428,0.577-1.216,1.266-2.643,1.961c-3.554,1.263-4.921,1.003-5.266,0.888c-0.063-0.045-0.15-0.069-0.272-0.065
	c-0.174,0.003-1.425,0.516-2.212,2.37c0,0-1.662,3.915-5.215,3.615c0,0-0.192-1.243,0.86-1.891c0,0,1.261-0.167,1.385,0.039
	c0,0,0.482-0.946,1-1.407l1.501-2.599c0,0,0.531-1.638,1.562-1.453c0,0,0.806-0.123,1.765-1.428c0,0,0.416-0.298,0.067-0.969
	c-0.337-0.654-0.605-2.238-0.03-3.046c0,0-0.976-1.035-2.232,3.397c-0.245,0.863-0.337,1.904-2.036,3.072
	c-0.675,0.463-1.171,1.376-1.182,3.003c0,0-1.145-1.938,0.248-3.976c0,0-0.25-6.92,6.038-6.981c0,0,0.874-2.432,7.433-3.596
	c1.026-0.182,3.976-1.42,3.976-1.42s0.136-0.224,0.39-0.596c0.478-0.559,1.261-1.346,2.009-1.529c0,0-0.406,0.002-1.178,0.369
	c0.257-0.341,0.55-0.715,0.877-1.111c0.463-0.382,1.711-1.334,2.672-1.338c0,0-0.528-0.134-1.676,0.2
	c0.687-0.743,1.466-1.505,2.319-2.197c0.308-0.226,1.836-1.298,2.901-1.208c0,0-0.359-0.126-1.156-0.032
	c0.085-0.051,0.171-0.105,0.257-0.155c0.711-0.408,1.452-0.745,2.217-0.968c0.189-0.058,0.374-0.112,0.557-0.164
	c0.59-0.102,1.248-0.138,1.715,0.069c0,0-0.215-0.177-0.764-0.323c1.038-0.248,2.072-0.371,3.479-0.215c0,0,1.249-0.679,1.629-1.883
	c0,0-0.042,1.576-0.515,2.142c0,0,0.751-0.313,0.953-0.715c0,0-0.068,0.727-0.461,1.135c0,0,1.065,0.652,1.336,1.737
	c0,0,1.35,1.787,2.117,2.235C-129.825-86.646-129.642-84.57-130.464-84.725z M-132.47-88.27c0,0,0.023-0.246-0.327-0.415
	c-0.351-0.169-0.94-0.2-0.94-0.2s0.38,0.408,0.731,0.578C-132.658-88.136-132.47-88.27-132.47-88.27z"/>
</svg>
