<?xml version="1.0" encoding="utf-8"?>
<!-- Generator: Adobe Illustrator 16.0.0, SVG Export Plug-In . SVG Version: 6.00 Build 0)  -->
<!DOCTYPE svg PUBLIC "-//W3C//DTD SVG 1.1//EN" "http://www.w3.org/Graphics/SVG/1.1/DTD/svg11.dtd">
<svg version="1.1" id="Layer_1" xmlns="http://www.w3.org/2000/svg" xmlns:xlink="http://www.w3.org/1999/xlink" x="0px" y="0px"
	 width="50px" height="50px" viewBox="-105.5 -105.5 50 50" enable-background="new -105.5 -105.5 50 50" xml:space="preserve">
<path d="M-66.715-76.758c0.138-0.048,0.294-0.004,0.387,0.111s0.104,0.276,0.027,0.402c-0.631,1.038-2.504,1.489-2.716,1.537
	c-0.026,0.006-0.052,0.009-0.078,0.009c-0.107,0-0.21-0.049-0.278-0.136c-0.083-0.108-0.096-0.255-0.033-0.376
	C-69.042-75.908-67.255-76.571-66.715-76.758z M-62.347-85.534c-0.372,0.514-0.93,0.579-0.992,0.585
	c-0.8,0.064-1.413-0.108-1.82-0.514c-0.341-0.341-0.445-0.761-0.474-1.028c-0.473-0.242-0.885-0.739-1.204-1.235
	c-0.114,2.188-0.755,4.711-0.935,5.382c0.808,1.165,0.599,2.368,0.366,3.047l1.238-0.057c1.479-0.371,2.425,0.722,2.708,1.352
	c0.231,0.358,0.294,0.804,0.157,1.243c-0.384,1.232-2.219,2.135-2.726,2.364c-0.861,1.384-2.98,1.788-3.43,1.859
	c-0.663,0.424-1.134,0.541-1.478,0.369c-0.196-0.099-0.297-0.272-0.333-0.422l-0.584-1.052c-0.05-0.091-0.058-0.199-0.021-0.296
	c0.143-0.371,0.4-0.583,0.637-0.694l-0.018-0.145c-0.266-0.119-0.502-0.331-0.71-0.592c-2.73,1.67-9.286,1.146-10.48,1.034
	c-0.297,1.82-1.108,3.498-1.303,3.881c-0.016,1.955,2.016,2.21,2.103,2.221c1.377,0.115,2.433,1.323,2.735,1.707
	c0.948,0.243,1.415,1.404,1.436,1.456c0.016,0.041,0.024,0.084,0.024,0.128c0,0.234-0.092,0.437-0.266,0.587
	c-0.269,0.231-0.689,0.284-1.019,0.284c-0.22,0-0.399-0.024-0.467-0.034c-0.007,0-0.013,0-0.02,0c-0.604,0-1.062-0.18-1.311-0.531
	c-0.117-0.164-0.167-0.335-0.185-0.49c-0.792-0.007-1.331-0.32-1.357-0.337c-0.052-0.033-0.094-0.078-0.124-0.132
	c-0.489-0.918-2.848-2.106-3.715-2.487c-1.375-0.504-2.216-1.171-2.479-1.977c-0.249-0.764,0.133-1.35,0.149-1.374
	c0.022-0.033,0.05-0.062,0.082-0.086c0.524-0.393,0.613-1.183,0.625-1.557c-4.537-1.971-4.713-5.437-4.625-6.642
	c-0.056,0.018-0.11,0.045-0.165,0.081c-0.603,0.392-0.968,1.68-1.058,2.143c-0.356,6.234-5.119,7.075-5.167,7.083
	c-0.108,0.015-0.218-0.017-0.298-0.092c-0.079-0.075-0.119-0.184-0.106-0.293c1.092-9.816,6.281-11.086,7.235-11.237
	c3.592-3.935,5.438-3.205,7.068-2.563c0.244,0.096,0.485,0.192,0.733,0.27c5.485,1.733,7.674-1.366,8.842-3.848
	c3.532-7.494,8.104-7.118,9.221-6.895l1.265-1.721c0.083-0.114,0.227-0.167,0.363-0.134c0.137,0.032,0.241,0.144,0.265,0.281
	l0.355,2.053c1.271,1.943,1.481,7.133,1.49,7.356C-61.962-86.557-62.035-85.964-62.347-85.534z M-62.814-87.141
	c-0.01-0.117-0.224-5.392-1.418-7.113c-0.029-0.042-0.048-0.089-0.057-0.14l-0.228-1.314l-0.915,1.245
	c-0.089,0.12-0.243,0.167-0.385,0.128c-0.201-0.061-4.935-1.375-8.629,6.463c-0.738,1.566-2.982,6.336-9.688,4.218
	c-0.263-0.083-0.52-0.185-0.779-0.287c-1.57-0.621-3.054-1.205-6.377,2.476c-0.059,0.065-0.141,0.106-0.228,0.114
	c-0.226,0.022-5.448,0.631-6.682,10.128c1.118-0.367,3.853-1.732,4.12-6.354c0.044-0.246,0.409-2.019,1.369-2.644
	c0.312-0.204,0.666-0.267,1.022-0.186c0.187,0.043,0.304,0.229,0.264,0.417c-0.037,0.171-0.836,4.217,4.369,6.36
	c0.123,0.05,0.206,0.165,0.216,0.297c0.005,0.064,0.109,1.556-0.842,2.332c-0.049,0.101-0.161,0.386-0.041,0.741
	c0.137,0.402,0.607,0.994,2.07,1.531c0.353,0.154,3.232,1.444,4.016,2.71c0.169,0.082,0.644,0.272,1.237,0.162
	c0.125-0.022,0.248,0.022,0.329,0.117s0.106,0.226,0.065,0.343c0,0-0.065,0.212,0.044,0.36c0.112,0.152,0.399,0.237,0.81,0.237
	c0.347,0.047,0.832,0.042,0.977-0.085c-0.06-0.192-0.452-0.899-0.985-0.975c-0.095-0.014-0.181-0.066-0.236-0.144
	c-0.01-0.014-1.031-1.423-2.319-1.53c-0.985-0.113-2.807-0.887-2.733-3.019c0.002-0.053,0.016-0.104,0.04-0.151
	c0.027-0.05,2.633-5.083,0.594-7.211c-0.134-0.14-0.129-0.362,0.011-0.496c0.14-0.134,0.363-0.129,0.496,0.011
	c0.849,0.886,1.047,2.127,0.947,3.369c1.183,0.107,7.526,0.592,10.008-0.922c-0.482-0.869-0.742-1.891-0.786-2.074
	c-0.046-0.188,0.07-0.377,0.258-0.423c0.192-0.047,0.378,0.07,0.423,0.258c0.149,0.614,0.448,1.468,0.817,2.076
	c0.016,0.014,0.03,0.03,0.044,0.048c0.026,0.033,0.044,0.07,0.056,0.108c0.211,0.31,0.441,0.53,0.677,0.579
	c0.146,0.03,0.257,0.151,0.276,0.3l0.082,0.655c0.011,0.095-0.016,0.19-0.076,0.264s-0.148,0.121-0.243,0.128
	c-0.019,0.003-0.199,0.031-0.327,0.215l0.522,0.941c0.022,0.04,0.036,0.083,0.042,0.127c0.027-0.039,0.252-0.049,0.809-0.414
	c0.044-0.028,0.094-0.047,0.146-0.054c0.023-0.003,2.329-0.324,3.051-1.621c0.038-0.069,0.098-0.123,0.169-0.153
	c0.585-0.25,2.164-1.091,2.439-1.975c0.077-0.247,0.043-0.47-0.104-0.703c-0.048-0.096-0.63-1.323-1.992-0.991l-1.866,0.091
	c-0.13-0.01-0.249-0.06-0.315-0.168c-0.067-0.109-0.068-0.247-0.004-0.357c0.037-0.064,0.884-1.581-0.179-2.963
	c-0.067-0.088-0.09-0.202-0.06-0.309c0.013-0.042,1.205-4.338,0.929-6.815c-0.02-0.174,0.094-0.336,0.264-0.379
	c0.169-0.042,0.346,0.047,0.411,0.211c0.309,0.778,1.043,2.086,1.699,2.288c0.157,0.048,0.259,0.199,0.247,0.362
	c0,0.002-0.023,0.446,0.284,0.748c0.255,0.249,0.674,0.351,1.259,0.307c0.003-0.001,0.302-0.039,0.491-0.306
	C-62.729-86.209-62.696-86.619-62.814-87.141z M-64.986-91.979c-0.191,0.049-0.272,0.386-0.18,0.754
	c0.093,0.368,0.324,0.627,0.515,0.58c0.192-0.049,0.272-0.386,0.181-0.754C-64.564-91.768-64.794-92.027-64.986-91.979z"/>
</svg>
