<?xml version="1.0" encoding="utf-8"?>
<!-- Generator: Adobe Illustrator 16.0.0, SVG Export Plug-In . SVG Version: 6.00 Build 0)  -->
<!DOCTYPE svg PUBLIC "-//W3C//DTD SVG 1.1//EN" "http://www.w3.org/Graphics/SVG/1.1/DTD/svg11.dtd">
<svg version="1.1" id="Layer_1" xmlns="http://www.w3.org/2000/svg" xmlns:xlink="http://www.w3.org/1999/xlink" x="0px" y="0px"
	 width="50px" height="50px" viewBox="34.5 -105.5 50 50" enable-background="new 34.5 -105.5 50 50" xml:space="preserve">
<path d="M78.166-79.082c-0.172-0.368-4.207-8.917-8.186-7.44c-0.309-0.074-1.282-0.312-1.86-0.521
	c-2.183-0.79-4.402-0.659-7.42,0.445c-1.822,0.666-4.77,0.304-7.234-1.992c-0.196-0.199-4.741-4.78-8.306-3.979l-1.199-1.499
	c-0.092-0.115-0.251-0.153-0.387-0.092c-0.135,0.062-0.21,0.207-0.183,0.353l0.112,0.611l-0.397-0.472
	c-0.098-0.117-0.264-0.149-0.399-0.077c-0.135,0.071-0.2,0.228-0.158,0.374l0.518,1.797c-0.177,0.36-0.55,1.272-0.665,2.187
	c-0.413,0.48-2.39,2.935-1.243,4.536c0.019,0.026,0.042,0.05,0.068,0.069c0.026,0.021,0.685,0.508,1.43,0.314
	c0.476-0.122,0.864-0.476,1.159-1.054c0.48-0.079,1.806-0.357,2.71-1.123c0.302,1.071,1.146,3.364,3.145,4.954
	c-0.067,0.492-0.132,1.751,0.721,2.781c0.034,0.209,0.075,0.899-0.806,1.335c-1.746,0.869-2.528,2.111-2.321,3.62
	c-0.026,0.274-0.237,2.645,0.422,3.594c0.082,0.529,0.425,2.237,1.447,2.265c0.086,0.032,0.189,0.039,0.299-0.007
	c0.288-0.121,0.399-0.51,0.396-1.336c0.072-0.434,0.006-1.254-0.67-1.569c0.027-0.375,0.014-1.034-0.33-1.489
	c-0.015-0.369,0.003-1.722,0.964-2.301c0.253-0.08,2.431-0.792,3.175-1.513c0.521,1.049,2.069,3.727,3.375,4.853
	c0.069,0.308,0.282,1.093,0.71,1.495v0.728c-0.473,0.281-1.551,1.007-1.551,1.775c0,0.055,0.015,0.246,0.206,0.414
	c0.181,0.158,0.451,0.236,0.804,0.236c0.129,0,0.27-0.01,0.421-0.032h0.85c0.037,0,0.073-0.005,0.107-0.018
	c0.083-0.029,0.822-0.305,0.959-0.905c0.064-0.283-0.014-0.566-0.229-0.846c0.183-0.388,0.412-1.22-0.241-2.25l-2.445-6.446
	c-0.001,0-0.027-0.079,0.006-0.124c0.016-0.021,0.182-0.212,1.028-0.124c0.217,0.028,5.228,0.62,8.141-1.288
	c0.598,0.687,1.401,1.456,2.478,2.205c0.055,0.589,0.049,1.786-0.485,2.25l-0.823,0.719c-0.074,0.052-1.742,1.258-1.45,2.73
	c-0.175,0.345-0.587,1.345,0.071,2.04c0.026,0.028,0.057,0.05,0.091,0.067c0.012,0.006,0.14,0.066,0.325,0.066
	c0.281,0,0.697-0.137,1.063-0.803c0.21-0.158,0.716-0.59,0.685-1.098c-0.01-0.159-0.075-0.371-0.306-0.558
	c0.068-0.2,0.235-0.528,0.626-0.799c0.43-0.397,2.552-2.386,2.9-3.102c0.362,0.162,0.739,0.318,1.139,0.467
	c0.705,0.262,1.538,1.091,1.699,2.3l0.418,2.626c-0.452,0.39-1.529,1.414-1.419,2.218c0.001,0.126,0.052,0.287,0.192,0.418
	c0.167,0.156,0.423,0.232,0.759,0.232c0.208,0,0.447-0.029,0.716-0.088c0.068-0.002,0.678-0.034,1.064-0.474
	c0.154-0.178,0.33-0.494,0.279-0.99c-0.005-0.048-0.022-0.097-0.047-0.137c-0.02-0.033-0.065-0.139-0.053-0.185
	c0.045-0.025,0.094-0.063,0.139-0.119c0.163-0.201,0.334-0.671-0.035-2.428c0.035-0.474,0.211-3.886-1.817-5.583
	c-0.022-0.019-0.055-0.038-0.081-0.05c-0.01-0.004-0.95-0.451-1.136-2.683c-0.03-0.362-0.16-1.011-0.298-1.698
	c-0.08-0.4-0.185-0.927-0.266-1.4c0.475,0.829,1.371,1.983,3.009,3.029l0.193,0.126c0.656,0.432,1.4,0.92,3.136,0.92
	c0.11,0,0.214-0.056,0.272-0.149C78.204-78.865,78.212-78.982,78.166-79.082z M66.978-72.528c-0.812,0.558-0.909,1.379-0.913,1.414
	c-0.015,0.132,0.054,0.26,0.173,0.321c0.108,0.057,0.175,0.118,0.178,0.165c0.009,0.135-0.243,0.415-0.474,0.574
	c-0.044,0.03-0.08,0.071-0.104,0.119c-0.217,0.419-0.424,0.525-0.525,0.529c-0.357-0.489,0.127-1.313,0.132-1.322
	c0.044-0.076,0.057-0.167,0.033-0.252c-0.302-1.095,1.156-2.153,1.196-2.183l0.849-0.738c0.638-0.556,0.739-1.602,0.729-2.303
	c0.442,0.275,0.927,0.542,1.449,0.799C69.483-74.95,67.899-73.387,66.978-72.528z M75.092-80.083l-0.201-0.131
	c-2.684-1.715-3.22-3.755-3.226-3.776c-0.014-0.057-0.044-0.11-0.085-0.151c-0.248-0.248-0.457-0.193-0.562-0.139
	c-0.386,0.207-0.312,0.813,0.148,3.108c0.134,0.668,0.26,1.3,0.287,1.625c0.198,2.378,1.214,3.062,1.474,3.199
	c1.845,1.581,1.56,5.021,1.557,5.056c-0.003,0.032-0.001,0.064,0.007,0.096c0.291,1.37,0.214,1.804,0.181,1.911
	c-0.009,0.005-0.016,0.01-0.023,0.016c-0.337,0.254-0.32,0.671-0.159,0.982c0.009,0.183-0.033,0.326-0.126,0.434
	c-0.169,0.195-0.492,0.251-0.656,0.263c-0.328,0.068-0.548,0.083-0.693,0.083c-0.175,0-0.239-0.021-0.251,0
	c0.003-0.029,0.001-0.058-0.004-0.086c-0.075-0.398,0.749-1.284,1.329-1.758c0.09-0.073,0.134-0.187,0.115-0.301l-0.446-2.799
	c-0.196-1.473-1.203-2.473-2.112-2.812c-1.428-0.531-2.598-1.166-3.556-1.821c-0.013-0.011-0.025-0.017-0.04-0.025
	c-2.911-2.006-3.822-4.199-3.834-4.229c-0.066-0.165-0.255-0.247-0.418-0.18c-0.166,0.066-0.247,0.253-0.183,0.418
	c0.027,0.069,0.327,0.785,1.078,1.756c-2.729,1.731-7.598,1.155-7.654,1.148c-0.845-0.088-1.375,0.039-1.626,0.388
	c-0.25,0.347-0.089,0.727-0.077,0.75l2.466,6.483c0.675,1.074,0.183,1.786,0.164,1.813c-0.097,0.129-0.083,0.309,0.03,0.422
	c0.119,0.118,0.254,0.289,0.222,0.431c-0.041,0.183-0.327,0.35-0.497,0.421l-0.832,0.003c-0.16,0.021-0.289,0.028-0.391,0.028
	c-0.247,0-0.34-0.043-0.351-0.02c0.024-0.375,0.833-0.987,1.383-1.288c0.104-0.057,0.167-0.166,0.167-0.284v-1.07
	c0-0.11-0.056-0.212-0.146-0.271c-0.274-0.177-0.515-0.869-0.598-1.304c-0.015-0.075-0.055-0.142-0.113-0.19
	c-1.28-1.042-2.955-4-3.354-4.838c0.926-0.765,2.901-2.605,2.711-4.266c-0.021-0.177-0.168-0.306-0.357-0.284
	c-0.178,0.02-0.306,0.181-0.284,0.357c0.166,1.446-2.045,3.402-2.956,4.072c-0.529,0.556-2.346,1.22-3.069,1.459
	c-1.528,0.907-1.349,2.956-1.34,3.042c0.008,0.07,0.037,0.136,0.085,0.188c0.302,0.326,0.258,1.059,0.215,1.313
	c-0.028,0.171,0.083,0.334,0.252,0.37c0.561,0.117,0.462,0.843,0.445,0.978c0,0.411-0.029,0.633-0.054,0.748
	c-0.381-0.058-0.716-1.051-0.818-1.789c-0.007-0.059-0.031-0.114-0.069-0.16c-0.423-0.516-0.431-2.235-0.339-3.272
	c-0.17-1.296,0.474-2.288,1.967-3.03c1.201-0.595,1.262-1.667,1.127-2.149c-0.013-0.047-0.036-0.089-0.068-0.125
	c-0.906-1.038-0.598-2.471-0.594-2.485c0.027-0.124-0.021-0.253-0.121-0.33c-2.556-1.928-3.192-5.232-3.198-5.266
	c-0.023-0.126-0.119-0.227-0.243-0.256c-0.128-0.029-0.255,0.019-0.332,0.12c-0.827,1.093-2.861,1.348-2.882,1.351
	c-0.112,0.014-0.21,0.085-0.256,0.188c-0.217,0.483-0.487,0.771-0.804,0.853c-0.368,0.098-0.732-0.104-0.848-0.177
	c-0.717-1.106,0.687-3.084,1.297-3.761c0.046-0.051,0.074-0.115,0.082-0.183c0.105-1.016,0.599-2.061,0.648-2.143
	c0.054-0.079,0.068-0.178,0.042-0.269l-0.134-0.464l0.205,0.244c0.094,0.112,0.252,0.145,0.385,0.084
	c0.133-0.063,0.206-0.207,0.181-0.351l-0.101-0.547l0.527,0.659c0.082,0.103,0.216,0.145,0.343,0.108
	c3.207-0.933,7.83,3.71,7.888,3.767c2.677,2.492,5.9,2.868,7.904,2.136c2.863-1.046,4.951-1.178,6.979-0.444
	c0.727,0.263,1.979,0.553,2.033,0.566c0.064,0.013,0.133,0.008,0.196-0.017c2.961-1.232,6.308,4.824,7.215,6.599
	C76.176-79.37,75.626-79.732,75.092-80.083z"/>
</svg>
