<?xml version="1.0" encoding="utf-8"?>
<!-- Generator: Adobe Illustrator 16.0.0, SVG Export Plug-In . SVG Version: 6.00 Build 0)  -->
<!DOCTYPE svg PUBLIC "-//W3C//DTD SVG 1.1//EN" "http://www.w3.org/Graphics/SVG/1.1/DTD/svg11.dtd">
<svg version="1.1" id="Layer_1" xmlns="http://www.w3.org/2000/svg" xmlns:xlink="http://www.w3.org/1999/xlink" x="0px" y="0px"
	 width="50px" height="50px" viewBox="104.5 -105.5 50 50" enable-background="new 104.5 -105.5 50 50" xml:space="preserve">
<path d="M148.282-85.316c-0.212-0.659-1.227-3.745-1.933-4.739c0.082-0.22,0.154-0.55,0.018-0.857
	c-0.066-0.146-0.197-0.325-0.458-0.445l0.156-1.682c0.014-0.141-0.055-0.276-0.175-0.35c-0.12-0.074-0.271-0.07-0.391,0.004
	l-1.696,1.085c-0.764-0.168-3.842-0.51-7.359,3.706c-0.429,0.271-4.424,2.636-12.472,2.253c-0.698-0.032-3.02-0.048-4.449,1.081
	c-0.688-0.077-3.265-0.219-5.513,1.432c-1.781,1.307-2.893,3.4-3.307,6.222c-0.017,0.117,0.023,0.235,0.108,0.318
	c0.086,0.083,0.207,0.118,0.321,0.099c0.091-0.016,2.243-0.423,4.929-3.11c0.242-0.243,0.433-0.557,0.633-0.89
	c0.22-0.366,0.445-0.737,0.744-1.022c-0.207,0.873-0.213,2.289,0.822,4.234c-0.519,0.31-1.56,0.924-1.995,1.111l-0.093,0.039
	c-0.417,0.171-1.049,0.431-1.152,1.734c-0.214,2.692-0.666,3.811-0.99,4.274c-0.185-0.05-0.429-0.074-0.67,0.035
	c-0.204,0.094-0.469,0.317-0.568,0.848l-0.293,1.5c-0.008,0.04-0.009,0.08-0.004,0.12c0.009,0.06,0.093,0.594,0.551,0.73
	c0.066,0.02,0.131,0.028,0.197,0.028c0.414,0,0.803-0.364,1.085-0.685c0.373-0.172,1.6-0.916,1.977-3.32
	c-0.004-0.122-0.079-2.997,2.282-3.319c1.124-0.153,1.995-0.452,2.683-0.815c-0.059,0.196-0.164,0.49-0.364,0.935
	c-0.019,0.027-0.477,0.694-0.242,1.468c0.178,0.584,0.682,1.046,1.501,1.375c0.374,0.271,2.247,1.625,3.082,2.175
	c-0.1,0.213-0.178,0.495-0.096,0.769c0.055,0.184,0.202,0.428,0.575,0.552l1.538,0.585c0.042,0.017,0.086,0.024,0.13,0.024
	c0.058,0,0.113-0.014,0.166-0.04c0.092-0.047,0.162-0.13,0.189-0.229c0.02-0.075,0.489-1.84-1.297-3.097l-3.035-2.407
	c0.03-0.312,0.146-1.07,0.59-2.304c0.032-0.086,0.065-0.193,0.103-0.315c0.156-0.503,0.417-1.346,0.87-1.513
	c0.194-0.07,0.448-0.01,0.73,0.168c0.115,0.085,2.868,2.07,8.954,0.895c0.012-0.003,0.017-0.016,0.027-0.018
	c0.418,0.314,0.877,0.596,1.369,0.824c0.083,0.13,0.622,1.122-0.702,3.227c-0.311,0.473-1.271,1.667-2.225,1.957
	c-0.081-0.109-0.2-0.218-0.371-0.275c-0.318-0.107-0.685,0.005-1.088,0.336c-0.024,0.02-0.045,0.043-0.064,0.07l-0.755,1.06
	c-0.059,0.106-0.337,0.656,0.003,1.009c0.123,0.13,0.289,0.195,0.509,0.195c0.334,0,0.795-0.154,1.421-0.466
	c0.004-0.002,0.463-0.196,0.858-0.227c0.127-0.005,1.305-0.12,3.444-2.469c0.711-0.779,1.379-1.533,1.732-3.891
	c0.914,0.021,2.484,0.446,3.143,4.635c0.005,0.038,0.017,0.075,0.034,0.108c0.005,0.013,0.034,0.068,0.087,0.153
	c-0.139,0.092-0.273,0.222-0.353,0.406c-0.088,0.209-0.13,0.557,0.18,1.019c0.018,0.026,0.038,0.05,0.062,0.071l1.28,1.135
	c0.204,0.18,0.616,0.128,0.898-0.268c0.291-0.41,0.28-1.061-0.033-1.988c-0.052-0.561-0.562-5.282-3.332-6.871
	c-0.063-0.035-1.517-0.873-1.423-2.476c0.026-0.451,0.083-1.392,0.315-1.869c0.229-0.46,0.586-0.941,1-1.498
	c0.59-0.792,1.322-1.777,2.014-3.151c0.098-0.194,0.279-0.426,0.467-0.439c0.222-0.029,0.502,0.228,0.804,0.667
	c0.102,0.145,0.201,0.344,0.314,0.562c0.368,0.712,0.872,1.688,1.804,1.829c0.729,0.037,2.107-0.325,2.214-1.881
	C148.302-85.226,148.297-85.272,148.282-85.316z M136.521-71.9c-1.894,2.079-2.905,2.201-2.918,2.202
	c-0.531,0.041-1.083,0.275-1.125,0.294c-0.576,0.288-0.879,0.37-1.023,0.392c0.009-0.029,0.018-0.054,0.024-0.067l0.703-0.984
	c0.24-0.19,0.347-0.177,0.346-0.178c0.013,0.008,0.041,0.052,0.049,0.082c0.044,0.183,0.219,0.306,0.405,0.28
	c1.578-0.202,2.937-2.25,2.997-2.343c0.979-1.557,1.063-2.635,0.947-3.303c0.368,0.105,0.754,0.17,1.153,0.193
	C137.761-73.282,137.222-72.668,136.521-71.9z M146.156-84.03c-0.52-0.081-0.908-0.831-1.22-1.435
	c-0.129-0.25-0.248-0.478-0.363-0.644c-0.472-0.686-0.968-1.009-1.461-0.983c-0.607,0.042-0.954,0.604-1.074,0.844
	c-0.663,1.317-1.374,2.273-1.947,3.042c-0.436,0.586-0.811,1.091-1.069,1.613c-0.298,0.61-0.358,1.613-0.391,2.151
	c-0.122,2.071,1.721,3.119,1.795,3.16c2.544,1.458,2.961,6.287,2.966,6.335c0.002,0.031,0.008,0.062,0.019,0.091
	c0.322,0.934,0.204,1.263,0.155,1.347l-1.063-0.941c-0.09-0.146-0.106-0.241-0.089-0.283c0.033-0.079,0.207-0.153,0.311-0.173
	c0.13-0.023,0.237-0.115,0.282-0.239c0.045-0.125,0.02-0.264-0.067-0.364c-0.13-0.152-0.216-0.29-0.256-0.358
	c-0.763-4.763-2.742-5.236-4.212-5.188c-0.052,0.002-0.104,0.002-0.156,0.002c-3.294,0-5.735-4.042-5.761-4.083
	c-0.104-0.176-0.332-0.234-0.506-0.128c-0.175,0.104-0.232,0.33-0.128,0.504c0.058,0.098,0.803,1.332,2.043,2.474
	c-5.329,0.882-7.788-0.84-7.835-0.872c-0.508-0.323-0.979-0.409-1.403-0.253c-0.795,0.292-1.11,1.311-1.32,1.986
	c-0.033,0.109-0.063,0.206-0.09,0.283c-0.655,1.815-0.646,2.695-0.645,2.731c0.002,0.11,0.053,0.213,0.139,0.281l3.202,2.538
	c0.907,0.64,1.068,1.424,1.07,1.895l-1.108-0.422c-0.063-0.021-0.11-0.049-0.115-0.07c-0.026-0.086,0.075-0.314,0.182-0.452
	c0.066-0.086,0.091-0.197,0.068-0.302c-0.022-0.106-0.09-0.197-0.187-0.248c-0.332-0.18-2.193-1.506-3.361-2.354
	c-0.025-0.019-0.054-0.034-0.082-0.045c-0.611-0.239-0.995-0.554-1.106-0.913c-0.133-0.429,0.139-0.837,0.173-0.898
	c0.427-0.943,0.588-1.478,0.52-1.801c0.549-0.419,0.93-0.873,1.177-1.281c0.762-1.263,0.717-2.636,0.511-3.206
	c-0.069-0.191-0.28-0.291-0.474-0.22c-0.19,0.07-0.29,0.281-0.221,0.473c0.132,0.357,0.199,1.501-0.448,2.572
	c-0.738,1.221-2.124,1.979-4.123,2.25c-2.41,0.33-2.962,2.81-2.912,4.004c-0.358,2.242-1.537,2.693-1.583,2.71
	c-0.063,0.021-0.12,0.06-0.163,0.11c-0.365,0.426-0.544,0.483-0.553,0.502c-0.013-0.016-0.026-0.05-0.036-0.083l0.277-1.43
	c0.032-0.167,0.088-0.285,0.149-0.313c0.075-0.038,0.229,0.017,0.29,0.051c0.143,0.083,0.328,0.063,0.448-0.057
	c0.692-0.693,1.146-2.347,1.351-4.917c0.069-0.853,0.347-0.967,0.7-1.111l0.103-0.043c0.635-0.272,2.319-1.298,2.391-1.341
	c0.17-0.104,0.227-0.326,0.127-0.499c-1.807-3.147-0.653-4.695-0.605-4.756c0.098-0.122,0.109-0.292,0.026-0.426
	c-0.083-0.134-0.236-0.201-0.395-0.167c-1.095,0.244-1.616,1.111-2.038,1.808c-0.176,0.293-0.344,0.57-0.522,0.75
	c-1.744,1.745-3.249,2.467-4.011,2.745c0.441-2.324,1.418-4.056,2.908-5.153c2.313-1.701,5.109-1.286,5.138-1.281
	c0.107,0.016,0.219-0.015,0.301-0.087c0.959-0.838,2.712-1.069,4.061-1.006c8.778,0.404,12.798-2.293,12.965-2.409
	c0.027-0.019,0.053-0.042,0.075-0.067c3.647-4.407,6.648-3.514,6.773-3.473c0.104,0.034,0.221,0.021,0.315-0.039l1.194-0.765
	l-0.113,1.225c-0.018,0.189,0.111,0.361,0.298,0.396c0.063,0.013,0.213,0.048,0.248,0.124c0.045,0.098-0.025,0.31-0.092,0.423
	c-0.09,0.153-0.061,0.348,0.071,0.465c0.397,0.353,1.332,2.854,1.885,4.562C147.435-84.024,146.23-84.047,146.156-84.03z"/>
</svg>
