<?xml version="1.0" encoding="utf-8"?>
<!-- Generator: Adobe Illustrator 16.0.0, SVG Export Plug-In . SVG Version: 6.00 Build 0)  -->
<!DOCTYPE svg PUBLIC "-//W3C//DTD SVG 1.1//EN" "http://www.w3.org/Graphics/SVG/1.1/DTD/svg11.dtd">
<svg version="1.1" id="Layer_1" xmlns="http://www.w3.org/2000/svg" xmlns:xlink="http://www.w3.org/1999/xlink" x="0px" y="0px"
	 width="50px" height="50px" viewBox="174.5 -105.5 50 50" enable-background="new 174.5 -105.5 50 50" xml:space="preserve">
<path d="M217.599-68.838c0-0.242-0.034-5.909-3.024-7.223c-0.518-0.505-2.487-2.381-3.462-2.708c0.441-0.72,1.602-2.891,0.858-4.76
	c-0.361-1.811-0.655-4.752-0.142-6.004c0.249,0.479,0.667,1.134,1.253,1.547c0.215,0.379,1.138,1.865,2.358,1.686
	c0.045,0,0.443-0.012,0.755-0.436c0.539-0.733,0.467-2.231-0.215-4.452c0.056-0.395,0.19-1.927-0.772-3.419l0.473-2.154
	c0.031-0.137-0.022-0.28-0.133-0.366c-0.112-0.085-0.262-0.098-0.389-0.034l-1.997,1.038c-0.906-0.155-5.854-0.654-8.461,6.064
	c-0.018,0.044-1.809,4.384-5.78,4.384c-0.021,0-0.044,0-0.064,0c-0.592-0.007-1.314-0.098-2.08-0.195
	c-2.999-0.377-7.097-0.896-9.639,2.722c-0.537,0.011-1.968,0.164-3.325,1.39c-1.78,1.608-2.725,4.382-2.808,8.246
	c-0.002,0.099,0.035,0.193,0.105,0.264c0.068,0.068,0.16,0.106,0.257,0.106c0.002,0,0.005,0,0.006,0
	c0.144-0.002,3.529-0.147,4.489-7.594c0.003-0.004,0.179-0.417,0.486-0.548c0.053-0.022,0.108-0.035,0.166-0.038
	c-0.136,1.009-0.209,3.902,2.698,6.789c-0.012,0.444-0.151,1.908-1.424,2.927c-0.051,0.037-0.499,0.379-0.522,1.069
	c-0.027,0.803,0.539,1.699,1.683,2.662c0.311,0.588,1.46,2.635,2.646,3.12c-0.039,0.223-0.037,0.5,0.114,0.739
	c0.124,0.197,0.392,0.431,0.96,0.431h1.519c0.096,0,0.188-0.038,0.256-0.105c0.103-0.103,0.205-0.303,0.184-0.555
	c-0.03-0.358-0.298-0.716-0.848-1.097c-0.039-0.019-3.877-1.908-3.229-5.208c0.271-0.057,0.745-0.182,1.32-0.406
	c-0.104,0.346-0.162,0.783,0.013,1.179c0.119,0.269,0.393,0.616,1.025,0.769c0.516,0.374,3.003,2.16,4.274,2.732
	c-0.145,0.382-0.282,0.959-0.026,1.386c0.126,0.21,0.396,0.46,0.964,0.46h1.632c0.138,0,0.263-0.077,0.324-0.2
	c0.023-0.047,0.556-1.166-0.947-2.473l-4.099-3.142c-0.031-0.042-0.759-1.023,0.064-2.794c0.736-0.729,1.425-1.671,1.97-2.863
	c0.71,0.404,2.726,1.418,5.134,1.418c1.287,0,2.679-0.292,4.029-1.129c0.033-0.021,0.059-0.048,0.082-0.077
	c0.309,0.177,0.632,0.344,0.986,0.483c0.025,0.026,1.391,1.37,2.317,2.496l-0.162,2.766c-0.042,0.15-0.153,0.601-0.105,1.168
	c-0.203,0.041-0.442,0.13-0.647,0.316c-0.283,0.255-0.426,0.621-0.423,1.031c-0.016,0.103-0.135,1.015,0.333,1.556
	c0.209,0.242,0.502,0.372,0.905,0.372c0.009,0,0.016,0,0.022,0c0.133-0.021,1.296-0.283,1.54-2.675l0.494-4.114
	c0.093-0.133,0.22-0.377,0.228-0.733c0.012-0.538-0.26-1.131-0.776-1.764c0.327-0.044,0.664-0.104,1.013-0.191
	c0.679,0.313,2.182,1.174,2.6,2.18c0.061,0.538,0.334,2.55,1.151,3.283c-0.038,0.1-0.136,0.215-0.372,0.269
	c-0.049,0.012-0.096,0.033-0.136,0.063c-0.157,0.119-0.414,0.435-0.365,0.866c0.07,0.641,0.747,1.241,2.118,1.853
	c0.133,0.037,0.338,0.019,0.507-0.143C217.869-66.926,217.886-67.639,217.599-68.838z M198.671-66.542
	c0.71,0.618,0.808,1.124,0.795,1.389h-1.345c-0.126,0-0.288-0.019-0.342-0.108c-0.119-0.197,0.046-0.734,0.211-1.046
	c0.052-0.098,0.057-0.213,0.012-0.315c-0.044-0.102-0.132-0.177-0.238-0.205c-0.818-0.217-3.518-2.101-4.488-2.809
	c-0.041-0.03-0.09-0.052-0.141-0.063c-0.467-0.097-0.558-0.301-0.587-0.368c-0.161-0.362,0.105-0.958,0.212-1.139
	c0.032-0.055,0.043-0.114,0.045-0.173c0.402-0.208,0.825-0.468,1.253-0.782c-0.271,1.476,0.386,2.339,0.47,2.429L198.671-66.542z
	 M210.155-74.688c1.07,1.11,0.998,1.791,0.819,1.988c-0.062,0.058-0.101,0.136-0.111,0.22l-0.507,4.223
	c-0.183,1.789-0.905,2.03-0.882,2.036c-0.186-0.001-0.27-0.072-0.315-0.125c-0.214-0.246-0.19-0.802-0.162-1.03
	c0-0.249,0.063-0.432,0.185-0.544c0.206-0.189,0.541-0.162,0.543-0.164c0.115,0.014,0.229-0.033,0.306-0.119
	c0.077-0.086,0.108-0.204,0.084-0.317c-0.144-0.672,0.04-1.239,0.041-1.245c0.011-0.03,0.017-0.063,0.02-0.094l0.172-2.95
	c0.005-0.09-0.023-0.179-0.08-0.249c-0.484-0.599-1.093-1.258-1.585-1.772c0.457,0.08,0.942,0.12,1.46,0.107
	C210.149-74.712,210.146-74.698,210.155-74.688z M217.062-67.245c-1.257-0.601-1.411-1.025-1.428-1.146
	c-0.011-0.081,0.021-0.142,0.047-0.178c0.73-0.219,0.878-0.837,0.851-1.146c-0.011-0.119-0.079-0.225-0.183-0.284
	c-0.507-0.285-0.89-1.883-0.998-2.927c-0.004-0.031-0.012-0.063-0.022-0.092c-0.609-1.588-3.017-2.633-3.119-2.677
	c-0.075-0.032-0.158-0.039-0.235-0.017c-5.506,1.458-8.076-3.27-8.182-3.473c-0.094-0.178-0.314-0.246-0.489-0.153
	c-0.178,0.093-0.246,0.312-0.152,0.488c0.015,0.029,0.833,1.541,2.491,2.729c-3.539,2.022-7.464,0.017-8.298-0.459
	c0.346-0.914,0.614-1.948,0.749-3.152c0.022-0.199-0.12-0.378-0.319-0.4c-0.199-0.022-0.379,0.122-0.4,0.32
	c-0.333,2.965-1.438,4.908-2.686,6.188c-0.089,0.03-0.166,0.094-0.21,0.185c-0.005,0.01-0.007,0.018-0.011,0.028
	c-1.934,1.843-4.111,2.168-4.264,2.188c-0.146,0.019-0.269,0.126-0.305,0.27c-1.014,4,3.506,6.233,3.515,6.233
	c0.26,0.183,0.383,0.321,0.443,0.409h-1.188c-0.181,0-0.309-0.035-0.347-0.093c-0.059-0.092-0.005-0.329,0.054-0.456
	c0.054-0.11,0.047-0.239-0.016-0.343c-0.063-0.104-0.174-0.17-0.295-0.176c-0.707-0.031-1.892-1.712-2.506-2.896
	c-0.022-0.043-0.053-0.081-0.091-0.112c-0.962-0.798-1.486-1.547-1.479-2.109c0.005-0.349,0.219-0.52,0.237-0.534
	c1.813-1.45,1.714-3.587,1.71-3.677c-0.007-0.092-0.045-0.177-0.11-0.24c-3.336-3.23-2.576-6.432-2.542-6.566
	c0.044-0.175-0.047-0.356-0.214-0.425c-0.347-0.143-0.693-0.146-1.006-0.015c-0.583,0.248-0.847,0.876-0.898,1.034
	c-0.696,5.332-2.603,6.635-3.423,6.95c0.14-3.398,0.994-5.833,2.539-7.241c1.439-1.309,3.001-1.213,3.017-1.213
	c0.125,0.012,0.256-0.053,0.329-0.161c2.282-3.424,6.04-2.949,9.057-2.57c0.787,0.099,1.53,0.193,2.161,0.201
	c0.026,0,0.052,0,0.078,0c4.451,0,6.368-4.64,6.45-4.843c2.628-6.767,7.547-5.648,7.756-5.599c0.085,0.022,0.177,0.011,0.255-0.03
	l1.421-0.739l-0.34,1.549c-0.021,0.099-0.001,0.201,0.056,0.284c1.021,1.476,0.733,3.083,0.73,3.099
	c-0.011,0.059-0.007,0.119,0.011,0.176c0.84,2.696,0.537,3.595,0.369,3.857c-0.1,0.154-0.201,0.171-0.243,0.176
	c-0.749,0.096-1.49-0.961-1.709-1.383c-0.03-0.055-0.072-0.103-0.125-0.137c-0.838-0.544-1.313-1.831-1.316-1.844
	c-0.04-0.111-0.133-0.196-0.247-0.227c-0.115-0.031-0.237-0.004-0.326,0.072c-1.529,1.282-0.525,6.556-0.388,7.215
	c0.676,1.71-0.557,3.818-0.854,4.288c-0.313,0.13-0.353,0.338-0.345,0.46c0.026,0.385,0.483,0.445,0.759,0.482
	c0.451,0.06,2.021,1.368,3.278,2.599c0.032,0.032,0.072,0.059,0.115,0.076c2.608,1.075,2.643,6.526,2.651,6.663
	C217.093-67.85,217.09-67.428,217.062-67.245z"/>
</svg>
