<?xml version="1.0" encoding="utf-8"?>
<!-- Generator: Adobe Illustrator 16.0.0, SVG Export Plug-In . SVG Version: 6.00 Build 0)  -->
<!DOCTYPE svg PUBLIC "-//W3C//DTD SVG 1.1//EN" "http://www.w3.org/Graphics/SVG/1.1/DTD/svg11.dtd">
<svg version="1.1" id="Layer_1" xmlns="http://www.w3.org/2000/svg" xmlns:xlink="http://www.w3.org/1999/xlink" x="0px" y="0px"
	 width="50px" height="50px" viewBox="314.5 -105.5 50 50" enable-background="new 314.5 -105.5 50 50" xml:space="preserve">
<path d="M326.727-82.387c0.98,1.83,1.271,2.725,1.282,2.762c0.039,0.125-0.007,0.262-0.114,0.337
	c-0.052,0.036-0.111,0.054-0.172,0.054c-0.064,0-0.129-0.021-0.183-0.062c-1.135-0.873-1.367-2.833-1.376-2.917
	c-0.017-0.143,0.071-0.277,0.209-0.32C326.51-82.574,326.658-82.514,326.727-82.387z M354.789-65.937
	c-0.018,0.142-0.134,0.252-0.276,0.262c-0.143,0.008-0.272-0.082-0.311-0.219c-0.441-1.601-1.438-1.446-2.492-1.287
	c-0.399,0.062-0.777,0.121-1.104,0.064c-2.071-0.345-2.796-2.64-3.027-3.756c-2.071,1.914-5.125,2.077-5.263,2.083
	c-0.37-0.066-0.574-0.038-0.684,0.078c-0.232,0.25-0.119,0.892-0.062,1.097c0.008,0.026,0.012,0.054,0.012,0.082
	c0,1.736-4.336,2.921-5.522,3.213c-0.83,1.512-2.391,1.797-2.459,1.808c-0.015,0-0.028,0-0.043,0c-1.36,0-2.011-0.207-2.155-0.665
	c-0.14-0.443,0.296-0.831,0.473-0.967c0.823-1.291,2.361-1.58,2.428-1.592c1.749-0.501,2.799-1.611,3.102-1.969
	c-0.542-1.805-0.262-3.36,0.217-4.53c-4.065-1.929-5.818-5.501-6.126-6.19c-0.66,0.135-1.287,0.13-1.676,0.108l0.053,0.377
	c-0.009,0.205-0.043,0.627-0.365,0.777c-0.047,0.022-0.095,0.035-0.143,0.041c-0.118,0.339-0.309,0.536-0.567,0.584
	c-0.612,0.114-1.2-0.698-1.423-1.032c-0.948-0.587-1.478-1.113-1.5-1.136c-0.021-0.022-0.04-0.048-0.055-0.076l-1.45-2.847
	c-0.628-1.376,0.706-2.614,0.763-2.666c0.246-0.323,0.572-0.511,0.935-0.522c0.615-0.024,1.004,0.439,1.05,0.491
	c0.413,0.438,0.782,0.656,1.031,0.764c0.081-2,1.371-3.118,1.881-3.484c-0.236-0.895-0.095-2.03,0.081-2.872
	c-0.688,0.462-1.435,0.486-1.784,0.467c-0.339,0.456-0.711,0.71-1.108,0.757c-0.49,0.056-0.815-0.229-0.851-0.262
	c-0.495-0.319-0.802-0.768-0.874-1.304c-0.127-0.942,0.54-1.823,0.706-2.025c0.763-1.892,1.571-3.067,1.997-3.612l-0.427-0.134
	c-0.103-0.032-0.18-0.116-0.203-0.221s0.012-0.214,0.091-0.287c0.494-0.449,1.183-0.462,1.555-0.432l0.459-1.325
	c0.038-0.11,0.137-0.188,0.252-0.2c0.126-0.013,0.229,0.045,0.289,0.144l0.745,1.245c6.242,1.944,6.626,6.656,6.812,8.927
	c0.434,5.308,2.112,5.804,3.889,6.328c0.194,0.058,0.388,0.115,0.578,0.177c6.601,2.176,6.568,5.652,6.545,8.19
	c-0.021,2.213,1.48,2.758,2.474,3.12C355.119-68.951,354.793-65.967,354.789-65.937z M353.898-67.498
	c-0.359-0.771-1.133-1.674-2.784-2.276c-1.077-0.392-2.96-1.076-2.936-3.667c0.023-2.529,0.052-5.621-6.132-7.66
	c-0.185-0.061-0.372-0.116-0.561-0.171c-1.805-0.533-3.85-1.136-4.316-6.854c-0.176-2.153-0.541-6.632-6.499-8.436
	c-0.071-0.021-0.132-0.069-0.171-0.133l-0.474-0.792l-0.329,0.95c-0.049,0.142-0.194,0.228-0.348,0.195
	c-0.004-0.001-0.31-0.063-0.643-0.02l0.098,0.031c0.099,0.031,0.175,0.111,0.2,0.211c0.026,0.1-0.002,0.207-0.073,0.282
	c-0.011,0.012-1.157,1.236-2.194,3.825c-0.013,0.032-0.03,0.061-0.053,0.086c-0.007,0.008-0.704,0.815-0.598,1.593
	c0.049,0.359,0.261,0.657,0.647,0.911c0.044,0.034,0.204,0.167,0.421,0.135c0.25-0.033,0.518-0.255,0.776-0.641
	c0.064-0.097,0.181-0.147,0.296-0.13c0.06,0.011,1.473,0.21,2.215-1.087c0.077-0.134,0.24-0.188,0.384-0.125
	c0.141,0.063,0.21,0.223,0.161,0.369c-0.008,0.024-0.821,2.496-0.324,3.884c0.049,0.136-0.007,0.288-0.131,0.36
	c-0.077,0.045-1.885,1.131-1.785,3.487c0.004,0.086-0.029,0.169-0.092,0.229c-0.062,0.06-0.146,0.092-0.231,0.083
	c-0.083-0.007-0.839-0.091-1.751-1.06c-0.081-0.09-0.358-0.312-0.591-0.295c-0.175,0.006-0.347,0.117-0.512,0.329
	c-0.045,0.046-1.102,1.033-0.661,1.999l1.422,2.79c0.127,0.12,0.624,0.57,1.414,1.053c0.039,0.023,0.072,0.056,0.097,0.094
	c0.313,0.487,0.714,0.835,0.845,0.825c0,0,0.096-0.046,0.167-0.4c0.02-0.1,0.089-0.183,0.184-0.22
	c0.07-0.025,0.146-0.027,0.212-0.003c0.01-0.037,0.021-0.092,0.027-0.172l-0.104-0.686c-0.014-0.093,0.019-0.187,0.085-0.254
	c0.067-0.066,0.167-0.096,0.254-0.084c0.021,0.002,2.112,0.287,3.285-0.697c0.126-0.105,0.316-0.09,0.422,0.037
	c0.106,0.127,0.09,0.316-0.037,0.423c-0.328,0.275-0.708,0.468-1.098,0.601c0.379,0.798,2.106,4.051,5.786,5.803
	c0.563-1.11,1.232-1.755,1.246-1.769c0.121-0.113,0.31-0.109,0.424,0.012c0.114,0.121,0.108,0.31-0.012,0.424
	c-0.111,0.105-2.72,2.633-1.505,6.378c0.029,0.091,0.014,0.191-0.042,0.269c-0.049,0.067-1.216,1.648-3.544,2.313
	c-0.042,0.009-1.411,0.272-2.082,1.372c-0.021,0.035-0.05,0.065-0.083,0.089c-0.158,0.112-0.295,0.281-0.296,0.34
	c0.004,0,0.18,0.242,1.572,0.243c-0.017-0.002,1.374-0.273,2.04-1.607c0.04-0.079,0.112-0.137,0.199-0.158
	c2.131-0.507,5.122-1.65,5.192-2.626c-0.06-0.235-0.248-1.126,0.211-1.622c0.255-0.273,0.632-0.366,1.131-0.272
	c0.359-0.025,3.455-0.298,5.231-2.313c0.077-0.089,0.2-0.126,0.316-0.087c0.113,0.036,0.194,0.136,0.207,0.255
	c0.003,0.035,0.384,3.455,2.626,3.828c0.233,0.04,0.565-0.012,0.916-0.065C352.293-67.876,353.193-68.014,353.898-67.498z"/>
</svg>
