<?xml version="1.0" encoding="utf-8"?>
<!-- Generator: Adobe Illustrator 16.0.0, SVG Export Plug-In . SVG Version: 6.00 Build 0)  -->
<!DOCTYPE svg PUBLIC "-//W3C//DTD SVG 1.1//EN" "http://www.w3.org/Graphics/SVG/1.1/DTD/svg11.dtd">
<svg version="1.1" id="Layer_1" xmlns="http://www.w3.org/2000/svg" xmlns:xlink="http://www.w3.org/1999/xlink" x="0px" y="0px"
	 width="50px" height="50px" viewBox="-315.5 -35.5 50 50" enable-background="new -315.5 -35.5 50 50" xml:space="preserve">
<path d="M-275.927-12.887c0.445-0.166,0.827-0.625,1.105-1.312l3.233-4.878c0.08-0.121,0.068-0.28-0.029-0.387
	c-0.055-0.061-5.536-5.963-12.023-0.212c-1.374,1.216-3.015,3.104-3.282,5.347c-1.559-0.479-7.414-1.936-11.862,1.496
	c-0.841-0.883-4.094-3.92-7.489-2.033c-0.019,0.005-1.8,0.482-2.61-0.715c-0.079-0.116-0.225-0.165-0.357-0.125
	c-0.133,0.042-0.224,0.166-0.222,0.306c0,0.068,0.029,1.679,1.229,2.757c0.813,0.73,1.95,1.03,3.378,0.89l0.259-0.029
	c2.293-0.285,2.946,0.446,3.522,1.089c0.471,0.525,0.958,1.068,2.136,0.718c0.683,0.754,1.455,1.928,1.227,2.463
	c-0.148,0.35-0.766,0.423-1.258,0.423c-0.228,0-0.379,0-5.084,7.8c-0.059,0.098-0.061,0.22-0.004,0.319
	c0.056,0.099,0.161,0.161,0.275,0.161h5.616c0.175,0,0.316-0.142,0.316-0.316c0-0.045-0.017-0.824-0.624-1.538h5.225
	c0.175,0,0.316-0.142,0.316-0.316c0-0.062-0.017-1.521-1.591-2.277c-0.005-0.001-0.14-0.042-0.192-0.18
	c-0.048-0.128-0.069-0.437,0.335-1.075c0.037-0.058,0.035-0.123,0.032-0.186c0.582-0.182,1.152-0.408,1.65-0.697
	c0.854,0.156,2.391,0.265,3.82-0.533c1.539,0.629,3.714,1.208,5.936,0.783l-3.859,5.798c-0.065,0.097-0.071,0.222-0.016,0.325
	c0.055,0.103,0.163,0.167,0.28,0.167h5.565c0.169,0,0.309-0.133,0.316-0.302c0.002-0.05,0.039-1.254-1.522-2.513
	c-0.02-0.016-0.04-0.029-0.062-0.04c-0.015-0.101-0.004-0.593,1.082-2.074l1.607-2.464c1.063-0.564,2.945-1.272,3.701-0.855
	c0.033,0.018,0.065,0.041,0.092,0.062c0.203,0.164,0.245,0.276,0.239,0.313c-0.006,0.038-0.082,0.122-0.257,0.187
	c-0.289,0.108-0.625,0.087-0.732-0.002c-0.093-0.078-0.223-0.097-0.331-0.048c-0.11,0.049-0.184,0.155-0.189,0.276l-0.2,4.363
	c-0.005,0.107,0.045,0.21,0.132,0.272c0.089,0.063,0.201,0.076,0.301,0.037c0.113-0.044,2.742-1.116,3.097-3.847
	c0.218-0.366,1.228-2.184,0.561-3.392c-0.373-0.676-1.17-1.019-2.37-1.019c-0.06,0-0.274,0.028-0.556,0.067
	c-0.274,0.039-0.849,0.121-1.264,0.156c0.388-0.635,0.912-1.833,0.559-3.297c0.044,0.028,0.092,0.056,0.141,0.084
	C-276.6-12.876-276.311-12.742-275.927-12.887z M-299.444-1.402c-0.017-0.005-0.161-0.05-0.204-0.213
	c-0.056-0.211-0.022-0.866,1.469-2.408c0.16-0.01,0.457-0.031,0.838-0.074c-0.871,1.42-1.62,2.661-1.763,2.899
	C-299.213-1.268-299.315-1.34-299.444-1.402z M-295.302-3.191c0.175,0.43,0.58,0.54,0.559,0.526c0.777,0.376,1.04,0.994,1.129,1.368
	h-4.691c0.37-0.612,1.049-1.73,1.77-2.904c0-0.001,0-0.002,0-0.003c0.436-0.067,0.919-0.157,1.415-0.278
	C-295.374-3.972-295.442-3.536-295.302-3.191z M-281.682-4.145c-1.289,1.757-1.27,2.378-1.144,2.692
	c0.065,0.162,0.18,0.26,0.289,0.309c0.827,0.68,1.104,1.303,1.198,1.656h-4.61l3.983-5.984c0.008-0.012,0.015-0.024,0.021-0.037
	c0.003,0,0.006,0,0.01,0c0.483,0,0.918-0.09,1.278-0.208L-281.682-4.145z M-276.899-15.562c0.021,0.036,0.057,0.109,0.061,0.199
	c0.008,0.167-0.099,0.336-0.345,0.524c-0.023,0.022-0.156,0.152-0.248,0.358c-0.048-0.075-0.099-0.15-0.152-0.226
	c-0.067-0.212-0.341-1.23,0.244-2.158C-277.374-16.395-277.293-15.888-276.899-15.562z M-276.884-14.024
	c-0.024-0.18,0.116-0.333,0.111-0.333c0.333-0.252,0.522-0.543,0.562-0.866c0.052-0.423-0.181-0.724-0.264-0.811
	c-0.45-0.337-0.142-1.393,0.002-1.735c0.054-0.129,0.017-0.279-0.092-0.368c-0.109-0.089-0.264-0.097-0.378-0.016
	c-2.036,1.39-1.23,3.677-1.222,3.7c0.01,0.026,0.023,0.052,0.04,0.076c1.875,2.611,0.052,4.677-0.026,4.764
	c-0.09,0.099-0.108,0.245-0.045,0.362c0.151,0.284,0.483,0.288,2.218,0.043c0.231-0.033,0.41-0.059,0.467-0.062
	c0.951,0,1.561,0.232,1.815,0.691c0.456,0.824-0.265,2.309-0.58,2.812c-0.025,0.04-0.041,0.085-0.046,0.132
	c-0.2,1.748-1.532,2.748-2.251,3.167l0.155-3.384c0.291,0.042,0.611-0.004,0.86-0.097c0.378-0.14,0.614-0.381,0.662-0.678
	c0.035-0.214-0.017-0.545-0.469-0.91c-0.059-0.047-0.123-0.09-0.186-0.124c-1.318-0.725-4.065,0.723-4.373,0.891
	c-0.007,0.004-0.008,0.014-0.014,0.018c-0.008,0.005-0.018,0.002-0.025,0.008c-0.109,0.081-2.69,1.946-5.184-1.271
	c-0.108-0.14-0.308-0.164-0.444-0.057c-0.139,0.107-0.164,0.306-0.057,0.444c0.809,1.043,1.638,1.613,2.414,1.892
	c-2.084,0.346-4.125-0.237-5.547-0.835c-0.093-0.04-0.199-0.032-0.287,0.021c-0.991,0.599-2.073,0.677-2.879,0.616
	c0.131-0.117,0.253-0.24,0.36-0.372c0.472-0.585,0.646-1.26,0.52-2.007c-0.03-0.173-0.196-0.289-0.366-0.259
	c-0.172,0.03-0.289,0.193-0.259,0.366c0.098,0.568-0.03,1.059-0.388,1.502c-1.478,1.831-6.207,2.055-6.254,2.057
	c-0.081,0.004-0.156,0.038-0.213,0.095c-1.358,1.384-1.916,2.405-1.708,3.124c0.121,0.415,0.471,0.6,0.593,0.62
	c0.777,0.377,1.041,0.994,1.13,1.369h-4.692c1.595-2.636,3.911-6.403,4.386-7.016c0.915-0.024,1.489-0.295,1.707-0.807
	c0.501-1.179-1.283-3.081-1.488-3.293c-0.085-0.09-0.218-0.12-0.334-0.079c-0.928,0.331-1.185,0.042-1.651-0.479
	c-0.612-0.684-1.45-1.619-4.071-1.295l-0.244,0.028c-1.24,0.122-2.213-0.123-2.888-0.727c-0.474-0.423-0.728-0.962-0.865-1.411
	c1.103,0.663,2.508,0.281,2.636,0.238c3.534-1.956,6.938,2.045,6.972,2.086c0.112,0.133,0.31,0.152,0.444,0.042
	c4.882-4.005,11.799-1.476,11.868-1.45c0.094,0.034,0.2,0.024,0.286-0.033c0.085-0.056,0.138-0.149,0.142-0.251
	c0.09-2.2,1.737-4.103,3.102-5.312c5.467-4.848,10.026-0.933,10.964-0.012l-3.121,4.719c-0.4,0.961-0.82,1.097-0.957,1.042
	C-276.665-13.637-276.86-13.84-276.884-14.024z"/>
</svg>
