<?xml version="1.0" encoding="utf-8"?>
<!-- Generator: Adobe Illustrator 16.0.0, SVG Export Plug-In . SVG Version: 6.00 Build 0)  -->
<!DOCTYPE svg PUBLIC "-//W3C//DTD SVG 1.1//EN" "http://www.w3.org/Graphics/SVG/1.1/DTD/svg11.dtd">
<svg version="1.1" id="Layer_1" xmlns="http://www.w3.org/2000/svg" xmlns:xlink="http://www.w3.org/1999/xlink" x="0px" y="0px"
	 width="50px" height="50px" viewBox="-175.5 -35.5 50 50" enable-background="new -175.5 -35.5 50 50" xml:space="preserve">
<path d="M-132.462-12.329c0,0-0.742-3.238-1.045-4.52c-0.018-0.074-0.039-0.143-0.059-0.21c-0.09-0.298-0.15-0.495,0.782-1.353
	c0.092-0.085,0.139-0.207,0.128-0.332c-0.009-0.11-0.107-0.272-0.195-0.341c-0.21-0.168-0.699-0.359-2.518-0.112
	c-0.909-0.509-6.345-3.273-12.022-0.034c-0.304-0.033-0.948-0.033-1.418,0.442c-0.017,0.022-1.805,2.255-7.19,2.685
	c-0.666,0.165-3.745,0.98-4.702,2.152c-0.388-0.162-1.045-0.33-1.851-0.122c-1.434,0.367-2.73,1.729-3.854,4.049
	c-0.017,0.034-0.028,0.069-0.034,0.107c-0.011,0.06-1.085,6.03-4.516,7.936c-0.146,0.081-0.227,0.244-0.204,0.409
	c0.023,0.166,0.146,0.3,0.308,0.338c0.055,0.011,5.486,1.198,7.164-4.999c0.206-1.826,0.802-4.349,1.566-5.259
	c-0.154,0.95-0.22,2.588,0.518,4.58c0.302,0.817,0.616,1.663-1.389,3.382c-0.036,0.035-0.857,0.878-0.893,2.788
	c-0.08,1.367-0.41,3.466-0.894,3.854c-0.067,0.054-0.115,0.127-0.138,0.211c-0.052,0.194-0.074,0.524,0.057,0.822
	c-0.356,0.363-0.888,1.05-0.718,1.781l0.446,1.16c0.09,0.137,0.28,0.284,0.53,0.284c0.024,0,0.05-0.001,0.076-0.004
	c0.436-0.051,0.792-0.505,1.141-1.448c0.051-0.112,1.247-2.759,1.346-4.984c0.004-0.024,0.434-2.414,2.591-4.379
	c0.482-0.23,3.807-1.827,5.16-2.729c0.717-0.478,1.249-1.02,1.608-1.602c0.253,0.042,0.512,0.08,0.815,0.08
	c1.58,0,3.763-0.537,5.736-1.449c0.029-0.014,0.036-0.047,0.061-0.066c0.099,0.059,0.2,0.118,0.305,0.166
	c0.816,0.377,1.771,0.188,2.997-0.597l1.857-0.458c-0.156,0.369-0.446,0.845-0.983,1.238c-0.226,0.014-0.533-0.006-0.652-0.082
	c-0.281-0.178-0.625-0.208-0.94-0.086c-0.332,0.128-0.783,0.48-1.046,1.432c-0.018,0.063-0.02,0.129-0.006,0.192
	c0.068,0.318,0.438,0.796,2.131,0.458c0.407,0.045,2.078,0.164,2.588-0.761c0.225-0.279,2.187-2.768,1.762-4.269
	c-0.127-0.45-0.449-0.777-0.946-0.954c-0.175-0.055-1.451-0.44-2.481-0.471c0.11-0.278,0.229-0.611,0.303-0.92
	c0.286-0.249,1.342-1.044,2.803-0.71c0.048,0.552,0.34,1.62,1.783,2.461c0.176,0.224,0.774,0.96,1.397,1.479
	c0.039,0.316,0.173,0.923,0.64,1.293c0.235,0.186,0.643,0.375,1.282,0.243c0.033-0.007,0.065-0.018,0.096-0.034
	C-132.672-9.843-131.871-10.753-132.462-12.329z M-133.505-10.333c-0.236,0.041-0.415,0.008-0.551-0.097
	c-0.273-0.214-0.346-0.706-0.351-0.877c-0.003-0.121-0.062-0.236-0.157-0.31c-0.689-0.532-1.435-1.5-1.442-1.51
	c-0.034-0.043-0.075-0.079-0.123-0.105c-1.566-0.883-1.454-2.008-1.449-2.05c0.028-0.195-0.089-0.383-0.277-0.442
	c-2.333-0.739-3.917,0.843-3.982,0.911c-0.055,0.056-0.092,0.126-0.107,0.203c-0.123,0.615-0.537,1.478-0.541,1.486
	c-0.068,0.141-0.049,0.309,0.05,0.43c0.099,0.122,0.257,0.173,0.411,0.137c0.685-0.165,2.24,0.23,2.767,0.394
	c0.304,0.108,0.386,0.274,0.423,0.407c0.235,0.831-0.865,2.614-1.651,3.599c-0.254,0.455-1.381,0.467-1.887,0.403
	c-0.045-0.007-0.09-0.003-0.134,0.004c-0.643,0.135-0.987,0.124-1.158,0.095c0.176-0.458,0.38-0.585,0.47-0.619
	c0.099-0.039,0.173-0.014,0.218,0.015c0.43,0.272,1.134,0.209,1.271,0.194c0.065-0.008,0.128-0.031,0.183-0.068
	c1.419-0.97,1.583-2.42,1.588-2.482c0.014-0.13-0.038-0.26-0.137-0.346c-0.099-0.087-0.236-0.121-0.361-0.087l-2.594,0.641
	c-0.044,0.011-0.085,0.028-0.124,0.053c-1.311,0.854-1.927,0.738-2.277,0.578c-0.827-0.38-1.516-1.331-1.523-1.341
	c-0.128-0.179-0.379-0.223-0.563-0.092c-0.181,0.129-0.223,0.382-0.093,0.563c0.021,0.029,0.337,0.466,0.822,0.906
	c-1.964,0.854-4.187,1.335-5.54,1.212c0.202-0.611,0.23-1.254,0.052-1.912c-0.058-0.214-0.278-0.346-0.496-0.284
	c-0.215,0.059-0.342,0.28-0.284,0.496c0.429,1.583-0.68,2.715-1.685,3.386c-1.38,0.92-5.074,2.679-5.111,2.697
	c-0.035,0.017-0.068,0.039-0.097,0.064c-2.402,2.158-2.872,4.772-2.896,4.932c-0.096,2.117-1.267,4.709-1.29,4.762
	c-0.169,0.453-0.305,0.696-0.396,0.825l-0.28-0.739c-0.085-0.372,0.46-0.957,0.737-1.183c0.094-0.077,0.15-0.193,0.149-0.315
	c0-0.122-0.057-0.238-0.152-0.314c-0.073-0.058-0.08-0.177-0.075-0.261c0.829-0.912,1.035-3.737,1.069-4.333
	c0.03-1.553,0.638-2.228,0.634-2.228c2.225-1.906,2.025-3.101,1.598-4.254c-1.045-2.824-0.311-4.887-0.303-4.907
	c0.045-0.123,0.028-0.26-0.045-0.368c-0.074-0.108-0.195-0.174-0.326-0.176c-0.008,0-0.016,0-0.023,0
	c-2.126,0-2.827,5.263-2.934,6.26c-1.042,3.839-3.659,4.441-5.137,4.456c2.876-2.385,3.845-7.176,3.96-7.793
	c0.99-2.025,2.125-3.257,3.284-3.564c0.929-0.245,1.562,0.179,1.586,0.195c0.103,0.073,0.235,0.094,0.356,0.056
	c0.121-0.039,0.217-0.131,0.259-0.251c0.252-0.717,2.705-1.621,4.301-2.022c5.672-0.447,7.62-2.881,7.667-2.947
	c0.267-0.267,0.802-0.162,0.803-0.161c0.098,0.021,0.205,0.007,0.293-0.045c5.807-3.399,11.386-0.008,11.442,0.027
	c0.08,0.05,0.175,0.068,0.271,0.057c0.763-0.11,1.259-0.132,1.56-0.129c-0.639,0.704-0.674,1.125-0.504,1.682
	c0.016,0.052,0.032,0.105,0.045,0.162c0.303,1.28,1.044,4.514,1.059,4.565C-132.79-10.908-133.34-10.441-133.505-10.333z"/>
</svg>
