<?xml version="1.0" encoding="utf-8"?>
<!-- Generator: Adobe Illustrator 16.0.0, SVG Export Plug-In . SVG Version: 6.00 Build 0)  -->
<!DOCTYPE svg PUBLIC "-//W3C//DTD SVG 1.1//EN" "http://www.w3.org/Graphics/SVG/1.1/DTD/svg11.dtd">
<svg version="1.1" id="Layer_1" xmlns="http://www.w3.org/2000/svg" xmlns:xlink="http://www.w3.org/1999/xlink" x="0px" y="0px"
	 width="50px" height="50px" viewBox="-105.5 -35.5 50 50" enable-background="new -105.5 -35.5 50 50" xml:space="preserve">
<path d="M-60.334-2.283c-3.097-0.641-4.687-1.428-5.493-2.017c1.17,0.047,2.42-0.514,2.494-0.549
	c0.168-0.078,0.251-0.268,0.195-0.444c-0.057-0.175-0.233-0.282-0.417-0.247c-1.911,0.36-3.039-1.355-3.787-2.492
	c-0.094-0.146-0.183-0.28-0.266-0.399c-1.841-2.662-4.535-2.755-5.325-2.719c-1.928-2.539-6.317-2.604-6.493-2.604
	c-2.096-0.101-2.719-0.529-2.86-0.65c0.237-2.273-0.519-3.978-1.207-5.018c0.021,0.013,0.042,0.027,0.063,0.041
	c0.125,0.083,0.293,0.079,0.416-0.01c0.123-0.089,0.178-0.245,0.138-0.392c-0.419-1.538-1.947-2.897-3.067-3.718
	c0.147,0.025,0.303-0.047,0.379-0.182c0.081-0.146,0.054-0.327-0.065-0.442c-2.518-2.426-5.469-2.085-6.418-1.894
	c-0.413-0.635-1.485-1.326-1.854-1.551c-0.158-0.097-0.375-0.074-0.488,0.072c-0.098,0.124-0.111,0.284-0.032,0.41
	c-0.134-0.068-0.297-0.048-0.41,0.054c-0.116,0.105-0.153,0.272-0.092,0.416c0.208,0.484,0.082,1.539-0.003,2.018
	c-0.891,0.997-1.799,3.692-1.938,4.114l-0.357,0.52c-0.327,0.466-0.441,1.124-0.3,1.719c0.101,0.425,0.315,0.745,0.604,0.9
	c0.702,0.378,1.297,0.442,1.769,0.191c0.452-0.241,0.646-0.707,0.729-1.009c1.153-0.252,2.046-1.214,2.437-1.704
	c0.299,0.235,0.494,0.567,0.592,1.008c0.313,1.411-0.5,3.377-1.043,4.081c-1.004,1.303-1.104,3.538-1.106,4.317
	c-1.341,0.399-2.971-0.119-3.041-0.138c-1.049-0.167-1.852-0.035-2.375,0.389c-0.516,0.418-0.556,0.957-0.555,0.979
	c-0.263,1.706-1.114,2.748-1.122,2.758c-0.02,0.023-0.036,0.05-0.049,0.077c-0.637,1.343,0.019,2.854,0.185,3.196l0.182,1.906
	c0.12,0.428,0.327,0.715,0.616,0.853c0.347,0.165,0.661,0.038,0.713,0.013c0.485-0.243,0.805-0.61,0.953-1.093
	c0.333-1.089-0.378-2.368-0.409-2.422c-0.045-0.079-0.117-0.139-0.204-0.167l-0.168-0.055c0.074-2.144,0.643-3.076,1.119-3.481
	c0.174-0.149,0.343-0.23,0.494-0.282c-0.118,0.28-0.21,0.584-0.262,0.791c-0.029,0.721-0.237,1.483-0.291,1.668
	c-0.792,1.313-0.119,2.181-0.09,2.218c0.023,0.028,0.049,0.052,0.078,0.072c0.362,0.249,0.661,0.906,0.767,1.191
	c0.103,1.315,0.998,1.816,1.032,1.835c0.168,0.094,0.315,0.126,0.439,0.126c0.163,0,0.286-0.056,0.361-0.105
	c0.524-0.341,0.49-1.389,0.45-1.759c0.059-0.662-0.082-1.163-0.418-1.49c-0.181-0.175-0.384-0.267-0.563-0.314
	c0.037-0.409-0.031-0.843-0.054-0.97c-0.493-1.975,0.839-2.411,0.997-2.456c0.021-0.005,0.028-0.027,0.047-0.036
	c1.104,0.305,2.555,0.474,4.161,0.087c3.998,4.227,7.951,4.457,8.75,4.457c0.009,0,0.009,0,0.017,0
	c0.079,0.168,0.158,0.33,0.233,0.481c0.461,0.921,1.507,2.532,1.544,2.589c0.826,1.376,0.872,2.153,0.766,2.563
	c-0.078,0.302-0.247,0.415-0.24,0.415c0,0,0,0,0,0c-1.537,0.631-2.183,1.297-2.43,1.634c-1.972,0.011-2.571,0.697-2.639,0.784
	c-0.363,0.48-0.744,1.086-0.463,1.508c0.042,0.063,0.092,0.112,0.147,0.15c-0.316,0.356-0.295,0.662-0.22,0.856
	c0.253,0.661,1.512,0.828,1.818,0.849c0.093,0.029,0.187,0.042,0.281,0.042c0.158,0,0.314-0.041,0.461-0.122
	c0.465-0.257,0.747-0.878,0.875-1.233c0.611-0.081,1.241-0.392,1.271-0.407c0.073-0.037,0.133-0.097,0.167-0.171
	c0.776-1.644,2.573-2.524,2.88-2.665c0.854-0.101,1.461-0.418,1.807-0.943c0.497-0.758,0.226-1.645,0.199-1.72
	c-0.993-2.25-0.328-3.38-0.187-3.582c3.926-2.65,4.013-5.435,3.887-6.452c0.197-0.013,0.357,0.028,0.484,0.123
	c0.525,0.391,0.551,1.654,0.568,2.49c0.006,0.298,0.012,0.56,0.035,0.749c0.189,1.568,0.868,2.708,2.017,3.391
	c2.973,1.764,8.033-0.215,8.247-0.3c0.15-0.06,0.244-0.21,0.229-0.372C-60.059-2.118-60.176-2.25-60.334-2.283z M-96.469-4.516
	c0.049,0.283,0.081,0.794-0.008,0.99c-0.054,0.12-0.04,0.26,0.038,0.366s0.21,0.161,0.338,0.147c0.002,0,0.272-0.023,0.455,0.155
	c0.212,0.207,0.225,0.603,0.199,0.966c0.043,0.48-0.018,1.048-0.165,1.098c-0.025-0.014-0.606-0.359-0.663-1.295
	c-0.002-0.033-0.008-0.066-0.019-0.097c-0.04-0.113-0.389-1.088-0.999-1.554c-0.075-0.131-0.293-0.624,0.184-1.389
	c0.017-0.026,0.03-0.055,0.039-0.085c0.013-0.04,0.297-0.976,0.322-1.814c0.083-0.302,0.207-0.628,0.3-0.808
	c0.201,0.106,0.47,0.235,0.806,0.369C-96.22-7.044-96.886-6.179-96.469-4.516z M-68.147-1.915c-0.943-0.56-1.503-1.519-1.664-2.85
	c-0.021-0.17-0.024-0.406-0.03-0.676c-0.021-1.037-0.05-2.457-0.862-3.062c-0.378-0.281-0.863-0.343-1.445-0.181
	c-0.093,0.026-0.173,0.09-0.221,0.174c-0.047,0.085-0.059,0.187-0.032,0.28c0.037,0.126,0.833,3.125-3.567,6.069
	c-0.027,0.018-0.052,0.04-0.074,0.065c-0.051,0.059-1.232,1.482,0.034,4.348c0.002,0.006,0.176,0.598-0.128,1.061
	c-0.226,0.345-0.674,0.555-1.33,0.624c-0.036,0.003-0.07,0.013-0.104,0.026c-0.093,0.039-2.247,0.96-3.244,2.927
	c-0.257,0.114-0.749,0.299-1.109,0.299c-0.165,0-0.309,0.11-0.353,0.27c-0.073,0.27-0.318,0.877-0.604,1.035
	c-0.06,0.033-0.111,0.039-0.247,0.005c-0.574-0.054-1.207-0.251-1.275-0.38c0.002-0.012,0.022-0.062,0.133-0.189l0.318-0.495
	c0.082-0.126,0.077-0.29-0.011-0.412c-0.086-0.119-0.236-0.175-0.377-0.142c0.046-0.109,0.146-0.292,0.361-0.575
	c0.005-0.005,0.479-0.509,2.115-0.509c0.05,0,0.107-0.005,0.152,0.001c0.138,0,0.267-0.083,0.33-0.207
	c0.003-0.007,0.4-0.752,2.205-1.495c0.046-0.023,0.454-0.241,0.629-0.843c0.233-0.798-0.047-1.866-0.839-3.187
	c-0.011-0.016-1.068-1.645-1.51-2.529c-0.485-0.969-1.087-2.175-0.442-3.896c0.071-0.189-0.025-0.399-0.214-0.47
	s-0.4,0.025-0.471,0.213c-0.497,1.324-0.359,2.388-0.062,3.258c-1.085-0.066-4.338-0.58-7.672-3.954
	c0.892-0.314,1.816-0.805,2.748-1.557c0.156-0.127,0.181-0.357,0.054-0.515c-0.127-0.158-0.358-0.182-0.515-0.054
	c-4.521,3.661-8.788,0.888-8.968,0.768c-0.043-0.028-0.091-0.048-0.142-0.057c-0.032-0.003-0.812-0.129-1.569,0.499
	c-0.902,0.75-1.375,2.201-1.405,4.314c-0.002,0.16,0.099,0.302,0.25,0.352l0.282,0.094c0.144,0.3,0.478,1.101,0.285,1.73
	c-0.088,0.286-0.278,0.499-0.552,0.638c-0.005,0.002-0.056,0.019-0.106-0.009c-0.04-0.021-0.14-0.101-0.208-0.321l-0.177-1.911
	c-0.005-0.048-0.019-0.095-0.042-0.138c-0.008-0.015-0.741-1.413-0.222-2.571c0.177-0.226,0.983-1.337,1.255-3.113
	c0-0.002,0.024-0.27,0.29-0.485c0.35-0.285,0.972-0.367,1.744-0.248c0.084,0.027,2.089,0.67,3.715,0.028
	c0.144-0.057,0.237-0.199,0.231-0.353c-0.001-0.028-0.091-2.764,0.951-4.116c0.722-0.935,1.532-3.084,1.178-4.686
	c-0.169-0.76-0.594-1.336-1.229-1.664c-0.167-0.086-0.369-0.033-0.472,0.122c-0.01,0.015-1.06,1.56-2.392,1.715
	c-0.171,0.02-0.305,0.156-0.321,0.327c0,0.005-0.067,0.539-0.401,0.717c-0.301,0.162-0.753-0.014-1.079-0.189
	c-0.073-0.039-0.18-0.174-0.239-0.425c-0.093-0.392-0.019-0.834,0.19-1.133l0.39-0.566c0.02-0.029,0.036-0.061,0.047-0.095
	c0.278-0.862,1.153-3.255,1.856-3.958c0.051-0.05,0.086-0.116,0.1-0.187c0.022-0.112,0.153-0.797,0.149-1.491
	c0.092,0.078,0.221,0.105,0.34,0.071c0.164-0.049,0.272-0.207,0.26-0.377c-0.007-0.092-0.015-0.179-0.024-0.261
	c0.494,0.373,0.864,0.729,0.892,0.883c0.018,0.103,0.078,0.192,0.167,0.247c0.088,0.055,0.197,0.069,0.295,0.041
	c0.028-0.01,2.564-0.721,4.995,0.839c-0.128,0.005-0.245,0.023-0.34,0.058c-0.134,0.049-0.227,0.171-0.239,0.313
	c-0.012,0.142,0.06,0.278,0.184,0.349c0.029,0.016,2.454,1.405,3.539,3.149c-0.312-0.131-0.603-0.199-0.812-0.137
	c-0.127,0.039-0.224,0.143-0.251,0.273c-0.028,0.13,0.017,0.265,0.117,0.352c0.024,0.021,2.362,2.108,1.929,5.694
	c-0.007,0.057,0,0.115,0.02,0.169c0.085,0.236,0.595,1.019,3.561,1.161c0.044,0,4.392,0.062,6.035,2.46
	c0.077,0.114,0.212,0.175,0.346,0.157c0.031-0.002,2.974-0.33,4.856,2.393c0.08,0.115,0.165,0.245,0.256,0.384
	c0.547,0.833,1.346,2.048,2.556,2.593c-0.516,0.04-1.019-0.021-1.351-0.312c-0.119-0.105-0.292-0.119-0.428-0.039
	c-0.136,0.081-0.205,0.24-0.169,0.395c0.045,0.199,0.569,1.866,5.574,3.132C-63.406-1.395-66.308-0.821-68.147-1.915z"/>
</svg>
