<?xml version="1.0" encoding="utf-8"?>
<!-- Generator: Adobe Illustrator 16.0.0, SVG Export Plug-In . SVG Version: 6.00 Build 0)  -->
<!DOCTYPE svg PUBLIC "-//W3C//DTD SVG 1.1//EN" "http://www.w3.org/Graphics/SVG/1.1/DTD/svg11.dtd">
<svg version="1.1" id="Layer_1" xmlns="http://www.w3.org/2000/svg" xmlns:xlink="http://www.w3.org/1999/xlink" x="0px" y="0px"
	 width="50px" height="50px" viewBox="-35.5 -35.5 50 50" enable-background="new -35.5 -35.5 50 50" xml:space="preserve">
<path d="M9.471-13.076c-0.018-1.23-0.125-5.136-0.742-6.18l0.183-1.459c0.018-0.149-0.061-0.294-0.196-0.359
	c-0.135-0.064-0.298-0.035-0.403,0.072l-1.172,1.208c-1.065-0.254-5.888-1.088-10.609,3.052c-0.029,0.021-2.864,2-5.583,0.938
	c-0.555-0.488-5.189-4.412-9.402-2.975c-0.624-0.664-2.887-2.67-6.319-1.096c-1.197,0.612-3.12,1.235-3.654,0.701
	c-0.092-0.092-0.226-0.123-0.352-0.087c-0.125,0.039-0.217,0.143-0.241,0.271c-0.011,0.062-0.271,1.532,0.863,2.481
	c1.205,1.006,3.448,0.979,6.678-0.078c-0.375,0.708-0.728,1.856-0.808,3.698c-0.256,0.01-0.725-0.166-1.328-0.911
	c-0.064-0.063-0.653-0.603-1.321-0.49c-0.271,0.045-0.655,0.217-0.952,0.794l-1.626,3.478l-0.601,1.014
	c-0.124,0.25-0.317,0.508-0.453,0.629c-0.055-0.091-0.136-0.18-0.252-0.242c-0.241-0.128-0.535-0.094-0.871,0.104
	c-0.026,0.016-0.05,0.034-0.071,0.055c-0.078,0.077-0.758,0.778-0.745,1.436c0.004,0.243,0.1,0.458,0.302,0.643
	c0.376,0.287,1.301,0.645,2.154-0.02c0.352-0.162,2.436-1.218,2.995-3.757c0.219-0.131,0.796-0.371,1.593,0.185
	c0.056,0.029,4.593,2.382,7.679,0.657c0.006,0.01,0,0.022,0.007,0.032c0.118,0.172,2.971,4.22,11.485,4.551c0.005,0,0.009,0,0.014,0
	c0.041,0,0.069-0.03,0.105-0.042c0.923,1.004,2.357,1.945,4.606,2.277c0.098,0.046,0.358,0.356,0.546,0.649
	C1.009-1.805,1.045-1.77,1.088-1.742c-0.021,0.066-0.07,0.178-0.182,0.351C0.634-1.171-0.52-0.224-0.914,0.318l-0.002,0.001
	c-0.145-0.126-0.359-0.254-0.631-0.258c-0.005,0-0.009,0-0.013,0c-0.35,0-0.671,0.204-0.98,0.647l-0.598,1.156
	c-0.023,0.045-0.037,0.094-0.039,0.145c-0.009,0.197,0.074,0.48,0.337,0.633c0.114,0.067,0.245,0.101,0.393,0.101
	c0.315,0,0.713-0.152,1.214-0.461c0.42-0.066,2.245-0.466,3.714-2.503c0.058-0.08,0.118-0.156,0.176-0.231
	c0.51-0.652,1.037-1.326,0.313-3.724C2.957-4.222,2.934-4.264,2.904-4.3C2.848-4.367,1.57-5.882,0.259-6.312
	C0.27-6.373,0.333-6.537,0.695-6.818c0.05-0.053,1.196-1.301,1.099-3.142c0.463-0.519,2.321-2.66,3.014-4.357
	c0.362,0.559,0.898,1.266,1.431,1.533c0.091,0.834,0.581,2.104,1.945,2.168c0.047,0.009,0.454,0.069,0.818-0.269
	C9.424-11.277,9.582-12.024,9.471-13.076z M8.536-11.408c-0.112,0.111-0.229,0.102-0.273,0.098c-1.283-0.063-1.339-1.662-1.34-1.73
	c-0.004-0.164-0.121-0.303-0.282-0.336c-0.432-0.085-1.23-1.228-1.633-1.972C4.937-15.48,4.793-15.55,4.64-15.526
	c-0.148,0.026-0.264,0.144-0.286,0.292c-0.259,1.706-3.149,4.882-3.178,4.914c-0.066,0.073-0.099,0.17-0.09,0.268
	c0.142,1.584-0.867,2.716-0.86,2.716h0C-0.195-7.015-0.42-6.68-0.442-6.343c-0.022,0.333,0.159,0.532,0.196,0.569
	c0.045,0.044,0.101,0.077,0.162,0.092c1.027,0.258,2.167,1.506,2.406,1.779c0.589,1.99,0.215,2.467-0.215,3.02
	C2.042-0.802,1.977-0.719,1.914-0.631c-1.443,2-3.287,2.226-3.305,2.228c-0.053,0.006-0.105,0.024-0.15,0.052
	c-0.554,0.35-0.814,0.392-0.901,0.394l0.498-0.972c0.14-0.197,0.279-0.31,0.384-0.31c0,0,0,0,0,0c0.11,0,0.233,0.126,0.273,0.184
	c0.097,0.147,0.29,0.196,0.448,0.119l0.319-0.16c0.059-0.029,0.108-0.074,0.142-0.129c0.208-0.34,1.194-1.195,1.766-1.654
	C1.417-0.902,1.44-0.929,1.46-0.958c0.208-0.313,0.465-0.77,0.283-1.132c-0.058-0.116-0.147-0.193-0.241-0.24
	C1.246-2.714,0.895-3.135,0.569-3.183c-5.056-0.751-5.624-4.646-5.646-4.812c-0.025-0.192-0.202-0.327-0.392-0.303
	c-0.191,0.025-0.327,0.2-0.303,0.391c0.003,0.023,0.167,1.187,1.04,2.441c-7.759-0.448-10.439-4.176-10.466-4.214
	c-0.007-0.01-0.021-0.01-0.03-0.02c0.481-0.377,0.917-0.868,1.268-1.525c0.091-0.17,0.027-0.383-0.144-0.475
	c-0.173-0.091-0.384-0.027-0.475,0.144c-2.26,4.225-8.495,0.998-8.52,0.986c-1.122-0.786-2.127-0.382-2.502-0.058
	c-0.059,0.051-0.1,0.122-0.114,0.198c-0.475,2.444-2.635,3.396-2.657,3.405c-0.03,0.013-0.06,0.03-0.084,0.051
	c-0.634,0.52-1.256,0.086-1.298,0.058c-0.036-0.034-0.051-0.067-0.052-0.121c-0.005-0.248,0.284-0.659,0.509-0.895
	c0.118-0.065,0.165-0.057,0.151-0.02c0.008,0.143,0.103,0.266,0.238,0.311c0.729,0.245,1.312-0.834,1.408-1.03l0.604-1.022
	l1.637-3.496c0.126-0.245,0.273-0.383,0.436-0.411c0.277-0.047,0.617,0.204,0.693,0.27c1.341,1.666,2.341,1.016,2.382,0.987
	c0.093-0.063,0.149-0.167,0.153-0.279c0.108-3.751,1.374-4.41,1.378-4.413c0.175-0.074,0.26-0.275,0.188-0.453
	c-0.07-0.177-0.269-0.265-0.449-0.198c-4.543,1.718-6.437,1.296-7.225,0.643c-0.475-0.394-0.614-0.924-0.645-1.312
	c1.336,0.378,3.597-0.747,3.878-0.891c3.512-1.611,5.543,0.978,5.629,1.089c0.094,0.124,0.26,0.172,0.406,0.115
	c4.049-1.575,8.91,2.756,8.959,2.8c0.03,0.027,0.065,0.049,0.103,0.064c3.088,1.251,6.178-0.902,6.335-1.017
	c4.962-4.35,10.135-2.89,10.186-2.875c0.125,0.037,0.26,0.001,0.351-0.092l0.585-0.603l-0.07,0.555
	c-0.013,0.107,0.024,0.215,0.101,0.292c0.355,0.355,0.616,3.313,0.656,5.881C8.886-11.938,8.673-11.544,8.536-11.408z"/>
</svg>
