<?xml version="1.0" encoding="utf-8"?>
<!-- Generator: Adobe Illustrator 16.0.0, SVG Export Plug-In . SVG Version: 6.00 Build 0)  -->
<!DOCTYPE svg PUBLIC "-//W3C//DTD SVG 1.1//EN" "http://www.w3.org/Graphics/SVG/1.1/DTD/svg11.dtd">
<svg version="1.1" id="Layer_1" xmlns="http://www.w3.org/2000/svg" xmlns:xlink="http://www.w3.org/1999/xlink" x="0px" y="0px"
	 width="50px" height="50px" viewBox="34.5 -35.5 50 50" enable-background="new 34.5 -35.5 50 50" xml:space="preserve">
<path d="M76.076-11.305c-0.155-0.016-0.319-0.017-0.487-0.019c-0.839-0.006-1.631-0.012-2.26-2.085
	c-0.207-0.68-0.984-1.639-2.019-2.077c-0.793-0.335-1.594-0.314-2.323,0.061c-0.582,0.301-0.826,0.425-3.037,0.094
	c-1.36-0.2-3.035,0.141-5.419,1.12c-1.809,0.742-5.153,1.372-7.218-2.806c-0.13-0.201-3.194-4.931-5.561-5.533
	c-0.029-0.012-0.7-0.302-0.861-1.344c-0.017-0.107-0.081-0.201-0.178-0.255c-0.093-0.053-0.208-0.06-0.309-0.018
	c-0.078,0.033-0.729,0.339-0.801,1.526c-0.575,0.289-2.277,1.159-3.118,1.79c-0.345,0.031-1.29,0.176-1.72,0.839
	c-0.259,0.399-0.276,0.889-0.061,1.426c0.15,0.484,0.754,1.334,1.985,1.102c0.03-0.006,0.652-0.138,1.271-0.565
	c0.392,0.267,1.243,0.711,2.583,0.646c-0.103,1.135-0.234,4.146,1.066,5.59c-0.027,0.156-0.118,0.51-0.433,1.143
	c-0.22,0.441-0.482,2.136,0.601,3.5c-0.017,0.129-0.135,0.539-0.955,1.245c-1.902,1.636-5.884,6.371-6.396,7.364
	c-0.188,0.228-0.635,0.848-0.417,1.32c0.084,0.18,0.285,0.394,0.714,0.394c0.006,0,0.011,0,0.016,0
	c0.046,0.008,0.239,0.038,0.496,0.038c0.375,0,0.882-0.065,1.248-0.364c0.273-0.223,0.425-0.545,0.435-0.911
	c0.006-0.068,0.013-0.25-0.061-0.418c0.679-0.787,2.643-2.997,3.979-3.838c0.627-0.395,1.946-1.47,2.73-2.12
	c-0.17,0.968-0.353,2.695,0.289,3.706c0.27,0.426,0.652,0.689,1.07,0.761c0.259,0.106,2.085,0.835,3.533,0.835
	c0.436,0,0.836-0.066,1.15-0.234c0.406-0.117,1.751-0.55,1.979-1.212c0.074-0.212,0.039-0.434-0.098-0.624
	c-0.02-0.028-0.044-0.052-0.07-0.073c-0.121-0.093-1.19-0.889-2.069-0.611c-0.068-0.014-0.142-0.009-0.212,0.022
	c-0.153,0.067-0.36,0.158-0.422,0.324c-0.069,0.089-0.12,0.196-0.128,0.319c-0.532,0.09-1.438,0.162-2.041-0.226
	c-0.331-0.213-0.526-0.54-0.595-1c-0.1-0.655,0.377-1.537,0.76-2.245c0.145-0.266,0.277-0.514,0.375-0.736
	c1.164,0.394,5.656,1.63,8.956-1.419c0.108,0.001,0.287,0.025,0.41,0.147c0.201,0.2,0.195,0.599,0.154,0.899
	c-0.019,0.13-0.048,0.257-0.078,0.386c-0.14,0.603-0.313,1.353,0.406,2.69c0.009,0.032,0.216,0.809-1.214,1.724
	c-0.092,0.032-2.256,0.796-3.065,2.574c-0.22,0.258-0.621,0.81-0.429,1.241c0.075,0.167,0.256,0.366,0.651,0.366
	c0.004,0,0.006,0,0.01,0c0.04,0.005,0.191,0.022,0.395,0.022c0.399,0,0.999-0.066,1.36-0.417c0.144-0.141,0.307-0.383,0.302-0.755
	c0.103-0.173,0.389-0.609,0.852-0.943c1.112-0.863,2.467-1.845,2.713-1.927c0.207-0.06,0.896-0.299,1.117-0.888
	c0.085-0.228,0.127-0.59-0.139-1.044c-0.047-0.373-0.226-2.241,0.596-3.518c0.696,0.592,2.784,2.26,4.743,2.734l1.388,2.811
	c-0.067,0.866,0.259,2.408,1.988,2.7c0.324,0.057,0.926,0.191,1.159,0.309c0.084,0.042,0.182,0.049,0.271,0.02
	c0.045-0.015,0.441-0.159,0.551-0.608c0.119-0.487-0.159-1.068-0.85-1.778c-0.054-0.054-0.121-0.09-0.196-0.102
	c-0.058-0.009-0.402-0.058-0.733,0.032c-0.174-0.568-0.482-1.568-0.712-2.229l-0.098-0.289c-0.336-1.005-0.9-2.688-2.053-3.356
	c-0.177-0.102-0.404-0.31-0.644-0.531c-0.381-0.351-0.802-0.738-1.268-0.94c0.245-0.908,0.75-3.385-0.43-5.137
	c-0.012-0.101,0.091-0.333,0.152-0.357c0,0,0.073,0.011,0.21,0.178c0.268,0.33,0.461,0.864,0.667,1.429
	c0.51,1.404,1.146,3.152,3.424,3.653c0.116,0.025,0.239-0.01,0.325-0.095c0.085-0.084,0.122-0.207,0.098-0.325
	c-0.035-0.17-0.054-0.402-0.039-0.6c0.727,0.609,2.406,1.712,4.694,1.396c0.097-0.014,0.185-0.067,0.241-0.146
	s0.077-0.18,0.058-0.275C79.012-7.955,78.351-11.076,76.076-11.305z M51.256-2.365c0.101,0.665,0.409,1.167,0.916,1.491
	c1.168,0.75,2.976,0.238,3.051,0.216c0.138-0.04,0.223-0.17,0.237-0.313c0.008-0.073-0.012-0.146-0.049-0.211
	c0.044-0.015,0.092-0.031,0.14-0.048c0.4-0.141,1.06,0.225,1.355,0.429c-0.127,0.194-0.818,0.535-1.557,0.755
	c-0.964,0.508-3.324-0.263-4.219-0.624c-0.29-0.055-0.509-0.206-0.673-0.463c-0.596-0.94-0.269-2.989-0.073-3.788
	c0.42-0.037,1.103-0.131,1.832-0.375c-0.044,0.083-0.076,0.154-0.123,0.242C51.661-4.251,51.122-3.254,51.256-2.365z M64.97-2.001
	c-0.079,0.208-0.384,0.379-0.649,0.456c-0.461,0.132-2.376,1.601-2.941,2.041c-0.726,0.521-1.089,1.239-1.104,1.27
	c-0.03,0.059-0.042,0.126-0.036,0.193c0.018,0.17-0.035,0.247-0.084,0.294c-0.237,0.23-0.892,0.235-1.217,0.198
	c-0.009,0-0.017,0-0.023,0c0.052-0.125,0.182-0.321,0.315-0.473c0.023-0.027,0.045-0.06,0.06-0.094
	c0.663-1.526,2.648-2.231,2.742-2.274c2.021-1.276,1.599-2.535,1.559-2.635c-0.618-1.16-0.495-1.691-0.364-2.252
	c0.034-0.152,0.069-0.299,0.089-0.452c0.038-0.278,0.029-0.52-0.005-0.74c0.558,0.15,1.209,0.216,1.966,0.148
	c-0.79,1.602-0.487,3.607-0.472,3.703c0.007,0.048,0.025,0.093,0.051,0.134C64.979-2.292,65.017-2.129,64.97-2.001z M74.171-9.646
	c-0.065-0.071-0.158-0.113-0.254-0.115c-0.106-0.013-0.191,0.036-0.259,0.104c-0.274,0.273-0.334,0.7-0.329,1.049
	c-1.511-0.546-1.995-1.877-2.427-3.064c-0.226-0.623-0.439-1.21-0.783-1.633c-0.549-0.678-1.045-0.399-1.183-0.297
	c-0.377,0.278-0.559,0.933-0.347,1.25c1.271,1.907,0.284,4.898,0.274,4.928c-0.033,0.098-0.022,0.205,0.029,0.293
	c0.054,0.088,0.142,0.15,0.243,0.168c0.413,0.076,0.879,0.504,1.288,0.881c0.271,0.248,0.523,0.482,0.769,0.623
	C72.114-4.924,72.625-3.4,72.93-2.49l0.101,0.295c0.331,0.958,0.832,2.635,0.834,2.637c0.039,0.131,0.15,0.228,0.286,0.249
	c0.144,0.017,0.271-0.041,0.347-0.154c0.038-0.057,0.234-0.089,0.423-0.079c0.478,0.513,0.617,0.861,0.583,1.019
	c-0.003,0.018-0.009,0.032-0.017,0.044c-0.435-0.159-1.073-0.274-1.157-0.29c-1.558-0.264-1.415-1.845-1.393-2.024
	c0.008-0.068-0.004-0.139-0.035-0.2l-1.508-3.054c-0.047-0.098-0.138-0.168-0.245-0.19c-2.194-0.453-4.81-2.799-4.836-2.823
	c-0.085-0.076-0.2-0.106-0.311-0.084c-3.769,0.786-4.901-1.903-4.948-2.018c-0.072-0.181-0.282-0.268-0.46-0.196
	c-0.182,0.073-0.271,0.277-0.198,0.459c0.007,0.015,0.333,0.802,1.161,1.507c-2.757,2.54-6.462,1.799-7.886,1.379
	c0.718-0.506,1.318-1.236,1.536-2.306c0.04-0.192-0.084-0.379-0.276-0.418c-0.189-0.037-0.379,0.085-0.418,0.276
	c-0.574,2.822-4.511,2.856-4.551,2.856c-0.083,0-0.165,0.029-0.229,0.083c-0.023,0.021-2.41,2.041-3.271,2.582
	c-1.727,1.086-4.279,4.138-4.388,4.268c-0.099,0.12-0.109,0.29-0.024,0.42c0.041,0.063,0.099,0.108,0.164,0.135
	c-0.01,0.233-0.104,0.337-0.175,0.396c-0.311,0.254-0.957,0.213-1.237,0.171c-0.071,0-0.111-0.003-0.139-0.005
	c0.021-0.121,0.172-0.388,0.335-0.581c0.021-0.025,0.039-0.053,0.053-0.083c0.315-0.692,4.318-5.519,6.235-7.167
	c1.38-1.188,1.239-1.878,1.163-2.061c-0.014-0.034-0.033-0.064-0.057-0.093c-0.935-1.104-0.72-2.529-0.579-2.813
	c0.547-1.096,0.528-1.541,0.51-1.65c-0.013-0.074-0.048-0.142-0.102-0.195c-1.472-1.439-0.932-5.506-0.926-5.547
	c0.015-0.11-0.022-0.22-0.1-0.298c-0.078-0.079-0.19-0.119-0.296-0.102c-1.78,0.232-2.655-0.57-2.689-0.604
	c-0.129-0.125-0.332-0.132-0.471-0.018c-0.546,0.449-1.186,0.588-1.188,0.589c-0.883,0.169-1.142-0.537-1.179-0.643
	c-0.137-0.343-0.142-0.606-0.014-0.804c0.257-0.397,1.005-0.514,1.272-0.525c0.074-0.003,0.146-0.03,0.204-0.076
	c0.891-0.703,3.247-1.861,3.271-1.873c0.121-0.06,0.198-0.183,0.198-0.318c0-0.279,0.037-0.491,0.087-0.65
	c0.38,0.887,1.073,1.165,1.141,1.189c2.142,0.548,5.153,5.197,5.165,5.209c2.387,4.835,6.46,3.788,8.104,3.113
	c2.257-0.928,3.812-1.258,5.044-1.074c2.344,0.35,2.732,0.21,3.467-0.165c0.543-0.28,1.123-0.292,1.722-0.039
	c0.805,0.341,1.455,1.097,1.616,1.63c0.781,2.572,2.024,2.581,2.934,2.588c0.146,0,0.287,0.001,0.422,0.015
	c1.352,0.136,2.004,1.777,2.235,2.537C75.798-7.916,74.188-9.627,74.171-9.646z"/>
</svg>
