<?xml version="1.0" encoding="utf-8"?>
<!-- Generator: Adobe Illustrator 16.0.0, SVG Export Plug-In . SVG Version: 6.00 Build 0)  -->
<!DOCTYPE svg PUBLIC "-//W3C//DTD SVG 1.1//EN" "http://www.w3.org/Graphics/SVG/1.1/DTD/svg11.dtd">
<svg version="1.1" id="Layer_1" xmlns="http://www.w3.org/2000/svg" xmlns:xlink="http://www.w3.org/1999/xlink" x="0px" y="0px"
	 width="50px" height="50px" viewBox="104.5 -35.5 50 50" enable-background="new 104.5 -35.5 50 50" xml:space="preserve">
<path d="M148.321-8.416c-0.306-0.415-1.121-1.619-1.235-2.238c-0.38-2.04-1.124-6.273-5.976-6.129
	c-0.587-0.302-3.729-1.774-7.303-0.705c-2.28,0.684-5.583,0.808-8.012-0.899c-2.164-1.521-5.196-3.308-7.652-3.444
	c0.022-0.427,0.042-1.13-0.028-1.778c-0.014-0.141-0.108-0.261-0.242-0.308c-0.136-0.048-0.282-0.014-0.383,0.086
	c0,0-0.337,0.336-1.28,1.356c-0.381,0.063-1.157,0.399-2.46,1.821c-0.855,0.94-3.606,4.1-3.075,5.372
	c0.023,0.04,0.601,0.987,1.507,1.07c0.497,0.037,0.983-0.175,1.431-0.653c0.426-0.148,2.161-0.785,3.262-1.669
	c0.604,0.905,2.284,3.191,4.312,4.006c-0.153,0.762-0.257,2.625,1.566,4.899c0.181,0.463,1.485,3.815,1.792,4.663
	c0.006,0.019,0.511,1.919,0.332,3.167c-0.016,0.121-0.098,0.458-0.283,0.639c-0.48,0.196-1.22,0.742-1.009,1.602
	c0.007,0.054,0.021,0.107,0.047,0.151c0.123,0.217,0.394,0.343,1.396,0.343c0.002,0,0.004,0,0.007,0
	c0.039,0.001,0.093,0.003,0.156,0.003c0.348,0,0.995-0.056,1.267-0.453c0.083-0.123,0.201-0.385,0.039-0.744
	c-0.126-0.306-0.163-0.662-0.048-0.77c0.359-0.342,0.877-1.13,0.405-1.776l-0.245-2.77c0-0.054-0.008-0.531-0.306-1.648
	c0.015-0.011,0.034-0.028,0.05-0.041c0.707,1.092,3.191,4.79,4.717,5.244c0.226,0.204,0.907,0.754,1.735,0.826
	c0.011,0.001,0.021,0.001,0.032,0.001c0.031,0,0.063-0.004,0.092-0.011c0.053-0.014,0.524-0.148,0.658-0.623
	c0.119-0.423-0.085-0.906-0.624-1.475c-0.114-0.217-0.528-0.925-1.132-1.061c-0.138-0.03-0.323-0.041-0.527,0.035
	c-1.504-1.709-3.33-4.27-2.988-5.037c0.023-0.052,0.005-0.104,0.004-0.157c0.176-0.298,0.333-0.617,0.461-0.956
	c1.277-0.017,5.782-0.167,7.315-1.395c0.03,0.03,0.061,0.061,0.09,0.09c-0.01,0.046-0.038,0.087-0.028,0.136
	c0.01,0.05,0.247,1.256,1.839,3.076c0.038,0.076-0.041,0.498-1.137,1.173c-0.104,0.065-2.45,1.567-2.551,3.287
	c-0.239,0.278-0.744,1.011-0.607,2.132c0.005,0.042,0.017,0.083,0.036,0.12c0.024,0.051,0.169,0.308,0.513,0.372
	c0.049,0.009,0.099,0.014,0.149,0.014c0.308,0,0.646-0.167,0.99-0.483c0.305-0.229,1.002-0.821,0.909-1.398
	c-0.016-0.097-0.063-0.245-0.204-0.376c0.015-0.01,0.028-0.021,0.042-0.032c0.041-0.037,1.016-0.901,1.714-1.722
	c0.451-0.313,2.71-1.927,2.877-2.956c0.044-0.272-0.047-0.462-0.122-0.563c-0.115-0.166-0.21-0.354-0.268-0.501
	c1.167,0.282,2.942,1.399,3.453,3.136c0.331,1.122,0.763,3.304,0.722,4.268c-0.385,0.31-1.408,1.238-1.348,2.323
	c-0.008,0.051-0.007,0.104,0.008,0.154c0.09,0.32,0.424,0.387,1.466,0.363c0.177-0.018,1.08-0.135,1.383-0.7
	c0.099-0.181,0.172-0.479-0.037-0.877c-0.045-0.08-0.07-0.191-0.063-0.219c0,0,0.021-0.021,0.096-0.039
	c0.091-0.021,0.17-0.077,0.223-0.154c0.026-0.041,0.615-0.946,0.065-1.798c0.03-0.973,0.068-5.597-1.857-6.461l-0.089-0.04
	c-0.886-0.397-2.099-0.94-1.801-2.694c0.021-0.126,0.055-0.271,0.089-0.43c0.114-0.51,0.267-1.191,0.198-1.855
	c0.306,1.136,1.479,4.296,5.14,4.691c0.147,0.013,0.286-0.056,0.358-0.183C148.415-8.14,148.407-8.298,148.321-8.416z
	 M130.951-1.614c0.134,0.146,0.354,0.164,0.504,0.04c0.1-0.079,0.158-0.081,0.213-0.068c0.237,0.053,0.529,0.453,0.66,0.72
	c0.017,0.034,0.039,0.066,0.065,0.094c0.531,0.548,0.49,0.778,0.484,0.802c-0.011,0.041-0.056,0.071-0.09,0.09
	c-0.69-0.099-1.271-0.671-1.276-0.677c-0.053-0.051-0.119-0.087-0.19-0.101c-0.996-0.194-3.187-3.131-4.411-5.044
	c0.229-0.222,0.485-0.494,0.74-0.805C128.149-4.792,130.41-2.214,130.951-1.614z M137.362-4.025
	c-0.653,0.751-1.494,1.516-1.679,1.682c-0.271,0.14-0.381,0.322-0.423,0.456c-0.063,0.195-0.018,0.382,0.044,0.493
	c0.046,0.079,0.18,0.124,0.266,0.152c-0.009,0.125-0.311,0.466-0.65,0.724c-0.274,0.25-0.442,0.307-0.501,0.327
	c-0.064-0.954,0.479-1.472,0.501-1.493c0.079-0.072,0.124-0.175,0.121-0.282c-0.026-1.136,1.587-2.41,2.207-2.802
	c0.911-0.562,1.408-1.11,1.48-1.63c0.052-0.376-0.134-0.599-0.164-0.632c-0.656-0.751-1.054-1.373-1.302-1.839
	c0.726,0.529,1.495,0.921,2.304,1.167c-0.016,0.39,0.247,0.855,0.435,1.122C140.057-6.25,138.831-5.059,137.362-4.025z
	 M143.479-13.042c-0.005-0.033-0.015-0.066-0.029-0.096c-0.298-0.647-0.688-1.057-1.156-1.216c-0.516-0.175-0.917,0.024-0.96,0.047
	c-0.119,0.062-0.195,0.186-0.196,0.32c-0.003,0.136,0.069,0.261,0.188,0.327c1.016,0.57,0.874,1.62,0.604,2.833
	c-0.038,0.172-0.073,0.33-0.098,0.467c-0.393,2.316,1.312,3.079,2.227,3.489l0.087,0.04c1.191,0.534,1.503,3.893,1.42,5.885
	c-0.004,0.087,0.023,0.172,0.076,0.241c0.273,0.352,0.131,0.764,0.041,0.951c-0.256,0.103-0.377,0.274-0.436,0.409
	c-0.166,0.393,0.056,0.804,0.093,0.867c0.042,0.08,0.053,0.138,0.033,0.173c-0.076,0.145-0.489,0.283-0.771,0.315
	c-0.34,0-0.557-0.009-0.693-0.019c0.099-0.685,0.856-1.37,1.173-1.596c0.085-0.061,0.14-0.154,0.152-0.258
	c0.122-1.059-0.405-3.59-0.735-4.71c-0.647-2.199-2.872-3.424-4.121-3.68c-1.805-0.37-3.425-1.501-4.815-3.364
	c-0.136-0.182-0.274-0.371-0.541-0.283c-0.192,0.066-0.295,0.275-0.229,0.467c0.021,0.063,0.059,0.118,0.106,0.159
	c0.018,0.022,0.042,0.056,0.073,0.098c0.203,0.272,0.412,0.527,0.624,0.77c-1.151,0.884-4.735,1.148-6.588,1.191
	c0.146-0.674,0.155-1.406-0.06-2.178c-0.054-0.195-0.259-0.311-0.453-0.256c-0.196,0.054-0.311,0.257-0.257,0.453
	c0.841,3.033-2.536,5.51-2.569,5.535c-0.126,0.09-0.183,0.25-0.141,0.398c0.335,1.191,0.346,1.688,0.347,1.723l0.255,2.915
	c0.008,0.081,0.042,0.159,0.098,0.219c0.264,0.281-0.244,0.803-0.233,0.803h0.001c-0.644,0.413-0.262,1.429-0.145,1.673
	c-0.07,0.082-0.461,0.149-0.797,0.13c-0.418,0-0.646-0.024-0.766-0.044c0.002-0.415,0.598-0.639,0.626-0.648
	c0.037-0.014,0.073-0.034,0.104-0.06c0.483-0.387,0.582-1.076,0.59-1.147c0.199-1.391-0.328-3.374-0.359-3.486
	c-0.34-0.944-1.768-4.607-1.829-4.763c-0.013-0.035-0.032-0.069-0.057-0.098c-2.104-2.593-1.419-4.5-1.389-4.578
	c0.037-0.095,0.033-0.201-0.011-0.293c-0.045-0.092-0.125-0.162-0.222-0.192c-2.384-0.748-4.453-4.14-4.474-4.174
	c-0.059-0.097-0.158-0.162-0.271-0.176c-0.111-0.014-0.225,0.025-0.305,0.105c-1.027,1.027-3.38,1.816-3.404,1.824
	c-0.063,0.021-0.117,0.058-0.16,0.107c-0.301,0.343-0.611,0.507-0.875,0.48c-0.442-0.039-0.832-0.529-0.92-0.666
	c-0.219-0.53,1.354-2.778,2.962-4.545c1.422-1.551,2.04-1.592,2.021-1.597c0.122,0.022,0.25-0.021,0.337-0.112
	c0.322-0.349,0.577-0.623,0.775-0.834c0.006,0.644-0.044,1.189-0.045,1.197c-0.01,0.104,0.026,0.208,0.098,0.285
	c0.069,0.075,0.168,0.117,0.27,0.117c0.022,0,0.064-0.001,0.098,0c2.436,0,5.753,2.072,7.525,3.319
	c2.643,1.857,6.199,1.734,8.646,1.002c3.579-1.074,6.795,0.674,6.828,0.692c0.06,0.033,0.134,0.054,0.193,0.046
	c4.26-0.165,4.951,3.532,5.328,5.557c0.094,0.504,0.505,1.225,0.853,1.767C144.079-9.561,143.504-12.89,143.479-13.042z"/>
</svg>
