<?xml version="1.0" encoding="utf-8"?>
<!-- Generator: Adobe Illustrator 16.0.0, SVG Export Plug-In . SVG Version: 6.00 Build 0)  -->
<!DOCTYPE svg PUBLIC "-//W3C//DTD SVG 1.1//EN" "http://www.w3.org/Graphics/SVG/1.1/DTD/svg11.dtd">
<svg version="1.1" id="Layer_1" xmlns="http://www.w3.org/2000/svg" xmlns:xlink="http://www.w3.org/1999/xlink" x="0px" y="0px"
	 width="50px" height="50px" viewBox="174.5 -35.5 50 50" enable-background="new 174.5 -35.5 50 50" xml:space="preserve">
<path d="M218-4.742c-0.119-0.132-2.912-3.247-4.166-3.937c-0.346-0.19-0.654-0.265-1.125-0.377
	c-0.283-0.068-0.637-0.152-1.111-0.289c-0.184-0.053-0.408-0.146-0.654-0.248c-0.492-0.203-1.088-0.448-1.652-0.507
	c-0.105-0.363-0.258-1.227,0.254-2.27c0.338-0.29,2.064-1.812,2.66-3.229c0.32,0.234,0.842,0.503,1.65,0.653
	c0.361,0.364,1.803,1.687,2.916,0.765c0.256-0.207,0.639-0.519,0.643-1.041c0.004-0.485-0.338-1.008-1.041-1.599
	c-1.129-0.947-2.539-3.115-2.768-3.473l-0.402-1.949c-0.029-0.135-0.137-0.24-0.273-0.263c-0.139-0.024-0.273,0.04-0.344,0.159
	l-1.166,1.955c-0.734-0.027-3.154,0.214-6.748,3.781c-0.73,0.725-2.16,1.504-3.803,1.307c-0.354-0.042-0.834-0.044-1.344-0.047
	c-0.781-0.004-1.668-0.009-2.127-0.161l-0.131-0.043c-1.186-0.397-2.967-0.995-5.145,0.207c-0.979-0.105-7.787-0.621-9.932,5.071
	c-0.045,0.117-0.02,0.249,0.064,0.343c0.084,0.093,0.217,0.132,0.334,0.1c0.246-0.064,5.52-1.447,8.035-3.146
	c-0.236,0.441-0.662,1.475-0.607,3.148c0,0.005,0.012,0.581-1.863,1.709c-0.063,0.052-1.553,1.288-2.398,2.271
	c-0.232,0.271-0.758,0.657-1.266,1.029c-0.754,0.555-1.244,0.924-1.451,1.251c-0.111,0.018-0.227,0.023-0.289,0.015
	c-0.049-0.094-0.141-0.161-0.25-0.176c-0.42-0.061-1.305,0.085-1.605,1.063c-0.154,0.195-0.441,0.64-0.217,1.012
	c0.141,0.237,0.412,0.315,0.727,0.315c0.26,0,0.551-0.054,0.824-0.118c0.023-0.008,0.514-0.171,0.893-0.41
	c0.566,0.075,1.502-0.054,1.871-0.995c0.332-0.319,2.158-2.035,3.816-2.885l0.045-0.024c-0.172,0.518-0.357,1.263-0.377,2.109
	l-0.068,2.885c-0.016,0.1-0.021,0.298,0.111,0.522c0.195,0.33,0.607,0.579,1.227,0.741c-0.004,0.021-0.006,0.042-0.006,0.065
	c-0.008,0.301,0.262,0.555,0.965,0.906c0.055,0.028,0.229,0.055,0.439,0.055c0.354,0,0.816-0.077,1.016-0.355
	c0.141-0.195,0.213-0.523-0.227-0.987c-0.123-0.277-0.66-1.337-1.611-1.54l-0.088-1.631c0-0.019,0.115-1.87,1.445-2.109
	c0.18-0.033,0.398-0.039,0.639-0.048c0.99-0.037,2.465-0.104,2.971-1.805c0.373-0.154,0.721-0.336,1.043-0.545
	c0.4,0.214,2.314,1.156,5.043,1.156c1.441,0,3.104-0.265,4.879-1.043c0.012-0.005,0.014-0.02,0.023-0.026
	c0.137,0.022,0.271,0.044,0.416,0.063c0.699,0.931,3.982,5.299,4.787,6.104c0.115,0.562,0.488,1.374,1.291,1.435
	c-0.037,0.241-0.033,0.526,0.119,0.762c0.113,0.178,0.354,0.391,0.844,0.391h1.172c0.006,0,0.016,0,0.025,0
	c0.141,0,0.592-0.029,0.742-0.398c0.172-0.426-0.229-0.868-0.586-1.196c-0.023-0.023-2.336-2.327-3.189-3.561
	c-0.256-0.368-0.578-0.952-0.922-1.57c-0.373-0.677-0.756-1.363-1.105-1.875c0.602,0.013,1.5,0.054,2.314,0.183
	c0.441,0.07,1.086,0.422,1.709,0.763l0.201,0.11c0.199,0.337,0.871,1.386,1.732,1.651c-0.02,0.237,0.004,0.543,0.186,0.797
	c0.135,0.188,0.408,0.41,0.953,0.41c0,0,0,0,0.002,0l0.818-0.034c0.211-0.023,0.49-0.146,0.586-0.417
	C218.52-4.223,218.119-4.624,218-4.742z M192.293-5.831c-0.273,0.01-0.527,0.021-0.734,0.058c-1.854,0.335-1.99,2.638-1.994,2.77
	l0.102,1.951c0.01,0.179,0.158,0.318,0.336,0.318c0.83,0,1.334,1.207,1.34,1.22c0.016,0.041,0.041,0.079,0.072,0.11
	c0.086,0.085,0.131,0.147,0.156,0.187c-0.15,0.055-0.486,0.072-0.564,0.072c0,0,0,0-0.002,0c-0.314-0.157-0.473-0.265-0.549-0.327
	c0-0.014,0.002-0.028,0.002-0.042c0-0.182-0.023-0.438-0.232-0.567c-0.049-0.029-0.113-0.046-0.18-0.051
	c-0.813-0.185-0.979-0.46-0.979-0.516c0.006-0.028,0.012-0.057,0.012-0.085l0.07-2.914c0.029-1.399,0.588-2.549,0.594-2.56
	c0-0.002-0.002-0.004,0-0.007c0.334-0.142,0.678-0.243,0.932-0.175c0.834,0.217,2.336,0.142,3.754-0.272
	C193.951-5.905,193.082-5.86,192.293-5.831z M211.346-3.441c0.891,1.285,3.172,3.559,3.277,3.665
	c0.236,0.216,0.34,0.354,0.385,0.431c-0.029,0.005-0.059,0.008-0.092,0.007h-1.182c-0.084,0-0.232-0.011-0.279-0.083
	c-0.078-0.122-0.006-0.439,0.076-0.622c0.049-0.108,0.037-0.234-0.031-0.332c-0.068-0.097-0.184-0.158-0.301-0.141l-0.355,0.029
	c-0.551,0-0.719-0.979-0.721-0.989c-0.014-0.084-0.059-0.162-0.125-0.214c-0.359-0.279-2.727-3.36-4.408-5.594
	c0.438,0.023,0.912,0.03,1.436,0.014c0.381,0.431,0.902,1.364,1.365,2.203C210.742-4.435,211.072-3.837,211.346-3.441z
	 M216.955-4.024c-0.199,0-0.332-0.044-0.396-0.13c-0.107-0.147-0.059-0.452-0.02-0.575c0.035-0.103,0.018-0.215-0.045-0.302
	s-0.164-0.139-0.273-0.139c-0.641,0-1.379-1.076-1.586-1.453c-0.031-0.056-0.078-0.103-0.135-0.133l-0.285-0.155
	c-0.703-0.385-1.367-0.749-1.924-0.837c-1.418-0.225-3.051-0.197-3.125-0.195c-0.869,0.035-1.604,0.007-2.223-0.06
	c-0.021-0.005-0.037-0.007-0.057-0.008c-2.613-0.3-3.152-1.323-3.193-1.408c-0.006-0.024-0.018-0.047-0.031-0.069
	c-0.092-0.157-0.295-0.209-0.451-0.121c-0.137,0.075-0.201,0.236-0.158,0.386c0.002,0.014,0.299,0.963,2.098,1.537
	c-3.916,1.377-7.174,0.192-8.217-0.279c0.764-0.702,1.115-1.566,0.996-2.511c-0.023-0.183-0.184-0.316-0.375-0.291
	c-0.186,0.023-0.314,0.191-0.291,0.375c0.094,0.75-0.186,1.417-0.83,1.983c-1.438,1.263-4.338,1.695-5.592,1.369
	c-0.705-0.181-1.563,0.279-2.129,0.583l-0.211,0.112c-1.914,0.982-3.947,2.971-4.033,3.055c-0.037,0.037-0.064,0.081-0.082,0.13
	c-0.273,0.798-1.166,0.632-1.27,0.61c-0.096-0.021-0.191,0-0.27,0.057c-0.297,0.216-0.805,0.39-0.801,0.39
	c-0.455,0.105-0.668,0.099-0.766,0.085c0.031-0.076,0.102-0.189,0.172-0.271c0.031-0.038,0.057-0.083,0.068-0.132
	c0.145-0.535,0.523-0.637,0.742-0.649c0.029,0.03,0.063,0.057,0.098,0.08c0.316,0.196,0.84,0.081,0.992,0.042
	c0.119-0.031,0.211-0.119,0.24-0.238c0.076-0.199,0.811-0.737,1.295-1.093c0.563-0.413,1.094-0.804,1.377-1.133
	c0.801-0.933,2.283-2.162,2.275-2.162c2.104-1.26,2.199-2.074,2.137-2.374c-0.049-1.916,0.631-2.867,0.631-2.867
	c0.293-0.369,0.568-0.79,0.355-1.114c-0.148-0.224-0.428-0.243-0.643-0.184c-0.055,0.015-0.105,0.043-0.145,0.083
	c-1.527,1.478-6.07,2.875-7.789,3.365c2.389-4.901,8.988-4.013,9.057-4.003c0.074,0.011,0.148-0.002,0.215-0.041
	c1.959-1.124,3.541-0.594,4.695-0.208l0.131,0.043c0.563,0.186,1.465,0.191,2.336,0.195c0.49,0.002,0.953,0.004,1.268,0.042
	c1.877,0.222,3.479-0.626,4.355-1.498c3.994-3.962,6.367-3.578,6.387-3.575c0.141,0.028,0.283-0.034,0.357-0.156l0.832-1.396
	l0.24,1.165c0.008,0.039,0.023,0.077,0.045,0.111c0.064,0.104,1.627,2.583,2.936,3.68c0.701,0.587,0.803,0.929,0.801,1.08
	c0,0.191-0.164,0.338-0.447,0.57c-0.709,0.58-2.012-0.813-2.025-0.827c-0.049-0.055-0.119-0.092-0.191-0.104
	c-1.334-0.223-1.748-0.805-1.748-0.806c-0.074-0.116-0.209-0.18-0.348-0.149c-0.135,0.026-0.24,0.133-0.266,0.269
	c-0.217,1.182-1.992,2.88-2.656,3.435c-0.035,0.029-0.064,0.065-0.084,0.105c-0.861,1.688-0.256,3.041-0.23,3.097
	c0.055,0.119,0.174,0.195,0.305,0.195c0.498,0,1.104,0.25,1.637,0.47c0.271,0.111,0.52,0.213,0.725,0.272
	c0.488,0.14,0.852,0.227,1.141,0.296c0.445,0.106,0.691,0.166,0.957,0.312c1.154,0.636,3.963,3.766,4.004,3.81
	c0.104,0.104,0.156,0.178,0.188,0.226L216.955-4.024z"/>
</svg>
