<?xml version="1.0" encoding="utf-8"?>
<!-- Generator: Adobe Illustrator 16.0.0, SVG Export Plug-In . SVG Version: 6.00 Build 0)  -->
<!DOCTYPE svg PUBLIC "-//W3C//DTD SVG 1.1//EN" "http://www.w3.org/Graphics/SVG/1.1/DTD/svg11.dtd">
<svg version="1.1" id="Layer_1" xmlns="http://www.w3.org/2000/svg" xmlns:xlink="http://www.w3.org/1999/xlink" x="0px" y="0px"
	 width="50px" height="50px" viewBox="314.5 -35.5 50 50" enable-background="new 314.5 -35.5 50 50" xml:space="preserve">
<path d="M353.794-14.943c-0.625-0.827-1.856-1.253-3.664-1.27c-0.12-1.186-0.854-5.677-5.158-7.888
	c0.436-0.279,1.039-0.808,1.627-1.798c0.246-0.006,0.646-0.071,0.896-0.398c0.269-0.352,0.261-0.875-0.004-1.489
	c-0.008-0.05-0.065-0.309-0.376-0.5c-0.454-0.28-1.208-0.263-2.244,0.051c-0.371-0.043-1.864-0.19-2.612,0.21l-0.598,0.1
	c-0.209-0.357-0.629-0.931-1.105-0.877c-0.104,0.012-0.195,0.077-0.239,0.172c-0.039,0.085-3.814,8.421,1.107,12.605
	c-0.502,0.725-2.181,3.058-4.1,4.771c-0.514,0.459-1.433,1.424-1.791,2.675c-0.006,0.012-0.172,0.306-0.789,0.413
	c-2.081,0.361-2.216,0.515-3.341,2.425c-0.411,0.698-0.975,1.654-1.846,2.963c-0.02,0.027-1.943,2.693-4.398,1.992
	c-0.142-0.04-0.287,0.026-0.352,0.156c-0.063,0.13-0.025,0.288,0.092,0.374c0.09,0.066,2.238,1.62,4.943,0.847
	c2.231-0.636,4.131-2.643,5.657-5.971c0.234,1.191,0.927,2.498,2.537,2.68c0.066,0.171,0.173,0.814-0.813,2.548
	c-0.242,0.211-0.405,0.809,0.424,2.482c0.006,0.016,0.557,1.611,0.534,2.527c-0.001,0.049,0.01,0.098,0.031,0.142
	c0.019,0.037,0.18,0.336,0.567,0.413v0.051c0,0.028,0.004,0.055,0.012,0.082c0.107,0.376,0.616,1.05,1.766,0.885
	c0.121-0.017,0.22-0.106,0.249-0.226c0.01-0.04,0.019-0.084,0.024-0.132c0.174,0.261,0.337,0.465,0.478,0.58
	c0.026,0.021,0.056,0.039,0.088,0.05c0.027,0.01,0.19,0.065,0.412,0.065c0.004,0,0.008,0,0.013,0
	c-0.01,0.247,0.018,0.541,0.164,0.742c0.102,0.139,0.245,0.222,0.404,0.237c0.148,0.021,0.457,0.058,0.79,0.058
	c0.399,0,0.833-0.053,1.069-0.25c0.127-0.106,0.198-0.246,0.205-0.427c-0.02-0.554-0.406-1.637-1.657-1.755
	c-0.01-0.004-1.049-0.439-1.709-3.141c0.083-0.329,0.465-1.796,1.144-3.53c0.073-0.188,0.152-0.438,0.238-0.711
	c0.188-0.598,0.421-1.341,0.695-1.672c0.584-0.705,1.581-2.27,0.799-3.989c0.965-0.424,4.063-1.987,4.144-4.565
	c0.869,0.039,2.016-0.195,3.299-1.203c0.14,0.037,0.452,0.261,0.575,0.35l0.088,0.063c0.181,0.128,0.31,0.416,0.314,0.701
	c0.003,0.194-0.051,0.469-0.32,0.674c-0.071,0.054-0.115,0.138-0.118,0.229l-0.019,0.544c-0.213,0.13-0.554,0.401-0.691,0.864
	c-0.16,0.538,0.001,1.156,0.477,1.838c0.036,0.052,0.088,0.091,0.148,0.112c0.042,0.015,0.267,0.079,0.533-0.085
	c0.412-0.252,0.695-0.917,0.84-1.958c0.025-0.123,0.09-0.273,0.069-0.294c0.084,0.018,0.172,0.001,0.242-0.048
	c0.069-0.05,0.115-0.128,0.124-0.214c0.05-0.493,0.232-1.884,0.486-2.437C354.169-13.141,354.44-14.087,353.794-14.943z
	 M353.598-13.313c-0.266,0.569-0.438,1.845-0.5,2.364c-0.021,0.01-0.04,0.021-0.06,0.034c-0.278,0.18-0.375,0.606-0.395,0.707
	c-0.151,1.082-0.416,1.448-0.534,1.546c-0.291-0.46-0.392-0.854-0.3-1.175c0.117-0.403,0.522-0.578,0.524-0.579
	c0.11-0.044,0.184-0.149,0.188-0.268l0.02-0.585c0.294-0.273,0.45-0.646,0.443-1.065c-0.008-0.478-0.229-0.941-0.566-1.181
	l-0.085-0.061c-0.401-0.289-0.9-0.649-1.256-0.367c-2.409,1.922-4.229,0.782-4.305,0.733c-0.138-0.09-0.325-0.052-0.414,0.087
	c-0.091,0.138-0.054,0.323,0.085,0.414c0.036,0.025,0.431,0.273,1.07,0.402c-0.027,2.283-3.041,3.757-3.847,4.109
	c-0.241-0.36-0.559-0.725-0.991-1.086c-0.127-0.105-0.314-0.089-0.423,0.038c-0.106,0.127-0.089,0.316,0.038,0.423
	c2.127,1.776,1.398,3.567,0.412,4.757c-0.349,0.422-0.591,1.194-0.805,1.876c-0.081,0.258-0.155,0.495-0.225,0.672
	c-0.783,2-1.182,3.662-1.186,3.678c-0.011,0.045-0.011,0.093,0,0.139c0.736,3.088,1.972,3.591,2.177,3.652
	c1.107,0.113,1.186,1.087,1.203,1.139c-0.11,0.116-0.787,0.146-1.396,0.065c-0.065-0.068-0.07-0.414-0.011-0.699
	c0.023-0.109-0.016-0.223-0.103-0.294c-0.087-0.071-0.205-0.087-0.309-0.044c-0.16,0.07-0.325,0.046-0.405,0.029
	c-0.556-0.532-1.706-2.994-2.36-4.561c-0.047-0.114-0.171-0.179-0.281-0.184c-0.122,0.001-0.231,0.078-0.275,0.192
	c-0.132,0.345,0.101,1.488,0.252,2.138c0.02,0.085,0.075,0.157,0.152,0.198c0.248,0.13,0.331,0.542,0.343,0.689
	c0.007,0.1,0.064,0.191,0.152,0.24c0.523,0.293,0.613,0.734,0.615,0.992c-0.628,0.018-0.814-0.332-0.862-0.444V5.033
	c0-0.107-0.057-0.206-0.149-0.259c-0.091-0.054-0.206-0.054-0.299-0.001l-0.072,0.041c-0.034-0.012-0.06-0.03-0.077-0.046
	c-0.013-1.027-0.545-2.568-0.583-2.668c-0.66-1.336-0.573-1.75-0.551-1.819c0.025-0.022,0.047-0.048,0.063-0.077
	c1.512-2.633,0.871-3.303,0.639-3.445c-0.041-0.025-0.088-0.04-0.136-0.043c-2.352-0.168-2.217-3.193-2.21-3.322
	c0.008-0.146-0.092-0.277-0.235-0.309c-0.143-0.027-0.288,0.045-0.343,0.182c-1.527,3.822-3.459,6.092-5.742,6.748
	c-1.221,0.351-2.333,0.159-3.138-0.118c2.036-0.304,3.428-2.225,3.504-2.332c0.886-1.33,1.453-2.294,1.868-2.998
	c1.07-1.816,1.07-1.816,2.927-2.139c0.931-0.161,1.199-0.684,1.243-0.786c0.349-1.2,1.26-2.11,1.635-2.445
	c2.345-2.094,4.271-4.989,4.353-5.111c0.087-0.13,0.059-0.305-0.064-0.401c-4.392-3.447-1.837-10.4-1.259-11.808
	c0.138,0.123,0.33,0.376,0.477,0.667c0.06,0.117,0.196,0.186,0.317,0.161l0.862-0.144c0.037-0.006,0.072-0.02,0.104-0.039
	c0.516-0.309,1.866-0.214,2.344-0.152c0.043,0.006,0.087,0.001,0.128-0.011c1.426-0.444,1.874-0.16,1.932,0.021
	c0.189,0.454,0.226,0.795,0.102,0.959c-0.128,0.168-0.447,0.173-0.552,0.16c-0.12-0.018-0.239,0.043-0.3,0.15
	c-0.96,1.703-1.951,1.959-1.957,1.961c-0.128,0.027-0.223,0.134-0.235,0.264c-0.013,0.13,0.06,0.253,0.18,0.305
	c5.165,2.24,5.396,7.863,5.397,7.92c0.005,0.163,0.132,0.274,0.304,0.291c1.737-0.019,2.923,0.331,3.453,1.024
	C353.771-13.985,353.593-13.313,353.598-13.313C353.597-13.313,353.597-13.313,353.598-13.313z"/>
</svg>
