<?xml version="1.0" encoding="utf-8"?>
<!-- Generator: Adobe Illustrator 16.0.0, SVG Export Plug-In . SVG Version: 6.00 Build 0)  -->
<!DOCTYPE svg PUBLIC "-//W3C//DTD SVG 1.1//EN" "http://www.w3.org/Graphics/SVG/1.1/DTD/svg11.dtd">
<svg version="1.1" id="Layer_1" xmlns="http://www.w3.org/2000/svg" xmlns:xlink="http://www.w3.org/1999/xlink" x="0px" y="0px"
	 width="50px" height="50px" viewBox="-315.5 34.5 50 50" enable-background="new -315.5 34.5 50 50" xml:space="preserve">
<path d="M-300.399,68.906c-4.387-6.475-1.291-11.531-1.291-11.531c-0.719-0.213-3.02,1.295-3.02,1.295
	c1.294-4.742,8.411-8.771,8.411-8.771c-0.79-0.289-3.019,0.285-3.019,0.285c5.823-5.604,12.941-3.52,12.941-3.52
	c0.215-1.223,3.739-3.379,3.739-3.379c-0.36,0.357-0.504,2.301-0.504,2.301c0.359-0.648,1.51-1.295,1.51-1.295
	c-0.647,1.508,0,4.742,0,4.742c1.87,1.871,3.954,8.342,3.954,8.342l0.792,1.15c1.007,1.441,0.637,3.703-0.36,4.24
	c-3.738,2.018-4.098-1.652-4.098-1.652c-3.091-0.359-5.392-3.811-5.392-3.811c-4.17,2.156-1.847,8.238-0.047,10.574
	c2.311,2.994,0.619,7.838,0.619,7.838S-296.067,75.305-300.399,68.906z"/>
</svg>
