<?xml version="1.0" encoding="utf-8"?>
<!-- Generator: Adobe Illustrator 16.0.0, SVG Export Plug-In . SVG Version: 6.00 Build 0)  -->
<!DOCTYPE svg PUBLIC "-//W3C//DTD SVG 1.1//EN" "http://www.w3.org/Graphics/SVG/1.1/DTD/svg11.dtd">
<svg version="1.1" id="Layer_1" xmlns="http://www.w3.org/2000/svg" xmlns:xlink="http://www.w3.org/1999/xlink" x="0px" y="0px"
	 width="50px" height="50px" viewBox="-105.5 34.5 50 50" enable-background="new -105.5 34.5 50 50" xml:space="preserve">
<path d="M-72.956,60.145c0.445,0.298,0.96,0.398,1.472,0.593c-0.524-0.066-1.098-0.068-1.598-0.307
	c-0.539-0.153-1.004-0.449-1.498-0.713c-0.778-0.546-1.468-1.185-2.106-1.909c-0.197,0.142-0.405,0.277-0.556,0.458
	c-0.259,0.229-0.429,0.537-0.589,0.832c-0.155,0.308-0.24,0.642-0.319,0.983c-0.047,0.351-0.095,0.701-0.074,1.066
	c0.042,1.453,0.522,2.94,1.192,4.295c0.172,0.342,0.352,0.669,0.542,0.974c0.226,0.323,0.44,0.638,0.646,1.043
	c0.209,0.383,0.428,0.759,0.5,1.183c0.096,0.415,0.249,0.816,0.247,1.235c0.015,0.417,0.096,0.83,0.044,1.238
	c-0.03,0.407-0.046,0.818-0.14,1.215c-0.141,0.797-0.355,1.579-0.674,2.313c0.132-0.789,0.231-1.572,0.236-2.356
	c0.037-0.39-0.042-0.779-0.039-1.162c0.011-0.388-0.107-0.759-0.156-1.132c-0.033-0.383-0.212-0.718-0.328-1.068
	c-0.094-0.364-0.32-0.653-0.521-0.949c-0.174-0.295-0.414-0.63-0.664-0.946c-0.251-0.355-0.471-0.713-0.674-1.07
	c-0.767-1.462-1.354-3.064-1.361-4.797c-0.008-0.855,0.132-1.768,0.591-2.559c0.228-0.385,0.486-0.772,0.833-1.059
	c0.31-0.335,0.718-0.522,1.09-0.749l0.355-0.216l0.234,0.359c0.546,0.839,1.257,1.637,2.036,2.315
	C-73.823,59.566-73.429,59.922-72.956,60.145z M-84.813,71.95c-0.825-0.516-1.675-1.142-2.491-1.894
	c-0.755-0.744-1.649-1.639-2.308-2.597c-0.687-0.979-1.269-2.081-1.578-3.284c-0.329-1.201-0.386-2.474-0.246-3.733
	c0.323-2.513,1.325-5.013,2.735-6.927c1.487-1.882,3.206-3.47,4.927-4.332c1.735-0.88,3.333-1.332,4.456-1.579
	c1.126-0.24,1.788-0.298,1.788-0.298s-0.662-0.002-1.815,0.14c-1.142,0.17-2.817,0.41-4.661,1.256
	c-0.917,0.413-1.881,0.995-2.764,1.747c-0.871,0.722-1.808,1.556-2.574,2.573c-1.545,2.05-2.615,4.596-3.011,7.31
	c-0.393,2.748,0.525,5.588,2.063,7.616c0.783,1.063,1.586,1.88,2.5,2.666c0.896,0.74,1.815,1.341,2.699,1.829
	c1.78,0.962,3.429,1.365,4.573,1.556c1.148,0.195,1.814,0.17,1.814,0.17s-0.666-0.039-1.777-0.342
	C-81.6,73.541-83.138,72.94-84.813,71.95z M-66.441,59.468c-0.256-0.997-0.982-1.657-1.442-2.404
	c-0.476-1.384-0.773-2.837-1.327-4.215c-0.259-0.699-0.581-1.375-0.92-2.054c-0.312-0.612-0.681-1.203-1.194-1.765
	c-0.143-0.658-0.271-1.346-0.362-2.018c-0.078-0.717-0.126-1.453,0.015-2.092l0.125-0.564l-0.483,0.119
	c-0.843,0.207-1.628,0.514-2.339,0.997c-0.703,0.463-1.322,1.169-1.458,2.015l0.114,0.027c0.251-0.77,0.864-1.324,1.56-1.682
	c0.533-0.275,1.118-0.456,1.703-0.589c-0.187,0.609-0.267,1.226-0.272,1.824c-0.015,0.798,0.061,1.563,0.201,2.354l0.027,0.153
	l0.148,0.163c0.842,0.924,1.557,2.26,2.216,3.525c0.642,1.292,1.413,2.566,1.893,3.944l0.009,0.029l0.016,0.021
	c0.546,0.737,1.137,1.474,1.13,2.326c0.024,0.415-0.017,0.834-0.142,1.212c-0.068,0.187-0.124,0.369-0.215,0.525
	c-0.079,0.14-0.202,0.325-0.254,0.359c-0.125,0.117-0.275,0.177-0.481,0.289c-0.184,0.107-0.373,0.174-0.561,0.245
	c-0.374,0.146-0.754,0.221-1.099,0.172c-0.708-0.053-1.285-0.813-1.592-1.657l-0.058,0.007l-0.059,0.007
	c-0.027,0.479,0.078,0.958,0.294,1.424c0.24,0.447,0.674,0.857,1.218,1.026c0.545,0.187,1.105,0.104,1.592-0.027
	c0.244-0.073,0.488-0.151,0.705-0.264c0.2-0.094,0.485-0.199,0.696-0.398c0.292-0.269,0.406-0.486,0.525-0.752
	c0.104-0.259,0.173-0.516,0.199-0.777C-66.256,60.458-66.309,59.949-66.441,59.468z M-78.495,46.609
	c0.486-0.007,0.874-0.405,0.869-0.892c-0.007-0.485-0.407-0.875-0.893-0.868s-0.874,0.408-0.867,0.894
	C-79.38,46.227-78.981,46.616-78.495,46.609z M-82.299,47.348c0.486-0.007,0.875-0.405,0.868-0.892
	c-0.007-0.485-0.406-0.875-0.892-0.868c-0.486,0.007-0.875,0.405-0.869,0.892C-83.185,46.965-82.785,47.354-82.299,47.348z
	 M-85.41,48.758c0.486-0.008,0.874-0.406,0.869-0.892c-0.007-0.486-0.407-0.876-0.893-0.869c-0.486,0.007-0.874,0.408-0.867,0.894
	C-86.295,48.375-85.896,48.765-85.41,48.758z M-88.319,50.559c0.486-0.007,0.875-0.407,0.869-0.894
	c-0.007-0.486-0.407-0.873-0.893-0.866c-0.486,0.004-0.875,0.405-0.868,0.892C-89.204,50.176-88.805,50.563-88.319,50.559z
	 M-90.535,53.034c0.486-0.007,0.875-0.405,0.869-0.892s-0.407-0.876-0.893-0.868c-0.486,0.007-0.874,0.405-0.867,0.892
	C-91.42,52.651-91.021,53.041-90.535,53.034z M-92.158,55.988c0.486-0.004,0.875-0.405,0.869-0.892
	c-0.007-0.485-0.407-0.873-0.893-0.866c-0.486,0.005-0.875,0.406-0.868,0.892C-93.044,55.608-92.644,55.995-92.158,55.988z
	 M-93.283,59.525c0.486-0.007,0.874-0.406,0.867-0.892c-0.005-0.486-0.406-0.876-0.892-0.869s-0.874,0.408-0.869,0.892
	C-94.169,59.143-93.77,59.532-93.283,59.525z M-92.951,62.454c-0.005-0.485-0.406-0.873-0.892-0.866
	c-0.486,0.005-0.874,0.406-0.867,0.892c0.005,0.486,0.405,0.873,0.892,0.869C-93.333,63.342-92.944,62.94-92.951,62.454z
	 M-93.109,65.097c-0.486,0.007-0.875,0.408-0.869,0.895c0.007,0.485,0.407,0.873,0.893,0.866s0.874-0.405,0.867-0.892
	S-92.623,65.093-93.109,65.097z"/>
</svg>
