<?xml version="1.0" encoding="utf-8"?>
<!-- Generator: Adobe Illustrator 16.0.0, SVG Export Plug-In . SVG Version: 6.00 Build 0)  -->
<!DOCTYPE svg PUBLIC "-//W3C//DTD SVG 1.1//EN" "http://www.w3.org/Graphics/SVG/1.1/DTD/svg11.dtd">
<svg version="1.1" id="Layer_1" xmlns="http://www.w3.org/2000/svg" xmlns:xlink="http://www.w3.org/1999/xlink" x="0px" y="0px"
	 width="50px" height="50px" viewBox="-175.5 34.5 50 50" enable-background="new -175.5 34.5 50 50" xml:space="preserve">
<path d="M-137.208,62.639c-3.592,1.938-3.938-1.589-3.938-1.589c-2.97-0.344-5.181-3.661-5.181-3.661
	c-4.007,2.072-1.774,7.917-0.045,10.161c2.221,2.876,0.595,7.531,0.595,7.531s-9.057-0.733-13.679-6.542
	c-3.47-4.36-2.575-8.481-1.587-11.202c1.19-3.271,2.797-5.064,5.143-6.974c3.482-2.839,9.919-3.197,9.919-3.197
	c0.206-1.175,3.593-3.247,3.593-3.247c-0.347,0.344-0.484,2.211-0.484,2.211c0.345-0.622,1.45-1.245,1.45-1.245
	c-0.621,1.45,0,4.559,0,4.559c1.797,1.798,3.8,8.015,3.8,8.015l0.761,1.105C-135.895,59.948-136.25,62.123-137.208,62.639z
	 M-148.058,46.635c0.493,0,0.892-0.4,0.892-0.893s-0.399-0.892-0.892-0.892c-0.492,0-0.892,0.399-0.892,0.892
	S-148.55,46.635-148.058,46.635z M-151.923,47.329c0.493,0,0.892-0.399,0.892-0.893c0-0.492-0.399-0.892-0.892-0.892
	c-0.492,0-0.892,0.399-0.892,0.892C-152.815,46.93-152.416,47.329-151.923,47.329z M-155.095,48.716
	c0.492,0,0.892-0.399,0.892-0.892c0-0.493-0.4-0.893-0.892-0.893c-0.493,0-0.892,0.399-0.892,0.893
	C-155.987,48.316-155.588,48.716-155.095,48.716z M-158.068,50.5c0.493,0,0.892-0.399,0.892-0.892c0-0.493-0.399-0.893-0.892-0.893
	s-0.892,0.399-0.892,0.893C-158.96,50.101-158.561,50.5-158.068,50.5z M-160.348,52.979c0.493,0,0.892-0.399,0.892-0.892
	s-0.399-0.893-0.892-0.893s-0.892,0.4-0.892,0.893S-160.841,52.979-160.348,52.979z M-161.142,55.061
	c0-0.492-0.399-0.893-0.892-0.893c-0.492,0-0.892,0.4-0.892,0.893s0.4,0.892,0.892,0.892
	C-161.541,55.952-161.142,55.553-161.142,55.061z M-163.223,59.521c0.493,0,0.892-0.399,0.892-0.892s-0.399-0.893-0.892-0.893
	c-0.492,0-0.892,0.4-0.892,0.893S-163.715,59.521-163.223,59.521z M-162.926,62.494c0-0.492-0.399-0.892-0.892-0.892
	c-0.492,0-0.892,0.399-0.892,0.892c0,0.493,0.4,0.893,0.892,0.893C-163.325,63.387-162.926,62.987-162.926,62.494z M-163.123,65.171
	c-0.493,0-0.892,0.399-0.892,0.892c0,0.493,0.399,0.893,0.892,0.893s0.892-0.399,0.892-0.893
	C-162.231,65.57-162.63,65.171-163.123,65.171z"/>
</svg>
