<?xml version="1.0" encoding="utf-8"?>
<!-- Generator: Adobe Illustrator 16.0.0, SVG Export Plug-In . SVG Version: 6.00 Build 0)  -->
<!DOCTYPE svg PUBLIC "-//W3C//DTD SVG 1.1//EN" "http://www.w3.org/Graphics/SVG/1.1/DTD/svg11.dtd">
<svg version="1.1" id="Layer_1" xmlns="http://www.w3.org/2000/svg" xmlns:xlink="http://www.w3.org/1999/xlink" x="0px" y="0px"
	 width="50px" height="50px" viewBox="-35.5 34.5 50 50" enable-background="new -35.5 34.5 50 50" xml:space="preserve">
<path d="M3.674,61.078c-0.093,0.477-0.224,0.951-0.645,1.383c-0.228,0.237-0.437,0.314-0.643,0.418
	c-0.199,0.116-0.428,0.188-0.659,0.256c-0.46,0.117-0.99,0.172-1.472-0.026c-0.991-0.388-1.411-1.345-1.511-2.185l0.1-0.028
	c0.367,0.742,0.934,1.426,1.61,1.554c0.333,0.066,0.681-0.006,1.021-0.126c0.299-0.124,0.768-0.337,0.911-0.519
	c0.165-0.188,0.323-0.548,0.399-0.891c0.078-0.355,0.114-0.734,0.082-1.111c-0.025-0.751-0.531-1.438-0.989-2.168L1.86,57.606
	L1.855,57.59c-0.409-1.313-0.994-2.569-1.659-3.769c-0.675-1.166-1.316-2.449-2.173-3.299l-0.109-0.11l-0.038-0.158
	c-0.174-0.729-0.273-1.445-0.313-2.196c-0.006-0.501-0.004-1.012,0.097-1.539c-0.547,0.102-1.098,0.231-1.628,0.399
	c-0.766,0.271-1.505,0.637-2.088,1.247l-0.085-0.057c0.4-0.785,1.137-1.371,1.91-1.782c0.782-0.435,1.611-0.694,2.503-0.883
	l0.738-0.158l-0.23,0.819c-0.15,0.534-0.165,1.228-0.108,1.895c0.033,0.645,0.129,1.309,0.225,1.949
	c0.939,1.13,1.434,2.353,1.906,3.602c0.459,1.311,0.875,2.616,1.366,3.904c0.255,0.326,0.516,0.653,0.789,0.97
	c0.298,0.358,0.507,0.79,0.627,1.245C3.707,60.121,3.746,60.602,3.674,61.078z M-4.802,58.308c-0.231-0.334-0.46-0.724-0.603-1.051
	l-0.302-0.689l-0.695,0.369c-0.706,0.371-1.4,0.927-1.794,1.682c-0.407,0.74-0.559,1.563-0.553,2.336
	c0.022,1.552,0.501,2.961,1.136,4.255c0.329,0.647,0.696,1.258,1.156,1.848c0.232,0.292,0.424,0.508,0.604,0.789
	c0.178,0.271,0.335,0.556,0.468,0.856c0.517,1.202,0.58,2.638,0.207,3.95l0.136,0.053c0.539-1.302,0.669-2.801,0.254-4.219
	c-0.192-0.701-0.6-1.377-1.005-1.938c-0.356-0.533-0.669-1.14-0.922-1.752c-0.504-1.224-0.822-2.556-0.709-3.789
	c0.091-1.006,0.503-1.819,1.189-2.403c0.136,0.177,0.277,0.348,0.429,0.516c0.346,0.354,0.712,0.695,1.136,0.959
	c0.827,0.55,1.833,0.864,2.784,0.757l0.014-0.146c-0.865-0.31-1.577-0.786-2.152-1.399C-4.3,58.973-4.575,58.661-4.802,58.308z
	 M-9.788,72.628c-0.512-0.142-1.056-0.322-1.62-0.535c-0.554-0.239-1.149-0.448-1.729-0.742c-0.588-0.276-1.184-0.584-1.759-0.947
	c-0.57-0.361-1.149-0.776-1.625-1.243c-0.493-0.41-0.994-1.069-1.378-1.57c-0.414-0.563-0.77-1.147-1.095-1.728
	c-0.626-1.168-1.022-2.354-1.159-3.405c-0.142-1.051-0.037-1.951,0.134-2.549c0.17-0.604,0.36-0.907,0.36-0.907l-0.103-0.068
	c0,0-0.23,0.304-0.458,0.91c-0.231,0.604-0.426,1.531-0.374,2.653c0.02,0.562,0.122,1.162,0.267,1.788
	c0.16,0.623,0.397,1.258,0.677,1.9c0.301,0.631,0.636,1.271,1.03,1.891c0.442,0.657,0.792,1.192,1.361,1.774
	c0.517,0.594,1.093,1.077,1.693,1.529c0.596,0.458,1.24,0.823,1.877,1.142c1.29,0.61,2.591,0.9,3.695,1.069
	c2.234,0.292,3.708-0.021,3.708-0.021l-0.004-0.126C-6.291,73.443-7.748,73.23-9.788,72.628z M-12.347,50.847l0.028-0.057
	c-0.44-0.203-0.859-0.473-1.324-0.625c-0.453-0.19-0.92-0.339-1.395-0.469c-0.741-0.196-1.499-0.316-2.267-0.392
	c0.598-0.358,1.218-0.681,1.887-0.88c0.862-0.253,1.745-0.436,2.646-0.517c1.798-0.148,3.627-0.073,5.456,0.211l0.018-0.062
	c-0.869-0.343-1.785-0.56-2.712-0.695c-0.93-0.115-1.877-0.171-2.819-0.073c-1.887,0.152-3.734,0.856-5.25,1.992l-0.495,0.371
	l0.622,0.004C-16.054,49.668-14.104,50.023-12.347,50.847z M-16.195,54.015l0.022-0.057c-1.643-0.638-3.383-1.053-5.181-1.098
	c0.146-0.107,0.282-0.231,0.445-0.314c0.315-0.207,0.675-0.339,1.02-0.488c0.716-0.254,1.459-0.42,2.21-0.548
	c1.513-0.217,3.06-0.29,4.632-0.262l0.01-0.061c-1.527-0.42-3.147-0.527-4.737-0.292c-1.585,0.227-3.154,0.88-4.344,1.999
	l-0.426,0.402l0.589-0.043C-20.042,53.118-18.061,53.426-16.195,54.015z M-19.232,57.767c-1.269-0.769-2.827-1.16-4.359-0.858
	c0.334-0.351,0.708-0.667,1.138-0.904c0.601-0.337,1.271-0.556,1.939-0.763c1.351-0.379,2.757-0.616,4.193-0.813l0.002-0.061
	c-1.445-0.198-2.939-0.132-4.365,0.278c-1.418,0.381-2.823,1.18-3.657,2.474l-0.368,0.572l0.631-0.27
	c0.722-0.311,1.591-0.386,2.411-0.318c0.83,0.083,1.648,0.334,2.405,0.716L-19.232,57.767z"/>
</svg>
