<?xml version="1.0" encoding="utf-8"?>
<!-- Generator: Adobe Illustrator 16.0.0, SVG Export Plug-In . SVG Version: 6.00 Build 0)  -->
<!DOCTYPE svg PUBLIC "-//W3C//DTD SVG 1.1//EN" "http://www.w3.org/Graphics/SVG/1.1/DTD/svg11.dtd">
<svg version="1.1" id="Layer_1" xmlns="http://www.w3.org/2000/svg" xmlns:xlink="http://www.w3.org/1999/xlink" x="0px" y="0px"
	 width="50px" height="50px" viewBox="104.5 34.5 50 50" enable-background="new 104.5 34.5 50 50" xml:space="preserve">
<path d="M143.67,61.347c-0.108,0.555-0.266,1.111-0.754,1.616c-0.27,0.277-0.512,0.367-0.753,0.488
	c-0.232,0.133-0.498,0.221-0.769,0.297c-0.54,0.14-1.157,0.206-1.721-0.026c-1.162-0.453-1.65-1.574-1.769-2.556l0.118-0.033
	c0.427,0.87,1.091,1.669,1.883,1.816c0.389,0.078,0.796-0.008,1.194-0.147c0.346-0.145,0.896-0.394,1.063-0.606
	c0.194-0.221,0.374-0.641,0.469-1.043c0.09-0.415,0.128-0.858,0.09-1.3c-0.028-0.874-0.621-1.678-1.151-2.536l-0.024-0.031
	l-0.004-0.019c-0.479-1.531-1.162-3.004-1.939-4.402c-0.787-1.365-1.536-2.865-2.541-3.856l-0.128-0.128l-0.043-0.186
	c-0.204-0.855-0.317-1.692-0.365-2.566c-0.007-0.586-0.005-1.186,0.114-1.802c-0.643,0.118-1.285,0.27-1.906,0.469
	c-0.894,0.315-1.759,0.745-2.439,1.458l-0.1-0.066c0.467-0.917,1.33-1.603,2.233-2.086c0.912-0.505,1.885-0.809,2.928-1.031
	l0.862-0.185l-0.27,0.955c-0.176,0.626-0.194,1.437-0.128,2.219c0.04,0.752,0.148,1.529,0.263,2.275
	c1.098,1.318,1.676,2.75,2.226,4.211c0.543,1.533,1.029,3.06,1.603,4.567c0.299,0.384,0.6,0.759,0.92,1.129
	c0.346,0.419,0.593,0.924,0.73,1.455C143.708,60.228,143.751,60.787,143.67,61.347z M133.762,58.108
	c-0.271-0.392-0.541-0.847-0.707-1.229l-0.351-0.806l-0.813,0.432c-0.825,0.434-1.639,1.083-2.099,1.965
	c-0.474,0.865-0.651,1.828-0.645,2.729c0.026,1.815,0.586,3.464,1.327,4.976c0.385,0.759,0.812,1.47,1.352,2.16
	c0.271,0.339,0.495,0.592,0.706,0.922c0.209,0.317,0.394,0.649,0.548,1c0.604,1.406,0.678,3.082,0.242,4.618l0.158,0.062
	c0.631-1.521,0.782-3.273,0.299-4.931c-0.228-0.822-0.701-1.609-1.176-2.267c-0.417-0.623-0.782-1.332-1.078-2.048
	c-0.591-1.43-0.96-2.986-0.827-4.428c0.104-1.176,0.585-2.127,1.389-2.81c0.159,0.206,0.322,0.405,0.503,0.603
	c0.402,0.415,0.829,0.813,1.327,1.121c0.965,0.643,2.143,1.01,3.252,0.884l0.02-0.17c-1.015-0.363-1.845-0.92-2.518-1.636
	C134.347,58.886,134.027,58.521,133.762,58.108z M127.933,74.847c-0.6-0.166-1.235-0.377-1.895-0.626
	c-0.645-0.28-1.342-0.524-2.02-0.868c-0.688-0.322-1.385-0.683-2.058-1.106c-0.664-0.422-1.342-0.908-1.898-1.453
	c-0.576-0.479-1.162-1.249-1.609-1.835c-0.484-0.659-0.901-1.342-1.28-2.02c-0.732-1.365-1.195-2.752-1.356-3.98
	c-0.166-1.228-0.042-2.28,0.156-2.979c0.199-0.706,0.42-1.06,0.42-1.06l-0.121-0.081c0,0-0.268,0.356-0.535,1.064
	c-0.271,0.707-0.496,1.79-0.437,3.101c0.023,0.657,0.143,1.358,0.313,2.091c0.188,0.73,0.465,1.47,0.792,2.222
	c0.351,0.737,0.744,1.486,1.204,2.209c0.518,0.769,0.925,1.395,1.591,2.074c0.604,0.694,1.278,1.259,1.979,1.787
	c0.697,0.536,1.451,0.963,2.195,1.335c1.508,0.714,3.027,1.053,4.319,1.249c2.609,0.342,4.333-0.023,4.333-0.023l-0.005-0.146
	C132.021,75.8,130.317,75.551,127.933,74.847z M129.888,49.845c0.181,0.663,0.377,1.083,0.377,1.083s0.111-0.467,0.169-1.131
	c0.028-0.666,0.108-1.52,0.175-2.36c0.071-0.401,0.098-0.83,0.199-1.192c0.071-0.171,0.104-0.354,0.147-0.529
	c0.025-0.185,0.133-0.299,0.189-0.445c0.121-0.284,0.289-0.491,0.415-0.626c0.128-0.138,0.234-0.209,0.234-0.209
	s-0.111-0.019-0.322,0.041c-0.185,0.078-0.521,0.173-0.754,0.457c-0.282,0.259-0.512,0.616-0.706,1.038
	c-0.164,0.422-0.242,0.89-0.365,1.354c0.005,0.465,0.009,0.93,0.014,1.366C129.655,49.124,129.831,49.508,129.888,49.845z
	 M126.87,50.996c0.181,0.664,0.377,1.084,0.377,1.084s0.114-0.467,0.166-1.131c0.028-0.669,0.109-1.52,0.181-2.363
	c0.07-0.4,0.095-0.827,0.194-1.192c0.073-0.171,0.106-0.354,0.149-0.526c0.025-0.188,0.135-0.301,0.191-0.448
	c0.119-0.284,0.289-0.49,0.413-0.626c0.128-0.137,0.234-0.208,0.234-0.208s-0.111-0.02-0.322,0.04
	c-0.183,0.078-0.521,0.173-0.757,0.46c-0.279,0.256-0.512,0.614-0.704,1.036c-0.163,0.424-0.241,0.889-0.364,1.355
	c0.007,0.465,0.012,0.93,0.017,1.365C126.641,50.276,126.812,50.66,126.87,50.996z M123.459,52.967
	c0.181,0.663,0.375,1.083,0.375,1.083s0.113-0.467,0.168-1.131c0.028-0.668,0.109-1.521,0.178-2.363
	c0.071-0.4,0.095-0.83,0.199-1.192c0.071-0.171,0.104-0.354,0.147-0.528c0.023-0.186,0.132-0.299,0.189-0.446
	c0.121-0.284,0.289-0.49,0.415-0.628c0.128-0.135,0.234-0.206,0.234-0.206s-0.111-0.02-0.322,0.04
	c-0.186,0.078-0.521,0.173-0.754,0.458c-0.284,0.258-0.515,0.616-0.707,1.038c-0.165,0.422-0.241,0.889-0.364,1.355
	c0.004,0.465,0.009,0.93,0.014,1.366C123.227,52.246,123.4,52.63,123.459,52.967z M119.86,56.147
	c0.181,0.664,0.375,1.084,0.375,1.084s0.113-0.468,0.168-1.131c0.028-0.666,0.109-1.52,0.178-2.363
	c0.071-0.398,0.095-0.828,0.199-1.19c0.071-0.173,0.104-0.354,0.147-0.528c0.025-0.186,0.133-0.299,0.189-0.446
	c0.121-0.284,0.289-0.49,0.415-0.628c0.128-0.135,0.234-0.206,0.234-0.206s-0.111-0.02-0.322,0.04
	c-0.185,0.078-0.521,0.173-0.754,0.458c-0.282,0.258-0.515,0.616-0.706,1.038c-0.166,0.422-0.242,0.889-0.365,1.354
	c0.005,0.465,0.01,0.929,0.014,1.365C119.629,55.427,119.802,55.812,119.86,56.147z M117.185,59.414
	c0.244,0.646,0.481,1.043,0.481,1.043s0.066-0.477,0.057-1.14c-0.038-0.669-0.04-1.524-0.053-2.371
	c0.029-0.405,0.015-0.832,0.079-1.204c0.054-0.178,0.07-0.362,0.097-0.54c0.005-0.188,0.102-0.311,0.145-0.463
	c0.093-0.296,0.239-0.517,0.351-0.663c0.116-0.149,0.214-0.23,0.214-0.23s-0.114-0.007-0.315,0.071
	c-0.178,0.095-0.503,0.223-0.706,0.531c-0.256,0.282-0.453,0.661-0.603,1.1c-0.123,0.437-0.154,0.908-0.232,1.385
	c0.053,0.462,0.103,0.922,0.149,1.355C116.884,58.722,117.095,59.087,117.185,59.414z"/>
</svg>
