<?xml version="1.0" encoding="utf-8"?>
<!-- Generator: Adobe Illustrator 16.0.0, SVG Export Plug-In . SVG Version: 6.00 Build 0)  -->
<!DOCTYPE svg PUBLIC "-//W3C//DTD SVG 1.1//EN" "http://www.w3.org/Graphics/SVG/1.1/DTD/svg11.dtd">
<svg version="1.1" id="Layer_1" xmlns="http://www.w3.org/2000/svg" xmlns:xlink="http://www.w3.org/1999/xlink" x="0px" y="0px"
	 width="50px" height="50px" viewBox="174.5 34.5 50 50" enable-background="new 174.5 34.5 50 50" xml:space="preserve">
<path d="M188.313,52.753c-0.579,0.761-0.86,1.682-1.285,2.48c-0.321,0.848-0.493,1.717-0.729,2.516
	c-0.213,0.808-0.199,1.61-0.299,2.33c-0.086,0.727-0.149,1.392-0.086,1.984c0.022,0.593,0.045,1.11,0.063,1.536
	c0.036,0.851,0.059,1.337,0.059,1.337l-0.113,0.014c0,0-0.113-0.478-0.258-1.332c-0.068-0.431-0.149-0.953-0.244-1.55
	c-0.136-0.603-0.154-1.29-0.108-2.046c0.054-0.751-0.019-1.584,0.145-2.445c0.186-0.855,0.294-1.797,0.629-2.706
	c0.43-0.871,0.715-1.864,1.316-2.706c0.579-0.857,1.149-1.751,1.946-2.452c0.729-0.771,1.633-1.313,2.484-1.885
	c0.887-0.493,1.782-0.962,2.688-1.285c0.896-0.351,1.796-0.582,2.656-0.72c0.846-0.197,1.67-0.233,2.416-0.333
	c3.009-0.181,4.96,0.319,4.96,0.317l-0.01,0.117c0-0.002-1.954-0.174-4.851,0.244c-0.715,0.147-1.507,0.238-2.303,0.484
	c-0.819,0.188-1.647,0.482-2.494,0.821c-0.846,0.328-1.674,0.79-2.493,1.27c-0.773,0.555-1.602,1.072-2.248,1.799
	C189.407,51.17,188.864,51.978,188.313,52.753z M195.426,71.79c-0.814-0.509-1.656-1.127-2.462-1.869
	c-0.742-0.735-1.624-1.617-2.276-2.563c-0.679-0.966-1.253-2.054-1.557-3.242c-0.325-1.186-0.385-2.441-0.244-3.686
	c0.316-2.479,1.308-4.948,2.701-6.837c1.467-1.857,3.163-3.426,4.86-4.276c1.715-0.869,3.289-1.314,4.398-1.559
	c1.113-0.237,1.765-0.294,1.765-0.294s-0.651-0.003-1.792,0.138c-1.127,0.167-2.778,0.405-4.598,1.24
	c-0.905,0.407-1.859,0.983-2.729,1.724c-0.859,0.713-1.787,1.536-2.543,2.541c-1.525,2.022-2.579,4.536-2.973,7.215
	c-0.385,2.713,0.521,5.516,2.04,7.519c0.77,1.05,1.562,1.854,2.467,2.631c0.882,0.73,1.792,1.323,2.66,1.806
	c1.761,0.95,3.39,1.349,4.517,1.536c1.131,0.192,1.792,0.167,1.792,0.167s-0.661-0.038-1.756-0.337
	C198.598,73.36,197.077,72.768,195.426,71.79z M213.562,59.469c-0.253-0.98-0.966-1.632-1.421-2.364
	c-0.473-1.369-0.767-2.809-1.313-4.17c-0.258-0.69-0.574-1.357-0.909-2.027c-0.306-0.604-0.672-1.19-1.181-1.742
	c-0.139-0.649-0.265-1.328-0.354-1.991c-0.077-0.708-0.127-1.435,0.014-2.065l0.122-0.557l-0.475,0.117
	c-0.833,0.204-1.606,0.507-2.308,0.984c-0.697,0.457-1.309,1.152-1.444,1.989l0.113,0.027c0.249-0.761,0.855-1.309,1.543-1.661
	c0.525-0.271,1.103-0.45,1.679-0.581c-0.186,0.602-0.262,1.21-0.267,1.801c-0.019,0.787,0.059,1.543,0.194,2.323l0.027,0.151
	l0.149,0.161c0.828,0.911,1.538,2.23,2.186,3.479c0.634,1.276,1.398,2.534,1.869,3.894l0.009,0.029l0.018,0.021
	c0.539,0.729,1.123,1.455,1.113,2.297c0.022,0.409-0.018,0.823-0.14,1.196c-0.068,0.184-0.122,0.364-0.213,0.519
	c-0.077,0.138-0.199,0.321-0.249,0.355c-0.127,0.115-0.271,0.174-0.476,0.284c-0.181,0.106-0.37,0.173-0.556,0.242
	c-0.367,0.146-0.742,0.218-1.082,0.17c-0.701-0.052-1.271-0.803-1.574-1.636l-0.055,0.007l-0.059,0.007
	c-0.027,0.473,0.077,0.945,0.289,1.405c0.235,0.441,0.666,0.846,1.204,1.014c0.538,0.183,1.091,0.102,1.57-0.027
	c0.239-0.072,0.484-0.149,0.696-0.261c0.195-0.093,0.479-0.196,0.688-0.394c0.285-0.265,0.397-0.479,0.516-0.742
	c0.104-0.255,0.172-0.509,0.199-0.767C213.742,60.445,213.692,59.943,213.562,59.469z M205.869,59.258
	c-0.77-0.67-1.471-1.457-2.009-2.285l-0.231-0.355l-0.353,0.213c-0.366,0.225-0.77,0.41-1.072,0.74
	c-0.344,0.282-0.598,0.665-0.824,1.045c-0.452,0.78-0.593,1.682-0.583,2.525c0.004,1.71,0.588,3.292,1.344,4.735
	c0.199,0.353,0.416,0.706,0.665,1.057c0.249,0.312,0.484,0.643,0.656,0.934c0.199,0.292,0.421,0.577,0.511,0.938
	c0.118,0.346,0.295,0.676,0.326,1.054c0.05,0.369,0.163,0.735,0.154,1.118c-0.005,0.378,0.072,0.763,0.036,1.146
	c-0.005,0.774-0.1,1.548-0.231,2.326c0.313-0.724,0.525-1.495,0.665-2.283c0.091-0.391,0.109-0.796,0.137-1.199
	c0.054-0.402-0.027-0.81-0.041-1.222c0-0.414-0.149-0.81-0.244-1.219c-0.073-0.419-0.29-0.79-0.493-1.168
	c-0.204-0.4-0.417-0.71-0.639-1.029c-0.189-0.301-0.366-0.624-0.538-0.962c-0.661-1.337-1.132-2.805-1.177-4.239
	c-0.018-0.36,0.027-0.706,0.077-1.053c0.077-0.337,0.158-0.667,0.313-0.97c0.158-0.292,0.325-0.596,0.583-0.821
	c0.149-0.179,0.354-0.311,0.548-0.45c0.629,0.712,1.313,1.344,2.077,1.882c0.488,0.261,0.95,0.552,1.479,0.704
	c0.493,0.235,1.059,0.237,1.579,0.303c-0.507-0.192-1.014-0.292-1.452-0.586C206.661,59.916,206.271,59.565,205.869,59.258z"/>
</svg>
