<?xml version="1.0" encoding="utf-8"?>
<!-- Generator: Adobe Illustrator 16.0.0, SVG Export Plug-In . SVG Version: 6.00 Build 0)  -->
<!DOCTYPE svg PUBLIC "-//W3C//DTD SVG 1.1//EN" "http://www.w3.org/Graphics/SVG/1.1/DTD/svg11.dtd">
<svg version="1.1" id="Layer_1" xmlns="http://www.w3.org/2000/svg" xmlns:xlink="http://www.w3.org/1999/xlink" x="0px" y="0px"
	 width="50px" height="50px" viewBox="244.5 34.5 50 50" enable-background="new 244.5 34.5 50 50" xml:space="preserve">
<path d="M277.367,60.115c0.424,0.283,0.914,0.378,1.401,0.565c-0.5-0.063-1.046-0.065-1.523-0.293
	c-0.511-0.146-0.955-0.428-1.425-0.679c-0.741-0.521-1.4-1.13-2.005-1.819c-0.188,0.136-0.386,0.265-0.53,0.437
	c-0.246,0.221-0.405,0.511-0.559,0.794c-0.148,0.29-0.229,0.611-0.303,0.934c-0.046,0.334-0.092,0.668-0.072,1.018
	c0.039,1.383,0.497,2.797,1.135,4.086c0.163,0.325,0.336,0.638,0.515,0.928c0.216,0.305,0.419,0.606,0.615,0.992
	c0.201,0.364,0.408,0.723,0.478,1.126c0.09,0.395,0.236,0.776,0.233,1.176c0.016,0.397,0.092,0.79,0.044,1.179
	c-0.03,0.388-0.044,0.778-0.133,1.156c-0.136,0.759-0.339,1.503-0.642,2.201c0.124-0.751,0.221-1.497,0.225-2.243
	c0.035-0.371-0.041-0.739-0.039-1.105c0.013-0.369-0.101-0.721-0.146-1.078c-0.032-0.364-0.203-0.683-0.312-1.017
	c-0.09-0.347-0.306-0.622-0.498-0.905c-0.166-0.279-0.393-0.599-0.63-0.899c-0.238-0.338-0.447-0.679-0.642-1.019
	c-0.731-1.393-1.29-2.915-1.296-4.566c-0.007-0.814,0.124-1.681,0.563-2.436c0.216-0.364,0.463-0.734,0.792-1.008
	c0.295-0.318,0.683-0.497,1.036-0.713l0.339-0.205l0.225,0.342c0.519,0.799,1.195,1.561,1.938,2.206
	C276.541,59.563,276.916,59.903,277.367,60.115z M266.081,71.354c-0.785-0.491-1.597-1.087-2.371-1.802
	c-0.721-0.709-1.571-1.561-2.199-2.473c-0.652-0.932-1.207-1.98-1.502-3.126c-0.313-1.144-0.368-2.354-0.235-3.555
	c0.308-2.391,1.259-4.771,2.603-6.595c1.416-1.789,3.051-3.304,4.689-4.124c1.651-0.838,3.172-1.266,4.241-1.501
	c1.073-0.231,1.701-0.283,1.701-0.283s-0.63-0.003-1.728,0.133c-1.087,0.161-2.682,0.389-4.438,1.193
	c-0.873,0.393-1.791,0.949-2.629,1.662c-0.829,0.689-1.722,1.481-2.453,2.453c-1.468,1.95-2.486,4.374-2.862,6.959
	c-0.373,2.614,0.5,5.317,1.966,7.248c0.744,1.013,1.508,1.789,2.378,2.538c0.854,0.704,1.729,1.276,2.57,1.74
	c1.693,0.917,3.265,1.301,4.351,1.481c1.096,0.186,1.729,0.162,1.729,0.162s-0.633-0.037-1.691-0.325
	C269.14,72.868,267.674,72.296,266.081,71.354z M283.565,59.472c-0.244-0.951-0.934-1.577-1.372-2.286
	c-0.453-1.318-0.737-2.704-1.263-4.015c-0.247-0.666-0.555-1.31-0.877-1.955c-0.297-0.583-0.648-1.147-1.137-1.68
	c-0.136-0.627-0.258-1.281-0.343-1.923c-0.074-0.681-0.12-1.381,0.015-1.991l0.118-0.537l-0.458,0.113
	c-0.803,0.196-1.552,0.491-2.228,0.951c-0.668,0.441-1.259,1.11-1.388,1.916l0.109,0.026c0.239-0.733,0.822-1.262,1.485-1.602
	c0.506-0.262,1.063-0.433,1.619-0.561c-0.177,0.58-0.253,1.167-0.26,1.736c-0.013,0.759,0.057,1.488,0.189,2.24l0.026,0.148
	l0.14,0.155c0.803,0.879,1.483,2.151,2.112,3.355c0.61,1.23,1.344,2.443,1.8,3.755l0.011,0.028l0.013,0.02
	c0.521,0.703,1.085,1.401,1.078,2.213c0.024,0.396-0.015,0.796-0.135,1.154c-0.063,0.176-0.116,0.353-0.203,0.499
	c-0.076,0.133-0.192,0.31-0.244,0.343c-0.118,0.111-0.262,0.168-0.456,0.274c-0.177,0.105-0.355,0.168-0.535,0.233
	c-0.355,0.143-0.718,0.212-1.047,0.166c-0.674-0.05-1.222-0.774-1.515-1.577l-0.054,0.007l-0.055,0.006
	c-0.028,0.456,0.071,0.912,0.279,1.355c0.227,0.425,0.642,0.815,1.158,0.978c0.52,0.174,1.052,0.096,1.515-0.026
	c0.233-0.072,0.467-0.146,0.672-0.253c0.189-0.09,0.462-0.19,0.661-0.38c0.279-0.255,0.388-0.46,0.499-0.716
	c0.101-0.244,0.166-0.491,0.19-0.737C283.742,60.414,283.692,59.93,283.565,59.472z M261.414,50.83
	c0.635-0.694,1.438-1.181,2.193-1.707c0.796-0.451,1.601-0.886,2.421-1.19c0.82-0.314,1.624-0.59,2.413-0.76
	c0.775-0.227,1.536-0.303,2.228-0.437c2.798-0.364,4.681-0.174,4.681-0.172l0.009-0.113c0,0.002-1.091-0.293-2.894-0.371
	l-7.75-0.615l1.886,0.978l-4.119,0.349l1.809,0.818c-0.02,0.011-0.039,0.02-0.057,0.03l-3.917,0.408l1.571,0.907l-3.212,0.419
	l1.746,0.804l-3.177,0.872l1.955,0.559l-2.828,0.908l1.641,0.488l-2.164,1.187l1.536,0.489l-2.095,1.605l1.466,0.21l-1.396,1.71
	l1.364,0.03c-0.051,0.583-0.057,1.152-0.099,1.672c-0.055,0.727-0.05,1.388,0.074,1.97c0.083,0.581,0.157,1.085,0.219,1.499
	c0.128,0.827,0.227,1.287,0.227,1.287l0.113-0.009c0,0-0.015-0.471-0.039-1.291c-0.013-0.41-0.026-0.91-0.044-1.481
	c-0.052-0.574,0.018-1.213,0.109-1.911c0.109-0.694,0.104-1.469,0.32-2.243c0.238-0.769,0.415-1.605,0.731-2.42
	c0.426-0.764,0.704-1.647,1.274-2.374C260.155,52.195,260.686,51.423,261.414,50.83z"/>
</svg>
