<?xml version="1.0" encoding="utf-8"?>
<!-- Generator: Adobe Illustrator 16.0.0, SVG Export Plug-In . SVG Version: 6.00 Build 0)  -->
<!DOCTYPE svg PUBLIC "-//W3C//DTD SVG 1.1//EN" "http://www.w3.org/Graphics/SVG/1.1/DTD/svg11.dtd">
<svg version="1.1" id="Layer_1" xmlns="http://www.w3.org/2000/svg" xmlns:xlink="http://www.w3.org/1999/xlink" x="0px" y="0px"
	 width="50px" height="50px" viewBox="314.5 34.5 50 50" enable-background="new 314.5 34.5 50 50" xml:space="preserve">
<path d="M352.788,62.644c-3.597,1.94-3.941-1.592-3.941-1.592c-2.976-0.344-5.188-3.667-5.188-3.667
	c-4.017,2.075-1.778,7.93-0.047,10.178c2.225,2.881,0.596,7.543,0.596,7.543s-9.07-0.734-13.7-6.552
	c-3.477-4.367-2.578-8.495-1.589-11.22c1.191-3.276,2.801-5.072,5.148-6.985c3.49-2.844,9.936-3.201,9.936-3.201
	c0.042-0.242,0.24-0.524,0.493-0.814c-0.776,0.022-1.724,0.086-2.804,0.226c-0.737,0.142-1.55,0.223-2.375,0.465
	c-0.843,0.182-1.699,0.475-2.574,0.81c-0.874,0.326-1.733,0.789-2.582,1.271c-0.806,0.562-1.662,1.08-2.339,1.82
	c-0.777,0.633-1.343,1.456-1.924,2.245c-0.607,0.774-0.905,1.717-1.359,2.531c-0.337,0.868-0.525,1.762-0.779,2.58
	c-0.23,0.826-0.226,1.652-0.342,2.393c-0.098,0.744-0.173,1.426-0.116,2.038c0.019,0.609,0.032,1.143,0.046,1.58
	c0.026,0.875,0.042,1.377,0.042,1.377l-0.121,0.01c0,0-0.104-0.491-0.241-1.373c-0.065-0.442-0.145-0.979-0.233-1.599
	c-0.133-0.618-0.137-1.326-0.079-2.101c0.044-0.557,0.052-1.164,0.104-1.785l-1.454-0.032l1.489-1.824l-1.563-0.224l2.233-1.712
	l-1.638-0.521l2.309-1.266l-1.75-0.521l3.016-0.968l-2.085-0.596l3.388-0.931l-1.861-0.856l3.425-0.447l-1.675-0.968l4.181-0.438
	c0.019-0.009,0.04-0.019,0.059-0.027l-1.932-0.875l4.394-0.372l-2.011-1.043l8.312,0.661c0.449,0.019,0.842,0.054,1.2,0.093
	c1.068-1.023,2.746-2.059,2.746-2.059c-0.345,0.344-0.484,2.215-0.484,2.215c0.345-0.624,1.452-1.247,1.452-1.247
	c-0.621,1.452,0,4.565,0,4.565c1.801,1.801,3.807,8.027,3.807,8.027l0.764,1.107C354.105,59.949,353.749,62.127,352.788,62.644z"/>
</svg>
