<?xml version="1.0" encoding="utf-8"?>
<!-- Generator: Adobe Illustrator 16.0.0, SVG Export Plug-In . SVG Version: 6.00 Build 0)  -->
<!DOCTYPE svg PUBLIC "-//W3C//DTD SVG 1.1//EN" "http://www.w3.org/Graphics/SVG/1.1/DTD/svg11.dtd">
<svg version="1.1" id="Layer_1" xmlns="http://www.w3.org/2000/svg" xmlns:xlink="http://www.w3.org/1999/xlink" x="0px" y="0px"
	 width="50px" height="50px" viewBox="-315.5 104.5 50 50" enable-background="new -315.5 104.5 50 50" xml:space="preserve">
<path d="M-277.426,126.84c0.058,0.646,0.004,1.258-0.13,1.898c-0.055,0.32-0.169,0.637-0.311,0.967
	c-0.157,0.322-0.341,0.668-0.75,0.98l-0.459,0.35l-0.45-0.398c-0.361-0.32-0.615-0.967-1.028-1.164
	c-0.088-0.072-0.198,0.006-0.085,0.055c0.094,0.012,0.122,0.031,0.178,0.121c0.115,0.16,0.311,0.371,0.354,0.607l0.104,0.58
	l-0.397,0.287c-0.23,0.168-0.39,0.248-0.611,0.342c-0.207,0.088-0.441,0.15-0.695,0.18c-0.511,0.074-1.154-0.133-1.517-0.51
	c-0.384-0.365-0.546-0.766-0.665-1.141c-0.11-0.375-0.157-0.734-0.199-1.088l-0.016-0.131l0.011-0.029
	c0.019-0.057,0.013-0.219-0.007-0.287c-0.021-0.082-0.036-0.111-0.089-0.154c-0.054-0.041-0.167-0.082-0.318-0.08
	c-0.17,0-0.453-0.002-0.647-0.023c-0.858-0.092-1.702-0.281-2.471-0.67c-0.388-0.189-0.725-0.455-1.092-0.684
	c-0.359-0.24-0.741-0.49-1.055-0.824c-0.307-0.332-0.563-0.719-0.757-1.125c-0.027-0.047-0.04-0.096-0.063-0.143
	c-0.069,0.049-0.139,0.096-0.206,0.143c-0.338,0.215-0.66,0.453-0.991,0.684c-0.651,0.475-1.25,1.021-1.772,1.635
	c-0.258,0.311-0.503,0.631-0.718,0.977c-0.212,0.344-0.412,0.703-0.562,1.082c-0.157,0.381-0.295,0.77-0.383,1.182
	c-0.13,0.404-0.123,0.83-0.192,1.258l-0.182,0.01c-0.106-0.859-0.188-1.779,0.028-2.668c0.084-0.447,0.225-0.887,0.388-1.314
	c0.166-0.43,0.365-0.846,0.606-1.24c0.478-0.789,1.057-1.514,1.708-2.17c0.322-0.33,0.677-0.627,1.049-0.902
	c0.384-0.27,0.76-0.494,1.244-0.678l1.095-0.416l0.081,1.004v0.002c0.065,0.342,0.067,0.717,0.175,1.049
	c0.064,0.355,0.225,0.664,0.351,1.004c0.153,0.324,0.319,0.664,0.574,0.945c0.268,0.264,0.609,0.438,0.956,0.576
	c0.699,0.264,1.46,0.414,2.208,0.348c0.206-0.014,0.326-0.031,0.556-0.068c0.247-0.039,0.548-0.035,0.861,0.088
	c0.313,0.119,0.598,0.398,0.731,0.688c0.138,0.303,0.195,0.545,0.193,0.893l-0.005-0.16c0.133,0.555,0.39,1.135,0.614,1.285
	c0.108,0.074,0.14,0.07,0.271,0.051c0.054-0.016,0.123-0.041,0.193-0.076c0.029-0.127,0.053-0.254,0.104-0.395
	c0.072-0.189,0.165-0.482,0.485-0.656c0.34-0.148,0.559-0.029,0.739-0.033c0.406,0.098,0.792,0.189,1.148,0.33
	c0.114-0.232,0.23-0.533,0.322-0.826c0.146-0.473,0.266-0.99,0.405-1.486c-0.964-1.752-2.314-3.336-3.68-4.867
	c-0.714-0.789-1.521-1.49-2.303-2.211c-0.788-0.713-1.594-1.422-2.407-2.092l-0.151-0.104l-0.039-0.324
	c-0.095-0.822-0.411-1.527-0.919-2.125c-0.255-0.297-0.556-0.561-0.889-0.789c-0.02-0.012-0.041-0.025-0.06-0.037
	c-0.034,0.338-0.061,0.684-0.084,1.023c-0.059,0.748-0.089,1.52-0.104,2.271l-0.01,0.523l-0.458,0.186
	c-0.716,0.291-1.438,0.607-2.079,1.072c-0.643,0.451-1.284,0.938-1.842,1.521c-1.127,1.154-2.095,2.521-2.829,4.02l-0.173-0.057
	c0.397-1.664,1.164-3.244,2.23-4.631c0.935-1.275,2.211-2.313,3.654-3.063c-0.02-0.641-0.037-1.273-0.025-1.918
	c0.037-0.805,0.056-1.582,0.254-2.467l0.218-0.975l0.903,0.391c0.296,0.129,0.503,0.242,0.737,0.385
	c0.226,0.137,0.447,0.281,0.651,0.451c0.411,0.336,0.786,0.725,1.104,1.164c0.612,0.803,0.885,1.861,0.824,2.844
	c1.517,1.42,2.929,2.916,4.34,4.426c1.511,1.539,2.95,3.15,4.162,5.025l0.076,0.117l-0.008,0.18V126.84z M-287.578,136.348
	c-0.152-0.408-0.364-0.787-0.546-1.176c-0.397-0.992-0.711-2.055-0.946-3.109c-0.113-0.533-0.197-1.074-0.202-1.613
	c0.002-0.531,0.051-1.086,0.351-1.529l-0.139-0.117c-0.43,0.43-0.604,1.041-0.683,1.615c-0.083,0.58-0.08,1.164-0.046,1.742
	c0.072,1.16,0.308,2.271,0.611,3.402l0.024,0.059c0.125,0.381,0.285,0.75,0.381,1.135c0.097,0.385,0.196,0.768,0.25,1.156
	c0.148,0.771,0.171,1.561,0.115,2.336c-0.053,0.777-0.206,1.549-0.446,2.287c-0.024,0.074-0.058,0.143-0.083,0.215l-0.154-0.379
	c-0.384-0.775-0.779-1.547-1.207-2.301c-0.489-0.723-0.879-1.506-1.459-2.17l-0.814-1.029l-0.908-0.957
	c-0.615-0.625-1.278-1.215-1.99-1.734c-0.364-0.252-0.7-0.539-1.092-0.75c-0.388-0.217-0.746-0.479-1.159-0.65
	c-0.799-0.383-1.623-0.723-2.489-0.938c-0.427-0.121-0.867-0.205-1.31-0.271c-0.254-0.035-0.504-0.057-0.761-0.068
	c-0.08-1.158-0.042-2.334,0.228-3.482c0.281-1.35,0.887-2.623,1.598-3.814c0.737-1.18,1.665-2.242,2.713-3.158
	c1.046-0.902,2.206-1.734,3.369-2.363l1.97-1.066l-2.324-0.166c-0.919-0.064-1.859-0.037-2.777,0.174
	c-0.915,0.209-1.813,0.541-2.64,1.004c-0.401,0.256-0.816,0.488-1.166,0.814c-0.363,0.301-0.7,0.635-1.001,0.994
	c-0.618,0.701-1.075,1.547-1.287,2.441l0.168,0.072c0.52-0.707,1.172-1.268,1.819-1.785c0.659-0.508,1.397-0.877,2.131-1.219
	c0.386-0.133,0.752-0.303,1.147-0.412c0.382-0.141,0.79-0.201,1.185-0.307c0.038-0.01,0.079-0.014,0.117-0.021
	c-0.434,0.412-0.858,0.834-1.262,1.281c-0.964,1.072-1.861,2.203-2.632,3.418c-1.569,2.404-2.579,5.262-2.583,8.25l-0.001,0.543
	l0.647,0.047c0.325,0.023,0.738,0.092,1.108,0.178c0.38,0.084,0.761,0.18,1.131,0.314c0.749,0.238,1.46,0.592,2.146,0.975
	c0.352,0.178,0.668,0.422,1.004,0.627c0.341,0.197,0.632,0.473,0.95,0.707c0.619,0.49,1.197,1.041,1.73,1.629l0.79,0.895
	l0.708,0.969c0.495,0.627,0.869,1.35,1.314,2.016c0.401,0.699,0.74,1.436,1.135,2.141l0.985,2.232l0.757,1.717l0.898-1.545
	c0.27-0.465,0.445-0.85,0.614-1.289c0.161-0.428,0.294-0.863,0.405-1.305c0.222-0.881,0.338-1.789,0.339-2.695
	c0.004-0.904-0.086-1.814-0.314-2.686C-287.25,137.184-287.425,136.766-287.578,136.348z M-284.27,122.355
	c0.25-0.268-0.142-0.766-0.7-1.305c-0.557-0.537-1.208-0.916-1.208-0.916s0.186,1.48,0.744,2.016
	C-284.876,122.688-284.519,122.623-284.27,122.355z"/>
</svg>
