<?xml version="1.0" encoding="utf-8"?>
<!-- Generator: Adobe Illustrator 16.0.0, SVG Export Plug-In . SVG Version: 6.00 Build 0)  -->
<!DOCTYPE svg PUBLIC "-//W3C//DTD SVG 1.1//EN" "http://www.w3.org/Graphics/SVG/1.1/DTD/svg11.dtd">
<svg version="1.1" id="Layer_1" xmlns="http://www.w3.org/2000/svg" xmlns:xlink="http://www.w3.org/1999/xlink" x="0px" y="0px"
	 width="50px" height="50px" viewBox="-245.5 104.5 50 50" enable-background="new -245.5 104.5 50 50" xml:space="preserve">
<path d="M-207.973,127.668v0.002c0.059,0.648,0.004,1.266-0.131,1.908c-0.056,0.32-0.171,0.641-0.313,0.971
	c-0.158,0.326-0.344,0.672-0.754,0.986l-0.462,0.352l-0.452-0.4c-0.362-0.322-0.618-0.971-1.033-1.17
	c-0.089-0.072-0.198,0.008-0.085,0.055c0.095,0.012,0.122,0.031,0.179,0.123c0.115,0.16,0.313,0.371,0.355,0.609l0.104,0.582
	l-0.398,0.289c-0.231,0.17-0.392,0.25-0.613,0.344c-0.209,0.088-0.443,0.152-0.699,0.182c-0.513,0.074-1.159-0.135-1.523-0.512
	c-0.387-0.369-0.55-0.77-0.669-1.148c-0.11-0.377-0.158-0.738-0.199-1.094l-0.017-0.131l0.011-0.029
	c0.019-0.057,0.013-0.221-0.008-0.287c-0.021-0.084-0.035-0.111-0.089-0.156c-0.055-0.041-0.167-0.084-0.319-0.08
	c-0.171,0-0.455-0.004-0.65-0.025c-0.863-0.092-1.71-0.281-2.483-0.672c-0.39-0.191-0.729-0.457-1.097-0.688
	c-0.361-0.242-0.745-0.492-1.062-0.826c-0.309-0.334-0.564-0.725-0.761-1.133c-0.027-0.047-0.04-0.096-0.063-0.143
	c-0.069,0.049-0.14,0.096-0.207,0.143c-0.34,0.215-0.664,0.457-0.996,0.689c-0.654,0.475-1.256,1.023-1.781,1.643
	c-0.259,0.309-0.505,0.633-0.722,0.98c-0.214,0.344-0.414,0.707-0.564,1.088c-0.158,0.381-0.298,0.773-0.386,1.188
	c-0.13,0.406-0.123,0.834-0.192,1.262l-0.184,0.012c-0.106-0.863-0.188-1.789,0.027-2.684c0.085-0.447,0.227-0.889,0.391-1.318
	c0.167-0.434,0.366-0.852,0.609-1.248c0.48-0.793,1.062-1.521,1.717-2.18c0.323-0.332,0.68-0.629,1.054-0.906
	c0.386-0.271,0.764-0.498,1.25-0.682l1.102-0.42l0.08,1.012v0.002c0.066,0.342,0.067,0.719,0.177,1.055
	c0.064,0.355,0.226,0.666,0.352,1.008c0.154,0.324,0.321,0.666,0.577,0.949c0.27,0.264,0.612,0.438,0.961,0.578
	c0.702,0.266,1.467,0.416,2.218,0.352c0.208-0.016,0.328-0.033,0.559-0.07c0.249-0.039,0.551-0.035,0.865,0.09
	c0.315,0.117,0.601,0.4,0.735,0.689c0.139,0.305,0.196,0.549,0.193,0.898l-0.006-0.164c0.134,0.561,0.392,1.143,0.617,1.293
	c0.108,0.074,0.141,0.07,0.273,0.051c0.055-0.014,0.123-0.041,0.193-0.076c0.028-0.127,0.053-0.254,0.104-0.396
	c0.072-0.189,0.165-0.484,0.487-0.66c0.342-0.148,0.562-0.029,0.743-0.031c0.407,0.098,0.797,0.189,1.154,0.332
	c0.114-0.234,0.23-0.537,0.322-0.832c0.147-0.475,0.268-0.996,0.407-1.494c-0.969-1.76-2.326-3.352-3.698-4.891
	c-0.717-0.795-1.529-1.498-2.314-2.223c-0.792-0.717-1.602-1.428-2.419-2.102l-0.151-0.104l-0.038-0.328
	c-0.097-0.826-0.414-1.533-0.925-2.135c-0.256-0.297-0.558-0.563-0.893-0.793c-0.021-0.012-0.04-0.023-0.061-0.037
	c-0.034,0.34-0.061,0.688-0.084,1.029c-0.06,0.752-0.09,1.527-0.105,2.283l-0.01,0.523l-0.459,0.188
	c-0.721,0.293-1.446,0.611-2.09,1.078c-0.646,0.453-1.29,0.941-1.852,1.529c-1.133,1.16-2.104,2.533-2.843,4.039l-0.174-0.057
	c0.399-1.672,1.169-3.26,2.241-4.654c0.939-1.283,2.222-2.322,3.673-3.076c-0.02-0.645-0.037-1.281-0.025-1.93
	c0.037-0.809,0.057-1.59,0.255-2.479l0.22-0.98l0.907,0.395c0.299,0.129,0.506,0.244,0.741,0.385
	c0.227,0.139,0.449,0.283,0.654,0.455c0.413,0.338,0.79,0.727,1.109,1.168c0.615,0.809,0.89,1.871,0.828,2.859
	c0.116,0.107,0.223,0.221,0.337,0.33l9.524-7.279l-7.8,8.973c0.776,0.799,1.538,1.609,2.301,2.424
	c1.518,1.547,2.964,3.168,4.183,5.051l0.076,0.119L-207.973,127.668z M-218.177,137.227c-0.151-0.41-0.365-0.791-0.548-1.182
	c-0.399-0.998-0.715-2.066-0.951-3.125c-0.112-0.537-0.197-1.082-0.202-1.621c0.001-0.535,0.051-1.092,0.353-1.537l-0.14-0.119
	c-0.433,0.434-0.607,1.047-0.687,1.623c-0.083,0.584-0.08,1.172-0.046,1.752c0.072,1.166,0.31,2.283,0.613,3.42l0.024,0.059
	c0.126,0.383,0.286,0.752,0.384,1.141c0.098,0.385,0.197,0.77,0.251,1.162c0.149,0.775,0.172,1.566,0.115,2.348
	c-0.052,0.781-0.206,1.555-0.447,2.299c-0.024,0.074-0.059,0.143-0.084,0.215l-0.154-0.381c-0.386-0.779-0.782-1.555-1.213-2.313
	c-0.491-0.725-0.884-1.512-1.466-2.182l-0.818-1.033l-0.913-0.961c-0.617-0.629-1.284-1.221-2-1.744
	c-0.366-0.252-0.704-0.541-1.098-0.754c-0.39-0.217-0.75-0.48-1.164-0.654c-0.804-0.383-1.632-0.725-2.501-0.941
	c-0.43-0.123-0.871-0.205-1.316-0.273c-0.257-0.033-0.507-0.055-0.765-0.068c-0.082-1.164-0.043-2.346,0.229-3.498
	c0.283-1.359,0.891-2.637,1.606-3.834c0.74-1.188,1.673-2.254,2.727-3.176c1.051-0.906,2.216-1.742,3.385-2.375l1.98-1.072
	l-2.336-0.166c-0.924-0.064-1.868-0.037-2.791,0.176c-0.919,0.209-1.822,0.541-2.654,1.008c-0.402,0.258-0.819,0.49-1.171,0.818
	c-0.364,0.303-0.704,0.639-1.007,1c-0.621,0.703-1.081,1.555-1.294,2.453l0.169,0.072c0.523-0.711,1.178-1.275,1.828-1.793
	c0.662-0.51,1.404-0.881,2.143-1.225c0.388-0.135,0.755-0.305,1.152-0.414c0.384-0.143,0.794-0.203,1.19-0.311
	c0.038-0.008,0.079-0.012,0.117-0.021c-0.437,0.416-0.862,0.84-1.269,1.289c-0.969,1.078-1.871,2.213-2.646,3.436
	c-1.576,2.416-2.592,5.287-2.596,8.289l-0.002,0.547l0.65,0.047c0.327,0.025,0.742,0.094,1.114,0.18
	c0.382,0.084,0.765,0.182,1.137,0.316c0.752,0.238,1.468,0.594,2.156,0.98c0.354,0.178,0.672,0.424,1.009,0.627
	c0.344,0.201,0.636,0.477,0.955,0.711c0.622,0.492,1.202,1.047,1.739,1.639l0.793,0.898l0.712,0.975
	c0.497,0.629,0.873,1.355,1.321,2.025c0.402,0.701,0.742,1.443,1.14,2.15l0.99,2.244l0.761,1.727l0.902-1.553
	c0.271-0.467,0.447-0.855,0.618-1.295c0.162-0.432,0.295-0.869,0.406-1.313c0.224-0.887,0.341-1.799,0.342-2.711
	c0.004-0.908-0.087-1.822-0.316-2.697C-217.847,138.066-218.022,137.646-218.177,137.227z M-214.851,123.162
	c0.251-0.266-0.143-0.768-0.704-1.311c-0.559-0.539-1.214-0.92-1.214-0.92s0.188,1.488,0.748,2.027
	C-215.46,123.496-215.102,123.432-214.851,123.162z"/>
</svg>
