<?xml version="1.0" encoding="utf-8"?>
<!-- Generator: Adobe Illustrator 16.0.0, SVG Export Plug-In . SVG Version: 6.00 Build 0)  -->
<!DOCTYPE svg PUBLIC "-//W3C//DTD SVG 1.1//EN" "http://www.w3.org/Graphics/SVG/1.1/DTD/svg11.dtd">
<svg version="1.1" id="Layer_1" xmlns="http://www.w3.org/2000/svg" xmlns:xlink="http://www.w3.org/1999/xlink" x="0px" y="0px"
	 width="50px" height="50px" viewBox="-175.5 104.5 50 50" enable-background="new -175.5 104.5 50 50" xml:space="preserve">
<path d="M-132.025,126.854L-132.025,126.854c0.052,0.576,0.005,1.12-0.115,1.689c-0.05,0.283-0.15,0.566-0.277,0.857
	c-0.139,0.288-0.303,0.595-0.667,0.874l-0.407,0.311l-0.4-0.354c-0.32-0.287-0.545-0.861-0.913-1.037
	c-0.079-0.062-0.176,0.013-0.073,0.054c0.087,0.009,0.104,0.021,0.143,0.103c0.072,0.144,0.196,0.353,0.327,0.54v0.002l0.053,0.563
	l-0.313,0.208c-0.211,0.138-0.356,0.202-0.555,0.275c-0.187,0.066-0.392,0.118-0.613,0.136c-0.444,0.049-0.983-0.143-1.28-0.468
	c-0.314-0.319-0.438-0.666-0.549-0.985c-0.099-0.324-0.144-0.637-0.185-0.946l-0.011-0.084l0.007-0.034
	c0.016-0.07,0.007-0.222-0.021-0.3c-0.027-0.087-0.061-0.132-0.126-0.176c-0.067-0.042-0.183-0.075-0.321-0.064
	c-0.155,0.01-0.396,0.013-0.571,0.003c-0.759-0.039-1.509-0.225-2.194-0.557c-0.346-0.165-0.647-0.396-0.973-0.603
	c-0.319-0.213-0.657-0.435-0.938-0.731c-0.272-0.294-0.5-0.641-0.674-1.001c-0.011-0.021-0.017-0.043-0.027-0.063
	c-0.142,0.116-0.285,0.233-0.418,0.354c-0.379,0.311-0.726,0.655-1.08,0.997c-0.339,0.354-0.661,0.728-0.952,1.126
	c-0.277,0.402-0.559,0.814-0.767,1.262c-0.243,0.435-0.4,0.906-0.581,1.373c-0.124,0.482-0.28,0.967-0.323,1.473
	c-0.095,0.501-0.094,1.011-0.109,1.526c-0.012,0.517,0.078,1.029,0.114,1.554l-0.16,0.038c-0.123-0.512-0.301-1.021-0.381-1.552
	l-0.111-0.802c-0.055-0.27-0.018-0.539-0.029-0.811c-0.026-0.549,0.063-1.09,0.128-1.639c0.121-0.535,0.223-1.088,0.438-1.599
	c0.178-0.529,0.436-1.024,0.698-1.518c0.275-0.486,0.589-0.948,0.927-1.394c0.344-0.443,0.725-0.853,1.139-1.231
	c0.426-0.377,0.856-0.699,1.408-0.98l0.964-0.494l0.126,0.994v0.001c0.059,0.304,0.06,0.637,0.155,0.932
	c0.058,0.317,0.201,0.59,0.313,0.894c0.136,0.287,0.284,0.59,0.51,0.839c0.239,0.233,0.54,0.39,0.847,0.517
	c0.62,0.248,1.296,0.365,1.965,0.35c0.183-0.005,0.298-0.013,0.5-0.037c0.214-0.024,0.468-0.02,0.726,0.083
	c0.261,0.103,0.492,0.332,0.602,0.574c0.114,0.252,0.161,0.463,0.157,0.748l-0.004-0.118c0.117,0.497,0.313,1.05,0.581,1.196
	c0.121,0.07,0.183,0.061,0.309,0.026c0.059-0.021,0.129-0.051,0.199-0.099c0.018-0.119,0.032-0.236,0.07-0.369
	c0.052-0.169,0.127-0.432,0.417-0.59c0.305-0.13,0.499-0.019,0.66-0.021c0.358,0.088,0.703,0.167,1.019,0.292
	c0.103-0.208,0.205-0.475,0.286-0.735c0.13-0.42,0.236-0.88,0.359-1.322c-0.856-1.556-2.058-2.964-3.271-4.326
	c-0.635-0.701-1.353-1.324-2.047-1.965c-0.701-0.634-1.416-1.264-2.14-1.859l-0.137-0.112l-0.032-0.268
	c-0.084-0.731-0.364-1.358-0.816-1.889c-0.227-0.264-0.493-0.499-0.79-0.703c-0.018-0.01-0.035-0.021-0.054-0.032
	c-0.029,0.3-0.054,0.608-0.074,0.91c-0.052,0.665-0.079,1.352-0.093,2.02l-0.009,0.464l-0.406,0.164
	c-0.637,0.26-1.278,0.541-1.849,0.953c-0.571,0.402-1.141,0.834-1.637,1.354c-1.003,1.025-1.862,2.24-2.515,3.572l-0.154-0.051
	c0.354-1.478,1.034-2.882,1.982-4.116c0.831-1.135,1.966-2.055,3.249-2.721c-0.018-0.57-0.033-1.134-0.022-1.707
	c0.032-0.715,0.051-1.405,0.226-2.191l0.194-0.867l0.803,0.348c0.264,0.115,0.446,0.217,0.655,0.342
	c0.2,0.122,0.396,0.251,0.578,0.401c0.365,0.3,0.699,0.644,0.981,1.034c0.544,0.714,0.787,1.655,0.732,2.528
	c0.101,0.095,0.197,0.196,0.297,0.292l8.425-6.438l-6.898,7.937c0.687,0.707,1.36,1.423,2.034,2.144
	c1.344,1.369,2.623,2.802,3.7,4.467l0.067,0.106L-132.025,126.854z M-141.694,133.785c-0.349-0.899-0.64-1.851-0.823-2.811
	c-0.09-0.481-0.146-0.971-0.148-1.46c0.003-0.482,0.064-0.995,0.36-1.403c-0.351,0.366-0.49,0.892-0.558,1.39
	c-0.073,0.506-0.05,1.017-0.011,1.522c0.092,1.014,0.289,1.999,0.563,2.987l0.015,0.035c0.712,1.78,0.609,3.783,0.136,5.656
	c-0.232,0.943-0.562,1.867-0.941,2.767c-0.196,0.455-0.408,0.912-0.633,1.357l-0.257-0.579l-0.947-1.855
	c-0.685-1.209-1.428-2.392-2.281-3.504c-1.667-2.248-3.76-4.218-6.194-5.677c-2.429-1.466-5.213-2.316-8.015-2.555
	c-1.404-0.1-2.813-0.061-4.197,0.129c-1.39,0.194-2.735,0.492-4.077,1.005l-0.375,0.143l0.107,0.356
	c0.096,0.311,0.209,0.527,0.353,0.763c0.149,0.223,0.31,0.436,0.497,0.622c0.366,0.378,0.799,0.672,1.256,0.894
	c0.462,0.216,0.947,0.348,1.433,0.429c0.489,0.073,0.979,0.067,1.46,0.042c-0.957-0.121-1.887-0.401-2.656-0.894
	c-0.376-0.255-0.708-0.564-0.963-0.92c-0.134-0.174-0.236-0.367-0.329-0.56c-0.022-0.051-0.045-0.105-0.066-0.162
	c1.117-0.314,2.305-0.52,3.479-0.607c1.317-0.104,2.644-0.057,3.942,0.115c1.302,0.159,2.584,0.448,3.813,0.881
	c1.227,0.438,2.41,0.991,3.523,1.669c1.106,0.688,2.141,1.489,3.105,2.374c0.452,0.474,0.952,0.9,1.374,1.406
	c0.448,0.481,0.871,0.984,1.267,1.514c0.82,1.033,1.52,2.161,2.21,3.296l0.963,1.748l0.866,1.806l0.604,1.255l0.651-1.178
	c0.521-0.939,0.911-1.876,1.264-2.854c0.345-0.976,0.634-1.972,0.821-2.996c0.19-1.021,0.286-2.07,0.22-3.123
	C-140.939,135.766-141.2,134.718-141.694,133.785z M-153.894,130.075c0,0,0.053-0.248,0.144-0.685
	c0.04-0.215,0.088-0.475,0.143-0.774c0.037-0.301,0.176-0.623,0.252-0.983c0.099-0.357,0.17-0.751,0.342-1.14
	c0.166-0.387,0.285-0.815,0.489-1.223c0.21-0.403,0.375-0.844,0.632-1.246c0.245-0.408,0.473-0.835,0.777-1.214
	c0.525-0.813,1.211-1.505,1.842-2.165c0.67-0.616,1.303-1.207,1.919-1.62c1.193-0.887,2.101-1.352,2.101-1.352
	s-0.254,0.039-0.678,0.175c-0.418,0.145-1.035,0.341-1.709,0.712c-1.37,0.688-3.076,1.959-4.271,3.687
	c-0.319,0.413-0.556,0.881-0.81,1.328c-0.275,0.435-0.403,0.933-0.602,1.377c-0.197,0.445-0.26,0.922-0.376,1.347
	c-0.124,0.428-0.146,0.851-0.197,1.232c-0.04,0.382-0.105,0.729-0.073,1.044c0.012,0.31,0.021,0.581,0.029,0.806
	C-153.91,129.821-153.894,130.075-153.894,130.075z M-138.108,122.868c0.223-0.237-0.127-0.68-0.622-1.159
	c-0.495-0.477-1.074-0.813-1.074-0.813s0.165,1.314,0.662,1.791C-138.648,123.163-138.33,123.106-138.108,122.868z
	 M-165.967,138.012c-0.323-0.261-0.623-0.549-0.845-0.863c-0.102-0.162-0.199-0.326-0.235-0.494c-0.021-0.08-0.032-0.164-0.03-0.24
	c0-0.015,0.004-0.033,0.005-0.049c1.594-0.404,3.242-0.519,4.878-0.374c1.686,0.165,3.351,0.571,4.979,1.096
	c0.813,0.27,1.614,0.579,2.402,0.924c0.786,0.349,1.58,0.688,2.351,1.08c1.54,0.784,3.06,1.628,4.532,2.571
	c-1.283-1.193-2.712-2.23-4.219-3.138c-1.495-0.934-3.099-1.695-4.769-2.295c-1.659-0.622-3.417-1.034-5.208-1.136
	c-0.895-0.05-1.795-0.046-2.688,0.064c-0.891,0.125-1.766,0.352-2.607,0.656l-0.141,0.051l-0.041,0.109
	c-0.074,0.196-0.068,0.311-0.064,0.457c0.009,0.137,0.038,0.267,0.08,0.389c0.08,0.248,0.223,0.447,0.364,0.637
	c0.295,0.373,0.677,0.623,1.048,0.858c0.763,0.445,1.572,0.759,2.399,0.996C-164.543,138.922-165.306,138.525-165.967,138.012z
	 M-152.097,142.307c-0.734-0.352-1.465-0.716-2.236-0.992c-0.381-0.148-0.763-0.298-1.157-0.409
	c-0.395-0.114-0.778-0.263-1.182-0.353c-0.801-0.19-1.609-0.348-2.437-0.425c-0.407-0.068-0.828-0.045-1.242-0.052
	c-0.416-0.009-0.83-0.005-1.244,0.063c-0.412,0.068-0.83,0.078-1.229,0.211l-1.197,0.35l-0.139,0.04l-0.043,0.121
	c-0.065,0.181-0.059,0.281-0.055,0.413c0.021,0.117,0.026,0.246,0.071,0.349c0.092,0.207,0.186,0.409,0.332,0.555
	c0.129,0.165,0.268,0.316,0.437,0.418c0.162,0.114,0.313,0.242,0.48,0.335c0.348,0.164,0.674,0.365,1.028,0.489l1.067,0.36
	l-0.976-0.543c-0.328-0.17-0.609-0.411-0.91-0.609c-0.144-0.108-0.258-0.246-0.388-0.365c-0.136-0.115-0.233-0.253-0.322-0.39
	c-0.114-0.13-0.154-0.275-0.206-0.414c-0.026-0.068-0.011-0.133-0.023-0.199c0-0.001,0-0.005,0-0.006l0.981-0.192
	c0.375-0.093,0.774-0.055,1.156-0.097c0.383-0.047,0.771-0.031,1.159-0.003c0.387,0.023,0.774,0.021,1.159,0.096
	c0.774,0.085,1.539,0.247,2.298,0.439c0.755,0.21,1.516,0.41,2.252,0.699c0.744,0.257,1.475,0.561,2.203,0.873
	c0.723,0.327,1.451,0.645,2.162,1.005c1.418,0.728,2.821,1.498,4.193,2.345c-1.185-1.099-2.496-2.06-3.877-2.908
	C-150.669,143.087-151.368,142.67-152.097,142.307z"/>
</svg>
