<?xml version="1.0" encoding="utf-8"?>
<!-- Generator: Adobe Illustrator 16.0.0, SVG Export Plug-In . SVG Version: 6.00 Build 0)  -->
<!DOCTYPE svg PUBLIC "-//W3C//DTD SVG 1.1//EN" "http://www.w3.org/Graphics/SVG/1.1/DTD/svg11.dtd">
<svg version="1.1" id="Layer_1" xmlns="http://www.w3.org/2000/svg" xmlns:xlink="http://www.w3.org/1999/xlink" x="0px" y="0px"
	 width="50px" height="50px" viewBox="34.5 104.5 50 50" enable-background="new 34.5 104.5 50 50" xml:space="preserve">
<path d="M74.893,123.735c-0.231,4.878-2.427,14.423-14.525,23.542l-0.591,0.469l-0.703-0.372c-0.092-0.065-0.155-0.116-0.155-0.116
	c-4.513-3.4-7.64-6.859-9.804-10.108c0.549-0.248,1.117-0.611,1.687-1.131c1.969,2.972,4.793,6.147,8.855,9.287
	c13.82-10.668,13.371-21.905,13.188-23.742c-1.509-1.218-4.186-2.169-7.372-2.692c-0.439-0.72-1.043-1.49-1.864-2.261
	c4.734,0.472,8.786,1.818,10.843,3.697C74.836,120.659,74.984,121.813,74.893,123.735z M47.921,134.109
	c0.372-0.56,0.68-1.043,0.941-1.468c-2.68-5.506-2.522-9.816-2.409-11.002c2.473-1.558,5.875-2.603,9.694-3.016
	c-0.134-0.689-0.188-1.356-0.182-1.991c-4.362,0.459-8.185,1.688-11.001,3.591c-0.297,0.205-0.531,0.367-0.57,2.302
	c-0.048,2.327,0.342,6.766,3.154,12.016C47.776,134.3,47.917,134.115,47.921,134.109z M53.569,130.79c0,0-0.17,3.078,2.224,3.248
	c0,0,0.662,0.407-0.662,2.714c0,0-0.428,0.214,0.428,1.944c0,0,0.513,1.476,0.492,2.352c0,0,0.105,0.213,0.383,0.234l0.15-0.085
	v0.385c0,0,0.214,0.747,1.282,0.598c0,0,0.214-0.875-0.662-1.366c0,0-0.043-0.62-0.449-0.835c0,0-0.342-1.474-0.235-1.752
	c0,0,1.518,3.633,2.223,4.211c0,0,0.3,0.107,0.599-0.022c0,0-0.192,0.898,0.235,0.939c0,0,1.517,0.215,1.538-0.276
	c0,0-0.042-1.195-1.303-1.325c0,0-1.069-0.363-1.711-3.057c0,0,0.171-1.539,1.048-3.247c0,0,0.428-1.775,0.877-2.202
	c0,0,0.533-1.197-0.108-2.286c0,0-0.405-0.791,0.899-1.625c0,0,3.141-2.394,3.568-3.654c0,0,0.364-1.09,3.076-0.963
	c0,0-0.512,1.24-0.512,1.839c0,0-0.663-0.277-0.705,0.855c0,0,0.086,1.303,0.534,0.748c0,0,0.557-0.641,0.727-1.219
	c0,0,0.663-0.533,0.599-1.175c0,0-0.106-1.774,0.599-1.262c0,0,0.256,1.538-0.363,2.01l-0.021,0.64c0,0-1.324,0.535-0.235,2.096
	c0,0,0.62,0.214,0.876-1.625c0,0,0.107-0.534,0.386-0.471c0,0-0.021-1.688,0.255-2.286c0,0,0.449-1.752-1.431-1.752
	c0,0,0.319-0.385-1.968-0.62c0,0,0.062-4.075-5.212-7.284c0,0,1.618-0.642,2.157-1.906c0,0,1.146,0.234,0.684-1.368
	c-0.143-0.494-0.358-0.604-2.052-0.171c0,0-1.403-0.069-2.266,0.171c-0.188,0.053-0.77,0.13-0.77,0.13s-0.426-0.855-0.813-0.813
	c0,0-3.833,5.809,0.685,11.584c0,0-1.327,2.149-3.42,4.018c-0.516,0.463-1.239,1.282-1.538,2.309c0,0-0.181,0.388-0.898,0.511
	c-2.464,0.43-1.624,0.443-4.459,4.703c0,0-1.824,2.564-4.217,1.88C44.082,136.26,49.724,140.42,53.569,130.79z"/>
</svg>
