<?xml version="1.0" encoding="utf-8"?>
<!-- Generator: Adobe Illustrator 16.0.0, SVG Export Plug-In . SVG Version: 6.00 Build 0)  -->
<!DOCTYPE svg PUBLIC "-//W3C//DTD SVG 1.1//EN" "http://www.w3.org/Graphics/SVG/1.1/DTD/svg11.dtd">
<svg version="1.1" id="Layer_1" xmlns="http://www.w3.org/2000/svg" xmlns:xlink="http://www.w3.org/1999/xlink" x="0px" y="0px"
	 width="50px" height="50px" viewBox="104.5 104.5 50 50" enable-background="new 104.5 104.5 50 50" xml:space="preserve">
<path d="M117.05,132.537c-2.73-5.224-3.105-9.625-3.055-11.951c0.043-1.942,0.277-2.104,0.575-2.309
	c2.081-1.405,4.712-2.439,7.69-3.087c-0.008,0.05-0.014,0.107-0.021,0.152c-0.442,0.511-0.879,1.402-1.225,2.229
	c-1.879,0.539-3.568,1.246-4.958,2.123c-0.109,1.118-0.262,5.025,1.945,10.111c-0.199,0.267-0.285,0.545-0.294,0.74
	C117.576,131.401,117.293,132.078,117.05,132.537z M119.686,133.083c-0.095-0.158-0.185-0.314-0.274-0.471
	c-0.373,0.532-0.648,1.406-0.724,2.704c0.045,0.066,0.093,0.134,0.138,0.201l0.103,0.034c0,0,0.131,0.233,0.164,0.299
	c-0.072-0.404-0.036-0.963,0.359-1.626C119.496,134.067,119.619,133.601,119.686,133.083z M144.539,118.363
	c-2.625-2.397-8.445-3.947-14.827-3.947c-0.014,0-0.027,0.001-0.042,0.001c0.659,0.308,1.33,0.742,1.971,1.359l0.771,0.742
	c4.537,0.335,8.531,1.489,10.521,3.101c0.087,0.863,0.234,3.809-1.052,7.806c-1.947-0.933-4.233-0.955-4.233-0.955
	c-2.897-0.14-3.176-0.909-3.176-0.909c0.452-3.769-2.025-5.936-2.025-5.936c0.349-0.102,1.465,0.631,1.465,0.631
	c-0.628-2.304-4.083-4.26-4.083-4.26c0.384-0.139,1.466,0.141,1.466,0.141c-2.829-2.723-6.283-1.711-6.283-1.711
	c-0.104-0.594-1.816-1.642-1.816-1.642c0.176,0.174,0.245,1.118,0.245,1.118c-0.175-0.315-0.735-0.63-0.735-0.63
	c0.315,0.734,0,2.304,0,2.304c-0.907,0.908-1.918,4.049-1.918,4.049l-0.384,0.561c-0.49,0.699-0.31,1.798,0.175,2.06
	c1.814,0.979,1.99-0.804,1.99-0.804c1.5-0.175,2.618-1.849,2.618-1.849c2.023,1.046,0.805,4.59-0.07,5.725
	c-1.124,1.454-1.012,4.295-1.012,4.295c-1.503,0.592-3.422-0.035-3.422-0.035c-2.409-0.386-2.479,1.046-2.479,1.046
	c-0.279,1.815-1.186,2.899-1.186,2.899c-0.629,1.325,0.209,2.896,0.209,2.896l0.174,1.885c0.244,0.875,0.803,0.629,0.803,0.629
	c1.605-0.804,0.385-2.968,0.385-2.968l-0.421-0.141c0.072-4.816,2.516-4.398,2.516-4.398c-0.244,0.209-0.455,1.222-0.455,1.222
	c-0.035,0.875-0.314,1.781-0.314,1.781c-0.697,1.118-0.139,1.816-0.139,1.816c0.559,0.383,0.908,1.396,0.908,1.396
	c0.069,1.151,0.838,1.569,0.838,1.569c0.872,0.49,0.697-1.432,0.697-1.432c0.141-1.569-1.047-1.431-1.047-1.431
	c0.174-0.384,0.035-1.188,0.035-1.188c-0.594-2.373,0.941-3.28,0.941-3.28c0.595,1.224,3.178,1.291,3.178,1.291l1.081-1.013
	c5.691,5.062,9.252,3.002,9.252,3.002c0.524,0.595,0.542,2.11,0.606,2.198c-1.763,2.118-3.973,4.29-6.761,6.44
	c-2.799-2.161-5.016-4.339-6.783-6.459c0.011,0.151,0.011,0.313-0.005,0.483c0.027,0.212,0.084,1.232-0.343,1.7
	c-0.076,0.083-0.165,0.146-0.262,0.19c1.804,2,3.995,4.033,6.668,6.048l0.844,0.453l0.593-0.446c2.829-2.133,5.12-4.288,6.982-6.403
	c3.356-3.813,5.303-7.493,6.412-10.676c0.949-2.726,1.289-5.088,1.373-6.849C145.076,119.889,144.927,118.719,144.539,118.363z"/>
</svg>
