<?xml version="1.0" encoding="utf-8"?>
<!-- Generator: Adobe Illustrator 16.0.0, SVG Export Plug-In . SVG Version: 6.00 Build 0)  -->
<!DOCTYPE svg PUBLIC "-//W3C//DTD SVG 1.1//EN" "http://www.w3.org/Graphics/SVG/1.1/DTD/svg11.dtd">
<svg version="1.1" id="Layer_1" xmlns="http://www.w3.org/2000/svg" xmlns:xlink="http://www.w3.org/1999/xlink" x="0px" y="0px"
	 width="50px" height="50px" viewBox="174.5 104.5 50 50" enable-background="new 174.5 104.5 50 50" xml:space="preserve">
<path d="M214.539,117.547c-2.625-2.396-8.445-3.947-14.827-3.947c-6.079,0-11.454,1.371-15.142,3.861
	c-0.298,0.205-0.532,0.367-0.575,2.309c-0.09,4.152,1.17,14.918,14.783,25.178l0.844,0.453l0.593-0.447
	c12.297-9.27,14.53-18.969,14.768-23.928C215.076,119.072,214.927,117.902,214.539,117.547z M202.293,140.652
	c0.195-1.336,0.227-3.262-0.805-4.676c-1.354-1.855-3.1-6.689,0.035-8.402c0,0,1.729,2.742,4.054,3.027c0,0,0.27,2.916,3.08,1.314
	c0.748-0.428,1.027-2.227,0.27-3.371l-0.594-0.912c0,0-1.567-5.143-2.973-6.629c0,0-0.487-2.572,0-3.77c0,0-0.865,0.516-1.136,1.029
	c0,0,0.109-1.543,0.38-1.828c0,0-2.231,0.734-2.812,2.686c0,0-5.35-1.656-9.726,2.795c0,0,1.675-0.455,2.269-0.225
	c0,0-5.115,2.961-6.088,6.729c0,0,1.494-0.957,2.036-0.787c0,0-1.135,2.133-0.044,5.531c-4.531-7.045-4.321-12.877-4.184-14.285
	c3.31-2.088,8.252-3.279,13.655-3.279c5.608,0,10.843,1.279,13.221,3.203C213.105,120.525,213.521,130.529,202.293,140.652z"/>
</svg>
