<?xml version="1.0" encoding="utf-8"?>
<!-- Generator: Adobe Illustrator 16.0.0, SVG Export Plug-In . SVG Version: 6.00 Build 0)  -->
<!DOCTYPE svg PUBLIC "-//W3C//DTD SVG 1.1//EN" "http://www.w3.org/Graphics/SVG/1.1/DTD/svg11.dtd">
<svg version="1.1" id="Layer_1" xmlns="http://www.w3.org/2000/svg" xmlns:xlink="http://www.w3.org/1999/xlink" x="0px" y="0px"
	 width="50px" height="50px" viewBox="244.5 104.5 50 50" enable-background="new 244.5 104.5 50 50" xml:space="preserve">
<path d="M284.542,117.701c-2.597-2.371-8.415-3.906-14.821-3.906c-6.114,0-11.509,1.371-15.197,3.861
	c-0.146,0.104-0.346,0.242-0.379,2.023c-0.079,4.162,1.22,14.957,14.912,25.277l0.573,0.248l0.321-0.242
	c12.378-9.332,14.643-19.066,14.89-24.039C284.842,120.896,284.969,118.096,284.542,117.701z M269.508,143.924
	c-15.302-11.652-14.369-23.943-14.175-25.488c3.498-2.287,8.595-3.543,14.388-3.543c5.945,0,11.51,1.402,13.949,3.5
	C283.871,119.781,285.089,132.072,269.508,143.924z M282.771,118.809c0.171,1.701,0.581,11.578-10.505,21.572
	c0.192-1.318,0.224-3.221-0.794-4.617c-1.337-1.832-3.061-6.604,0.034-8.295c0,0,1.708,2.707,4.001,2.99
	c0,0,0.268,2.879,3.043,1.297c0.737-0.424,1.014-2.199,0.266-3.328l-0.586-0.902c0,0-1.548-5.076-2.936-6.545
	c0,0-0.48-2.537,0-3.721c0,0-0.854,0.508-1.121,1.018c0,0,0.108-1.525,0.375-1.805c0,0-2.203,0.723-2.776,2.65
	c0,0-5.281-1.635-9.602,2.76c0,0,1.653-0.449,2.239-0.221c0,0-5.05,2.922-6.011,6.641c0,0,1.477-0.943,2.011-0.777
	c0,0-1.12,2.107-0.043,5.461c-4.475-6.953-4.267-12.711-4.131-14.102c3.268-2.063,8.147-3.238,13.482-3.238
	C275.255,115.646,280.423,116.908,282.771,118.809z"/>
</svg>
