<?xml version="1.0" encoding="utf-8"?>
<!-- Generator: Adobe Illustrator 16.0.0, SVG Export Plug-In . SVG Version: 6.00 Build 0)  -->
<!DOCTYPE svg PUBLIC "-//W3C//DTD SVG 1.1//EN" "http://www.w3.org/Graphics/SVG/1.1/DTD/svg11.dtd">
<svg version="1.1" id="Layer_1" xmlns="http://www.w3.org/2000/svg" xmlns:xlink="http://www.w3.org/1999/xlink" x="0px" y="0px"
	 width="50px" height="50px" viewBox="314.5 104.5 50 50" enable-background="new 314.5 104.5 50 50" xml:space="preserve">
<path d="M342.873,123.15c-0.47-0.451-0.626-1.693-0.626-1.693s0.546,0.318,1.014,0.77c0.47,0.453,0.799,0.871,0.59,1.096
	C343.641,123.545,343.34,123.602,342.873,123.15z M354.833,121.031c-0.235,4.932-2.459,14.582-14.707,23.814l-0.502,0.393
	l-0.762-0.406c-13.55-10.211-14.806-20.918-14.716-25.047c0.041-1.865,0.258-2.016,0.51-2.188c3.661-2.475,9.006-3.836,15.056-3.836
	c6.347,0,12.128,1.535,14.727,3.908C354.901,118.094,354.885,119.957,354.833,121.031z M339.297,143.02l-0.142-0.32l-0.83-1.877
	c-0.33-0.59-0.614-1.209-0.952-1.797c-0.373-0.559-0.688-1.166-1.103-1.691l-0.596-0.814l-0.663-0.75
	c-0.448-0.494-0.933-0.957-1.452-1.371c-0.268-0.193-0.512-0.426-0.798-0.592c-0.282-0.172-0.548-0.377-0.843-0.525
	c-0.576-0.322-1.174-0.621-1.803-0.82c-0.2-0.07-0.406-0.117-0.611-0.17C331.51,135.666,334.589,139.363,339.297,143.02z
	 M353.077,118.738c-2.244-1.854-7.081-3.121-12.381-3.262c0.028,0.021,0.059,0.037,0.086,0.059c0.344,0.281,0.658,0.607,0.927,0.977
	c0.514,0.674,0.741,1.563,0.691,2.389c1.272,1.191,2.46,2.449,3.646,3.717c1.268,1.293,2.476,2.646,3.495,4.219l0.063,0.102
	l-0.008,0.148v0.002c0.049,0.543,0.004,1.057-0.108,1.594c-0.047,0.27-0.143,0.535-0.261,0.813
	c-0.132,0.271-0.286,0.561-0.632,0.822l-0.384,0.297l-0.379-0.336c-0.303-0.27-0.517-0.813-0.862-0.979
	c-0.074-0.061-0.166,0.006-0.071,0.047c0.078,0.01,0.102,0.025,0.147,0.102c0.099,0.133,0.263,0.311,0.298,0.51l0.088,0.486
	l-0.334,0.242c-0.193,0.141-0.326,0.209-0.513,0.287c-0.174,0.074-0.369,0.127-0.583,0.15c-0.431,0.063-0.97-0.111-1.275-0.428
	c-0.32-0.307-0.458-0.643-0.557-0.959c-0.093-0.314-0.134-0.615-0.168-0.912l-0.013-0.109l0.009-0.025
	c0.016-0.049,0.01-0.184-0.006-0.24c-0.019-0.07-0.03-0.094-0.075-0.131c-0.045-0.035-0.141-0.068-0.267-0.066
	c-0.144,0-0.379-0.002-0.544-0.021c-0.722-0.076-1.429-0.236-2.076-0.563c-0.325-0.158-0.608-0.381-0.915-0.572
	c-0.303-0.203-0.622-0.412-0.886-0.693c-0.259-0.277-0.473-0.604-0.638-0.945c-0.022-0.039-0.033-0.08-0.054-0.119
	c-0.058,0.041-0.116,0.08-0.173,0.119c-0.282,0.18-0.555,0.383-0.83,0.574c-0.549,0.398-1.051,0.857-1.49,1.375
	c-0.217,0.26-0.421,0.527-0.604,0.818c-0.178,0.289-0.345,0.59-0.471,0.908c-0.133,0.322-0.249,0.646-0.322,0.992
	c-0.109,0.342-0.103,0.699-0.162,1.057l-0.151,0.01c-0.09-0.723-0.158-1.494,0.022-2.242c0.07-0.375,0.189-0.744,0.326-1.104
	c0.139-0.361,0.307-0.711,0.509-1.041c0.401-0.662,0.887-1.271,1.435-1.822c0.271-0.279,0.569-0.527,0.881-0.758
	c0.321-0.227,0.639-0.416,1.045-0.57l0.92-0.35l0.067,0.844v0.002c0.056,0.287,0.057,0.602,0.146,0.881
	c0.054,0.299,0.19,0.557,0.295,0.844c0.128,0.271,0.268,0.557,0.482,0.793c0.225,0.221,0.511,0.367,0.803,0.484
	c0.587,0.223,1.226,0.348,1.854,0.293c0.174-0.014,0.273-0.029,0.467-0.059c0.207-0.033,0.461-0.029,0.723,0.074
	c0.264,0.1,0.501,0.334,0.614,0.576c0.116,0.256,0.164,0.459,0.162,0.75l-0.005-0.135c0.111,0.467,0.327,0.953,0.516,1.08
	c0.09,0.063,0.117,0.059,0.229,0.043c0.046-0.014,0.103-0.037,0.162-0.064c0.022-0.107,0.043-0.213,0.087-0.33
	c0.061-0.16,0.137-0.406,0.406-0.553c0.286-0.125,0.47-0.025,0.621-0.027c0.341,0.082,0.666,0.158,0.965,0.277
	c0.096-0.195,0.193-0.449,0.269-0.695c0.123-0.395,0.225-0.83,0.341-1.248c-0.809-1.469-1.943-2.799-3.091-4.086
	c-0.599-0.664-1.276-1.252-1.934-1.857c-0.661-0.6-1.338-1.193-2.021-1.756l-0.126-0.088l-0.032-0.273
	c-0.08-0.689-0.345-1.281-0.771-1.783c-0.215-0.25-0.468-0.471-0.747-0.662c-0.017-0.01-0.033-0.021-0.051-0.033
	c-0.027,0.285-0.05,0.576-0.069,0.861c-0.051,0.629-0.076,1.275-0.088,1.906l-0.009,0.439l-0.385,0.156
	c-0.601,0.244-1.207,0.51-1.745,0.9c-0.54,0.379-1.077,0.789-1.547,1.279c-0.946,0.969-1.759,2.117-2.376,3.375l-0.145-0.049
	c0.332-1.396,0.977-2.723,1.873-3.889c0.783-1.07,1.855-1.941,3.068-2.57c-0.016-0.539-0.031-1.07-0.021-1.611
	c0.028-0.621,0.057-1.232,0.188-1.902c-5.043,0.148-9.619,1.324-12.733,3.313c-0.117,1.061-0.346,5.139,2.021,10.465
	c0.339-1.67,1.017-3.25,1.927-4.645c0.648-1.021,1.402-1.969,2.211-2.871c0.34-0.375,0.695-0.729,1.061-1.076
	c-0.033,0.008-0.066,0.012-0.099,0.018c-0.331,0.09-0.673,0.141-0.994,0.258c-0.333,0.092-0.64,0.234-0.964,0.348
	c-0.617,0.287-1.235,0.596-1.789,1.021c-0.545,0.436-1.092,0.904-1.528,1.5l-0.142-0.061c0.179-0.75,0.563-1.463,1.08-2.049
	c0.254-0.303,0.537-0.582,0.842-0.836c0.295-0.273,0.643-0.469,0.979-0.684c0.694-0.391,1.448-0.668,2.218-0.844
	c0.771-0.178,1.561-0.201,2.332-0.146l1.953,0.139l-1.655,0.896c-0.978,0.527-1.951,1.229-2.83,1.984
	c-0.879,0.77-1.658,1.662-2.278,2.652c-0.597,1.002-1.104,2.07-1.341,3.205c-0.218,0.926-0.254,1.873-0.197,2.809
	c0.021,0.039,0.04,0.078,0.062,0.119c0.196,0.012,0.388,0.027,0.582,0.053c0.373,0.057,0.742,0.127,1.1,0.229
	c0.728,0.18,1.42,0.467,2.092,0.787c0.347,0.145,0.647,0.365,0.973,0.547c0.329,0.176,0.612,0.418,0.917,0.631
	c0.6,0.436,1.156,0.93,1.672,1.455l0.762,0.803l0.685,0.865c0.487,0.557,0.815,1.217,1.226,1.822
	c0.358,0.633,0.69,1.281,1.013,1.932l0.129,0.318c0.021-0.061,0.05-0.119,0.07-0.18c0.202-0.619,0.329-1.268,0.374-1.92
	c0.047-0.652,0.027-1.314-0.098-1.963c-0.044-0.326-0.128-0.648-0.21-0.969c-0.08-0.326-0.214-0.635-0.319-0.955l-0.021-0.049
	c-0.254-0.949-0.451-1.883-0.512-2.857c-0.029-0.486-0.032-0.977,0.038-1.463c0.066-0.482,0.211-0.996,0.573-1.357l0.116,0.1
	c-0.252,0.373-0.293,0.836-0.294,1.285c0.004,0.451,0.074,0.904,0.17,1.354c0.195,0.885,0.459,1.779,0.793,2.611
	c0.153,0.326,0.331,0.645,0.459,0.988c0.128,0.35,0.274,0.699,0.351,1.072c0.19,0.732,0.267,1.494,0.264,2.256
	c-0.002,0.76-0.1,1.521-0.286,2.262c-0.093,0.371-0.205,0.736-0.339,1.098c-0.036,0.092-0.076,0.18-0.114,0.268
	C353.89,131.301,353.263,120.395,353.077,118.738z"/>
</svg>
