<?xml version="1.0" encoding="utf-8"?>
<!-- Generator: Adobe Illustrator 16.0.0, SVG Export Plug-In . SVG Version: 6.00 Build 0)  -->
<!DOCTYPE svg PUBLIC "-//W3C//DTD SVG 1.1//EN" "http://www.w3.org/Graphics/SVG/1.1/DTD/svg11.dtd">
<svg version="1.1" id="Layer_1" xmlns="http://www.w3.org/2000/svg" xmlns:xlink="http://www.w3.org/1999/xlink" x="0px" y="0px"
	 width="50px" height="50px" viewBox="-315.5 174.5 50 50" enable-background="new -315.5 174.5 50 50" xml:space="preserve">
<path d="M-279.609,195.454c0,0-2.741-0.955-5.742-0.44c1.048-0.925,2.249-2.092,2.403-2.708c0,0,0.606-1.539-1.212-2.797
	c0,0-3.592-2.611-5.407-2.937c-0.952-0.171-3.123-0.233-3.822-0.093c0,0,1.119-1.026-0.652-1.865c0,0-2.696-0.989-3.356,1.585
	c-0.116,0.452-0.187,1.771,0.233,2.237l0.653-0.466c0,0,0.746,1.305,2.004,1.118c0,0,0.188,2.217,0.466,2.704
	c0.173,0.304,0.212,1.09,0.046,1.398c-0.041,0.077-0.122,0.158-0.216,0.241c-1.583-1.212-4.83-3.569-6.671-3.998l-1.402-1.882
	l-0.205,1.334c0,0-0.855-1.471-0.821-1.334s0.103,1.779,0.103,1.779s-0.958,2.154-1.265,2.531c0,0-1.745,2.223-0.684,3.146
	c0,0,0.71,0.426,1.345-0.199c0.758,0.17,2.055,0.383,3.812,0.436c0.541,1.386,1.389,3.182,2.333,3.765c0,0-0.376,2.941,1.505,4.31
	c0,0,0.41,3.66,0.821,5.541c0,0,0.41,3.557-0.65,4.104c0,0-1.061,0.582-0.923,0.992c0,0,0.103,0.137,1.231,0.137
	c0,0,0.923,0.172,0.718-0.752c0,0-0.103-0.615,0.376-0.958c0,0,0.308-0.958,0.205-2.565c0,0-0.103-1.676,0.308-1.266
	c0,0,0.582,1.369,0.582,2.771c0,0-0.205,1.265-0.65,1.504c0,0-0.958,0.89-0.205,0.924h1.676c0,0,0.24-0.377-0.205-1.061
	c0,0-0.068-0.513,0.205-0.615c0,0,0.205-1.402-0.308-2.907c0,0-1.231-5.609,0.342-5.917c0,0,5.37,0.684,7.354-1.025
	c0,0,1.3-0.582,1.813,0.033c0,0,0.924,2.941,1.71,4.447c0,0,0.513,3.762,0.103,4.754c-0.411,0.991-0.958,1.813-1.505,2.052
	c0,0-0.684,0.649-0.034,0.649h1.642c0,0,0.547-0.239,0.137-0.855c0,0-0.205-0.41,0.308-0.786c0,0,0.684-0.103,0.649-2.224
	c0,0,0.821-2.838,0.308-4.001c0,0-0.274-0.479,0.171-0.411c0,0,1.026,2.155,1.676,2.771c0,0,0.24,3.215,0.411,3.898
	c0,0,0.137,0.41-0.103,0.719c0,0-1.3,1.061-0.547,1.299h1.368c0,0,0.821-0.102,0.273-1.367c0,0-0.068-0.582,0.239-0.924
	c0,0,0.069-1.3-0.273-2.053c0,0,0.445-2.873-1.026-4.445c0,0-1.437-1.095-0.684-3.899c0,0,1.649-2.966,0.273-4.686
	c-0.137-0.171,0-0.171,0-0.171s0.992,0.479,1.197,2.838c0,0-1.095,4.721,1.197,6.567c0,0-0.308-2.941,0.342-4.138
	C-275.642,202.295-274.342,196.787-279.609,195.454z M-289.894,193.657l0.14-1.771c0,0,1.865,0.094,0.886,1.398
	c0,0-1.016,1.103-1.722,2.191c-0.584-0.104-1.165-0.281-1.688-0.558C-291.316,194.784-290.178,194.456-289.894,193.657z
	 M-292.225,191.21l0.723,0.094c0,0,0.128,1.021,0.046,1.258c-0.103,0.302-1.002,0.513-1.002,0.513
	C-292.178,192.795-292.225,191.21-292.225,191.21z M-303.233,194.412c0.458-0.045,1.351-0.227,1.7-0.977
	c0,0,0.513-0.444,0.924,0.068c0,0,0.154,0.517,0.416,1.232C-301.49,194.686-302.514,194.545-303.233,194.412z"/>
</svg>
