<?xml version="1.0" encoding="utf-8"?>
<!-- Generator: Adobe Illustrator 16.0.0, SVG Export Plug-In . SVG Version: 6.00 Build 0)  -->
<!DOCTYPE svg PUBLIC "-//W3C//DTD SVG 1.1//EN" "http://www.w3.org/Graphics/SVG/1.1/DTD/svg11.dtd">
<svg version="1.1" id="Layer_1" xmlns="http://www.w3.org/2000/svg" xmlns:xlink="http://www.w3.org/1999/xlink" x="0px" y="0px"
	 width="50px" height="50px" viewBox="-245.5 174.5 50 50" enable-background="new -245.5 174.5 50 50" xml:space="preserve">
<path d="M-205.683,193.133c0,0,0.049-2.744-0.588-3.432l0.441-2.06l-1.177,1.226l0.147-1.472l-1.08,1.422
	c0,0-2.992-2.206-6.081,2.992c0,0-0.292,0.556-0.816,1.276c-0.126-0.102-0.234-0.201-0.284-0.295
	c-0.166-0.309-0.127-1.095,0.046-1.398c0.278-0.487,0.466-2.704,0.466-2.704c1.258,0.187,2.004-1.118,2.004-1.118l0.653,0.466
	c0.419-0.466,0.349-1.785,0.233-2.237c-0.66-2.574-3.356-1.585-3.356-1.585c-1.771,0.839-0.652,1.865-0.652,1.865
	c-0.699-0.141-2.87-0.078-3.822,0.093c-1.815,0.325-5.407,2.937-5.407,2.937c-1.818,1.258-1.212,2.797-1.212,2.797
	c0.28,1.118,4.009,4.055,4.009,4.055c0.011,0.014,0.015,0.03,0.026,0.044c-0.771-0.104-1.488-0.243-1.842-0.419
	c0,0-4.266-0.687-5.737,1.472c0,0-4.561-1.275-4.708,4.659c0,0,0.735,3.482-1.079,4.169c0,0,2.549,0.98,3.481-5.052
	c0,0-0.098-2.452,1.667-2.796c0,0-0.98,1.914,0,4.905c0,0,0.491,1.618-0.833,2.795c0,0-0.98-0.098-1.177,2.796
	c0,0-1.521,2.648-0.932,3.824c0,0,0.393,0.637,0.197,0.932c0,0-0.932,0.442,0.245,1.275c0,0,1.374,0.588,1.079-0.54
	c0,0-0.883-2.598,0.294-4.903c0,0,3.532-3.777,3.875-4.659c0,0,1.374,0.098,1.618,1.913c0,0-0.589,2.6,0.637,3.727
	c0,0,0.834,3.531,1.815,3.531c0,0-0.048,1.127,1.374,1.127c0,0,1.421-0.049,0.637-0.883c0,0-2.942-0.441-2.746-5.885
	c0,0,0.833-2.99,0.833-4.363c0,0,5.688,1.961,7.797,0.686c0,0,0.148,4.462-0.637,7.063c0,0-0.736,1.471,0.343,1.814
	c0,0-0.784,1.716,0.344,1.716c0,0,1.472,0.344,1.374-0.539c0,0-0.393-0.98-0.834-1.274c0,0-0.638-1.57,0.294-3.336
	c0,0,1.423-3.777,1.374-5.002c0,0,2.158,1.029,3.334,2.256c0,0,0.639,1.668-0.49,3.14c0,0-0.687,0.589-0.638,1.03
	c0,0-1.226-0.539-1.275,1.176c0,0,0.147,1.718,1.127,0c0,0,2.255-1.568,2.746-4.119c0,0,0.49-1.666-0.883-2.648
	c0,0-1.127-1.765-1.716-2.108c0,0,1.813-2.305,0.833-4.413c0,0-0.833-0.637-0.245-1.913c0,0,0.602-1.088,0.962-2.388
	c0.397-0.032,0.811-0.075,1.235-0.127c0.161,0.134,0.337,0.259,0.549,0.355c0,0,0,1.667,1.373,1.619
	C-206.468,196.615-204.996,196.565-205.683,193.133z M-217.615,190.903l0.723-0.094c0,0-0.046,1.585,0.233,1.864
	c0,0-0.899-0.211-1.002-0.513C-217.743,191.925-217.615,190.903-217.615,190.903z M-218.054,195.927
	c-0.561-1.271-2.194-3.043-2.194-3.043c-0.979-1.305,0.886-1.398,0.886-1.398l0.14,1.771c0.358,1.009,2.079,1.268,3.085,1.331
	C-216.691,195.119-217.335,195.606-218.054,195.927z M-209.361,193.183c0,0,0.135,0.5,0.524,1.006
	c-0.227,0.023-0.447,0.044-0.666,0.063C-209.428,193.896-209.37,193.536-209.361,193.183z"/>
</svg>
