<?xml version="1.0" encoding="utf-8"?>
<!-- Generator: Adobe Illustrator 16.0.0, SVG Export Plug-In . SVG Version: 6.00 Build 0)  -->
<!DOCTYPE svg PUBLIC "-//W3C//DTD SVG 1.1//EN" "http://www.w3.org/Graphics/SVG/1.1/DTD/svg11.dtd">
<svg version="1.1" id="Layer_1" xmlns="http://www.w3.org/2000/svg" xmlns:xlink="http://www.w3.org/1999/xlink" x="0px" y="0px"
	 width="50px" height="50px" viewBox="-175.5 174.5 50 50" enable-background="new -175.5 174.5 50 50" xml:space="preserve">
<path d="M-138.314,198.357c-0.688-0.737-2.035-1.153-3.968-0.712c0,0-2.204-2.307-5.663-1.357c0,0-1.348,0.417-2.877,0.362
	c0.497-0.555,1.323-0.67,1.323-0.67c2.571-0.587,3.157-1.53,3.157-1.53c0.912-0.977-0.651-2.181-0.651-2.181
	c0.163-0.098,0.293-0.261,0.293-0.261c0.586-0.357-2.05-0.748-2.05-0.748c0.146-0.473-4.264-0.488-4.264-0.488
	c0.228-1.01-0.684-1.529-0.684-1.529c-1.953-0.814-2.409,1.203-2.409,1.203c-0.651-0.032-0.522,0.37-0.398,0.464
	c0.149,0.114,0.609,0.007,0.659,0.188c0.065,0.236-0.118,0.785,0.033,0.977c0.051,0.065,0.269,0.098,0.269,0.098
	c0.163,0.342,0.082,0.528,0.179,0.521c0.192-0.016,0.985-0.064,0.985-0.064c0.098,0.357,1.758,1.692,1.758,1.692
	c-0.108,0.388-1.346,0.408-2.172,0.378c-0.573-0.584-1.224-1.344-1.524-2.038c-0.767-1.771-2.645-4.611-6.68-3.866l-1.085-1.355
	l-0.034,1.018l-0.712-0.78l0.396,1.695c0,0-0.77,0.271-0.95,4.251c0,0-0.497,2.441,0.588,2.713c0,0,0.936,0.358,1.375-0.711
	c0.498,0.101,1.149,0.207,1.967,0.284c0.057,0.538,0.201,1.185,0.558,1.703c0,0,0.17,1.187-0.373,1.594c0,0-0.61,1.119,0.373,1.933
	c0,0,0.373,0.509-0.678,0.509c0,0-1.865-0.509-1.831,0.95c0,0-0.916,1.186,0.678,2l1.526,0.949c0,0,0.678,0.306,2.238,0.238
	l0.034-0.306c0,0,1.187,0.339,0.61-0.813l-0.102-0.441c0,0,1.356,0.407,1.356-0.441c0,0,5.629,1.865,8.342,0.068
	c0,0,0.848-0.441,1.051,0.102c0,0,0.102,1.899,5.121,1.797c0,0,0.407-0.066,0.373,0.645c0,0-0.678,3.053,0.305,4.104
	s1.322,1.391,1.424,0.713l0.034-0.781c0,0,0.373-0.135,0.271-1.424c0,0-0.339-0.271-0.712-0.102c0,0-0.305-2.441,0.237-3.561
	c0,0,0.916-1.525-0.746-1.695c0,0-1.221,0.305-1.017-0.61c0,0,1.967-2.611,0.78-4.544c0,0,0.136-0.407,0.712,0.17
	c0,0,4.646,3.525,5.392,0.508C-135.5,199.171-137.672,199.045-138.314,198.357z M-163.133,195.165
	c0.359-0.283,1.168-1.021,1.116-1.895c0,0,0.542-0.44,0.542,1.594c0,0-0.02,0.213-0.015,0.528
	C-162.146,195.329-162.695,195.246-163.133,195.165z M-161.95,203.139c0,0,1.356,0.407,1.628,1.153
	C-160.322,204.292-161.339,204.359-161.95,203.139z M-153.105,196.097c-0.154-0.082-0.303-0.175-0.446-0.279h0.634L-153.105,196.097
	z"/>
</svg>
