<?xml version="1.0" encoding="utf-8"?>
<!-- Generator: Adobe Illustrator 16.0.0, SVG Export Plug-In . SVG Version: 6.00 Build 0)  -->
<!DOCTYPE svg PUBLIC "-//W3C//DTD SVG 1.1//EN" "http://www.w3.org/Graphics/SVG/1.1/DTD/svg11.dtd">
<svg version="1.1" id="Layer_1" xmlns="http://www.w3.org/2000/svg" xmlns:xlink="http://www.w3.org/1999/xlink" x="0px" y="0px"
	 width="50px" height="50px" viewBox="-105.5 174.5 50 50" enable-background="new -105.5 174.5 50 50" xml:space="preserve">
<path d="M-65.568,193.752c0,0-0.524-5.386-1.259-6.189l-0.314-1.819l-1.2,1.633c0,0-4.943-1.586-7.741,5.688
	c0,0-0.103,0.183-0.304,0.465c-0.349-0.117-0.711-0.269-0.836-0.43c-0.162-0.208-0.232-0.796-0.143-1.043
	c0.145-0.396,0.002-2.064,0.002-2.064c0.958-0.022,1.345-1.085,1.345-1.085l0.543,0.263c0.252-0.398,0.032-1.368-0.111-1.688
	c-0.816-1.826-2.691-0.75-2.691-0.75c-1.208,0.848-0.247,1.466-0.247,1.466c-0.537-0.015-2.139,0.308-2.824,0.556
	c-1.305,0.472-3.637,2.865-3.637,2.865c-1.188,1.165-0.543,2.229-0.543,2.229c0.35,0.795,3.489,2.499,3.489,2.499
	c0.146,0.123,0.235,0.286,0.295,0.461c-0.698,0.038-1.449-0.034-2.265-0.291c-1.604-0.506-2.984-1.866-6.435,1.958
	c0,0-6.25,0-4.851,7.835c0,0,2.332-1.119,2.985-4.291c0,0,0.466-2.425,1.679-2.145c0,0-0.839,3.824,3.917,5.782
	c0,0,0.094,1.212-0.652,1.772c0,0-0.934,1.398,1.864,2.425c0,0,2.763,1.212,3.323,2.261c0,0,0.56,0.35,1.329,0.211
	c0,0-0.315,0.908,1.014,0.908c0,0,1.154,0.176,1.154-0.42c0,0-0.385-0.979-1.119-1.084c0,0-0.944-1.328-2.204-1.434
	c0,0-2.133-0.244-2.063-2.273c0,0,1.364-2.309,1.049-4.336c0,0,7.169,1.504,9.408-0.211c0,0,0.175,0.734,0.804,0.699l0.07,0.561
	c0,0-0.419,0.035-0.594,0.489c0,0-0.105,0.315,0.524,0.28v0.664c0,0,0.035,0.595,1.154-0.14c0,0,2.133-0.28,2.833-1.539
	c0,0,3.042-1.294,2.133-2.728c0,0-0.595-1.33-2.029-0.979l-1.539,0.069c0,0,0.875-1.504-0.175-2.867c0,0,1.049-3.742,0.804-5.945
	c0,0,0.734,1.854,1.644,2.133c0,0-0.105,1.364,1.644,1.225C-66.337,195.396-65.218,195.291-65.568,193.752z M-78.788,191.855
	c0,0,0.167,1.182,0.41,1.354c0,0-0.694-0.043-0.809-0.253c-0.09-0.166-0.125-0.939-0.125-0.939L-78.788,191.855z M-78.928,195.925
	c-0.511-0.887-2.087-2.104-2.087-2.104c-0.892-0.845,0.479-1.15,0.479-1.15l0.329,1.296c0.564,1.006,3.007,0.518,3.007,0.518
	l0.02,0.014C-77.629,194.979-78.215,195.496-78.928,195.925z M-69.1,202.985c-0.49,0.805-2.134,1.179-2.134,1.179
	C-70.954,203.628-69.1,202.985-69.1,202.985z"/>
</svg>
