<?xml version="1.0" encoding="utf-8"?>
<!-- Generator: Adobe Illustrator 16.0.0, SVG Export Plug-In . SVG Version: 6.00 Build 0)  -->
<!DOCTYPE svg PUBLIC "-//W3C//DTD SVG 1.1//EN" "http://www.w3.org/Graphics/SVG/1.1/DTD/svg11.dtd">
<svg version="1.1" id="Layer_1" xmlns="http://www.w3.org/2000/svg" xmlns:xlink="http://www.w3.org/1999/xlink" x="0px" y="0px"
	 width="50px" height="50px" viewBox="-35.5 174.5 50 50" enable-background="new -35.5 174.5 50 50" xml:space="preserve">
<path d="M3.869,189.753l-0.766-1.276c0,0,0.146-1.167-0.803-2.043l-0.183-2.481l-0.875,1.788l-0.584-1.788l-0.839,1.679
	c0,0-4.525,2.942-6.456,5.906c-0.335-0.12-0.661-0.267-0.781-0.421c-0.174-0.224-0.25-0.856-0.154-1.122
	c0.155-0.427,0.002-2.221,0.002-2.221c1.03-0.024,1.447-1.167,1.447-1.167l0.584,0.282c0.271-0.429,0.035-1.472-0.12-1.816
	c-0.878-1.965-2.895-0.807-2.895-0.807c-1.299,0.912-0.266,1.577-0.266,1.577c-0.577-0.017-2.301,0.33-3.038,0.598
	c-1.404,0.507-3.913,3.082-3.913,3.082c-1.278,1.253-0.584,2.397-0.584,2.397c0.292,0.663,2.383,1.912,3.31,2.44
	c-0.043-0.005-0.082-0.005-0.125-0.01c0,0-2.7-1.095-5.181,0.146c0,0-3.576-1.167-4.743,3.94c0,0-0.219,4.159-2.408,4.889
	c0,0,3.356,1.094,4.889-4.597c0,0-0.292-1.204,0.657-1.788c0,0-0.949,1.752,0.292,4.232c0,0,0.474,1.568-1.496,2.444
	c0,0-1.714,0.511-1.313,2.846c0,0-0.511,4.05,0.292,4.889c0,0,0.146,0.292-0.255,0.876c0,0-1.167,1.568,1.095,1.568
	c0,0,2.203-0.13,0.803-1.605c-0.958-1.008-1.277-0.912-0.73-5.509c0,0,0.657-1.495,1.204-1.605c0,0,2.773-0.583,3.393-2.262
	c0,0,1.131-0.183,0.657,1.715c0,0-1.934,1.86-0.584,2.81c0,0,2.408,2.262,2.992,2.443c0,0-0.109,0.548,0.292,0.912
	c0,0-0.657,0.293-0.547,0.767c0,0-0.547,0.985,1.496,0.985c0,0,1.934,0.072,0.365-1.387c0,0-0.183-1.824-1.387-2.116
	c0,0-2.262-2.043-1.094-3.283c0,0,1.86-1.715,2.152-3.175c0,0,3.685,0.768,6.202-0.109c0,0-0.474,2.153,0.365,3.612
	c0,0-0.146,3.028,0.438,3.648l0.073,2.627c0,0-0.547,0.948-0.146,1.604c0,0-0.511,1.168,0.292,1.205h1.824
	c0,0,0.62-0.328,0.037-0.657c0,0,0.839,0.219,0.766-0.364c0,0-0.365-1.387-1.095-1.861c0,0-0.292-2.335-0.073-3.575
	c0,0,0.875-3.356,1.24-5.181c0,0,1.824-2.48,1.605-4.195c-0.014-0.111-0.027-0.207-0.039-0.292
	c-0.008-0.057-0.014-0.103-0.021-0.149l0.278-5.943c0,0,0-2.189,1.532-2.116c0,0,0.547,0.839,1.35,1.204
	c0,0,0.912,1.313,2.189,0.146C4.489,192.089,4.635,191.177,3.869,189.753z M-9.101,189.777c0,0,0.179,1.271,0.441,1.456
	c0,0-0.747-0.046-0.87-0.271c-0.097-0.179-0.135-1.011-0.135-1.011L-9.101,189.777z M-10.98,190.655l0.354,1.394
	c0.574,1.024,2.957,0.608,3.21,0.562c-0.39,0.39-1.043,0.914-1.997,1.299c-0.663-0.918-2.083-2.017-2.083-2.017
	C-12.455,190.983-10.98,190.655-10.98,190.655z"/>
</svg>
