<?xml version="1.0" encoding="utf-8"?>
<!-- Generator: Adobe Illustrator 16.0.0, SVG Export Plug-In . SVG Version: 6.00 Build 0)  -->
<!DOCTYPE svg PUBLIC "-//W3C//DTD SVG 1.1//EN" "http://www.w3.org/Graphics/SVG/1.1/DTD/svg11.dtd">
<svg version="1.1" id="Layer_1" xmlns="http://www.w3.org/2000/svg" xmlns:xlink="http://www.w3.org/1999/xlink" x="0px" y="0px"
	 width="50px" height="50px" viewBox="34.5 174.5 50 50" enable-background="new 34.5 174.5 50 50" xml:space="preserve">
<path d="M74.447,203.887c0,0,0.197-1.639-0.745-2.384c0,0-1.341-2.731-3.278-2.234c0,0-3.128,1.341-3.277-1.143
	c0,0,0.396-1.936-1.49-2.78c0,0,0.396-2.881-0.298-4.37c0,0,0.545,0.346,1.64,0.396c0,0,1.292,1.441,2.137,0.398
	c0,0,1.043-0.795,0-1.938l-1.192-1.391c0,0,0.447-0.745-1.341-2.186l-0.298-1.737l-0.447,1.589l-0.744-1.639l-0.447,1.836
	c0,0-4.501,0.556-5.269,6.622c-0.29-0.111-0.553-0.241-0.658-0.377c-0.174-0.224-0.25-0.856-0.154-1.122
	c0.155-0.427,0.002-2.221,0.002-2.221c1.031-0.024,1.447-1.167,1.447-1.167l0.584,0.282c0.271-0.429,0.035-1.472-0.119-1.816
	c-0.879-1.965-2.896-0.807-2.896-0.807c-1.299,0.912-0.266,1.577-0.266,1.577c-0.577-0.017-2.301,0.33-3.038,0.598
	c-1.403,0.507-3.912,3.082-3.912,3.082c-1.279,1.253-0.585,2.397-0.585,2.397c0.346,0.786,3.219,2.395,3.683,2.65
	c-2.05,0.019-4.587,0.541-5.558,2.816c0,0-2.83,1.491-2.581,5.314c0,0,0.545,3.128-0.846,3.973c0,0,3.625-1.985,2.98-6.753
	c0,0,0.298-0.894,0.498-0.05c0,0,0.047,3.129,3.375,4.52c0,0-0.2,0.693-1.043,1.24c0,0-0.845,0.645,0.299,2.234
	c1.143,1.591-0.049,0.199-0.049,0.199s0.246,3.278,1.836,3.725c0,0-0.544,1.241,0.797,1.291c0,0,2.034,0.25,0.693-1.24
	c0,0-2.135-0.944-1.837-3.477c0,0,1.539,0.646,3.08,0.596c0,0,1.339,0.447,1.438,1.093c0,0-1.043,1.341,0.298,1.341
	c0,0,1.938,0.447,1.095-0.943c0,0-1.292-2.385-2.533-2.285c0,0-2.782-0.149-1.788-1.938c0,0,0.298-0.645,0.149-1.688
	c0,0,1.438-0.447,1.937-1.59c0,0,4.917,0.497,6.307-0.844c0,0,0.298,1.887,2.483,4.32l1.29,3.626c0,0-0.049,0.496,0.696,0.694
	c0,0-0.398,1.59,0.547,1.541h1.141c0,0,1.043-0.349-0.396-1.689c0,0-1.59-1.738-1.788-3.973c0,0-0.249-1.393-0.845-2.037
	c0,0-1.043-2.086-0.149-3.525c0,0,0.198-0.795,1.49-0.596c0,0,2.232,0.298,3.722-0.895c0,0,0.896-0.596,1.642-0.148
	c0,0,1.092,2.037,1.739,2.533c0,0,0.049,0.346-0.597,0.396c0,0-1.045,0.447,0.694,1.539
	C73.702,205.327,74.745,205.675,74.447,203.887z M57.055,191.212c0,0,0.179,1.271,0.44,1.456c0,0-0.747-0.046-0.87-0.271
	c-0.098-0.179-0.135-1.011-0.135-1.011L57.055,191.212z M57.085,196.171l-0.031-0.268c-0.278-0.948-2.396-2.576-2.396-2.576
	c-0.959-0.909,0.517-1.237,0.517-1.237l0.354,1.394c0.606,1.082,3.235,0.557,3.235,0.557l0.421,0.298
	C58.985,194.91,58.454,195.826,57.085,196.171z"/>
</svg>
