<?xml version="1.0" encoding="utf-8"?>
<!-- Generator: Adobe Illustrator 16.0.0, SVG Export Plug-In . SVG Version: 6.00 Build 0)  -->
<!DOCTYPE svg PUBLIC "-//W3C//DTD SVG 1.1//EN" "http://www.w3.org/Graphics/SVG/1.1/DTD/svg11.dtd">
<svg version="1.1" id="Layer_1" xmlns="http://www.w3.org/2000/svg" xmlns:xlink="http://www.w3.org/1999/xlink" x="0px" y="0px"
	 width="50px" height="50px" viewBox="104.5 174.5 50 50" enable-background="new 104.5 174.5 50 50" xml:space="preserve">
<path d="M144.5,196.426c-0.09,1.312-1.49,1.252-1.49,1.252c-0.774-0.119-1.15-1.328-1.489-1.817c-0.827-1.2-1.374-0.496-1.549-0.149
	c-0.95,1.888-2.183,2.565-2.652,3.516c-0.21,0.429-0.06,1.43-0.089,1.906c-0.086,1.518,1.311,2.295,1.311,2.295
	c2.234,1.281,2.563,5.393,2.563,5.393c0.536,1.549-0.209,1.549-0.209,1.549l-1.042-0.924c-0.478-0.715,0.357-0.863,0.357-0.863
	c-0.179-0.209-0.269-0.389-0.269-0.389c-0.626-3.991-2.302-3.781-3.128-4.021c-1.132-0.327-1.281,0.09-1.281,0.09
	c-0.268,2.025-1.608,3.158-1.608,3.158c-1.431,2.055-2.354,1.966-2.354,1.966c-0.388,0.03-0.805,0.208-0.805,0.208
	c-1.787,0.895-1.191-0.178-1.191-0.178l0.596-0.834c0.686-0.566,0.834,0.059,0.834,0.059c1.162-0.148,2.294-1.697,2.294-1.697
	c1.311-2.086,0.447-3.873,0.447-3.873c-4.945,0.982-7.15-0.656-7.15-0.656c-1.311-0.834-1.847,1.49-1.847,1.49
	c-0.686,1.37-0.507,2.115-0.507,2.115l2.592,2.055c1.312,0.924,0.953,2.205,0.953,2.205l-1.251-0.477
	c-0.625-0.209-0.089-0.894-0.089-0.894c-0.388-0.208-2.771-1.937-2.771-1.937c-1.758-0.686-0.924-1.877-0.924-1.877
	c0.864-1.906,0.029-1.758,0.029-1.758c-0.446,0.507-1.604,1.006-2.204,1.191c-2.132,0.66-2.115,3.01-2.115,3.01
	c-0.328,2.055-1.489,2.442-1.489,2.442c-0.895,1.043-1.014,0.149-1.014,0.149l0.238-1.222c0.149-0.805,0.805-0.417,0.805-0.417
	c0.715-0.715,0.935-2.83,1.013-3.813c0.076-0.952,0.501-1.048,0.834-1.192c0.503-0.215,1.907-1.072,1.907-1.072
	c-1.608-2.8-0.298-4.885-0.298-4.885c-1.311,0-1.549,1.668-2.086,2.204c-2.145,2.146-3.872,2.919-3.872,2.919
	c1.013-6.911,6.971-5.958,6.971-5.958c0.953-0.834,2.61-0.937,3.516-0.894c0.78,0.036,1.506,0.038,2.193,0.019
	c-1.729-1.267,0.208-3.9,0.208-3.9c1.914-2.32,5.097-1.969,5.097-1.969c1.078-1.565,1.88-1.559,2.56-1.321
	c1.282,0.444,1.105,2.211,1.105,2.211l0.352,0.458l-0.754-0.135c0,0.188-0.649,0.674-0.649,0.674l-0.054,0.324l-0.538,0.107
	c-0.511,0.513-1.214-0.163-1.214-0.163c0.136,0.567-0.458,1.268-0.458,1.268c-0.202,0.722,0.053,1.168,0.482,1.445
	c1.374-0.47,2.037-0.924,2.037-0.924c3.158-3.813,5.839-2.92,5.839-2.92l0.864-1.191l-0.09,1.639l0.716-1.4l-0.149,1.608
	c0.774,0.149,0.774,0.716,0.774,0.716c-0.596-0.358-0.446,0.178-0.446,0.178C143.397,193,144.5,196.426,144.5,196.426z"/>
</svg>
