<?xml version="1.0" encoding="utf-8"?>
<!-- Generator: Adobe Illustrator 16.0.0, SVG Export Plug-In . SVG Version: 6.00 Build 0)  -->
<!DOCTYPE svg PUBLIC "-//W3C//DTD SVG 1.1//EN" "http://www.w3.org/Graphics/SVG/1.1/DTD/svg11.dtd">
<svg version="1.1" id="Layer_1" xmlns="http://www.w3.org/2000/svg" xmlns:xlink="http://www.w3.org/1999/xlink" x="0px" y="0px"
	 width="50px" height="50px" viewBox="174.5 174.5 50 50" enable-background="new 174.5 174.5 50 50" xml:space="preserve">
<path d="M214.243,210.833c-2.28-1.023-1.351-1.721-1.351-1.721c0.604-0.139,0.559-0.652,0.559-0.652
	c-0.744-0.418-0.978-2.652-0.978-2.652c-0.465-1.211-2.42-2.049-2.42-2.049c-1.768-0.885-1.444,0.047-1.444,0.047
	c1.536,1.49,0.746,2.375,0.746,2.375l-0.419,3.49c-0.186,1.814-1.025,1.955-1.025,1.955c-0.884,0-0.698-1.256-0.698-1.256
	c0-0.979,0.932-0.885,0.932-0.885c-0.14-0.652,0.325-0.979,0.325-0.979l-0.14-2.652c-0.79-0.979-2.374-3.119-2.374-3.119
	c-0.325-0.838-0.93-0.373-0.93-0.373c-3.028,1.955-8.427,0.512-8.427,0.512c0,1.49-0.838,2.607-0.838,2.607
	c-0.838,1.723-0.046,2.699-0.046,2.699l3.445,2.652c1.069,0.932,0.698,1.676,0.698,1.676h-1.351c-1.117,0-0.373-1.396-0.373-1.396
	c-0.881-0.232-3.815-2.373-3.815-2.373c-1.351-0.279-0.514-2.326-0.514-2.326c0-1.35-0.464-1.117-0.464-1.117
	c-0.186,0.65-1.351,2.188-1.351,2.188c-0.79,3.117,2.792,4.84,2.792,4.84c0.795,0.559,0.468,0.885,0.468,0.885h-1.257
	c-0.935,0-0.513-0.885-0.513-0.885c-1.023-0.045-2.328-2.559-2.328-2.559c-2.187-1.816-1.023-2.654-1.023-2.654
	c1.396-1.117,1.303-2.793,1.303-2.793c-2.933-2.84-2.187-5.725-2.187-5.725c-0.794-0.326-1.165,0.605-1.165,0.605
	c-0.79,6.051-3.443,6.098-3.443,6.098c-1.117-8.332,4.934-7.682,4.934-7.682c1.302-1.953,3.812-2.44,5.932-2.46
	c-1.313-0.357-1.76-0.835-1.76-0.835c-1.29-0.983,0.335-2.741,0.335-2.741c-0.213-0.084-0.404-0.253-0.404-0.253
	c-0.772-0.308,2.302-1.312,2.302-1.312c-0.271-0.535,5.001-1.45,5.001-1.45c-0.478-1.161,0.507-1.969,0.507-1.969
	c2.171-1.37,3.126,0.95,3.126,0.95c0.771-0.17,0.7,0.337,0.57,0.474c-0.154,0.167-0.726,0.133-0.749,0.358
	c-0.031,0.296,0.3,0.916,0.158,1.176c-0.048,0.088-0.3,0.171-0.3,0.171c-0.126,0.442,0.009,0.647-0.109,0.659
	c-0.232,0.02-1.191,0.123-1.191,0.123c-0.043,0.447-1.758,2.381-1.758,2.381c0.166,0.354,1.155,0.277,2.048,0.128
	c0.644-0.724,0.955-1.313,0.955-1.313c2.304-5.934,6.772-4.816,6.772-4.816l0.954-1.094l-0.186,1.676l0.978-1.49l-0.419,1.908
	c0.932,1.35,0.652,2.793,0.652,2.793c1.16,3.723-0.14,3.725-0.14,3.725c-0.978,0.139-1.724-1.305-1.724-1.305
	c-0.79-0.512-1.209-1.676-1.209-1.676c-1.165,0.979-0.233,5.633-0.233,5.633c0.698,1.77-0.792,3.91-0.792,3.91
	s-0.511,0.141,0.188,0.232c0.698,0.094,2.885,2.234,2.885,2.234c2.373,0.979,2.373,5.727,2.373,5.727
	C214.753,210.974,214.243,210.833,214.243,210.833z"/>
</svg>
