<?xml version="1.0" encoding="utf-8"?>
<!-- Generator: Adobe Illustrator 16.0.0, SVG Export Plug-In . SVG Version: 6.00 Build 0)  -->
<!DOCTYPE svg PUBLIC "-//W3C//DTD SVG 1.1//EN" "http://www.w3.org/Graphics/SVG/1.1/DTD/svg11.dtd">
<svg version="1.1" id="Layer_1" xmlns="http://www.w3.org/2000/svg" xmlns:xlink="http://www.w3.org/1999/xlink" x="0px" y="0px"
	 width="50px" height="50px" viewBox="244.5 174.5 50 50" enable-background="new 244.5 174.5 50 50" xml:space="preserve">
<path d="M283.742,189.32c0,0-1.599-3.198-2.082-3.31l-0.111-2.045l-0.855,1.822l-0.223-2.156l-1.45,2.045
	c0,0-4.101,0.503-6.591,6.325c-0.932,0.166-2.037,0.275-2.214-0.101c0,0,1.715-1.934,1.758-2.381c0,0,0.959-0.104,1.191-0.123
	c0.118-0.012-0.017-0.217,0.109-0.659c0,0,0.252-0.083,0.3-0.171c0.142-0.26-0.189-0.88-0.158-1.176
	c0.023-0.226,0.595-0.191,0.749-0.358c0.13-0.137,0.201-0.644-0.57-0.474c0,0-0.955-2.32-3.126-0.95c0,0-0.984,0.808-0.507,1.969
	c0,0-5.272,0.915-5.001,1.45c0,0-3.074,1.004-2.302,1.312c0,0,0.191,0.169,0.404,0.253c0,0-1.625,1.758-0.335,2.741
	c0,0,0.09,0.091,0.277,0.217c-0.669,0.037-1.364,0.239-2.057,0.752c0,0-7.139,0.074-6.395,9.37c0,0,3.123-1.785,4.016-7.362
	c0,0,0.521-1.487,1.115-0.967c0,0-1.785,1.636-0.446,5.726c0,0-0.148,2.083-2.454,2.975c0,0-0.743,0.299-0.595,3.198
	c0,0-1.041,4.313,0,5.058c0,0-0.893,2.008,0.818,2.008c0,0,1.338,0.223,1.115-0.818c0,0-0.595-1.041-0.967-1.115
	c0,0,0.148-1.339-0.446-1.563l0.298-2.9c0,0,0.817-0.967,1.189-2.527c0,0,3.086-0.781,3.755-2.863c0,0,1.153,0.855,0.187,2.9
	c0,0-0.744,1.004,0.78,2.082c0,0,2.083,1.412,2.38,2.342c0,0,0,0.818,0.818,0.855c0,0,0.335,0.372-0.224,0.559
	c0,0-0.558,0.631,0.744,1.375c0,0,1.562,0.967,1.302-0.409c0,0-0.596-2.64-2.231-3.495c0,0-2.156-2.379-1.189-3.532
	c0,0,1.264-1.228,1.375-2.491c0,0,5.578,0.297,6.619-0.521c0,0,0.26,1.339,1.524,1.339c0,0-0.818,2.9-0.335,4.313l-0.223,3.347
	c0,0-0.781,0.78-0.149,1.636c0,0,0.335,0.409,0.112,0.781c0,0-0.596,1.301,1.413,1.748c0,0,1.301,0.223,1.004-0.818
	c0,0-0.893-1.264-1.153-1.785c0,0-0.595-3.979,0.409-4.908c0,0,0.706-0.148,0.558-2.23c0,0-0.223-1.302,1.896-0.521
	c0,0,2.269,0.929,2.752,5.094c0,0,0.186,0.261,0.521,0.372c0,0,0.111,0.223-0.409,0.408c0,0-0.893,0.855,0.93,1.859
	c0,0,1.115,0.224,0.892-0.632l-1.821-5.986c0,0-0.372-1.599-1.562-2.082c0,0-2.306-0.78-1.339-2.046c0,0,2.343-5.726,1.413-9.109
	c0,0-0.446-2.156,0.706-2.379c0,0,0.372-0.111,0.855,0c0,0,1.078,1.338,2.193,0.967c0,0,0.67,0.855,1.413,0.297
	C284.114,191.849,285.192,190.808,283.742,189.32z M271.613,193.507c-0.13,0.136-0.287,0.272-0.48,0.401l-0.263-0.275
	L271.613,193.507z"/>
</svg>
