<?xml version="1.0" encoding="utf-8"?>
<!-- Generator: Adobe Illustrator 16.0.0, SVG Export Plug-In . SVG Version: 6.00 Build 0)  -->
<!DOCTYPE svg PUBLIC "-//W3C//DTD SVG 1.1//EN" "http://www.w3.org/Graphics/SVG/1.1/DTD/svg11.dtd">
<svg version="1.1" id="Layer_1" xmlns="http://www.w3.org/2000/svg" xmlns:xlink="http://www.w3.org/1999/xlink" x="0px" y="0px"
	 width="50px" height="50px" viewBox="314.5 174.5 50 50" enable-background="new 314.5 174.5 50 50" xml:space="preserve">
<path d="M351.217,209.945c-1.021-0.373-2.472-0.967-2.738-3.383c0,0,0.259-3.963-4.9-7.146c2.819,0.246,2.764-3.898,2.764-3.898
	c-0.248-3.564-3.567-5.422-3.567-5.422c0.039-2.26-0.74-2.807-1.562-3.045c-1.547-0.457-2.596,1.373-2.596,1.373l-0.656,0.199
	l0.822,0.391c-0.13,0.182,0.163,1.1,0.163,1.1l-0.172,0.352l0.445,0.475c0.14,0.85,1.286,0.682,1.286,0.682
	c-0.523,0.453-0.433,1.541-0.433,1.541c-0.424,1.17-1.336,1.209-2.202,0.91c-0.189-0.648-0.333-1.379-0.402-2.225
	c-0.224-2.74-0.858-6.926-6.711-8.697l-0.805-1.344l-0.539,1.559c0,0-0.967-0.215-1.556,0.322l0.856,0.268
	c0,0-1.181,1.236-2.256,3.92c0,0-1.608,1.824,0.111,2.953c0,0,0.75,0.697,1.61-0.59c0,0,1.661,0.268,2.522-1.236
	c0,0-0.861,2.576-0.322,4.082c0,0-2.042,1.182-1.934,3.758c0,0-0.697-0.053-1.556-0.967c0,0-0.805-0.912-1.558,0.055
	c0,0-1.236,1.127-0.697,2.309l1.45,2.846c0,0,0.536,0.539,1.502,1.129c0,0,1.236,1.932,1.559,0.322c0,0,0.372,0.266,0.428-0.432
	l-0.105-0.75c0,0,1.127,0.375,2.255,0c0,0,2.256,4.027,6.766,6.068c0,0-1.183,2.684-0.752,4.939c0,0-1.128,1.557-3.383,2.201
	c0,0-1.503,0.27-2.256,1.504c0,0-1.61,1.127,1.45,1.127c0,0,1.556-0.268,2.308-1.771c0,0,5.425-1.289,5.425-2.953
	c0,0-0.539-1.879,1.02-1.557c0,0,3.488-0.162,5.477-2.418c0,0-0.71,3.691,2.899,3.545c1.075-0.045,3.116-0.537,3.813,1.986
	C354.491,214.025,354.836,211.266,351.217,209.945z M326.462,197.754c0.979,1.826,1.261,2.713,1.261,2.713
	C326.676,199.662,326.462,197.754,326.462,197.754z"/>
</svg>
