<?xml version="1.0" encoding="utf-8"?>
<!-- Generator: Adobe Illustrator 16.0.0, SVG Export Plug-In . SVG Version: 6.00 Build 0)  -->
<!DOCTYPE svg PUBLIC "-//W3C//DTD SVG 1.1//EN" "http://www.w3.org/Graphics/SVG/1.1/DTD/svg11.dtd">
<svg version="1.1" id="Layer_1" xmlns="http://www.w3.org/2000/svg" xmlns:xlink="http://www.w3.org/1999/xlink" x="0px" y="0px"
	 width="50px" height="50px" viewBox="-315.5 244.5 50 50" enable-background="new -315.5 244.5 50 50" xml:space="preserve">
<path d="M-276.518,270.618c-3.738,2.018-4.098-1.652-4.098-1.652c-3.091-0.359-5.392-3.811-5.392-3.811
	c-4.17,2.156-1.847,8.238-0.047,10.574c0.646,0.838,0.973,1.82,1.117,2.801h2.859v4.166h3.973v5.166h-27.333v-5.166h3.973v-4.166
	h3.277c-0.541-0.533-1.042-1.12-1.483-1.771c-4.387-6.475-1.291-11.531-1.291-11.531c-0.719-0.213-3.02,1.295-3.02,1.295
	c1.294-4.742,8.411-8.771,8.411-8.771c-0.79-0.289-3.019,0.285-3.019,0.285c5.823-5.604,12.941-3.52,12.941-3.52
	c0.215-1.223,3.739-3.379,3.739-3.379c-0.36,0.357-0.504,2.301-0.504,2.301c0.359-0.648,1.51-1.295,1.51-1.295
	c-0.647,1.508,0,4.742,0,4.742c1.87,1.871,3.954,8.342,3.954,8.342l0.792,1.15C-275.151,267.819-275.521,270.081-276.518,270.618z"
	/>
</svg>
