<?xml version="1.0" encoding="utf-8"?>
<!-- Generator: Adobe Illustrator 16.0.0, SVG Export Plug-In . SVG Version: 6.00 Build 0)  -->
<!DOCTYPE svg PUBLIC "-//W3C//DTD SVG 1.1//EN" "http://www.w3.org/Graphics/SVG/1.1/DTD/svg11.dtd">
<svg version="1.1" id="Layer_1" xmlns="http://www.w3.org/2000/svg" xmlns:xlink="http://www.w3.org/1999/xlink" x="0px" y="0px"
	 width="50px" height="50px" viewBox="-175.5 244.5 50 50" enable-background="new -175.5 244.5 50 50" xml:space="preserve">
<path d="M-137.098,271.227c-3.592,1.938-3.938-1.588-3.938-1.588c-2.97-0.344-5.181-3.662-5.181-3.662
	c-4.007,2.072-1.775,7.918-0.045,10.162c0.248,0.32,0.441,0.666,0.601,1.021h4.2v4.166h3.973v5.166h-27.333v-5.166h3.973v-4.166
	h1.532c-0.009-0.012-0.02-0.021-0.029-0.033c-3.47-4.359-2.575-8.48-1.587-11.201c1.19-3.271,2.797-5.064,5.143-6.975
	c3.482-2.838,9.919-3.197,9.919-3.197c0.207-1.174,3.593-3.246,3.593-3.246c-0.346,0.344-0.484,2.211-0.484,2.211
	c0.345-0.623,1.451-1.246,1.451-1.246c-0.622,1.451,0,4.559,0,4.559c1.797,1.799,3.799,8.016,3.799,8.016l0.761,1.105
	C-135.784,268.537-136.14,270.711-137.098,271.227z M-147.947,255.223c0.493,0,0.892-0.4,0.892-0.893s-0.399-0.891-0.892-0.891
	c-0.492,0-0.892,0.398-0.892,0.891S-148.439,255.223-147.947,255.223z M-151.813,255.918c0.493,0,0.892-0.4,0.892-0.893
	s-0.399-0.893-0.892-0.893c-0.492,0-0.892,0.4-0.892,0.893S-152.305,255.918-151.813,255.918z M-154.985,257.305
	c0.492,0,0.892-0.4,0.892-0.893s-0.4-0.893-0.892-0.893c-0.493,0-0.892,0.4-0.892,0.893S-155.478,257.305-154.985,257.305z
	 M-157.958,259.088c0.493,0,0.892-0.398,0.892-0.891c0-0.494-0.399-0.893-0.892-0.893s-0.892,0.398-0.892,0.893
	C-158.85,258.689-158.45,259.088-157.958,259.088z M-160.238,261.566c0.493,0,0.892-0.398,0.892-0.891s-0.399-0.893-0.892-0.893
	s-0.892,0.4-0.892,0.893S-160.73,261.566-160.238,261.566z M-161.923,264.541c0.493,0,0.892-0.4,0.892-0.893
	s-0.399-0.893-0.892-0.893c-0.492,0-0.892,0.4-0.892,0.893S-162.416,264.541-161.923,264.541z M-163.113,268.109
	c0.493,0,0.892-0.4,0.892-0.893s-0.399-0.893-0.892-0.893c-0.492,0-0.892,0.4-0.892,0.893S-163.605,268.109-163.113,268.109z
	 M-163.708,271.975c0.493,0,0.892-0.398,0.892-0.893c0-0.492-0.399-0.891-0.892-0.891c-0.492,0-0.892,0.398-0.892,0.891
	C-164.6,271.576-164.2,271.975-163.708,271.975z M-163.013,273.76c-0.493,0-0.892,0.398-0.892,0.891
	c0,0.494,0.399,0.893,0.892,0.893s0.892-0.398,0.892-0.893C-162.121,274.158-162.52,273.76-163.013,273.76z"/>
</svg>
