<?xml version="1.0" encoding="utf-8"?>
<!-- Generator: Adobe Illustrator 16.0.0, SVG Export Plug-In . SVG Version: 6.00 Build 0)  -->
<!DOCTYPE svg PUBLIC "-//W3C//DTD SVG 1.1//EN" "http://www.w3.org/Graphics/SVG/1.1/DTD/svg11.dtd">
<svg version="1.1" id="Layer_1" xmlns="http://www.w3.org/2000/svg" xmlns:xlink="http://www.w3.org/1999/xlink" x="0px" y="0px"
	 width="50px" height="50px" viewBox="-105.5 244.5 50 50" enable-background="new -105.5 244.5 50 50" xml:space="preserve">
<path d="M-66.408,271.275c-3.597,1.939-3.941-1.592-3.941-1.592c-2.976-0.344-5.188-3.668-5.188-3.668
	c-4.017,2.076-1.778,7.93-0.047,10.178c0.23,0.299,0.411,0.619,0.564,0.949h2.867v4.166h3.973v5.166h-27.333v-5.166h3.973v-4.166
	h2.82c-3.437-4.352-2.543-8.461-1.557-11.178c1.191-3.275,2.801-5.072,5.148-6.984c3.49-2.844,9.936-3.201,9.936-3.201
	c0.042-0.242,0.24-0.525,0.493-0.814c-0.776,0.021-1.724,0.086-2.804,0.225c-0.737,0.143-1.55,0.223-2.375,0.465
	c-0.843,0.182-1.699,0.475-2.574,0.811c-0.874,0.326-1.733,0.789-2.582,1.27c-0.806,0.563-1.662,1.08-2.339,1.82
	c-0.777,0.633-1.343,1.457-1.924,2.246c-0.607,0.773-0.905,1.717-1.359,2.531c-0.337,0.867-0.525,1.762-0.779,2.58
	c-0.23,0.826-0.226,1.652-0.342,2.393c-0.098,0.744-0.173,1.426-0.116,2.037c0.019,0.609,0.032,1.143,0.046,1.58
	c0.026,0.875,0.042,1.377,0.042,1.377l-0.121,0.01c0,0-0.104-0.49-0.241-1.373c-0.065-0.441-0.145-0.979-0.233-1.598
	c-0.133-0.619-0.137-1.326-0.079-2.102c0.044-0.557,0.052-1.164,0.104-1.785l-1.454-0.031l1.489-1.824l-1.563-0.225l2.233-1.711
	l-1.638-0.521l2.309-1.266l-1.75-0.521l3.016-0.969l-2.085-0.596l3.388-0.93L-90.294,258l3.425-0.447l-1.675-0.967l4.181-0.438
	c0.019-0.01,0.04-0.02,0.059-0.027l-1.932-0.875l4.394-0.373l-2.011-1.043l8.312,0.662c0.449,0.018,0.842,0.053,1.2,0.092
	c1.068-1.023,2.746-2.059,2.746-2.059c-0.345,0.344-0.484,2.215-0.484,2.215c0.345-0.623,1.452-1.246,1.452-1.246
	c-0.621,1.451,0,4.564,0,4.564c1.801,1.801,3.807,8.027,3.807,8.027l0.764,1.107C-65.09,268.58-65.447,270.758-66.408,271.275z"/>
</svg>
