<?xml version="1.0" encoding="utf-8"?>
<!-- Generator: Adobe Illustrator 16.0.0, SVG Export Plug-In . SVG Version: 6.00 Build 0)  -->
<!DOCTYPE svg PUBLIC "-//W3C//DTD SVG 1.1//EN" "http://www.w3.org/Graphics/SVG/1.1/DTD/svg11.dtd">
<svg version="1.1" id="Layer_1" xmlns="http://www.w3.org/2000/svg" xmlns:xlink="http://www.w3.org/1999/xlink" x="0px" y="0px"
	 width="50px" height="50px" viewBox="34.5 244.5 50 50" enable-background="new 34.5 244.5 50 50" xml:space="preserve">
<path d="M59.5,253.535c-9.571,0-17.357,8.952-17.357,19.955c0,4.349,1.203,8.489,3.48,11.975l5.023-3.281
	c-1.638-2.508-2.504-5.514-2.504-8.693c0-7.695,5.095-13.955,11.357-13.955s11.357,6.26,11.357,13.955
	c0,3.18-0.866,6.186-2.504,8.693l5.023,3.281c2.277-3.485,3.48-7.626,3.48-11.975C76.857,262.487,69.071,253.535,59.5,253.535z
	 M45.464,272.602c-0.584-0.029-1.017-0.97-0.964-2.1c0.052-1.131,0.566-2.023,1.151-1.993c0.584,0.03,1.016,0.971,0.964,2.1
	C46.564,271.739,46.049,272.632,45.464,272.602z M49.57,263.371c-0.655,0.893-1.561,1.307-2.021,0.924
	c-0.461-0.381-0.305-1.415,0.35-2.307c0.656-0.893,1.561-1.307,2.021-0.924C50.381,261.445,50.225,262.479,49.57,263.371z
	 M59.383,258.43c-0.813,0-1.471-0.699-1.471-1.563s0.657-1.563,1.471-1.563c0.813,0,1.471,0.699,1.471,1.563
	S60.195,258.43,59.383,258.43z M71.451,264.295c-0.461,0.383-1.366-0.031-2.021-0.924c-0.654-0.892-0.811-1.926-0.35-2.307
	c0.461-0.383,1.365,0.031,2.021,0.924C71.756,262.88,71.912,263.914,71.451,264.295z M73.536,272.602
	c-0.585,0.03-1.101-0.862-1.151-1.993c-0.052-1.129,0.38-2.069,0.964-2.1c0.585-0.03,1.1,0.862,1.151,1.993
	C74.553,271.632,74.12,272.572,73.536,272.602z"/>
</svg>
