<?xml version="1.0" encoding="utf-8"?>
<!-- Generator: Adobe Illustrator 16.0.0, SVG Export Plug-In . SVG Version: 6.00 Build 0)  -->
<!DOCTYPE svg PUBLIC "-//W3C//DTD SVG 1.1//EN" "http://www.w3.org/Graphics/SVG/1.1/DTD/svg11.dtd">
<svg version="1.1" id="Layer_1" xmlns="http://www.w3.org/2000/svg" xmlns:xlink="http://www.w3.org/1999/xlink" x="0px" y="0px"
	 width="50px" height="50px" viewBox="104.5 244.5 50 50" enable-background="new 104.5 244.5 50 50" xml:space="preserve">
<path d="M145.763,280.145c0.8-2.313,1.212-4.788,1.212-7.334c0-11.003-7.786-19.955-17.357-19.955s-17.357,8.952-17.357,19.955
	c0,2.546,0.412,5.021,1.212,7.334H111.5v6h12.295l-3.031-4.641c-1.638-2.508-2.504-5.514-2.504-8.693
	c0-7.695,5.095-13.955,11.357-13.955s11.357,6.26,11.357,13.955c0,3.18-0.866,6.186-2.504,8.693l-3.031,4.641H147.5v-6H145.763z
	 M115.581,271.922c-0.584-0.029-1.017-0.97-0.964-2.1c0.052-1.131,0.566-2.023,1.151-1.993c0.584,0.03,1.016,0.971,0.964,2.1
	C116.682,271.06,116.166,271.952,115.581,271.922z M119.688,262.691c-0.655,0.893-1.561,1.307-2.021,0.924
	c-0.461-0.381-0.305-1.415,0.35-2.307c0.656-0.893,1.561-1.307,2.021-0.924C120.498,260.766,120.342,261.8,119.688,262.691z
	 M129.5,257.75c-0.813,0-1.471-0.699-1.471-1.563s0.657-1.563,1.471-1.563c0.813,0,1.471,0.699,1.471,1.563
	S130.313,257.75,129.5,257.75z M141.568,263.615c-0.461,0.383-1.366-0.031-2.021-0.924c-0.654-0.892-0.811-1.926-0.35-2.307
	c0.461-0.383,1.365,0.031,2.021,0.924C141.873,262.2,142.029,263.234,141.568,263.615z M143.653,271.922
	c-0.585,0.03-1.101-0.862-1.151-1.993c-0.052-1.129,0.38-2.069,0.964-2.1c0.585-0.03,1.1,0.862,1.151,1.993
	C144.67,270.952,144.237,271.893,143.653,271.922z"/>
</svg>
