<?xml version="1.0" encoding="utf-8"?>
<!-- Generator: Adobe Illustrator 16.0.0, SVG Export Plug-In . SVG Version: 6.00 Build 0)  -->
<!DOCTYPE svg PUBLIC "-//W3C//DTD SVG 1.1//EN" "http://www.w3.org/Graphics/SVG/1.1/DTD/svg11.dtd">
<svg version="1.1" id="Layer_1" xmlns="http://www.w3.org/2000/svg" xmlns:xlink="http://www.w3.org/1999/xlink" x="0px" y="0px"
	 width="50px" height="50px" viewBox="174.5 244.5 50 50" enable-background="new 174.5 244.5 50 50" xml:space="preserve">
<path d="M216.857,270.049c0-11.002-7.786-19.955-17.357-19.955s-17.357,8.953-17.357,19.955c0,3.197,0.664,6.275,1.916,9.068
	c-0.964,1.041-1.559,2.428-1.559,3.955c0,3.217,2.616,5.834,5.833,5.834s5.833-2.617,5.833-5.834c0-2.67-1.805-4.92-4.257-5.609
	c-1.153-2.227-1.767-4.756-1.767-7.414c0-7.695,5.095-13.955,11.357-13.955s11.357,6.26,11.357,13.955
	c0,2.658-0.612,5.188-1.767,7.414c-2.452,0.689-4.257,2.939-4.257,5.609c0,3.217,2.616,5.834,5.833,5.834s5.833-2.617,5.833-5.834
	c0-1.527-0.595-2.914-1.559-3.955C216.193,276.324,216.857,273.246,216.857,270.049z M185.651,265.068
	c0.584,0.029,1.016,0.971,0.964,2.1c-0.051,1.131-0.566,2.023-1.151,1.992c-0.584-0.029-1.017-0.969-0.964-2.1
	C184.552,265.93,185.066,265.037,185.651,265.068z M188.333,279.24c2.113,0,3.833,1.719,3.833,3.832s-1.72,3.834-3.833,3.834
	s-3.833-1.721-3.833-3.834S186.22,279.24,188.333,279.24z M189.57,259.93c-0.655,0.893-1.561,1.307-2.021,0.924
	c-0.461-0.381-0.305-1.414,0.35-2.307c0.656-0.893,1.561-1.307,2.021-0.924C190.381,258.004,190.225,259.039,189.57,259.93z
	 M199.383,254.988c-0.813,0-1.471-0.699-1.471-1.563s0.657-1.563,1.471-1.563c0.813,0,1.471,0.699,1.471,1.563
	S200.195,254.988,199.383,254.988z M209.43,259.93c-0.654-0.891-0.811-1.926-0.35-2.307c0.461-0.383,1.365,0.031,2.021,0.924
	c0.654,0.893,0.811,1.926,0.35,2.307C210.99,261.236,210.085,260.822,209.43,259.93z M210.667,286.906
	c-2.113,0-3.833-1.721-3.833-3.834s1.72-3.832,3.833-3.832s3.833,1.719,3.833,3.832S212.78,286.906,210.667,286.906z
	 M213.536,269.16c-0.585,0.031-1.101-0.861-1.151-1.992c-0.052-1.129,0.38-2.07,0.964-2.1c0.585-0.031,1.1,0.861,1.151,1.992
	C214.553,268.191,214.12,269.131,213.536,269.16z"/>
</svg>
