<?xml version="1.0" encoding="utf-8"?>
<!-- Generator: Adobe Illustrator 16.0.0, SVG Export Plug-In . SVG Version: 6.00 Build 0)  -->
<!DOCTYPE svg PUBLIC "-//W3C//DTD SVG 1.1//EN" "http://www.w3.org/Graphics/SVG/1.1/DTD/svg11.dtd">
<svg version="1.1" id="Layer_1" xmlns="http://www.w3.org/2000/svg" xmlns:xlink="http://www.w3.org/1999/xlink" x="0px" y="0px"
	 width="50px" height="50px" viewBox="244.5 244.5 50 50" enable-background="new 244.5 244.5 50 50" xml:space="preserve">
<path d="M286.453,279.645c0.678-2.183,1.021-4.478,1.021-6.834c0-11.279-8.011-20.455-17.857-20.455s-17.857,9.176-17.857,20.455
	c0,2.356,0.344,4.651,1.021,6.834H251v7h13.719l-3.536-5.414c-1.585-2.427-2.423-5.339-2.423-8.42
	c0-7.419,4.871-13.455,10.857-13.455s10.857,6.036,10.857,13.455c0,3.081-0.838,5.993-2.423,8.42l-3.536,5.414H288v-7H286.453z
	 M287,285.645h-10.637l2.526-3.867c1.691-2.59,2.585-5.69,2.585-8.967c0-7.971-5.319-14.455-11.857-14.455
	s-11.857,6.484-11.857,14.455c0,3.276,0.894,6.377,2.585,8.967l2.526,3.867H252v-5h2.174l-0.229-0.663
	c-0.786-2.273-1.185-4.687-1.185-7.171c0-10.728,7.563-19.455,16.857-19.455s16.857,8.728,16.857,19.455
	c0,2.484-0.398,4.897-1.185,7.171l-0.229,0.663H287V285.645z M281.219,261.309c0.654,0.892,0.811,1.926,0.35,2.307
	c-0.461,0.383-1.366-0.031-2.021-0.924c-0.654-0.892-0.811-1.926-0.35-2.307C279.658,260.002,280.563,260.416,281.219,261.309z
	 M284.617,269.822c0.053,1.13-0.38,2.07-0.964,2.1c-0.585,0.03-1.101-0.862-1.151-1.993c-0.052-1.129,0.38-2.069,0.964-2.1
	C284.051,267.799,284.565,268.691,284.617,269.822z M260.037,260.385c0.461,0.381,0.305,1.415-0.35,2.307
	c-0.655,0.893-1.561,1.307-2.021,0.924c-0.461-0.381-0.305-1.415,0.35-2.307C258.672,260.416,259.576,260.002,260.037,260.385z
	 M256.732,269.929c-0.051,1.131-0.566,2.023-1.151,1.993c-0.584-0.029-1.017-0.97-0.964-2.1c0.052-1.131,0.566-2.023,1.151-1.993
	C256.353,267.859,256.784,268.8,256.732,269.929z M270.971,256.188c0,0.863-0.658,1.563-1.471,1.563
	c-0.813,0-1.471-0.699-1.471-1.563s0.657-1.563,1.471-1.563C270.313,254.625,270.971,255.324,270.971,256.188z"/>
</svg>
