<?xml version="1.0" encoding="utf-8"?>
<!-- Generator: Adobe Illustrator 16.0.0, SVG Export Plug-In . SVG Version: 6.00 Build 0)  -->
<!DOCTYPE svg PUBLIC "-//W3C//DTD SVG 1.1//EN" "http://www.w3.org/Graphics/SVG/1.1/DTD/svg11.dtd">
<svg version="1.1" id="Layer_1" xmlns="http://www.w3.org/2000/svg" xmlns:xlink="http://www.w3.org/1999/xlink" x="0px" y="0px"
	 width="50px" height="50px" viewBox="314.5 244.5 50 50" enable-background="new 314.5 244.5 50 50" xml:space="preserve">
<path d="M339.5,253.035c-9.847,0-17.857,9.176-17.857,20.455c0,4.446,1.231,8.682,3.562,12.248c0.152,0.23,0.462,0.295,0.692,0.146
	l5.023-3.281c0.231-0.151,0.296-0.461,0.146-0.692c-1.585-2.427-2.423-5.339-2.423-8.42c0-7.419,4.871-13.455,10.857-13.455
	s10.857,6.036,10.857,13.455c0,3.081-0.838,5.993-2.423,8.42c-0.15,0.231-0.086,0.541,0.146,0.692l5.023,3.281
	c0.084,0.055,0.179,0.081,0.273,0.081c0.163,0,0.322-0.08,0.419-0.227c2.33-3.566,3.562-7.802,3.562-12.248
	C357.357,262.211,349.347,253.035,339.5,253.035z M353.227,284.77l-4.188-2.735c1.519-2.502,2.318-5.444,2.318-8.544
	c0-7.971-5.319-14.455-11.857-14.455s-11.857,6.484-11.857,14.455c0,3.1,0.8,6.042,2.318,8.544l-4.188,2.735
	c-2.05-3.313-3.131-7.202-3.131-11.279c0-10.728,7.563-19.455,16.857-19.455s16.857,8.728,16.857,19.455
	C356.357,277.567,355.276,281.456,353.227,284.77z M351.102,261.988c0.654,0.892,0.811,1.926,0.35,2.307
	c-0.461,0.383-1.366-0.031-2.021-0.924c-0.654-0.892-0.811-1.926-0.35-2.307C349.541,260.682,350.445,261.096,351.102,261.988z
	 M354.5,270.502c0.053,1.13-0.38,2.07-0.964,2.1c-0.585,0.03-1.101-0.862-1.151-1.993c-0.052-1.129,0.38-2.069,0.964-2.1
	C353.934,268.479,354.448,269.371,354.5,270.502z M329.92,261.064c0.461,0.381,0.305,1.415-0.35,2.307
	c-0.655,0.893-1.561,1.307-2.021,0.924c-0.461-0.381-0.305-1.415,0.35-2.307C328.555,261.096,329.459,260.682,329.92,261.064z
	 M326.615,270.608c-0.051,1.131-0.566,2.023-1.151,1.993c-0.584-0.029-1.017-0.97-0.964-2.1c0.052-1.131,0.566-2.023,1.151-1.993
	C326.235,268.539,326.667,269.479,326.615,270.608z M340.854,256.867c0,0.863-0.658,1.563-1.471,1.563
	c-0.813,0-1.471-0.699-1.471-1.563s0.657-1.563,1.471-1.563C340.195,255.305,340.854,256.004,340.854,256.867z"/>
</svg>
