<?xml version="1.0" encoding="utf-8"?>
<!-- Generator: Adobe Illustrator 16.0.0, SVG Export Plug-In . SVG Version: 6.00 Build 0)  -->
<!DOCTYPE svg PUBLIC "-//W3C//DTD SVG 1.1//EN" "http://www.w3.org/Graphics/SVG/1.1/DTD/svg11.dtd">
<svg version="1.1" id="Layer_1" xmlns="http://www.w3.org/2000/svg" xmlns:xlink="http://www.w3.org/1999/xlink" x="0px" y="0px"
	 width="50px" height="50px" viewBox="-315.5 314.5 50 50" enable-background="new -315.5 314.5 50 50" xml:space="preserve">
<path d="M-272.648,332.579c-0.686-0.4-1.889-1.995-1.889-1.995c-0.242-0.967-1.192-1.55-1.192-1.55
	c0.351-0.362,0.412-1.011,0.412-1.011c-0.18,0.358-0.85,0.637-0.85,0.637c0.422-0.505,0.459-1.909,0.459-1.909
	c-0.339,1.074-1.453,1.679-1.453,1.679c-1.256-0.138-2.178-0.03-3.104,0.191c0.49,0.132,0.682,0.289,0.682,0.289
	c-0.417-0.185-1.003-0.153-1.53-0.063c-0.148,0.043-0.298,0.086-0.451,0.134c-2.468-2.371-5.644-3.805-9.11-3.805
	c-7.831,0-14.201,7.297-14.201,16.267c0,0.674,0.048,1.338,0.118,1.998c-1.073,1.768-1.005,3.894-1.005,3.894
	c-1.242,1.819-0.221,3.547-0.221,3.547c0.006-0.954,0.201-1.628,0.503-2.098v2.137c-0.455,0.418-0.872,1.236-0.872,1.236
	c-0.111-0.184-1.236-0.034-1.236-0.034c-0.939,0.578-0.767,1.686-0.767,1.686c1.491,0.126,2.604-0.581,3.37-1.364h0.511
	c-0.062,0.167-0.092,0.291-0.092,0.291c0.377,0.793,1.845-0.258,1.845-0.258c0.029-0.01,0.05-0.022,0.078-0.033h8.073l-2.812-4.306
	c-0.037-0.057-0.068-0.116-0.104-0.173c0.227-0.073,0.445-0.141,0.696-0.229c1.272-0.62,1.975-1.235,2.357-1.749h-0.008
	c0.042-0.054,0.082-0.107,0.118-0.159c0.245-0.375,0.319-0.687,0.334-0.896c0.005-0.095,0.001-0.188-0.012-0.28l-0.001-0.002
	c0.001,0,0.001,0,0.001,0c-0.202-1.376-2.309-2.327-2.309-2.327c2.351,0.479,2.883,1.671,2.922,2.575
	c2.761,0.876,5.972-1.244,7.401-2.354c-0.156-0.537-0.184-1.395,0.281-2.708c0.028-0.076-0.1,2.165,1.332,2.253
	c0.251-0.018,0.43-0.077,0.43-0.077c0.506-0.052,1.194-0.465,1.886-0.989c0.004,0.141,0.017,0.279,0.017,0.422
	c0,0.05-0.004,0.099-0.005,0.147c-0.211-0.073-0.356-0.14-0.356-0.14l-1.345,1.512c0.625,0.212,0.588,0.255,0.798,0.307
	c0.187,0.048,0.475,0.054,0.774,0.038c-0.251,1.754-0.857,3.399-1.793,4.831l-2.812,4.306h10.723v-5.566h-1.23
	c0.539-1.735,0.812-3.561,0.812-5.435c0-3.045-0.748-5.886-2.023-8.325c0.046-0.02,0.099-0.044,0.14-0.061
	c-0.05-0.527,0.023-1.153,0.374-1.83c0,0-0.468,1.653,0.729,2.314c0.932,0.452,2.296,0.155,2.296,0.155l0.235,0.398
	c0.128,0.598,0.635,0.522,0.907,0.549c0.62,0.06,0.597-0.352,0.597-0.352C-272.486,334.431-272.648,332.579-272.648,332.579z
	 M-290.674,325.973c3.119,0,5.985,1.246,8.266,3.315c-0.4,0.165-0.795,0.351-1.178,0.57c-0.077,0.045-0.154,0.093-0.23,0.139
	c0.711-0.084,1.031,0.027,1.031,0.027c-0.949-0.079-2.313,0.877-2.587,1.078c-0.18,0.146-0.342,0.303-0.515,0.454
	c-1.405-1.015-3.038-1.608-4.787-1.608c-4.977,0-9.055,4.728-9.396,10.69c-0.236,0.285-0.307,0.471-0.307,0.471
	c-1.703,0.016-2.863,0.601-3.66,1.401c-0.021-0.354-0.043-0.709-0.043-1.067C-304.08,332.912-298.066,325.973-290.674,325.973z
	 M-304.684,348.017c0.152-0.116,0.29-0.23,0.41-0.344h0.664c-0.337,0.385-0.512,0.911-0.512,0.911l-0.563,0.974V348.017z
	 M-303.081,347.31l-0.057-0.164c-0.089-0.258-0.158-0.523-0.235-0.785c0.118-0.318,0.181-0.618,0.26-0.896
	c1.12-3.954,1.991-3.031,1.991-3.031c-0.513,0.722-0.273,2.134,0.027,2.718c0.311,0.598-0.06,0.864-0.06,0.864
	c-0.855,1.164-1.573,1.273-1.573,1.273C-302.855,347.266-302.971,347.278-303.081,347.31z M-298.048,348.574l2.009,3.075h-5.424
	c0.282-0.355,0.332-0.66,0.332-0.66c0.548-0.951,0.942-1.501,1.215-1.824c-0.49,0.059-1.02,0.083-1.589,0.063
	c-0.379,0.896-1.518,2.267-1.518,2.267c-0.396-0.137-0.694-0.032-0.923,0.155h-0.375c0.415-0.588,0.619-1.065,0.619-1.065
	c0.702-1.653,1.818-2.11,1.973-2.112c0.109-0.005,0.187,0.018,0.243,0.058c0.253,0.084,1.145,0.245,3.215-0.327
	C-298.197,348.326-298.127,348.453-298.048,348.574z M-288.33,334.077c-0.291,0.354-0.553,0.687-0.782,0.991
	c0.688-0.327,1.05-0.328,1.05-0.328c-0.667,0.162-1.365,0.864-1.792,1.362c-0.226,0.333-0.348,0.532-0.348,0.532
	s-2.632,1.104-3.547,1.268c-2.875,0.51-4.521,1.292-5.456,1.957c0.621-5.149,4.204-9.116,8.529-9.116
	c1.519,0,2.944,0.492,4.186,1.349c-0.335,0.321-0.655,0.648-0.953,0.972c1.024-0.298,1.495-0.179,1.495-0.179
	C-286.803,332.887-287.917,333.736-288.33,334.077z M-281.289,340.396c0.327-0.285,0.632-0.57,0.908-0.843
	c0.125,0.698,0.475,1.204,0.868,1.184c0.025-0.001,0.047-0.013,0.072-0.018c-0.554,0.848-1.435,1.038-1.435,1.038
	c-0.118,0.023-0.249,0.021-0.38,0.012c0.002-0.109,0.011-0.216,0.011-0.325C-281.245,341.09-281.263,340.741-281.289,340.396z
	 M-278.211,347.146l-0.183,0.527h1.542v3.977h-8.458l2.009-3.075c0.856-1.312,1.453-2.788,1.775-4.36
	c0.115,0.01,0.696,0.011,1.545-0.745c0.222-0.199,0.401-0.499,0.401-0.499s-0.756,0.283-1.026,0.357
	c-0.157,0.043-0.594,0.155-0.801,0.208c0.017-0.111,0.033-0.224,0.047-0.336c0.127-0.029,0.252-0.061,0.343-0.099
	c0.292-0.121,1.761-0.625,1.761-0.625c1.075-0.462,1.357-1.706,1.598-2.491c0.1-0.323,0.166-0.609,0.219-0.878
	c0.101,0.765,0.17,1.541,0.17,2.337C-277.269,343.419-277.586,345.338-278.211,347.146z M-278.208,335.794
	c-0.232-0.012-0.471,0.094-0.655,0.149c-0.015,0.004-0.079,0.032-0.093,0.039c-0.654,0.324-1.74,1.102-2.369,1.352
	c-0.836,0.33-0.476-0.806-0.342-1.074c0.727-1.469,1.695-2.303,2.466-2.774C-278.816,334.219-278.483,334.988-278.208,335.794z
	 M-275.487,331.098c-0.313-0.151-0.652-0.516-0.652-0.516s0.526,0.026,0.839,0.179c0.312,0.15,0.291,0.369,0.291,0.369
	S-275.176,331.249-275.487,331.098z M-300.178,334.131c-0.367-0.303-0.242-1.125,0.278-1.834c0.522-0.71,1.241-1.039,1.607-0.734
	c0.367,0.303,0.243,1.125-0.278,1.834C-299.092,334.106-299.812,334.436-300.178,334.131z M-302.603,339.067
	c0.042-0.899,0.451-1.609,0.916-1.586c0.464,0.024,0.808,0.772,0.766,1.67c-0.04,0.899-0.45,1.609-0.916,1.585
	C-302.301,340.713-302.645,339.966-302.603,339.067z M-291.937,328.225c0-0.687,0.522-1.243,1.169-1.243
	c0.646,0,1.169,0.557,1.169,1.243s-0.523,1.242-1.169,1.242C-291.415,329.467-291.937,328.911-291.937,328.225z"/>
</svg>
