<?xml version="1.0" encoding="utf-8"?>
<!-- Generator: Adobe Illustrator 16.0.0, SVG Export Plug-In . SVG Version: 6.00 Build 0)  -->
<!DOCTYPE svg PUBLIC "-//W3C//DTD SVG 1.1//EN" "http://www.w3.org/Graphics/SVG/1.1/DTD/svg11.dtd">
<svg version="1.1" id="Layer_1" xmlns="http://www.w3.org/2000/svg" xmlns:xlink="http://www.w3.org/1999/xlink" x="0px" y="0px"
	 width="50px" height="50px" viewBox="-245.5 314.5 50 50" enable-background="new -245.5 314.5 50 50" xml:space="preserve">
<path d="M-230.65,333.962c-0.414-0.342-0.273-1.272,0.314-2.074c0.591-0.803,1.404-1.176,1.818-0.831
	c0.415,0.343,0.274,1.272-0.314,2.074C-229.421,333.935-230.235,334.307-230.65,333.962z M-218.683,327.281
	c0-0.776-0.592-1.406-1.322-1.406c-0.732,0-1.323,0.63-1.323,1.406s0.591,1.405,1.323,1.405
	C-219.274,328.687-218.683,328.058-218.683,327.281z M-235.566,344.064c-0.107,0-0.209-0.013-0.312-0.023
	c0.267,3.139,1.23,6.111,2.823,8.719c0.003-0.13,0-0.251,0.012-0.397l0.028-0.371l0.29-0.231c0.015-0.013,0.048-0.036,0.089-0.063
	c-1.306-2.329-2.102-4.939-2.341-7.686C-235.176,344.042-235.374,344.064-235.566,344.064z M-219.899,324.733
	c4.155,0,7.923,1.941,10.665,5.077c0.051-0.001,0.097-0.009,0.149-0.009c0.327,0,0.664,0.022,1.008,0.065l0.019-0.023
	c-2.939-3.682-7.152-6.01-11.841-6.01c-8.453,0-15.386,7.522-16.003,17.027c0.371-0.08,0.696-0.177,0.911-0.28
	C-234.267,331.705-227.777,324.733-219.899,324.733z M-229.242,338.714c1.221-4.962,4.945-8.583,9.343-8.583
	c0.723,0,1.426,0.105,2.104,0.29c0.61,0.156,2.41,0.831,3.327,1.367c0.177,0.063,0.313,0.152,0.415,0.249
	c0.111-0.124,0.23-0.243,0.353-0.363c-1.749-1.531-3.887-2.442-6.199-2.442c-5.06,0-9.299,4.32-10.387,10.092
	c0.045,0.007,0.088,0.01,0.133,0.018C-229.939,339.165-229.627,338.94-229.242,338.714z M-204.264,338.088
	c-0.098,0.507-0.305,0.98-0.692,1.294c0.133,0.931,0.22,1.879,0.22,2.852c0,3.668-0.973,7.166-2.816,10.146l-3.767-2.461
	c0.016-0.025,0.028-0.054,0.044-0.079c-0.097,0.003-0.189,0.007-0.294,0.007c-0.159,0-0.328-0.002-0.507-0.011l-0.243-0.011
	c-0.122,0.206-0.065,0.473,0.138,0.605l4.519,2.951c0.075,0.049,0.16,0.073,0.246,0.073c0.146,0,0.29-0.072,0.377-0.204
	c2.096-3.208,3.203-7.018,3.203-11.018C-203.837,340.807-203.993,339.423-204.264,338.088z M-227.539,349.721
	c-0.314,0.033-0.651,0.056-1.014,0.068c0.025,0.043,0.047,0.088,0.072,0.13l-0.545,0.355c0.043,0.294,0.078,0.643,0.1,1.011
	l1.308-0.854c0.209-0.137,0.267-0.415,0.131-0.623C-227.505,349.779-227.521,349.75-227.539,349.721z M-212.075,348.653
	c0,0-1.271,0.362-0.653-0.871l0.108-0.473c0,0-1.452,0.437-1.452-0.473c0,0-6.027,1.997-8.932,0.073c0,0-0.907-0.473-1.125,0.108
	c0,0-0.109,2.034-5.482,1.925c0,0-0.436-0.071-0.399,0.689c0,0,0.726,3.269-0.327,4.394s-1.415,1.489-1.524,0.764l-0.036-0.837
	c0,0-0.4-0.145-0.291-1.524c0,0,0.363-0.291,0.763-0.108c0,0,0.326-2.614-0.254-3.813c0,0-0.98-1.634,0.799-1.815
	c0,0,1.307,0.326,1.089-0.653c0,0-2.105-2.796-0.835-4.865c0,0-0.146-0.437-0.763,0.183c0,0-4.974,3.774-5.772,0.543
	c0,0,2.325-0.135,3.013-0.871c0.736-0.789,2.179-1.234,4.249-0.762c0,0,2.359-2.47,6.063-1.453c0,0,1.442,0.445,3.08,0.388
	c-0.531-0.594-1.416-0.718-1.416-0.718c-2.752-0.628-3.38-1.638-3.38-1.638c-0.976-1.046,0.697-2.335,0.697-2.335
	c-0.175-0.104-0.313-0.279-0.313-0.279c-0.628-0.383,2.194-0.801,2.194-0.801c-0.156-0.506,4.565-0.523,4.565-0.523
	c-0.243-1.08,0.732-1.637,0.732-1.637c2.091-0.872,2.579,1.288,2.579,1.288c0.696-0.034,0.559,0.396,0.426,0.496
	c-0.159,0.123-0.651,0.008-0.705,0.201c-0.07,0.253,0.126,0.841-0.035,1.046c-0.055,0.07-0.287,0.104-0.287,0.104
	c-0.174,0.366-0.088,0.565-0.191,0.558c-0.206-0.017-1.055-0.069-1.055-0.069c-0.104,0.383-1.882,1.813-1.882,1.813
	c0.115,0.414,1.44,0.437,2.326,0.403c0.612-0.624,1.311-1.438,1.632-2.182c0.546-1.262,1.625-3.024,3.555-3.832
	c0.013-0.012,0.021-0.028,0.034-0.04c0.112-0.094,0.257-0.13,0.416-0.123c0.881-0.28,1.918-0.371,3.147-0.145l1.162-1.451
	l0.036,1.09l0.763-0.836l-0.424,1.815c0,0,0.824,0.29,1.018,4.552c0,0,0.532,2.613-0.63,2.904c0,0-1.002,0.384-1.473-0.76
	c-0.533,0.106-1.23,0.221-2.105,0.303c-0.061,0.575-0.216,1.269-0.598,1.823c0,0-0.182,1.271,0.399,1.707
	c0,0,0.654,1.198-0.399,2.069c0,0-0.399,0.544,0.727,0.544c0,0,1.996-0.544,1.96,1.018c0,0,0.98,1.27-0.726,2.142l-1.634,1.017
	c0,0-0.727,0.327-2.396,0.255L-212.075,348.653z M-209.353,337.289c0,0,0.021,0.228,0.016,0.565c0.702-0.068,1.29-0.157,1.76-0.244
	c-0.385-0.303-1.251-1.092-1.194-2.028C-208.771,335.582-209.353,335.11-209.353,337.289z M-210.587,347.383
	c0,0,1.089,0.072,1.743-1.234C-208.844,346.148-210.296,346.584-210.587,347.383z M-217.836,338.309h-0.679l0.201,0.3
	C-218.148,338.521-217.989,338.421-217.836,338.309z"/>
</svg>
