<?xml version="1.0" encoding="utf-8"?>
<!-- Generator: Adobe Illustrator 16.0.0, SVG Export Plug-In . SVG Version: 6.00 Build 0)  -->
<!DOCTYPE svg PUBLIC "-//W3C//DTD SVG 1.1//EN" "http://www.w3.org/Graphics/SVG/1.1/DTD/svg11.dtd">
<svg version="1.1" id="Layer_1" xmlns="http://www.w3.org/2000/svg" xmlns:xlink="http://www.w3.org/1999/xlink" x="0px" y="0px"
	 width="50px" height="50px" viewBox="-175.5 314.5 50 50" enable-background="new -175.5 314.5 50 50" xml:space="preserve">
<path d="M-142.811,345.491c-2.263,1.223-2.482-1.001-2.482-1.001c-1.872-0.218-3.265-2.308-3.265-2.308
	c-2.525,1.306-1.119,4.99-0.028,6.404c1.399,1.813,0.375,4.746,0.375,4.746s-5.997-0.248-8.621-4.123
	c-2.657-3.921-0.782-6.983-0.782-6.983c-0.436-0.129-1.829,0.785-1.829,0.785c0.784-2.873,5.094-5.313,5.094-5.313
	c-0.478-0.176-1.828,0.172-1.828,0.172c3.527-3.393,7.837-2.132,7.837-2.132c0.13-0.74,2.265-2.046,2.265-2.046
	c-0.219,0.217-0.306,1.394-0.306,1.394c0.218-0.393,0.914-0.784,0.914-0.784c-0.392,0.913,0,2.872,0,2.872
	c1.133,1.133,2.395,5.052,2.395,5.052l0.479,0.696C-141.983,343.796-142.207,345.166-142.811,345.491z M-134.955,343.073
	c0,3.895-1.077,7.604-3.117,10.725l-4.499-2.938c1.466-2.246,2.242-4.938,2.242-7.786c0-6.892-4.563-12.498-10.171-12.498
	s-10.171,5.606-10.171,12.498c0,2.848,0.776,5.54,2.242,7.786l-4.499,2.938c-2.04-3.121-3.117-6.83-3.117-10.725
	c0-9.854,6.973-17.871,15.545-17.871S-134.955,333.22-134.955,343.073z M-162.04,340.492c0.046-1.011-0.34-1.853-0.863-1.88
	s-0.984,0.772-1.031,1.785c-0.047,1.012,0.34,1.854,0.863,1.88C-162.547,342.305-162.085,341.506-162.04,340.492z M-159.08,331.945
	c-0.413-0.343-1.223,0.028-1.811,0.827c-0.586,0.799-0.726,1.725-0.313,2.066c0.413,0.343,1.224-0.028,1.81-0.828
	C-158.807,333.213-158.667,332.286-159.08,331.945z M-149.288,328.187c0-0.773-0.59-1.399-1.317-1.399
	c-0.729,0-1.317,0.626-1.317,1.399c0,0.772,0.588,1.399,1.317,1.399C-149.877,329.586-149.288,328.959-149.288,328.187z
	 M-140.11,332.772c-0.588-0.799-1.397-1.17-1.811-0.827c-0.413,0.341-0.273,1.268,0.313,2.065c0.586,0.8,1.397,1.171,1.81,0.828
	C-139.384,334.497-139.524,333.571-140.11,332.772z M-137.066,340.397c-0.046-1.013-0.507-1.813-1.031-1.785s-0.91,0.869-0.863,1.88
	c0.045,1.014,0.507,1.813,1.031,1.785C-137.406,342.252-137.019,341.409-137.066,340.397z"/>
</svg>
