<?xml version="1.0" encoding="utf-8"?>
<!-- Generator: Adobe Illustrator 16.0.0, SVG Export Plug-In . SVG Version: 6.00 Build 0)  -->
<!DOCTYPE svg PUBLIC "-//W3C//DTD SVG 1.1//EN" "http://www.w3.org/Graphics/SVG/1.1/DTD/svg11.dtd">
<svg version="1.1" id="Layer_1" xmlns="http://www.w3.org/2000/svg" xmlns:xlink="http://www.w3.org/1999/xlink" x="0px" y="0px"
	 width="50px" height="50px" viewBox="-105.5 314.5 50 50" enable-background="new -105.5 314.5 50 50" xml:space="preserve">
<path d="M-78.788,347.032c1.391,1.802,0.372,4.717,0.372,4.717s-5.673-0.459-8.568-4.098c-2.173-2.73-1.614-5.313-0.994-7.016
	c0.745-2.05,1.752-3.173,3.221-4.368c2.181-1.779,6.213-2.003,6.213-2.003c0.027-0.151,0.14-0.327,0.298-0.51
	c-0.483,0.017-1.071,0.055-1.743,0.142c-0.461,0.088-0.969,0.14-1.486,0.292c-0.525,0.113-1.061,0.295-1.608,0.507
	c-0.548,0.202-1.084,0.492-1.615,0.794c-0.504,0.349-1.04,0.675-1.462,1.138c-0.487,0.396-0.841,0.91-1.205,1.404
	c-0.379,0.484-0.565,1.072-0.848,1.584c-0.212,0.543-0.33,1.102-0.489,1.611c-0.143,0.518-0.141,1.035-0.212,1.496
	c-0.061,0.467-0.108,0.893-0.074,1.276c0.011,0.382,0.021,0.714,0.029,0.987c0.016,0.548,0.025,0.859,0.025,0.859l-0.074,0.01
	c0,0-0.066-0.307-0.152-0.858c-0.041-0.28-0.089-0.614-0.146-1.001c-0.081-0.388-0.084-0.83-0.049-1.315
	c0.039-0.482,0.002-1.018,0.113-1.571c0.126-0.55,0.207-1.153,0.428-1.734c0.285-0.558,0.477-1.193,0.872-1.729
	c0.378-0.548,0.754-1.119,1.271-1.562c0.477-0.489,1.061-0.83,1.613-1.19c0.576-0.312,1.158-0.602,1.74-0.802
	c0.58-0.219,1.161-0.358,1.715-0.44c0.548-0.12,1.077-0.138,1.557-0.193c0.817-0.039,1.501,0,2.031,0.056
	c0.667-0.638,1.722-1.284,1.722-1.284c-0.217,0.214-0.303,1.385-0.303,1.385c0.216-0.391,0.909-0.779,0.909-0.779
	c-0.389,0.906,0,2.853,0,2.853c1.126,1.129,2.38,5.021,2.38,5.021l0.477,0.692c0.606,0.869,0.383,2.229-0.216,2.553
	c-2.25,1.215-2.467-0.993-2.467-0.993c-1.86-0.217-3.246-2.296-3.246-2.296C-81.271,341.965-79.872,345.626-78.788,347.032z
	 M-64.9,348.747v5.399h-10.853l2.728-4.176c1.474-2.257,2.253-4.962,2.253-7.823c0-6.924-4.584-12.557-10.22-12.557
	c-5.636,0-10.22,5.633-10.22,12.557c0,2.861,0.779,5.566,2.253,7.823l2.728,4.176h-11.063v-5.399h1.774
	c-0.72-2.081-1.091-4.309-1.091-6.6c0-9.9,7.006-17.956,15.619-17.956s15.619,8.056,15.619,17.956c0,2.291-0.371,4.519-1.091,6.6
	H-64.9z M-92.586,339.555c0.046-1.016-0.342-1.862-0.868-1.89c-0.526-0.027-0.989,0.776-1.036,1.794
	c-0.048,1.017,0.342,1.863,0.867,1.89C-93.096,341.376-92.632,340.572-92.586,339.555z M-89.613,330.967
	c-0.415-0.345-1.229,0.028-1.819,0.831c-0.589,0.803-0.729,1.733-0.315,2.076c0.415,0.344,1.229-0.028,1.819-0.832
	C-89.339,332.24-89.198,331.31-89.613,330.967z M-79.774,327.189c0-0.776-0.592-1.405-1.323-1.405c-0.732,0-1.323,0.629-1.323,1.405
	c0,0.777,0.591,1.406,1.323,1.406C-80.367,328.596-79.774,327.967-79.774,327.189z M-70.553,331.798
	c-0.59-0.803-1.404-1.176-1.819-0.831c-0.415,0.343-0.274,1.273,0.314,2.075c0.59,0.804,1.404,1.176,1.819,0.832
	C-69.823,333.531-69.964,332.601-70.553,331.798z M-67.495,339.459c-0.046-1.018-0.51-1.821-1.036-1.794
	c-0.525,0.027-0.914,0.874-0.867,1.89c0.046,1.018,0.51,1.821,1.036,1.794C-67.836,341.322-67.447,340.476-67.495,339.459z"/>
</svg>
