<?xml version="1.0" encoding="utf-8"?>
<!-- Generator: Adobe Illustrator 16.0.0, SVG Export Plug-In . SVG Version: 6.00 Build 0)  -->
<!DOCTYPE svg PUBLIC "-//W3C//DTD SVG 1.1//EN" "http://www.w3.org/Graphics/SVG/1.1/DTD/svg11.dtd">
<svg version="1.1" id="Layer_1" xmlns="http://www.w3.org/2000/svg" xmlns:xlink="http://www.w3.org/1999/xlink" x="0px" y="0px"
	 width="50px" height="50px" viewBox="-35.5 314.5 50 50" enable-background="new -35.5 314.5 50 50" xml:space="preserve">
<path d="M-8.679,343.781c1.215,1.572,0.325,4.119,0.325,4.119s-4.953-0.402-7.481-3.579c-1.898-2.384-1.409-4.638-0.868-6.127
	c0.65-1.788,1.529-2.77,2.813-3.814c1.904-1.553,5.425-1.749,5.425-1.749c0.113-0.642,1.966-1.774,1.966-1.774
	c-0.189,0.188-0.265,1.208-0.265,1.208c0.188-0.341,0.793-0.68,0.793-0.68c-0.34,0.792,0,2.492,0,2.492
	c0.983,0.983,2.078,4.385,2.078,4.385l0.416,0.604c0.529,0.759,0.335,1.947-0.189,2.229c-1.964,1.06-2.153-0.869-2.153-0.869
	c-1.625-0.189-2.833-2.002-2.833-2.002C-10.846,339.356-9.625,342.554-8.679,343.781z M-9.113,331.853
	c0-0.27-0.218-0.487-0.487-0.487s-0.488,0.218-0.488,0.487s0.219,0.488,0.488,0.488S-9.113,332.122-9.113,331.853z M-11.227,332.232
	c0-0.269-0.22-0.487-0.489-0.487s-0.487,0.219-0.487,0.487c0,0.27,0.218,0.488,0.487,0.488S-11.227,332.502-11.227,332.232z
	 M-13.45,333.48c0.27,0,0.488-0.219,0.488-0.488s-0.219-0.489-0.488-0.489s-0.487,0.22-0.487,0.489S-13.72,333.48-13.45,333.48z
	 M-14.588,333.967c0-0.27-0.219-0.486-0.488-0.486s-0.488,0.217-0.488,0.486s0.219,0.488,0.488,0.488
	S-14.588,334.236-14.588,333.967z M-16.323,335.812c0.27,0,0.488-0.219,0.488-0.488s-0.219-0.488-0.488-0.488
	s-0.487,0.219-0.487,0.488S-16.593,335.812-16.323,335.812z M-16.757,336.95c0-0.27-0.219-0.488-0.487-0.488
	c-0.27,0-0.489,0.219-0.489,0.488c0,0.269,0.22,0.486,0.489,0.486C-16.976,337.437-16.757,337.219-16.757,336.95z M-17.407,338.901
	c0-0.27-0.219-0.488-0.488-0.488s-0.488,0.219-0.488,0.488s0.219,0.488,0.488,0.488S-17.407,339.171-17.407,338.901z
	 M-18.709,341.015c0,0.27,0.219,0.489,0.488,0.489s0.487-0.22,0.487-0.489c0-0.269-0.218-0.486-0.487-0.486
	S-18.709,340.746-18.709,341.015z M-17.841,343.455c0.27,0,0.488-0.219,0.488-0.487c0-0.27-0.219-0.487-0.488-0.487
	c-0.269,0-0.488,0.218-0.488,0.487C-18.329,343.236-18.109,343.455-17.841,343.455z M2.53,347.616
	c0.813,0.878,1.315,2.049,1.315,3.338c0,2.714-2.207,4.922-4.922,4.922s-4.923-2.208-4.923-4.922c0-2.253,1.523-4.153,3.593-4.734
	c0.974-1.878,1.49-4.014,1.49-6.257c0-6.493-4.299-11.775-9.584-11.775s-9.584,5.282-9.584,11.775c0,2.243,0.517,4.379,1.49,6.257
	c2.069,0.581,3.593,2.481,3.593,4.734c0,2.714-2.208,4.922-4.923,4.922s-4.922-2.208-4.922-4.922c0-1.289,0.502-2.46,1.315-3.338
	c-1.058-2.358-1.617-4.954-1.617-7.653c0-9.284,6.57-16.839,14.647-16.839s14.647,7.555,14.647,16.839
	C4.147,342.662,3.588,345.258,2.53,347.616z M-23.158,337.442c-0.045,0.953,0.32,1.746,0.813,1.771s0.929-0.728,0.972-1.683
	c0.044-0.951-0.321-1.745-0.813-1.771C-22.681,335.735-23.114,336.487-23.158,337.442z M-23.158,350.954
	c0,1.783,1.451,3.234,3.234,3.234s3.234-1.451,3.234-3.234c0-1.784-1.451-3.234-3.234-3.234S-23.158,349.17-23.158,350.954z
	 M-18.584,329.478c-0.39-0.322-1.152,0.026-1.707,0.78c-0.552,0.752-0.684,1.624-0.295,1.946c0.39,0.323,1.153-0.027,1.707-0.779
	C-18.327,330.672-18.195,329.799-18.584,329.478z M-9.357,325.936c0-0.729-0.556-1.318-1.241-1.318c-0.687,0-1.241,0.59-1.241,1.318
	c0,0.729,0.555,1.319,1.241,1.319C-9.913,327.255-9.357,326.665-9.357,325.936z M-0.414,332.204
	c0.389-0.322,0.257-1.194-0.295-1.946c-0.555-0.754-1.317-1.103-1.707-0.78c-0.389,0.321-0.257,1.194,0.295,1.947
	C-1.567,332.177-0.804,332.527-0.414,332.204z M2.158,350.954c0-1.784-1.451-3.234-3.234-3.234s-3.234,1.45-3.234,3.234
	c0,1.783,1.451,3.234,3.234,3.234S2.158,352.737,2.158,350.954z M2.158,337.442c-0.044-0.955-0.479-1.707-0.972-1.682
	c-0.492,0.025-0.857,0.819-0.813,1.771c0.043,0.955,0.479,1.708,0.972,1.683S2.203,338.396,2.158,337.442z"/>
</svg>
