<?xml version="1.0" encoding="utf-8"?>
<!-- Generator: Adobe Illustrator 16.0.0, SVG Export Plug-In . SVG Version: 6.00 Build 0)  -->
<!DOCTYPE svg PUBLIC "-//W3C//DTD SVG 1.1//EN" "http://www.w3.org/Graphics/SVG/1.1/DTD/svg11.dtd">
<svg version="1.1" id="Layer_1" xmlns="http://www.w3.org/2000/svg" xmlns:xlink="http://www.w3.org/1999/xlink" x="0px" y="0px"
	 width="50px" height="50px" viewBox="34.5 314.5 50 50" enable-background="new 34.5 314.5 50 50" xml:space="preserve">
<path d="M51.099,345.82c0.273,0.657,0.597,1.289,0.984,1.882l-3.888,2.54c-0.512-0.783-0.944-1.613-1.313-2.473
	c1.48-0.521,2.391-1.681,2.601-3.408c0.02-0.163,0.025-0.39,0.031-0.646c0.003-0.196,0.009-0.373,0.02-0.534
	C49.739,343.951,50.192,344.872,51.099,345.82z M69.256,334.89c-0.676,0-1.153-0.407-1.408-0.923
	c-0.327-0.003-0.741-0.248-1.093-0.659c-0.187-0.141-0.359-0.288-0.503-0.431c-0.016,0.045-0.03,0.095-0.042,0.148
	c-0.198,0.89,0.319,2.322,0.748,2.879c0.765,0.991,0.943,2.51,0.979,3.368c0.14,0.02,0.289,0.029,0.449,0.029
	c0.21,0,0.41-0.018,0.591-0.043c-0.037-0.161-0.063-0.333-0.071-0.515c-0.041-0.874,0.294-1.602,0.746-1.625
	s0.851,0.668,0.891,1.543c0.006,0.121,0.002,0.239-0.006,0.354c0.01-0.001,0.021-0.004,0.031-0.004c0.874,0,1.414,0.303,1.743,0.668
	c-0.147-2.017-0.635-3.921-1.393-5.645c-0.133,0.226-0.303,0.408-0.515,0.522C69.989,334.782,69.614,334.89,69.256,334.89z
	 M59.56,330.16l-0.167,0.043c0.043,0.003,0.085,0.005,0.125,0.008C59.533,330.194,59.546,330.177,59.56,330.16z M45.537,342.01
	c-0.02-0.344-0.035-0.688-0.035-1.036c0-8.515,6.025-15.442,13.433-15.442c1.805,0,3.526,0.418,5.1,1.163
	c-1.006,0.175-2.177,0.622-3.251,1.657l-1.896,1.826c-4.184,0.028-7.681,3.663-8.537,8.5c-0.38,0.047-0.872,0.154-1.415,0.363
	c0.014-0.096,0.023-0.195,0.028-0.297c0.04-0.874-0.294-1.602-0.745-1.625c-0.453-0.023-0.852,0.668-0.892,1.543
	c-0.021,0.443,0.056,0.849,0.195,1.145c-0.416,0.302-0.83,0.682-1.224,1.16l-0.042,0.05l-0.031,0.056
	C46.104,341.283,45.855,341.645,45.537,342.01z M57.705,328.11c0,0.668,0.509,1.209,1.139,1.209c0.629,0,1.139-0.541,1.139-1.209
	c0-0.669-0.51-1.21-1.139-1.21C58.214,326.9,57.705,327.441,57.705,328.11z M49.686,333.858c0.357,0.296,1.058-0.024,1.564-0.715
	s0.627-1.49,0.271-1.786c-0.357-0.296-1.058,0.024-1.564,0.716C49.449,332.763,49.329,333.563,49.686,333.858z M69.641,348.355
	c-0.186,0.105-0.384,0.16-0.581,0.16c-0.288,0-0.557-0.119-0.754-0.336c-0.401-0.439-0.415-1.209-0.381-1.67
	c-0.04-0.61,0.103-1.098,0.425-1.451c0.104-0.112,0.225-0.208,0.359-0.284c0.008-0.219,0.035-0.411,0.056-0.527
	c0.16-0.647,0.085-1.096-0.041-1.391c-0.374,0.247-0.813,0.402-1.224,0.503c-0.292,1.569-0.866,3.044-1.713,4.343l3.887,2.54
	c0.527-0.808,0.971-1.665,1.347-2.554c-0.178-0.192-0.31-0.414-0.393-0.662C70.374,347.929,69.727,348.309,69.641,348.355z
	 M72.933,343.048c0,0-0.737-0.881-0.966-2.356c0,0-0.057-1.163-2.016-0.852c0,0-1.562,0.512-2.781,0.028
	c0,0,0.087-2.309-0.826-3.492c-0.709-0.922-1.701-3.804-0.054-4.655c0,0,0.907,1.36,2.129,1.505c0,0,0.142,1.447,1.617,0.652
	c0.394-0.213,0.539-1.106,0.144-1.674l-0.314-0.456c0,0-0.822-2.555-1.562-3.295c0,0-0.256-1.274,0-1.871
	c0,0-0.455,0.255-0.595,0.51c0,0,0.057-0.768,0.198-0.908c0,0-1.391,0.853-1.476,1.334c0,0-2.813-0.823-5.112,1.392
	c0,0,0.883-0.228,1.192-0.114c0,0-2.811,1.59-3.321,3.464c0,0,0.909-0.598,1.191-0.511c0,0-2.016,1.76-1.646,4.827
	c0,0-0.227,0.624-2.584,0.737c0,0-3.663,0.029-5.082,2.102c0,0-2.355-0.171-4.175,2.044c0,0-1.616,2.812-3.547,2.441
	c0,0,1.901,0.88,2.811,0.087c0,0-0.342,1.505-5.283,2.525c0,0,7.219,2.874,7.839-2.242c0.097-0.812-0.229-3.38,1.503-2.897
	c0,0-0.794,2.669,2.981,5.196c0,0,0.881,1.023-0.083,3.208c0,0-0.484,1.535,1.417,1.733c0,0,1.761,0.737,2.499,2.299
	c0,0,0.624,0.313,1.107,0.313c0,0,0.341,1.248,0.995,1.049c0,0,1.815-0.17,1.134-0.908l-0.255-0.397c0,0,0.88,0.229,0-0.936
	c0,0-0.425-0.54-2.043-0.513c0,0-0.314-0.681-1.903-1.334c0,0-1.079-0.54,0.284-2.81c0,0,0.653-1.96,1.079-2.273
	c0,0-0.086-1.134,0.34-1.617c0,0,2.896,1.675,7.524-2.441l0.88,0.824c0,0,2.101-0.057,2.583-1.052c0,0,1.251,0.737,0.769,2.669
	c0,0-0.115,0.653,0.026,0.965c0,0-0.964-0.114-0.852,1.164c0,0-0.141,1.563,0.568,1.165c0,0,0.625-0.342,0.682-1.278
	c0,0,0.285-0.825,0.738-1.136c0,0,0.455-0.568-0.114-1.477c0,0-0.227-0.738-0.255-1.449c0,0-0.169-0.823-0.369-0.992
	c0,0,1.987-0.34,2.043,3.576l-0.339,0.115c0,0-0.995,1.76,0.312,2.413c0,0,0.455,0.198,0.653-0.511l0.141-1.534
	C72.761,345.404,73.442,344.127,72.933,343.048z"/>
</svg>
