<?xml version="1.0" encoding="utf-8"?>
<!-- Generator: Adobe Illustrator 16.0.0, SVG Export Plug-In . SVG Version: 6.00 Build 0)  -->
<!DOCTYPE svg PUBLIC "-//W3C//DTD SVG 1.1//EN" "http://www.w3.org/Graphics/SVG/1.1/DTD/svg11.dtd">
<svg version="1.1" id="Layer_1" xmlns="http://www.w3.org/2000/svg" xmlns:xlink="http://www.w3.org/1999/xlink" x="0px" y="0px"
	 width="50px" height="50px" viewBox="104.5 314.5 50 50" enable-background="new 104.5 314.5 50 50" xml:space="preserve">
<path d="M144.062,347.743c0.698-2.018,1.058-4.177,1.058-6.397c0-9.598-6.792-17.407-15.142-17.407
	c-8.351,0-15.143,7.81-15.143,17.407c0,2.221,0.359,4.38,1.058,6.397h-1.72v5.234h10.726l-0.938-1.434
	c2.054-1.402,3.249-2.919,3.249-2.919c2.16,0.714,4.728-2.16,4.728-2.16c0.99-0.636,0.736,1.984,0.736,1.984
	c-0.303,0.33-0.712,1.193-0.712,1.193l-1.246-0.051c-0.835,0.381-0.658,2.212-0.658,2.212c1.041,0,2.54-1.449,2.54-1.449
	c1.169-0.457,1.295-0.966,1.295-0.966v-2.821c0.026-1.753-0.174-1.799-0.659-1.829c-0.697-0.042-2.796-0.024-2.796-0.024
	c-0.356-0.586-0.48-3.051-0.278-4.041c0.67-3.299,3.074-2.186,3.074-2.186c0.28,2.745,3.101,2.847,3.101,2.847
	c0.229,2.135,1.332,1.253,1.83,1.066c0.72-0.271,0.559-0.711,0.559-0.711c-0.151-0.915-1.372-4.428-1.83-5.743
	c-0.406-1.171-1.465-2.384-2.109-2.974c0,0,0.159,0.46,0.103,0.585c-0.154,0.331-0.277,0.203-0.277,0.203
	c-2.492-2.161-4.856-1.55-4.856-1.55c1.22,0.076,1.677,1.041,1.677,1.041c-1.677-0.813-1.98-0.652-2.82-0.356
	c-2.131,0.757-4.169,0.688-4.169,0.688c0.737,0.991,2.011,0.966,2.011,0.966c-0.942,0.398-1.365,0.383-1.679,0.481
	c-1.523,0.482-1.931,1.652-1.931,1.652c1.118,0-0.865,2.566-0.865,2.566c1.372-0.762,1.661-0.47,1.628-0.457
	c-1.501,0.61-1.932,1.728-1.932,1.728c-0.372,0.796-0.929,1.528-1.533,2.173c-0.042-0.444-0.069-0.893-0.069-1.347
	c0-6.713,4.444-12.173,9.908-12.173c5.463,0,9.907,5.46,9.907,12.173c0,2.773-0.756,5.396-2.184,7.584l-2.646,4.048h10.521v-5.234
	H144.062z M117.732,340.571c-0.509-0.026-0.886-0.847-0.84-1.832c0.045-0.987,0.493-1.765,1.004-1.738
	c0.509,0.025,0.886,0.847,0.841,1.831C118.692,339.818,118.242,340.598,117.732,340.571z M121.314,332.519
	c-0.571,0.778-1.361,1.14-1.763,0.806c-0.402-0.332-0.266-1.234,0.305-2.013c0.572-0.777,1.361-1.14,1.764-0.805
	C122.021,330.839,121.887,331.741,121.314,332.519z M129.875,328.208c-0.71,0-1.282-0.61-1.282-1.362
	c0-0.754,0.572-1.364,1.282-1.364c0.709,0,1.282,0.61,1.282,1.364C131.157,327.598,130.584,328.208,129.875,328.208z
	 M140.402,333.324c-0.401,0.334-1.191-0.027-1.763-0.806c-0.57-0.777-0.707-1.68-0.305-2.012c0.401-0.335,1.19,0.027,1.763,0.805
	C140.668,332.09,140.805,332.992,140.402,333.324z M142.222,340.571c-0.51,0.026-0.96-0.753-1.004-1.739
	c-0.046-0.984,0.331-1.806,0.84-1.831c0.511-0.026,0.96,0.751,1.005,1.738C143.109,339.725,142.731,340.545,142.222,340.571z"/>
</svg>
