<?xml version="1.0" encoding="utf-8"?>
<!-- Generator: Adobe Illustrator 16.0.0, SVG Export Plug-In . SVG Version: 6.00 Build 0)  -->
<!DOCTYPE svg PUBLIC "-//W3C//DTD SVG 1.1//EN" "http://www.w3.org/Graphics/SVG/1.1/DTD/svg11.dtd">
<svg version="1.1" id="Layer_1" xmlns="http://www.w3.org/2000/svg" xmlns:xlink="http://www.w3.org/1999/xlink" x="0px" y="0px"
	 width="50px" height="50px" viewBox="174.5 314.5 50 50" enable-background="new 174.5 314.5 50 50" xml:space="preserve">
<path d="M201.912,344.937c1.227,1.589,0.328,4.157,0.328,4.157s-4.998-0.405-7.55-3.609c-1.915-2.406-1.42-4.683-0.875-6.184
	c0.656-1.805,1.544-2.794,2.838-3.85c1.922-1.567,5.475-1.766,5.475-1.766c0.023-0.131,0.133-0.287,0.271-0.446
	c-0.428,0.012-0.949,0.047-1.545,0.124c-0.406,0.077-0.854,0.123-1.309,0.255c-0.464,0.101-0.936,0.263-1.419,0.446
	c-0.481,0.181-0.954,0.436-1.423,0.7c-0.443,0.31-0.915,0.596-1.289,1.004c-0.428,0.348-0.74,0.802-1.061,1.238
	c-0.335,0.425-0.498,0.944-0.749,1.394c-0.185,0.479-0.289,0.972-0.429,1.422c-0.127,0.455-0.125,0.909-0.188,1.318
	c-0.055,0.41-0.095,0.786-0.064,1.124c0.01,0.335,0.018,0.629,0.025,0.87c0.015,0.481,0.023,0.759,0.023,0.759l-0.067,0.006
	c0,0-0.058-0.271-0.132-0.758c-0.036-0.243-0.08-0.54-0.129-0.881c-0.073-0.339-0.075-0.73-0.044-1.157
	c0.024-0.308,0.028-0.641,0.058-0.983l-0.801-0.019l0.82-1.005l-0.861-0.123l1.229-0.944l-0.901-0.286l1.272-0.698l-0.965-0.287
	l1.662-0.533l-1.149-0.328l1.867-0.514l-1.026-0.471l1.889-0.248l-0.923-0.532l2.303-0.24c0.01-0.006,0.021-0.011,0.032-0.016
	l-1.064-0.482l2.421-0.205l-1.107-0.574l4.58,0.363c0.248,0.01,0.464,0.03,0.661,0.052c0.589-0.564,1.515-1.135,1.515-1.135
	c-0.191,0.189-0.268,1.22-0.268,1.22c0.188-0.343,0.8-0.686,0.8-0.686c-0.342,0.8,0,2.515,0,2.515
	c0.992,0.992,2.098,4.424,2.098,4.424l0.421,0.611c0.533,0.765,0.336,1.964-0.193,2.248c-1.98,1.07-2.172-0.876-2.172-0.876
	c-1.639-0.191-2.857-2.021-2.857-2.021C199.725,340.473,200.958,343.698,201.912,344.937z M213.084,349.064
	c0.849,0.915,1.371,2.137,1.371,3.479c0,2.83-2.301,5.132-5.131,5.132s-5.132-2.302-5.132-5.132c0-2.349,1.588-4.329,3.745-4.936
	c1.016-1.958,1.554-4.184,1.554-6.521c0-6.77-4.481-12.276-9.991-12.276s-9.991,5.507-9.991,12.276c0,2.338,0.539,4.563,1.554,6.521
	c2.157,0.606,3.745,2.587,3.745,4.936c0,2.83-2.302,5.132-5.132,5.132s-5.131-2.302-5.131-5.132c0-1.343,0.522-2.564,1.371-3.479
	c-1.102-2.457-1.686-5.164-1.686-7.978c0-9.68,6.85-17.555,15.27-17.555s15.27,7.875,15.27,17.555
	C214.77,343.9,214.186,346.607,213.084,349.064z M186.304,338.458c-0.046,0.994,0.335,1.821,0.849,1.848
	c0.515,0.026,0.968-0.759,1.013-1.754c0.046-0.993-0.334-1.82-0.848-1.847C186.803,336.679,186.35,337.464,186.304,338.458z
	 M186.304,352.544c0,1.859,1.514,3.372,3.372,3.372c1.859,0,3.372-1.513,3.372-3.372c0-1.858-1.513-3.372-3.372-3.372
	C187.817,349.172,186.304,350.686,186.304,352.544z M191.072,330.156c-0.405-0.337-1.201,0.027-1.778,0.813
	c-0.576,0.784-0.713,1.694-0.308,2.029c0.405,0.337,1.202-0.027,1.778-0.813C191.34,331.4,191.478,330.491,191.072,330.156z
	 M200.69,326.464c0-0.76-0.579-1.375-1.294-1.375s-1.293,0.615-1.293,1.375c0,0.759,0.578,1.374,1.293,1.374
	S200.69,327.223,200.69,326.464z M210.014,332.998c0.405-0.335,0.269-1.245-0.308-2.029c-0.577-0.785-1.373-1.149-1.778-0.813
	c-0.405,0.335-0.268,1.244,0.308,2.029C208.812,332.971,209.608,333.335,210.014,332.998z M212.696,352.544
	c0-1.858-1.514-3.372-3.372-3.372c-1.859,0-3.372,1.514-3.372,3.372c0,1.859,1.513,3.372,3.372,3.372
	C211.183,355.916,212.696,354.403,212.696,352.544z M212.696,338.458c-0.046-0.994-0.499-1.779-1.014-1.753
	c-0.514,0.026-0.894,0.854-0.848,1.847c0.045,0.995,0.498,1.78,1.013,1.754C212.361,340.279,212.742,339.452,212.696,338.458z"/>
</svg>
