<?xml version="1.0" encoding="utf-8"?>
<!-- Generator: Adobe Illustrator 16.0.0, SVG Export Plug-In . SVG Version: 6.00 Build 0)  -->
<!DOCTYPE svg PUBLIC "-//W3C//DTD SVG 1.1//EN" "http://www.w3.org/Graphics/SVG/1.1/DTD/svg11.dtd">
<svg version="1.1" id="Layer_1" xmlns="http://www.w3.org/2000/svg" xmlns:xlink="http://www.w3.org/1999/xlink" x="0px" y="0px"
	 width="50px" height="50px" viewBox="244.5 314.5 50 50" enable-background="new 244.5 314.5 50 50" xml:space="preserve">
<path d="M283.375,351.543l2.227-0.046l-0.127-6.069l-1.342,0.028c0.548-1.905,0.805-3.9,0.762-5.942
	c-0.205-9.778-7.316-17.587-15.853-17.407c-8.536,0.178-15.313,8.277-15.108,18.056c0.043,2.043,0.383,4.025,1.01,5.905
	l-1.545,0.032l0.128,6.069l11.893-0.25l-3.164-4.629c-0.689-1.009-1.226-2.123-1.604-3.309c0.021,0.012,0.035,0.023,0.056,0.035
	c0,0,1.108,1.653,1.357,0.251c0,0,0.328,0.224,0.363-0.381l-0.104-0.649c0,0,0.982,0.306,1.954-0.042c0,0,2.028,3.451,5.976,5.138
	c0,0-0.977,2.35-0.563,4.297c0,0-0.949,1.37-2.893,1.97c0,0-1.298,0.261-1.928,1.345c0,0-1.376,1.006,1.277,0.951
	c0,0,1.344-0.262,1.969-1.578c0,0,4.679-1.218,4.649-2.659c0,0-0.503-1.618,0.854-1.368c0,0,0.245-0.019,0.628-0.086l-0.335,0.537
	l5.16-0.108c0.393,0.326,0.967,0.535,1.828,0.482c0.932-0.058,2.692-0.521,3.343,1.652
	C284.243,353.768,284.36,352.611,283.375,351.543z M261.539,347.779l2.26,3.306l-9.424,0.198l-0.091-4.333l1.885-0.041l-0.211-0.57
	c-0.724-1.956-1.112-4.041-1.157-6.195c-0.195-9.299,6.202-17.003,14.26-17.171c8.058-0.169,14.771,7.259,14.967,16.558
	c0.045,2.154-0.256,4.254-0.896,6.239l-0.187,0.579l1.682-0.035l0.09,4.333l-2.452,0.053c-0.274-0.149-0.58-0.288-0.934-0.41
	c-0.893-0.305-2.16-0.792-2.436-2.882c0,0,0.027-0.706-0.357-1.725c0.804-1.859,1.201-3.922,1.156-6.061
	c-0.145-6.909-4.875-12.434-10.542-12.315c-1.371,0.029-2.67,0.392-3.854,1.013c-0.621-0.344-1.338-0.648-2.189-0.886l-0.722-1.149
	l-0.439,1.359c0,0-0.842-0.167-1.343,0.309l0.747,0.217c0,0-1.001,1.092-1.884,3.439c0,0-1.361,1.61,0.15,2.557
	c0,0,0.222,0.187,0.544,0.14c-0.483,1.211-0.806,2.531-0.943,3.922c-0.187,0.025-0.386,0.124-0.58,0.385
	c0,0-1.051,0.999-0.563,2.014l1.31,2.441c0,0,0.06,0.053,0.146,0.127C259.923,344.854,260.599,346.404,261.539,347.779z
	 M260.139,341.687c-0.035-0.258-0.067-0.515-0.089-0.775c0.558,1.062,0.741,1.59,0.741,1.59
	C260.512,342.294,260.303,341.998,260.139,341.687z M262.961,336.052c0,0-1.748,1.063-1.607,3.293c0,0-0.572-0.038-1.303-0.751
	c0.143-1.809,0.619-3.498,1.358-4.969c0.481-0.037,1.277-0.237,1.757-1.117C263.166,332.508,262.467,334.757,262.961,336.052z
	 M272.242,330.624c-1.35-0.367-2.226,1.238-2.226,1.238l-0.565,0.185l0.721,0.323c-0.109,0.159,0.16,0.95,0.16,0.95l-0.142,0.309
	l0.395,0.404c0.136,0.733,1.127,0.565,1.127,0.565c-0.445,0.403-0.348,1.345-0.348,1.345c-0.345,1.023-1.135,1.072-1.893,0.828
	c-0.176-0.559-0.313-1.188-0.389-1.92c-0.183-1.778-0.58-4.256-2.92-5.988c0.94-0.42,1.949-0.667,3.006-0.689
	c5.189-0.108,9.522,5.035,9.657,11.467c0.036,1.742-0.243,3.426-0.807,4.98c-0.622-1.05-1.679-2.247-3.503-3.321
	c2.449,0.163,2.325-3.429,2.325-3.429c-0.28-3.086-3.191-4.636-3.191-4.636C273.644,331.276,272.958,330.815,272.242,330.624z
	 M278.323,349.096c0,0-0.145,0.874,0.156,1.684l-2.838,0.059C276.543,350.521,277.567,349.989,278.323,349.096z"/>
</svg>
