<?xml version="1.0" encoding="utf-8"?>
<!-- Generator: Adobe Illustrator 16.0.0, SVG Export Plug-In . SVG Version: 6.00 Build 0)  -->
<!DOCTYPE svg PUBLIC "-//W3C//DTD SVG 1.1//EN" "http://www.w3.org/Graphics/SVG/1.1/DTD/svg11.dtd">
<svg version="1.1" id="Layer_1" xmlns="http://www.w3.org/2000/svg" xmlns:xlink="http://www.w3.org/1999/xlink" x="0px" y="0px"
	 width="50px" height="50px" viewBox="-105.5 -315.5 50 50" enable-background="new -105.5 -315.5 50 50" xml:space="preserve">
<path d="M-62.24-288.942l-1.44-1.501c-0.055-0.058-0.13-0.091-0.21-0.092l-4.823-0.1l0.014-6.275
	c1.332,0.379,2.707-0.052,3.119-0.205c0.981,0.392,1.732,0.398,2.233,0.018c0.722-0.546,0.595-1.651,0.589-1.698
	c-0.012-0.097-0.07-0.182-0.156-0.228c-0.906-0.487-5.391-2.823-6.275-3.283l-0.133-2.389c-0.007-0.138-0.109-0.253-0.245-0.278
	c-0.14-0.025-0.272,0.047-0.328,0.173l-0.616,1.385l-0.187-1.551c-0.016-0.133-0.118-0.239-0.25-0.261
	c-0.131-0.018-0.262,0.048-0.319,0.168l-1.21,2.571c-0.833,0.512-1.296,1.757-1.606,2.59l-0.117,0.31
	c-1.451,3.715-1.523,3.732-2.731,4.019c-3.297,0.782-5.443,0.296-7.715-0.216l-0.374-0.084c-1.523-0.342-4.057,0.012-5.752,1.34
	c-0.362,0.283-0.667,0.604-0.925,0.951c-0.018,0-0.031-0.014-0.049-0.01c-0.038,0.007-3.769,0.793-3.567,4.027
	c0.241,3.884-0.502,5.318-1.168,5.837c-0.493,0.384-1.138,0.442-1.97,0.176c-0.107-0.035-0.225-0.005-0.304,0.074
	c-0.08,0.08-0.107,0.197-0.073,0.304c0.009,0.026,0.773,2.286,3.298,2.286c0.313,0,0.654-0.035,1.023-0.113
	c2.207-0.466,2.739-2.517,2.07-8.113c0.074,0.266,0.169,0.572,0.297,0.979c0.129,0.413,0.292,0.928,0.493,1.6l-0.443,3.991
	c-0.006,0.052,0.002,0.105,0.023,0.153l2.806,6.408c0.047,0.107,0.152,0.178,0.27,0.18l1.621,0.03c0.001,0,0.003,0,0.005,0
	c0.096,0,0.186-0.045,0.243-0.123c0.058-0.08,0.073-0.182,0.041-0.274l-1.849-5.374c0.58-0.444,2.346-1.946,3.234-4.28l-0.168,3.434
	c-0.002,0.043,0.005,0.086,0.021,0.126l2.461,6.123c0.045,0.114,0.156,0.188,0.278,0.188h1.5c0.096,0,0.187-0.046,0.243-0.124
	c0.056-0.078,0.072-0.178,0.042-0.27l-1.823-5.528l1.792-3.703c0.006-0.012-0.002-0.024,0.002-0.037
	c1.756,0.181,4.216,0.039,7.685-0.753l2.508,3.966l0.416,6.287c0.01,0.157,0.141,0.28,0.299,0.28h1.321c0.166,0,0.3-0.134,0.3-0.3
	v-10.073c1.391-0.252,2.626-0.76,3.322-1.095l-1.092,4.556c-0.021,0.085-0.003,0.175,0.048,0.246l0.78,1.08
	c0.057,0.079,0.147,0.124,0.243,0.124c0.011,0,0.022,0,0.033-0.001c0.107-0.012,0.2-0.081,0.243-0.18l3.061-7.143
	C-62.133-288.727-62.157-288.855-62.24-288.942z M-94.631-281.585c-1.975,0.418-2.947-0.576-3.364-1.239
	c0.741,0.112,1.371-0.03,1.882-0.428c1.134-0.884,1.605-3.019,1.398-6.347c-0.128-2.066,1.653-2.942,2.567-3.254
	c-0.182,0.372-0.309,0.771-0.389,1.189c-0.938,0.827-0.526,2.402-0.515,2.429C-92.241-282.641-93.288-281.869-94.631-281.585z
	 M-83.734-282.023c-0.034,0.07-0.039,0.151-0.015,0.225l1.73,5.25h-0.883l-2.361-5.874l0.228-4.634
	c0.134,0.138,0.285,0.277,0.476,0.413c0.548,0.391,1.375,0.757,2.6,0.954L-83.734-282.023z M-69.418-276.43h-0.74l-0.402-6.083
	c-0.003-0.05-0.019-0.098-0.046-0.14l-2.613-4.118c0.271,0.16,0.551,0.306,0.857,0.412c0.952,0.332,1.973,0.369,2.944,0.255V-276.43
	z M-65.584-282.197l-0.389-0.539l1.212-5.059c0.028-0.116-0.016-0.238-0.112-0.31c-0.095-0.072-0.225-0.079-0.329-0.02
	c-0.04,0.022-3.977,2.243-6.965,1.2c-1.242-0.433-2.163-1.382-2.736-2.821c-0.062-0.153-0.236-0.227-0.39-0.167
	c-0.154,0.062-0.229,0.236-0.167,0.39c0.446,1.118,1.099,1.956,1.923,2.539c-0.031-0.002-0.061-0.009-0.091-0.001
	c-6.428,1.492-9.287,0.756-10.551-0.125c-0.871-0.607-0.964-1.27-0.967-1.294c-0.002-0.023-0.024-0.037-0.032-0.058
	c0.017-0.839-0.096-1.74-0.4-2.703c-0.05-0.158-0.22-0.245-0.376-0.196c-0.158,0.05-0.246,0.219-0.196,0.376
	c1.77,5.593-3.094,8.945-3.302,9.085c-0.112,0.076-0.16,0.218-0.116,0.347l1.781,5.177l-1-0.019l-2.697-6.159l0.441-3.971
	c0.004-0.04,0-0.081-0.011-0.119c-0.21-0.704-0.378-1.24-0.513-1.667c-0.412-1.31-0.486-1.546-0.466-2.473
	c0.029-1.347,0.578-2.448,1.632-3.273c1.55-1.214,3.861-1.54,5.251-1.227l0.372,0.083c2.343,0.53,4.557,1.03,7.986,0.215
	c1.55-0.367,1.697-0.659,3.151-4.384l0.121-0.318c0.29-0.778,0.727-1.955,1.416-2.322c0.057-0.03,0.103-0.079,0.13-0.137
	l0.805-1.711l0.192,1.595c0.016,0.134,0.12,0.241,0.253,0.261c0.133,0.018,0.264-0.052,0.318-0.175l0.553-1.244l0.074,1.319
	c0.006,0.106,0.067,0.201,0.161,0.25c0,0,4.971,2.588,6.271,3.279c0.002,0.25-0.037,0.751-0.362,0.998
	c-0.333,0.253-0.938,0.205-1.752-0.139c-0.074-0.031-0.159-0.031-0.233,0c-0.024,0.011-2.505,1.032-3.997-0.431
	c-0.118-0.115-0.308-0.114-0.424,0.004c-0.116,0.118-0.114,0.308,0.004,0.424c0.257,0.253,0.539,0.427,0.826,0.571
	c-0.001,0.011-0.012,0.018-0.012,0.03l-0.016,6.775c0,0.164,0.13,0.297,0.293,0.3l4.993,0.103l1.217,1.268L-65.584-282.197z
	 M-68.777-299.994c0-0.259,0.21-0.469,0.469-0.469s0.469,0.21,0.469,0.469s-0.21,0.469-0.469,0.469S-68.777-299.735-68.777-299.994z
	"/>
</svg>
