<?xml version="1.0" encoding="utf-8"?>
<!-- Generator: Adobe Illustrator 16.0.0, SVG Export Plug-In . SVG Version: 6.00 Build 0)  -->
<!DOCTYPE svg PUBLIC "-//W3C//DTD SVG 1.1//EN" "http://www.w3.org/Graphics/SVG/1.1/DTD/svg11.dtd">
<svg version="1.1" id="Layer_1" xmlns="http://www.w3.org/2000/svg" xmlns:xlink="http://www.w3.org/1999/xlink" x="0px" y="0px"
	 width="50px" height="50px" viewBox="244.5 -35.5 50 50" enable-background="new 244.5 -35.5 50 50" xml:space="preserve">
<path d="M286.598-3.549c-0.019-0.017-1.832-1.713-1.781-4.436c-0.002-0.054-0.27-5.388-4.744-5.755
	c-0.47-0.536-2.732-2.822-6.731-2.09c-0.049,0.011-4.998,1.011-8.285-2.011c-0.274-0.841-2.785-7.836-9.117-6.777l-1.233-0.806
	l-0.814-0.491c-0.1-0.06-0.225-0.057-0.323,0.008c-0.097,0.065-0.146,0.181-0.128,0.296l0.354,2.188
	c-0.083,0.38-0.576,2.632-1.031,4.529c-0.029,0.122-0.086,0.267-0.147,0.425c-0.27,0.693-0.72,1.854,0.487,2.609
	c0.037,0.023,0.912,0.582,1.664,0.236c0.476-0.216,0.771-0.717,0.882-1.489c0.158-1.103,0.475-1.211,0.843-1.338
	c0.098-0.034,0.203-0.07,0.307-0.123c0.062,0.997,0.271,2.723,0.967,4.251c0.001,0.228-0.022,1.098-0.438,1.55
	c-0.054,0.056-1.299,1.403,0.239,3.624l0.064,0.085c0.043,0.066,0.1,0.18,0.062,0.312c-0.043,0.148-0.278,0.527-1.528,0.854
	c-0.084,0.022-0.184,0.044-0.293,0.069c-0.712,0.161-1.787,0.404-2.242,1.203c-0.238,0.42-0.265,0.928-0.078,1.502
	c0.044,0.15,1.093,3.637,3.174,4.157c0.273,0.238,1.107,0.912,1.768,0.912c0.025,0,0.05-0.001,0.075-0.003
	c0.104-0.012,0.246-0.081,0.334-0.239c0.179-0.322,0.065-0.879-0.385-1.802c-0.048-0.066-0.499-0.631-1.026-0.612
	c-0.127,0.008-0.289,0.052-0.446,0.191c-0.479-0.488-1.533-1.741-1.2-3.039c0.768-0.092,2.812-0.386,3.686-0.979
	c0.152,0.271,0.371,0.814,0.427,1.765c0.035,0.586,0.088,1.55,0.138,2.473c0.051,0.924,0.099,1.806,0.127,2.248
	c0.007,0.048,0.146,1.188-1.299,2.123c-0.093,0.074-0.549,0.466-0.409,0.907c0.141,0.448,0.755,0.537,1.223,0.565l1.032-0.003
	c0.063-0.009,0.608-0.099,0.796-0.55c0.112-0.272,0.06-0.587-0.156-0.94c0.091-0.156,0.21-0.402,0.384-0.792
	c0.02-0.055,0.474-1.372,0.136-4.98c0.319-0.277,1.105-1.054,1.318-2.138c0.95,0.585,3.414,1.584,7.742,0.009
	c0.006-0.002,0.012-0.004,0.018-0.007c0.383,0.462,0.836,0.904,1.33,1.287c-0.019,0.042-0.048,0.08-0.045,0.13
	c0.035,0.586,0.088,1.55,0.138,2.473c0.051,0.924,0.099,1.806,0.127,2.248c0.007,0.048,0.146,1.188-1.299,2.123
	c-0.093,0.074-0.549,0.466-0.409,0.907c0.141,0.448,0.755,0.537,1.223,0.565l1.032-0.003c0.063-0.009,0.608-0.099,0.796-0.55
	c0.112-0.272,0.061-0.587-0.156-0.939c0.089-0.152,0.205-0.39,0.371-0.763c0.031-0.063,0.725-1.569,0.424-5.096
	c0.02,0.004,0.039,0.012,0.059,0.016c0.901,0.184,2.896,1.358,3.335,2.853c0.065,0.221,0.156,0.493,0.256,0.791
	c0.269,0.8,0.628,1.875,0.626,2.459c-0.316,0.254-1.146,1.008-1.096,1.89c-0.007,0.042-0.006,0.085,0.006,0.126
	c0.071,0.256,0.304,0.296,1.145,0.296c0.017,0,0.033,0,0.05,0c0.145-0.015,0.88-0.11,1.127-0.57c0.08-0.147,0.14-0.39-0.03-0.715
	c-0.037-0.065-0.058-0.156-0.051-0.178c0,0,0.018-0.017,0.078-0.031c0.073-0.018,0.138-0.063,0.181-0.125
	c0.021-0.033,0.502-0.771,0.054-1.465c0.024-0.793,0.056-4.56-1.514-5.264l-0.072-0.032c-0.711-0.319-1.683-0.753-1.477-2.136
	c0.233-0.363,0.628-0.942,0.797-1.104c0.215-0.205,0.488-0.39,0.777-0.585c0.969-0.654,2.149-1.452,1.881-3.57
	c0.177,0.347,0.357,0.974,0.422,2.104c0.008,0.057,0.81,5.687,5.247,5.687c0.021,0,0.042,0,0.063,0
	c0.123-0.001,0.232-0.078,0.276-0.192C286.719-3.336,286.688-3.466,286.598-3.549z M255.581-6.131
	c-0.114,0.012-0.212,0.089-0.251,0.198c-0.748,2.108,1.455,4.006,1.549,4.086c0.068,0.058,0.158,0.08,0.247,0.066
	c0.089-0.016,0.165-0.07,0.209-0.148c0.045-0.08,0.114-0.177,0.19-0.182c0.156-0.005,0.388,0.208,0.479,0.321
	c0.324,0.672,0.376,0.994,0.378,1.126c-0.368-0.069-0.967-0.487-1.316-0.801c-0.039-0.035-0.087-0.06-0.139-0.07
	c-1.784-0.375-2.791-3.723-2.804-3.765c-0.137-0.421-0.128-0.758,0.026-1.029c0.323-0.568,1.244-0.776,1.854-0.914
	c0.116-0.026,0.223-0.05,0.313-0.074c0.997-0.261,1.587-0.612,1.837-1.056l1.023,1.35C258.583-6.613,256.802-6.263,255.581-6.131z
	 M273.567,1.37c-0.239,0.537-0.345,0.717-0.381,0.772c-0.003,0.002-0.006,0.005-0.009,0.007c-0.121,0.103-0.141,0.282-0.046,0.408
	c0.174,0.232,0.253,0.433,0.211,0.537c-0.044,0.108-0.244,0.173-0.284,0.184l-0.972,0c-0.572-0.036-0.665-0.141-0.667-0.137
	c0.006-0.054,0.11-0.188,0.186-0.25c1.759-1.137,1.552-2.635,1.545-2.67c-0.025-0.417-0.074-1.297-0.124-2.22
	c-0.043-0.784-0.087-1.583-0.12-2.17c0.326,0.205,0.665,0.377,1.015,0.509C274.261-0.143,273.578,1.348,273.567,1.37z
	 M281.686-8.771c-0.085-1.492-0.391-2.458-0.908-2.872c-0.298-0.238-0.558-0.208-0.609-0.2c-0.083,0.014-0.156,0.062-0.202,0.132
	c-0.046,0.071-0.06,0.157-0.038,0.239c0.601,2.322-0.409,3.004-1.479,3.726c-0.311,0.21-0.604,0.408-0.855,0.648
	c-0.289,0.275-0.858,1.167-0.922,1.268c-0.021,0.034-0.036,0.071-0.043,0.11c-0.32,1.887,1.068,2.509,1.813,2.843l0.071,0.032
	c0.971,0.435,1.225,3.172,1.156,4.794c-0.003,0.071,0.02,0.141,0.063,0.197c0.223,0.286,0.106,0.622,0.033,0.775
	c-0.208,0.084-0.307,0.223-0.354,0.333c-0.136,0.32,0.045,0.655,0.075,0.706c0.034,0.065,0.043,0.112,0.027,0.141
	c-0.063,0.118-0.398,0.231-0.629,0.257c-0.276,0-0.453-0.007-0.564-0.015c0.08-0.558,0.697-1.116,0.955-1.3
	c0.069-0.049,0.114-0.126,0.124-0.21c0.078-0.678-0.323-1.876-0.646-2.838c-0.098-0.29-0.187-0.555-0.249-0.77
	c-0.514-1.744-2.74-3.057-3.79-3.272c-2.039-0.418-3.948-2.71-4.367-4.105c-0.048-0.158-0.217-0.25-0.373-0.201
	c-0.159,0.047-0.249,0.215-0.201,0.374c0.145,0.483,0.44,1.053,0.847,1.623c-5.117,1.801-7.394-0.25-7.416-0.271
	c-0.087-0.081-0.216-0.104-0.325-0.057c-0.109,0.048-0.181,0.155-0.181,0.275c0,1.34-1.254,2.309-1.267,2.318
	c-0.083,0.063-0.128,0.165-0.118,0.269c0.349,3.547-0.081,4.857-0.08,4.857c-0.239,0.537-0.345,0.717-0.381,0.772
	c-0.003,0.002-0.006,0.005-0.009,0.007c-0.121,0.103-0.141,0.282-0.046,0.408c0.174,0.232,0.253,0.433,0.211,0.537
	c-0.044,0.108-0.244,0.173-0.284,0.184l-0.972,0c-0.572-0.036-0.665-0.138-0.667-0.137c0.006-0.054,0.11-0.188,0.186-0.25
	c1.759-1.137,1.552-2.635,1.545-2.67c-0.025-0.417-0.074-1.297-0.124-2.22c-0.051-0.923-0.104-1.888-0.138-2.475
	c-0.103-1.741-0.707-2.334-0.737-2.354l-1.68-2.225c-0.002-0.002-0.003-0.003-0.005-0.006l-0.081-0.107
	c-1.242-1.792-0.329-2.817-0.288-2.862c0.652-0.709,0.602-1.988,0.6-2.042c-0.002-0.039-0.012-0.078-0.027-0.113
	c-1.002-2.151-0.963-4.85-0.963-4.876c0.003-0.151-0.107-0.281-0.257-0.303c-0.158-0.023-0.294,0.072-0.332,0.218
	c-0.088,0.322-0.222,0.368-0.488,0.46c-0.544,0.187-1.048,0.467-1.241,1.82c-0.079,0.555-0.259,0.9-0.535,1.027
	c-0.376,0.175-0.916-0.081-1.095-0.196c-0.733-0.458-0.566-1.071-0.25-1.886c0.072-0.188,0.138-0.358,0.172-0.502
	c0.499-2.085,1.046-4.597,1.046-4.597c0.008-0.037,0.009-0.075,0.003-0.112l-0.26-1.605l1.573,1.016
	c0.064,0.042,0.144,0.058,0.218,0.044c6.274-1.139,8.488,6.107,8.579,6.416c0.016,0.051,0.044,0.098,0.083,0.134
	c3.518,3.303,8.66,2.258,8.868,2.215c4.04-0.737,6.144,1.866,6.23,1.977c0.053,0.067,0.133,0.109,0.219,0.114
	c4.056,0.242,4.302,4.989,4.311,5.172c-0.038,2.04,0.866,3.538,1.465,4.302C282.343-4.191,281.71-8.593,281.686-8.771z"/>
</svg>
