<?xml version="1.0" encoding="utf-8"?>
<!-- Generator: Adobe Illustrator 16.0.0, SVG Export Plug-In . SVG Version: 6.00 Build 0)  -->
<!DOCTYPE svg PUBLIC "-//W3C//DTD SVG 1.1//EN" "http://www.w3.org/Graphics/SVG/1.1/DTD/svg11.dtd">
<svg version="1.1" id="Layer_1" xmlns="http://www.w3.org/2000/svg" xmlns:xlink="http://www.w3.org/1999/xlink" x="0px" y="0px"
	 width="50px" height="50px" viewBox="-35.5 -105.5 50 50" enable-background="new -35.5 -105.5 50 50" xml:space="preserve">
<path d="M5.083-91.061l-0.764-1.274c0.015-0.348-0.02-1.39-0.872-2.244L3.261-97.1c-0.01-0.132-0.101-0.246-0.229-0.283
	c-0.13-0.039-0.266,0.007-0.345,0.114l-0.679,0.898l-0.324-0.823c-0.046-0.117-0.157-0.196-0.284-0.202
	c-0.131-0.002-0.243,0.063-0.3,0.176l-0.857,1.715c-0.656,0.456-5.402,3.818-7.289,6.99c-0.872,1.469-1.956,3.298-6.219,2.206
	c-0.189-0.049-0.383-0.107-0.584-0.167c-1.222-0.369-2.735-0.826-5.048,0.293c-0.436-0.105-1.879-0.364-3.192,0.471
	c-1.152,0.731-1.873,2.084-2.144,4.022c-0.024,0.173-0.046,0.368-0.07,0.579c-0.167,1.494-0.418,3.75-2.28,4.371
	c-0.131,0.044-0.219,0.167-0.219,0.304c0,0.138,0.089,0.26,0.221,0.303c0.048,0.015,1.207,0.38,2.544-0.343
	c1.232-0.667,2.186-2.009,2.845-4.024c0.095,0.563,0.286,1.189,0.623,1.863c0.017,0.057,0.403,1.41-1.379,2.205
	c-0.021,0.006-2.069,0.649-1.631,3.345c-0.102,0.824-0.475,4.314,0.341,5.352c0.003,0.072-0.014,0.268-0.236,0.592
	c-0.063,0.085-0.607,0.848-0.281,1.497c0.228,0.454,0.8,0.684,1.72,0.684c0.001,0,0.002,0,0.003,0
	c0.134-0.008,1.312-0.097,1.593-0.812c0.164-0.414-0.013-0.898-0.525-1.438l-0.223-0.229c-0.777-0.79-0.988-1.005-0.475-5.334
	c0.301-0.672,0.792-1.434,1.049-1.486c0.133-0.033,2.02-0.528,3.696-1.687c0.133-0.062,0.248-0.095,0.287-0.081
	c0.001,0.001,0.097,0.136-0.036,0.713c-0.271,0.279-1.234,1.346-1.158,2.344c0.033,0.43,0.255,0.8,0.606,1.044
	c0.395,0.37,2.231,2.079,3.073,2.564c0.001,0.184,0.035,0.443,0.174,0.693c-0.25,0.196-0.476,0.49-0.442,0.859
	c-0.07,0.191-0.108,0.49,0.055,0.768c0.255,0.433,0.865,0.644,1.854,0.644c0.005-0.018,0.047,0.002,0.082,0.002
	c0.285,0,1.032-0.05,1.243-0.558c0.205-0.493-0.23-1.018-0.62-1.394c-0.069-0.457-0.392-2.025-1.62-2.389
	c-0.415-0.392-1.328-1.425-1.361-2.267c-0.011-0.283,0.077-0.52,0.252-0.708c0.079-0.072,1.808-1.68,2.304-3.226
	c0.869,0.216,3.335,0.701,5.539,0.077c0.053,1.403,0.279,2.778,0.904,3.401c-0.03,0.765-0.068,3.068,0.476,3.862l0.072,2.609
	c-0.134,0.266-0.499,1.101-0.184,1.804c-0.101,0.28-0.251,0.844-0.01,1.231c0.094,0.151,0.285,0.335,0.672,0.353h1.943
	c0.052,0,0.104-0.013,0.149-0.037c0.078-0.041,0.465-0.265,0.476-0.643c0.123-0.026,0.244-0.075,0.343-0.162
	c0.115-0.101,0.244-0.288,0.196-0.647c-0.017-0.062-0.39-1.453-1.174-2.078c-0.059-0.532-0.256-2.487-0.069-3.552
	c0.009-0.036,0.926-3.556,1.317-5.495c0.186-0.373,1.507-3.075,1.682-4.854c0.128-1.308,0.271-6.301,0.276-6.522
	c0-0.318,0.102-1.239,0.564-1.68c0.162-0.154,0.354-0.238,0.584-0.254c0.208,0.278,0.713,0.882,1.397,1.218
	c0.15,0.185,0.59,0.652,1.238,0.725c0.518,0.058,1.024-0.141,1.516-0.589c0.053-0.048,0.088-0.114,0.1-0.185
	C5.792-88.403,5.948-89.455,5.083-91.061z M4.245-88.219c-0.504-0.054-0.843-0.525-0.847-0.529
	c-0.033-0.046-0.078-0.084-0.129-0.107c-0.757-0.344-1.298-1.159-1.303-1.167c-0.056-0.086-0.149-0.14-0.252-0.145
	c-0.476-0.028-0.882,0.123-1.206,0.432c-0.753,0.718-0.761,2.084-0.761,2.133c-0.002,0.051-0.147,5.183-0.273,6.468
	c-0.172,1.755-1.622,4.639-1.636,4.668c-0.013,0.025-0.023,0.053-0.028,0.082c-0.382,1.912-1.308,5.465-1.323,5.526
	c-0.239,1.353,0.062,3.801,0.075,3.904c0.012,0.094,0.064,0.177,0.143,0.229c0.551,0.358,0.932,1.418,1.033,1.799
	c-0.05,0.038-0.267,0.036-0.429-0.006c-0.151-0.04-0.316,0.042-0.375,0.191c-0.06,0.149,0,0.318,0.139,0.397
	c0.041,0.023,0.067,0.042,0.084,0.051c-0.016,0.016-0.037,0.034-0.059,0.051h-1.836c-0.115-0.005-0.136-0.04-0.144-0.052
	c-0.08-0.127-0.005-0.516,0.111-0.784c0.042-0.095,0.034-0.206-0.021-0.294c-0.267-0.438,0.025-1.147,0.16-1.384
	c0.029-0.051,0.044-0.109,0.042-0.168l-0.078-2.799c-0.002-0.079-0.033-0.153-0.087-0.21c-0.365-0.387-0.441-2.369-0.38-3.652
	c0.005-0.105-0.042-0.206-0.125-0.27c-1.137-0.868-0.785-5.703-0.584-6.994c0.027-0.174-0.092-0.337-0.267-0.365
	c-0.176-0.031-0.338,0.092-0.365,0.267c-0.005,0.032-0.226,1.664-0.222,3.429c-2.521,0.784-5.63-0.112-5.662-0.122
	c-0.086-0.026-0.179-0.013-0.256,0.033c-0.077,0.046-0.131,0.123-0.148,0.21c-0.287,1.434-2.178,3.192-2.212,3.226
	c-0.312,0.332-0.461,0.731-0.442,1.189c0.054,1.33,1.563,2.707,1.626,2.765c0.04,0.036,0.087,0.061,0.139,0.073
	c1.045,0.253,1.233,1.959,1.235,1.977c0.008,0.077,0.044,0.148,0.1,0.202c0.598,0.556,0.55,0.759,0.55,0.761
	c-0.034,0.081-0.363,0.174-0.721,0.162c-1.035,0-1.268-0.249-1.315-0.326c-0.068-0.111,0-0.248,0.001-0.249
	c0.039-0.069,0.05-0.15,0.032-0.227c-0.047-0.203,0.306-0.409,0.403-0.453c0.098-0.044,0.167-0.135,0.184-0.241
	c0.017-0.106-0.021-0.214-0.101-0.287c-0.284-0.258-0.215-0.658-0.212-0.672c0.032-0.161-0.062-0.319-0.218-0.368
	c-0.381-0.119-2.021-1.552-3.099-2.561c-0.231-0.163-0.353-0.358-0.372-0.598c-0.054-0.692,0.727-1.609,1.032-1.904
	c0.043-0.042,0.074-0.094,0.088-0.152c0.116-0.465,0.207-1.093-0.149-1.413c0.894-0.77,1.631-1.76,1.847-3.021
	c0.03-0.174-0.087-0.339-0.262-0.369c-0.172-0.031-0.339,0.087-0.369,0.262c-0.234,1.371-1.215,2.399-2.301,3.146
	c-0.156,0.082-0.277,0.166-0.326,0.202c-0.008,0.006-0.007,0.019-0.015,0.025c-1.508,0.941-3.092,1.355-3.112,1.36
	c-0.692,0.139-1.333,1.486-1.513,1.895c-0.013,0.029-0.021,0.06-0.024,0.091c-0.537,4.509-0.327,4.915,0.648,5.906l0.215,0.221
	c0.312,0.329,0.456,0.607,0.395,0.763c-0.095,0.241-0.675,0.386-1.018,0.408c-0.613,0-1.026-0.121-1.132-0.332
	c-0.129-0.254,0.124-0.695,0.229-0.839c0.509-0.739,0.335-1.177,0.295-1.257c-0.015-0.029-0.033-0.055-0.055-0.078
	c-0.546-0.571-0.427-3.337-0.225-4.947c0.004-0.031,0.003-0.063-0.002-0.094c-0.372-2.163,1.113-2.652,1.214-2.686
	c2.329-1.036,1.775-2.969,1.75-3.039c-1.224-2.448-0.353-4.144-0.315-4.215c0.08-0.149,0.028-0.335-0.116-0.424
	c-0.145-0.089-0.333-0.047-0.429,0.092c-0.593,0.865-0.747,1.997-0.744,2.003c-0.601,2.231-1.524,3.702-2.744,4.371
	c-0.371,0.203-0.723,0.305-1.027,0.351c1.321-1.083,1.542-3.067,1.685-4.344c0.023-0.204,0.043-0.393,0.067-0.561
	c0.244-1.74,0.865-2.941,1.848-3.567c1.284-0.817,2.78-0.373,2.795-0.369c0.078,0.023,0.164,0.017,0.237-0.02
	c2.146-1.073,3.497-0.666,4.687-0.307c0.21,0.063,0.412,0.124,0.61,0.175c4.72,1.209,5.997-0.933,6.961-2.556
	c1.879-3.159,7.082-6.743,7.135-6.779c0.045-0.031,0.081-0.072,0.105-0.121l0.573-1.146l0.27,0.686
	c0.043,0.107,0.14,0.184,0.254,0.2c0.107,0.015,0.229-0.032,0.298-0.125l0.511-0.676l0.132,1.797
	c0.006,0.081,0.043,0.157,0.102,0.211c0.871,0.804,0.76,1.859,0.755,1.904c-0.008,0.07,0.007,0.142,0.043,0.202l0.809,1.348
	c0.599,1.111,0.641,1.908,0.633,2.182C4.846-88.304,4.536-88.185,4.245-88.219z M3.043-93.003c0.13,0.32,0.101,0.633-0.065,0.7
	c-0.166,0.066-0.407-0.138-0.538-0.458s-0.101-0.633,0.065-0.7C2.671-93.528,2.912-93.323,3.043-93.003z"/>
</svg>
