<?xml version="1.0" encoding="utf-8"?>
<!-- Generator: Adobe Illustrator 16.0.0, SVG Export Plug-In . SVG Version: 6.00 Build 0)  -->
<!DOCTYPE svg PUBLIC "-//W3C//DTD SVG 1.1//EN" "http://www.w3.org/Graphics/SVG/1.1/DTD/svg11.dtd">
<svg version="1.1" id="Layer_1" xmlns="http://www.w3.org/2000/svg" xmlns:xlink="http://www.w3.org/1999/xlink" x="0px" y="0px"
	 width="50px" height="50px" viewBox="244.5 -105.5 50 50" enable-background="new 244.5 -105.5 50 50" xml:space="preserve">
<path d="M286.108-90.603c-0.721-1.436-1.64-3.112-2.233-3.613l-0.113-2.08c-0.009-0.151-0.118-0.276-0.266-0.305
	c-0.15-0.027-0.296,0.047-0.36,0.183l-0.435,0.925l-0.122-1.186c-0.015-0.136-0.111-0.25-0.244-0.284
	c-0.135-0.038-0.272,0.016-0.352,0.128l-1.509,2.127c-0.865,0.16-5.12,1.263-7.626,7.798c-0.031,0.116-0.828,2.843-6.04,1.556
	c-0.239-0.059-0.502-0.143-0.785-0.232c-1.41-0.448-3.328-1.055-5.247,0.291c-0.538-0.055-2.45-0.122-4.313,1.392
	c-2.354,1.912-3.644,5.505-3.834,10.679c-0.004,0.125,0.063,0.243,0.172,0.302c0.111,0.059,0.244,0.051,0.347-0.022
	c0.161-0.114,3.391-2.45,5-6.253c0.086,0.516,0.241,1.094,0.504,1.71c-0.055,0.376-0.412,2.106-2.474,2.904
	c-0.24,0.096-1.012,0.654-0.86,3.778c-0.207,0.87-0.996,4.498-0.055,5.654c-0.144,0.408-0.373,1.272,0.019,1.875
	c0.243,0.375,0.661,0.566,1.191,0.566c0.006,0,0.013,0,0.018,0c0.097,0.016,0.939,0.141,1.385-0.323
	c0.156-0.164,0.321-0.465,0.213-0.967c-0.007-0.032-0.02-0.064-0.035-0.094c-0.179-0.312-0.584-0.968-1.001-1.253
	c0.022-0.446-0.003-1.308-0.484-1.693l0.294-2.873c0.209-0.271,0.854-1.179,1.231-2.533c0.61,0.076,2.059,0.194,3.611-0.102
	c-0.056,0.189-0.09,0.434-0.045,0.718c0.094,0.583,0.488,1.123,1.179,1.611c0.597,0.406,2.183,1.605,2.464,2.355
	c0.022,0.424,0.279,1,0.914,1.162c-0.011,0.004-0.025,0.009-0.039,0.014c-0.061,0.021-0.113,0.057-0.153,0.107
	c-0.035,0.044-0.113,0.167-0.075,0.359c0.041,0.218,0.225,0.58,1.319,1.212c0.39,0.419,0.929,0.853,1.325,0.652
	c0.406-0.204,0.294-0.797,0.25-1.032c-0.027-0.123-0.695-2.997-2.559-4.02c-0.622-0.702-1.961-2.559-1.281-3.372
	c0.055-0.053,1.228-1.205,1.54-2.533c1.051,0.319,4.071,1.035,6.491-0.347c0.382,0.604,0.753,1.1,1.098,1.507
	c0.014,0.335,0.112,2.564,0.38,4.086c0.201,1.139-0.141,3.027-0.224,3.454c-0.354,0.408-0.761,1.282-0.114,2.156
	c0.002,0.002,0.215,0.278,0.079,0.51c-0.012,0.026-0.282,0.632,0.032,1.266c0.267,0.537,0.853,0.909,1.759,1.11
	c0.034,0.006,0.171,0.027,0.352,0.027c0.297,0,0.71-0.059,0.967-0.344c0.15-0.169,0.301-0.478,0.153-0.993
	c-0.01-0.036-0.026-0.07-0.048-0.1c-0.009-0.014-0.913-1.297-1.214-1.866c-0.145-1.103-0.277-3.915,0.744-4.562
	c0.556-0.353,1.121-0.856,0.869-2.361c0.264,0.077,0.56,0.161,0.897,0.255c0.015,0.001,1.5,0.132,3.017,4.075
	c0.073,0.187,0.202,0.317,0.355,0.414c-0.012,0.004-0.023,0.009-0.036,0.013c-0.044,0.016-0.084,0.04-0.118,0.072
	c-0.151,0.146-0.392,0.517-0.331,0.985c0.075,0.569,0.553,1.1,1.419,1.577c0.029,0.016,0.062,0.028,0.095,0.034
	c0.137,0.028,0.829,0.144,1.2-0.249c0.136-0.145,0.273-0.409,0.155-0.862l-1.99-6.538c-0.019-0.079-0.462-1.924-1.925-2.518
	c-0.355-0.121-1.314-0.556-1.479-1.104c-0.061-0.196-0.005-0.401,0.171-0.632c0.143-0.192,3.45-4.781,1.605-10.242
	c-0.076-0.373-0.2-1.455,0.141-1.965c0.094-0.141,0.213-0.222,0.403-0.26c0.002-0.001,0.288-0.081,0.67-0.015
	c0.29,0.325,1.313,1.351,2.469,1.127c0.389,0.38,1.12,0.771,1.886,0.194c0.021-0.021,0.512-0.502,0.523-1.291
	C287.005-89.334,286.706-89.976,286.108-90.603z M264.523-73.226c-1.209,1.441,1.05,4.013,1.311,4.302
	c0.027,0.028,0.059,0.052,0.093,0.07c1.634,0.855,2.271,3.583,2.273,3.6c0.019,0.092,0.026,0.165,0.031,0.22
	c-0.145-0.096-0.348-0.274-0.513-0.454c-0.023-0.026-0.051-0.047-0.08-0.063c-0.561-0.321-0.823-0.538-0.944-0.664
	c0.155-0.115,0.223-0.247,0.251-0.353c0.088-0.333-0.146-0.606-0.175-0.636c-0.059-0.065-0.142-0.104-0.229-0.108
	c-0.532-0.024-0.581-0.474-0.584-0.608c0-0.034-0.005-0.067-0.015-0.1c-0.35-1.095-2.493-2.574-2.731-2.735
	c-1.335-0.944-0.839-1.733-0.78-1.817c0.035-0.048,0.056-0.103,0.063-0.158c0.814-0.234,1.623-0.601,2.325-1.166
	c0.291-0.235,0.552-0.494,0.782-0.778C265.184-73.878,264.548-73.252,264.523-73.226z M276.646-69.962
	c-1.577,1-1.095,4.83-1.035,5.262c0.005,0.036,0.016,0.07,0.031,0.102c0.267,0.531,1.075,1.693,1.255,1.949
	c0.028,0.117,0.04,0.252-0.023,0.323c-0.122,0.135-0.504,0.144-0.702,0.111c-0.673-0.149-1.12-0.409-1.294-0.75
	c-0.173-0.339-0.04-0.675-0.043-0.675c0,0,0,0,0,0c0.286-0.479,0.04-1-0.142-1.219c-0.503-0.682,0.066-1.299,0.132-1.365
	c0.045-0.045,0.076-0.103,0.09-0.166c0.021-0.096,0.493-2.382,0.246-3.791c-0.178-1.007-0.28-2.372-0.33-3.229
	c0.119,0.116,0.233,0.218,0.34,0.31c0.653,0.558,1.071,0.81,2.015,1.121c-0.009,0.043-0.01,0.088,0,0.133
	C277.465-70.48,277.03-70.205,276.646-69.962z M286.047-87.903c-0.536,0.403-1.038-0.198-1.094-0.267
	c-0.086-0.107-0.231-0.152-0.361-0.108c-0.986,0.329-2.033-0.941-2.044-0.954c-0.046-0.057-0.109-0.097-0.182-0.114
	c-0.598-0.138-1.055-0.009-1.073-0.002c-0.33,0.064-0.606,0.249-0.797,0.535c-0.553,0.83-0.271,2.298-0.226,2.5
	c1.744,5.168-1.47,9.637-1.498,9.676c-0.382,0.499-0.36,0.938-0.275,1.218c0.295,0.966,1.734,1.479,1.879,1.527
	c1.127,0.458,1.511,2.036,1.521,2.072l1.992,6.546c0.029,0.113,0.029,0.199-0.001,0.232c-0.071,0.077-0.333,0.095-0.547,0.063
	c-0.619-0.349-0.986-0.722-1.034-1.052c-0.028-0.185,0.053-0.327,0.1-0.393c0.293-0.119,0.475-0.272,0.554-0.468
	c0.08-0.201,0.016-0.36-0.006-0.404c-0.04-0.078-0.107-0.138-0.19-0.165c-0.328-0.109-0.356-0.186-0.367-0.214
	c-1.576-4.096-3.209-4.463-3.567-4.493c-2.007-0.569-2.396-0.716-3.23-1.43c-0.551-0.471-1.312-1.273-2.116-2.586
	c-0.009-0.042-0.024-0.082-0.049-0.118c-0.02-0.03-0.042-0.054-0.067-0.075c-0.225-0.377-0.452-0.794-0.679-1.255
	c-0.06-0.122-0.171-0.346-0.434-0.28l0.087,0.331l-0.284,0.155l0.041,0.085c0.199,0.404,0.398,0.777,0.598,1.12
	c-2.595,1.465-6.109,0.237-6.292,0.172c0.278-0.693,0.438-1.478,0.477-2.351c0.007-0.182-0.133-0.335-0.314-0.343
	c-0.184-0.02-0.335,0.133-0.343,0.314c-0.077,1.756-0.687,3.108-1.814,4.018c-2.419,1.952-6.462,1.284-6.503,1.277
	c-0.167-0.028-0.335,0.08-0.376,0.248c-0.383,1.607-1.227,2.624-1.234,2.634c-0.042,0.05-0.069,0.113-0.076,0.178l-0.326,3.178
	c-0.016,0.149,0.071,0.289,0.212,0.341c0.264,0.099,0.331,0.872,0.277,1.368c-0.019,0.169,0.092,0.324,0.259,0.357
	c0.145,0.046,0.527,0.524,0.814,1.018c0.026,0.152,0.008,0.261-0.055,0.327c-0.16,0.168-0.609,0.158-0.854,0.124
	c-0.355,0-0.595-0.091-0.713-0.271c-0.258-0.396,0.005-1.212,0.117-1.467c0.063-0.143,0.017-0.31-0.109-0.4
	c-0.662-0.473-0.323-3.323,0.128-5.196c0.008-0.031,0.01-0.062,0.009-0.094c-0.139-2.718,0.454-3.181,0.443-3.181
	c-0.001,0-0.001,0-0.001,0c2.689-1.041,2.891-3.44,2.897-3.542c0.004-0.053-0.006-0.107-0.027-0.157
	c-0.737-1.667-0.584-3.056-0.501-3.512c0.013-0.06,0.025-0.12,0.038-0.18c0.035-0.173-0.073-0.344-0.245-0.386
	c-0.169-0.04-0.346,0.061-0.394,0.23c-0.005,0.015-0.025,0.094-0.05,0.228c-0.835,3.669-3.62,6.357-4.817,7.369
	c0.27-4.578,1.46-7.759,3.545-9.461c1.911-1.563,3.923-1.25,3.942-1.246c0.096,0.014,0.181-0.007,0.25-0.06
	c1.687-1.25,3.394-0.707,4.766-0.271c0.298,0.094,0.575,0.182,0.826,0.245c5.894,1.454,6.799-1.889,6.823-1.995
	c2.578-6.717,7.183-7.363,7.229-7.369c0.092-0.011,0.175-0.061,0.229-0.136l1.083-1.528l0.153,1.494
	c0.017,0.147,0.128,0.266,0.273,0.291c0.147,0.027,0.29-0.051,0.352-0.185l0.384-0.814l0.05,0.937
	c0.009,0.147,0.082,0.26,0.225,0.293c0.309,0.171,1.326,1.931,2.091,3.462c0.015,0.03,0.035,0.058,0.059,0.082
	C286.905-88.843,286.109-87.97,286.047-87.903z"/>
</svg>
