<?xml version="1.0" encoding="utf-8"?>
<!-- Generator: Adobe Illustrator 16.0.0, SVG Export Plug-In . SVG Version: 6.00 Build 0)  -->
<!DOCTYPE svg PUBLIC "-//W3C//DTD SVG 1.1//EN" "http://www.w3.org/Graphics/SVG/1.1/DTD/svg11.dtd">
<svg version="1.1" id="Layer_1" xmlns="http://www.w3.org/2000/svg" xmlns:xlink="http://www.w3.org/1999/xlink" x="0px" y="0px"
	 width="50px" height="50px" viewBox="-105.5 104.5 50 50" enable-background="new -105.5 104.5 50 50" xml:space="preserve">
<path d="M-65.704,117.723c-2.583-2.359-8.309-3.885-14.588-3.885c-5.98,0-11.268,1.348-14.896,3.799
	c-0.296,0.203-0.53,0.365-0.572,2.285c-0.047,2.158,0.279,6.139,2.574,10.9c1.032,2.141,2.468,4.441,4.443,6.805
	c1.937,2.318,4.39,4.697,7.511,7.049l0.852,0.486l0.593-0.471c12.099-9.119,14.294-18.664,14.525-23.541
	C-65.17,119.227-65.319,118.074-65.704,117.723z M-80.499,142.721c-2.554-1.975-4.62-3.963-6.292-5.906
	c2.719-1.424,4.361-3.504,4.361-3.504c1.981,0.654,4.334-1.98,4.334-1.98c0.909-0.582,0.676,1.818,0.676,1.818
	c-0.279,0.303-0.653,1.096-0.653,1.096l-1.141-0.047c-0.769,0.35-0.606,2.027-0.606,2.027c0.955,0,2.331-1.328,2.331-1.328
	c1.072-0.42,1.188-0.887,1.188-0.887v-2.586c0.024-1.607-0.16-1.65-0.605-1.678c-0.64-0.039-2.563-0.023-2.563-0.023
	c-0.326-0.535-0.441-2.795-0.256-3.705c0.615-3.023,2.819-2.004,2.819-2.004c0.256,2.518,2.843,2.609,2.843,2.609
	c0.21,1.959,1.223,1.15,1.678,0.979c0.66-0.248,0.513-0.652,0.513-0.652c-0.139-0.838-1.258-4.059-1.678-5.266
	c-0.373-1.072-1.344-2.186-1.934-2.727c0,0,0.146,0.422,0.093,0.535c-0.14,0.305-0.256,0.188-0.256,0.188
	c-2.284-1.98-4.451-1.422-4.451-1.422c1.119,0.07,1.538,0.955,1.538,0.955c-1.538-0.746-1.816-0.598-2.586-0.326
	c-1.955,0.693-3.822,0.629-3.822,0.629c0.676,0.91,1.841,0.887,1.841,0.887c-0.862,0.365-1.25,0.352-1.538,0.441
	c-1.398,0.443-1.771,1.516-1.771,1.516c1.025,0-0.792,2.354-0.792,2.354c1.258-0.699,1.522-0.432,1.491-0.42
	c-1.375,0.559-1.771,1.584-1.771,1.584c-0.866,1.848-2.809,3.336-3.851,4.037c-2.607-5.438-2.455-9.686-2.341-10.859
	c3.251-2.049,8.105-3.217,13.409-3.217c5.506,0,10.644,1.252,12.981,3.141C-67.127,120.814-66.677,132.049-80.499,142.721z"/>
</svg>
