<?xml version="1.0" encoding="utf-8"?>
<!-- Generator: Adobe Illustrator 16.0.0, SVG Export Plug-In . SVG Version: 6.00 Build 0)  -->
<!DOCTYPE svg PUBLIC "-//W3C//DTD SVG 1.1//EN" "http://www.w3.org/Graphics/SVG/1.1/DTD/svg11.dtd">
<svg version="1.1" id="Layer_1" xmlns="http://www.w3.org/2000/svg" xmlns:xlink="http://www.w3.org/1999/xlink" x="0px" y="0px"
	 width="50px" height="50px" viewBox="-35.5 104.5 50 50" enable-background="new -35.5 104.5 50 50" xml:space="preserve">
<path d="M4.206,117.934c-2.538-2.318-8.225-3.816-14.49-3.816c-5.98,0-11.256,1.34-14.858,3.773
	c-0.136,0.094-0.321,0.221-0.358,1.906c-0.089,4.076,1.155,14.646,14.586,24.77l0.434,0.316l0.398-0.313
	c12.152-9.16,14.345-18.705,14.571-23.58C4.49,120.963,4.602,118.293,4.206,117.934z M-10.494,143.629
	c-15.101-11.488-14.105-23.568-13.914-25.025c3.432-2.25,8.437-3.486,14.124-3.486c5.834,0,11.297,1.379,13.693,3.445
	C3.579,119.873,4.63,132.131-10.494,143.629z M2.697,119.135c0.183,1.838,0.633,13.072-13.188,23.742
	c-2.554-1.973-4.62-3.963-6.292-5.906c2.719-1.422,4.361-3.502,4.361-3.502c1.981,0.652,4.334-1.98,4.334-1.98
	c0.909-0.582,0.676,1.816,0.676,1.816c-0.279,0.305-0.653,1.098-0.653,1.098l-1.141-0.047c-0.769,0.348-0.606,2.025-0.606,2.025
	c0.955,0,2.331-1.328,2.331-1.328c1.072-0.418,1.188-0.885,1.188-0.885v-2.586c0.024-1.609-0.16-1.65-0.605-1.678
	c-0.64-0.039-2.563-0.023-2.563-0.023c-0.326-0.535-0.441-2.795-0.256-3.705c0.615-3.023,2.819-2.004,2.819-2.004
	c0.256,2.516,2.843,2.609,2.843,2.609c0.21,1.957,1.223,1.15,1.678,0.979c0.66-0.248,0.513-0.652,0.513-0.652
	c-0.139-0.838-1.258-4.059-1.678-5.266c-0.373-1.072-1.344-2.188-1.934-2.727c0,0,0.146,0.422,0.093,0.535
	c-0.14,0.303-0.256,0.188-0.256,0.188c-2.284-1.98-4.451-1.422-4.451-1.422c1.119,0.07,1.538,0.955,1.538,0.955
	c-1.538-0.746-1.816-0.6-2.586-0.326c-1.955,0.693-3.822,0.629-3.822,0.629c0.676,0.91,1.841,0.887,1.841,0.887
	c-0.862,0.363-1.25,0.352-1.538,0.441c-1.398,0.443-1.771,1.516-1.771,1.516c1.025,0-0.792,2.354-0.792,2.354
	c1.258-0.699,1.522-0.432,1.491-0.42c-1.375,0.559-1.771,1.584-1.771,1.584c-0.866,1.848-2.809,3.334-3.851,4.035
	c-2.607-5.438-2.455-9.684-2.341-10.859c3.251-2.047,8.105-3.217,13.409-3.217C-4.778,115.994,0.359,117.248,2.697,119.135z"/>
</svg>
