<?xml version="1.0" encoding="UTF-8"?>
<svg xmlns="http://www.w3.org/2000/svg" xmlns:xlink="http://www.w3.org/1999/xlink" width="30pt" height="30pt" viewBox="0 0 30 30" version="1.1">
<g id="surface1">
<path style=" stroke:none;fill-rule:nonzero;fill:rgb(0%,0%,0%);fill-opacity:1;" d="M 14.703125 5.351562 C 5.359375 5.351562 0.300781 14.992188 0.300781 14.992188 C 0.300781 14.992188 6.863281 24.644531 15.105469 24.644531 C 23.347656 24.644531 29.699219 14.90625 29.699219 14.90625 C 29.699219 14.90625 24.046875 5.351562 14.703125 5.351562 Z M 15 22.050781 C 11.105469 22.050781 7.949219 18.894531 7.949219 15 C 7.949219 11.105469 11.105469 7.949219 15 7.949219 C 18.894531 7.949219 22.050781 11.105469 22.050781 15 C 22.050781 18.894531 18.894531 22.050781 15 22.050781 Z M 15 22.050781 "/>
<path style=" stroke:none;fill-rule:nonzero;fill:rgb(0%,0%,0%);fill-opacity:1;" d="M 15 10.53125 C 12.605469 10.53125 10.652344 12.417969 10.535156 14.78125 C 10.53125 14.863281 10.53125 14.941406 10.53125 15.027344 C 10.53125 17.496094 12.53125 19.492188 14.996094 19.492188 C 17.390625 19.492188 19.34375 17.609375 19.460938 15.246094 C 19.464844 15.164062 19.46875 15.085938 19.46875 15 C 19.46875 12.53125 17.46875 10.53125 15 10.53125 Z M 15 10.53125 "/>
</g>
</svg>
