<?xml version="1.0" encoding="utf-8"?>
<!-- Generator: Adobe Illustrator 16.0.0, SVG Export Plug-In . SVG Version: 6.00 Build 0)  -->
<!DOCTYPE svg PUBLIC "-//W3C//DTD SVG 1.1//EN" "http://www.w3.org/Graphics/SVG/1.1/DTD/svg11.dtd">
<svg version="1.1" id="Layer_1" xmlns="http://www.w3.org/2000/svg" xmlns:xlink="http://www.w3.org/1999/xlink" x="0px" y="0px"
	 width="50px" height="50px" viewBox="-175.5 -315.5 50 50" enable-background="new -175.5 -315.5 50 50" xml:space="preserve">
<path d="M-130.089-293.293l-6.338-7.062c-0.083-0.093-0.215-0.124-0.332-0.08c-0.116,0.045-0.192,0.158-0.191,0.283l0.014,1.363
	l-0.143,0.08v-1.446c0-0.096-0.046-0.187-0.124-0.243s-0.178-0.071-0.27-0.042c-0.317,0.105-7.645,2.571-9.369,7.074l-2.316-6.71
	c-0.042-0.121-0.155-0.202-0.283-0.202l-0.549-0.002c0.489-0.389,0.81-0.972,0.842-1.635h0.129c0.166,0,0.3-0.134,0.3-0.3
	c0-0.096-0.051-0.171-0.121-0.226c0.005-0.022,0.025-0.037,0.025-0.061c0-1.412-1.147-2.56-2.559-2.56s-2.559,1.148-2.559,2.56
	c0,0.024,0.02,0.039,0.025,0.061c-0.07,0.055-0.121,0.13-0.121,0.226c0,0.166,0.134,0.3,0.3,0.3h0.13
	c0.032,0.658,0.348,1.236,0.829,1.625l-4.141-0.016c0,0,0,0-0.001,0c-0.08,0-0.156,0.031-0.212,0.088l-3.787,3.787
	c-0.086,0.085-0.112,0.215-0.065,0.327c0.046,0.112,0.156,0.185,0.277,0.185h1.578c0.075,0,0.147-0.028,0.203-0.079l2.128-1.946
	l2.234-0.154l-3.32,3.893c-0.054,0.063-0.079,0.146-0.07,0.228c0.003,0.031,0.032,0.049,0.044,0.077
	c-0.022,0.042-0.054,0.079-0.054,0.13c0,0.156,0.033,0.303,0.046,0.456l-0.256-0.016c-0.124,0-0.232,0.017-0.351,0.021h-12.171
	c-0.166,0-0.3,0.134-0.3,0.3c0,0.388,0.169,0.75,0.502,1.074c0.832,0.811,2.7,1.334,4.714,1.334c0.1,0,0.199-0.001,0.299-0.004
	c0.862-0.023,1.876-0.148,2.755-0.332c-0.257,0.488-0.459,1.044-0.595,1.684c-0.33,1.556,0.254,3.493,1.575,4.685
	c-0.024,0.032-0.06,0.055-0.069,0.097l-0.678,3.003c-0.035,0.153,0.054,0.306,0.204,0.353l1.482,0.458l-0.327,1.927
	c-0.024,0.146,0.061,0.289,0.201,0.335l6.856,2.275c0.031,0.01,0.063,0.015,0.095,0.015h1.736c0.136,0,0.255-0.091,0.29-0.223
	c0.035-0.131-0.023-0.27-0.141-0.337l-5.396-3.1c0.025-0.047,0.056-0.108,0.086-0.167l3.505,1.023
	c0.027,0.008,0.056,0.012,0.084,0.012c0.057,0,0.113-0.016,0.163-0.047c0.073-0.047,0.122-0.124,0.134-0.21l0.185-1.288
	c0.019-0.134-0.053-0.264-0.177-0.318l-2.891-1.254c-0.009-0.004-0.019,0.002-0.028,0c0.14-0.33,0.28-0.678,0.413-1.035
	c0.533,0.159,1.976,0.527,3.946,0.527c1.321,0,2.872-0.168,4.524-0.68c0.023-0.007,0.031-0.031,0.051-0.042
	c0.23,0.083,0.487,0.156,0.757,0.225l-0.292,1.268l-4.531,0.318c-0.132,0.009-0.243,0.104-0.271,0.233l-0.282,1.25
	c-0.019,0.084-0.001,0.173,0.05,0.243c0.052,0.07,0.131,0.114,0.217,0.122l5.714,0.479c0.008,0.001,0.017,0.001,0.025,0.001
	c0.096,0,0.186-0.045,0.243-0.124l2.357-3.249c0.008-0.011,0.002-0.024,0.008-0.035c0.385,0.036,0.738,0.064,1.007,0.082
	l-4.902,5.727c-0.069,0.081-0.09,0.192-0.056,0.293c0.035,0.1,0.12,0.175,0.224,0.196l1.326,0.271c0.02,0.004,0.04,0.006,0.06,0.006
	c0.076,0,0.15-0.029,0.206-0.082l6.919-6.541c0.065-0.062,0.1-0.149,0.093-0.239l-0.113-1.625c-0.009-0.125-0.095-0.232-0.215-0.267
	l-2.686-0.781l3.794-5.512c1.859-0.248,3.396-0.786,4.367-1.497c0.509,0.247,1.168,0.525,1.577,0.525c0.02,0,0.039,0,0.058-0.002
	c0.499-0.037,1.501-0.748,1.697-0.891c0.069-0.05,0.113-0.126,0.122-0.211S-130.033-293.23-130.089-293.293z M-137.679-299.729
	v1.355l-8.368,4.675C-144.325-297.051-139.151-299.18-137.679-299.729z M-152.477-293.47h4.429
	c-0.065,1.048-0.488,2.021-1.185,2.805L-152.477-293.47z M-152.979-294.07l2.324-3.649l2.548,3.649H-152.979z M-150.897-300.465
	v-1.45h1.15C-149.793-301.228-150.261-300.66-150.897-300.465z M-151.373-304.461c1.076,0,1.95,0.873,1.958,1.947h-3.916
	C-153.323-303.589-152.449-304.461-151.373-304.461z M-152.998-301.915h1.501v1.516
	C-152.303-300.461-152.943-301.106-152.998-301.915z M-153.635-298.252c0.078-0.092,0.094-0.222,0.04-0.33
	c-0.055-0.108-0.169-0.173-0.289-0.165l-3.05,0.21c-0.068,0.005-0.132,0.032-0.182,0.078l-2.12,1.938h-0.737l3.187-3.187
	l7.131,0.027l1.598,4.631l-2.362-3.383c-0.058-0.082-0.166-0.124-0.252-0.128c-0.1,0.002-0.193,0.054-0.247,0.139l-2.773,4.354
	c-0.08,0.125-0.056,0.291,0.057,0.388l4.63,4.003l-3.821,4.053h-0.72l2.191-3.714c0.078-0.132,0.044-0.301-0.078-0.393l-5.778-4.33
	L-153.635-298.252z M-152.195-289.141c-0.17,0.027-0.305,0.05-0.501,0.05c-2.438,0-4.423-1.898-4.62-4.297l5.308,3.979l-0.155,0.264
	L-152.195-289.141z M-165.487-291.205c-1.935,0.06-3.826-0.427-4.579-1.16c-0.116-0.112-0.2-0.228-0.254-0.345h9.329
	c-0.491,0.264-0.909,0.613-1.255,1.048C-163.179-291.415-164.47-291.231-165.487-291.205z M-161.837-281.606l0.585-2.592
	c0.298,0.202,0.615,0.38,0.97,0.502l-0.414,2.442L-161.837-281.606z M-156.632-281.463l2.681,1.163l-0.103,0.719l-3.069-0.896
	c0.142-0.29,0.302-0.629,0.471-1.007C-156.644-281.479-156.642-281.468-156.632-281.463z M-155.226-287.294
	c-0.031-0.163-0.186-0.268-0.351-0.239c-0.163,0.031-0.27,0.188-0.239,0.351c0.43,2.284-2.303,7.34-2.331,7.391
	c-0.078,0.143-0.027,0.322,0.114,0.404l4.672,2.684h-0.563l-6.566-2.179l0.843-4.971c0.026-0.152-0.068-0.299-0.217-0.34
	c-2.289-0.623-3.208-3.293-2.86-4.933c0.495-2.333,1.838-3.471,4.169-3.582h0.307c0.02,0,0.032-0.018,0.051-0.021
	c0.004,0,0.008-0.001,0.012-0.001l0.33,0.021c0.002,0,0.004-0.002,0.006-0.002c0.489,2.405,2.613,4.221,5.152,4.221
	c0.057,0,0.101-0.005,0.151-0.008l-1.785,3.025c-0.055,0.093-0.056,0.208-0.002,0.301c0.054,0.093,0.153,0.151,0.261,0.151h1.076
	v1.86c-1.37-0.086-2.377-0.332-2.809-0.455C-155.353-284.941-155.042-286.316-155.226-287.294z M-146.244-279.719l-5.202-0.436
	l0.157-0.696l4.53-0.318c0.132-0.009,0.242-0.104,0.271-0.232l0.342-1.486c0.652,0.133,1.341,0.23,1.98,0.303L-146.244-279.719z
	 M-141.387-286.884c0.17-0.839,0.18-1.863-0.386-2.782c-0.086-0.14-0.27-0.186-0.413-0.098c-0.141,0.087-0.185,0.271-0.098,0.413
	c1.008,1.637-0.218,3.838-0.23,3.86c-0.045,0.08-0.052,0.176-0.017,0.261s0.106,0.149,0.194,0.175l3.025,0.88l0.089,1.275
	l-6.703,6.336l-0.674-0.137l4.965-5.8c0.075-0.087,0.093-0.209,0.047-0.315c-0.045-0.105-0.147-0.175-0.262-0.18
	c-0.033-0.001-2.535-0.113-4.406-0.524c-0.017-0.007-0.025-0.026-0.043-0.031c-0.018-0.004-0.032,0.009-0.05,0.009
	c-0.567-0.13-1.073-0.287-1.422-0.479c-1.138-0.629-1.798-1.127-2.248-2.104c-0.069-0.151-0.247-0.216-0.397-0.147
	c-0.151,0.069-0.217,0.247-0.147,0.397c0.526,1.147,1.344,1.723,2.285,2.257c-1.508,0.399-2.92,0.511-4.117,0.483v-2.066
	l4.043-4.288c0.056-0.059,0.085-0.139,0.082-0.221c-0.004-0.082-0.042-0.158-0.104-0.212l-0.407-0.352
	c0.604-0.681,1.022-1.485,1.213-2.361c0.956,1.203,3.371,1.802,7.377,1.802c0.54,0,1.064-0.023,1.57-0.066L-141.387-286.884z
	 M-134.368-292.618c-0.749,0.406-1.768,0.745-3.001,0.955l0.705-1.024C-135.791-292.284-134.908-292.442-134.368-292.618z
	 M-131.877-292.559c-0.21,0.008-0.643-0.151-1.087-0.353c0.394-0.412,0.61-0.867,0.61-1.348c0-0.166-0.134-0.3-0.3-0.3
	s-0.3,0.134-0.3,0.3c0,0.359-0.207,0.725-0.583,1.069c-0.108-0.057-0.213-0.112-0.307-0.165c-0.091-0.051-0.203-0.051-0.294,0
	c-0.087,0.049-2.136,1.167-3.444-0.997c-0.086-0.142-0.271-0.188-0.412-0.102s-0.187,0.27-0.102,0.412
	c0.281,0.465,0.594,0.799,0.917,1.043l-0.997,1.449c-0.63,0.073-1.302,0.116-2.017,0.116c-3.418,0-5.636-0.43-6.64-1.275h0.163
	c0.001,0,0.002,0,0.003,0c0.003,0,0.005-0.002,0.008-0.002c0.049-0.001,0.096-0.012,0.139-0.036l10.031-5.604
	c0.096-0.053,0.155-0.155,0.153-0.265l-0.007-0.746l5.58,6.217C-131.208-292.847-131.697-292.572-131.877-292.559z
	 M-135.586-296.621c0.066-0.137,0.276-0.156,0.47-0.044c0.193,0.113,0.297,0.316,0.231,0.453c-0.066,0.138-0.276,0.157-0.47,0.044
	C-135.548-296.28-135.651-296.483-135.586-296.621z"/>
</svg>
