<?xml version="1.0" encoding="utf-8"?>
<!-- Generator: Adobe Illustrator 16.0.0, SVG Export Plug-In . SVG Version: 6.00 Build 0)  -->
<!DOCTYPE svg PUBLIC "-//W3C//DTD SVG 1.1//EN" "http://www.w3.org/Graphics/SVG/1.1/DTD/svg11.dtd">
<svg version="1.1" id="Layer_1" xmlns="http://www.w3.org/2000/svg" xmlns:xlink="http://www.w3.org/1999/xlink" x="0px" y="0px"
	 width="50px" height="50px" viewBox="34.5 34.5 50 50" enable-background="new 34.5 34.5 50 50" xml:space="preserve">
<path d="M73.67,61.18c-0.1,0.517-0.244,1.03-0.699,1.498c-0.248,0.257-0.472,0.341-0.696,0.452
	c-0.215,0.123-0.463,0.205-0.714,0.275c-0.498,0.129-1.069,0.188-1.594-0.024c-1.072-0.42-1.527-1.459-1.637-2.368l0.109-0.03
	c0.396,0.804,1.011,1.546,1.744,1.683c0.36,0.072,0.738-0.007,1.104-0.137c0.323-0.134,0.831-0.364,0.986-0.563
	c0.179-0.201,0.348-0.593,0.433-0.966c0.084-0.385,0.121-0.793,0.088-1.201c-0.028-0.813-0.573-1.558-1.069-2.351l-0.02-0.028
	l-0.007-0.018c-0.441-1.419-1.076-2.783-1.797-4.081c-0.729-1.263-1.423-2.653-2.35-3.571l-0.121-0.116L67.39,49.46
	c-0.188-0.793-0.294-1.568-0.338-2.379c-0.007-0.542-0.005-1.098,0.105-1.669c-0.593,0.109-1.19,0.25-1.764,0.433
	c-0.828,0.294-1.63,0.691-2.261,1.353l-0.092-0.062c0.433-0.85,1.23-1.484,2.066-1.933c0.849-0.468,1.746-0.749,2.713-0.955
	l0.8-0.172l-0.251,0.886c-0.162,0.58-0.18,1.331-0.118,2.056c0.037,0.696,0.139,1.417,0.244,2.108
	c1.017,1.222,1.553,2.548,2.066,3.901c0.499,1.421,0.949,2.835,1.48,4.232c0.276,0.354,0.56,0.702,0.853,1.045
	c0.322,0.389,0.549,0.856,0.679,1.349C73.707,60.144,73.748,60.664,73.67,61.18z M64.49,58.182c-0.25-0.362-0.498-0.784-0.652-1.138
	L63.511,56.3l-0.751,0.396c-0.765,0.403-1.518,1.006-1.943,1.822c-0.441,0.802-0.606,1.693-0.6,2.528
	c0.026,1.683,0.544,3.207,1.229,4.608c0.356,0.702,0.754,1.361,1.252,2.001c0.251,0.316,0.457,0.551,0.654,0.856
	c0.193,0.292,0.365,0.602,0.508,0.925c0.56,1.302,0.628,2.857,0.227,4.278l0.145,0.057c0.584-1.407,0.725-3.033,0.276-4.565
	c-0.208-0.763-0.652-1.494-1.089-2.101c-0.387-0.577-0.725-1.236-0.997-1.897c-0.545-1.326-0.892-2.77-0.769-4.103
	c0.097-1.092,0.544-1.971,1.287-2.603c0.149,0.19,0.301,0.375,0.465,0.558c0.376,0.382,0.771,0.751,1.23,1.036
	c0.896,0.598,1.985,0.937,3.014,0.819l0.018-0.158c-0.938-0.336-1.709-0.852-2.333-1.515C65.035,58.9,64.736,58.564,64.49,58.182z
	 M59.109,73.599c-0.549-0.172-1.129-0.374-1.739-0.598c-0.596-0.255-1.234-0.483-1.858-0.802c-0.633-0.292-1.273-0.621-1.894-1.008
	c-0.614-0.38-1.243-0.826-1.753-1.318c-0.526-0.431-1.085-1.155-1.495-1.683c-0.45-0.605-0.837-1.234-1.192-1.857
	c-0.679-1.257-1.116-2.53-1.274-3.664c-0.16-1.131-0.055-2.104,0.123-2.75c0.18-0.654,0.382-0.981,0.382-0.981l-0.132-0.088
	c0,0-0.25,0.329-0.505,0.986c-0.255,0.654-0.472,1.662-0.424,2.884c0.018,0.61,0.123,1.265,0.274,1.948
	c0.172,0.681,0.427,1.373,0.728,2.073c0.322,0.688,0.683,1.386,1.108,2.061c0.483,0.729,0.851,1.296,1.472,1.941
	c0.567,0.654,1.19,1.184,1.841,1.683c0.65,0.503,1.351,0.904,2.045,1.252c1.412,0.652,2.82,1.004,4.035,1.145
	c2.438,0.278,4.032-0.104,4.032-0.104l-0.004-0.158C62.879,74.561,61.302,74.286,59.109,73.599z M48.712,57.602
	c-0.598-0.127-1.12,0.147-1.63,0.325c-0.198,0.079-0.376,0.189-0.564,0.283c0.285-0.575,0.61-1.133,0.999-1.655
	c0.571-0.767,1.266-1.448,1.95-2.131c1.404-1.331,2.943-2.59,4.573-3.648l0.921-0.6l-1.002-0.243
	c-0.701-0.172-1.16-0.04-1.685,0.023c-0.005,0-0.009,0.003-0.014,0.003c0.387-0.334,0.787-0.648,1.213-0.932
	c0.821-0.587,1.735-1.015,2.669-1.395c1.882-0.686,3.995-0.93,5.984-0.446l0.035-0.105c-1.994-0.619-4.168-0.512-6.181,0.081
	c-0.997,0.325-1.977,0.74-2.864,1.313c-0.904,0.543-1.722,1.217-2.504,1.922l-1.155,1.039L51,51.07
	c0.394-0.095,0.805-0.167,1.208-0.225c-1.256,0.815-2.469,1.689-3.545,2.752c-0.725,0.726-1.41,1.503-1.959,2.39
	c-0.56,0.875-1.03,1.832-1.234,2.873l-0.18,0.918l0.702-0.549c0.409-0.32,0.856-0.615,1.292-0.907
	c0.441-0.268,0.911-0.591,1.396-0.61L48.712,57.602z"/>
</svg>
