<?xml version="1.0" encoding="utf-8"?>
<!-- Generator: Adobe Illustrator 16.0.0, SVG Export Plug-In . SVG Version: 6.00 Build 0)  -->
<!DOCTYPE svg PUBLIC "-//W3C//DTD SVG 1.1//EN" "http://www.w3.org/Graphics/SVG/1.1/DTD/svg11.dtd">
<svg version="1.1" id="Layer_1" xmlns="http://www.w3.org/2000/svg" xmlns:xlink="http://www.w3.org/1999/xlink" x="0px" y="0px"
	 width="50px" height="50px" viewBox="-245.5 -175.5 50 50" enable-background="new -245.5 -175.5 50 50" xml:space="preserve">
<path d="M-207.844-166.06c0.053-0.114-0.093-0.535-0.093-0.535c0.59,0.54,1.562,1.654,1.934,2.726
	c0.42,1.207,1.539,4.427,1.678,5.266c0,0,0.147,0.404-0.513,0.653c-0.455,0.171-1.467,0.979-1.678-0.979
	c0,0-2.586-0.093-2.843-2.609c0,0-2.205-1.02-2.819,2.003c-0.185,0.911-0.07,3.17,0.256,3.705c0,0,1.923-0.015,2.563,0.023
	c0.445,0.027,0.629,0.07,0.605,1.678v2.586c0,0-0.116,0.466-1.188,0.886c0,0-1.375,1.328-2.331,1.328c0,0-0.163-1.678,0.606-2.027
	l1.141,0.047c0,0,0.374-0.792,0.653-1.096c0,0,0.233-2.4-0.676-1.817c0,0-2.354,2.634-4.334,1.98c0,0-3.919,4.997-9.717,4.8
	c-0.692-0.023-1.18-0.343-2.027,1.888c-0.468,1.231-0.653,2.563-2.82,4.451c0,0-1.281,1.584-2.12,4.497c0,0-0.21,3.915-1.841,4.614
	c0,0-1.072-1.258-0.396-2.47c0,0,0.583-0.21,0.816-0.163c0,0,0.023-1.414,0.419-2.284c0.237-0.521,0.109-1.581,0.163-2.283
	c0.047-0.606,0.187-1.445,0.909-2.238c0,0,1.002-1.63,0.093-3.635c0,0-1.025-1.84-0.698-3.402c0,0,0.351-1.221-2.26-0.232
	c-0.612,0.231-1.742,1.058,0.139,2.609c0.837,0.691,2.983,1.958,2.54,3.519c0,0-0.303-0.769-1.282-1.143
	c0,0,0.815,1.329,0.513,2.377c0,0-1.453-2.985-5.732-5.942c-0.783-0.541-0.979-2.54,1.562-3.472
	c0.854-0.313,1.891-0.171,3.612,0.466c0.401,0.149,1.392,0.353,1.701-0.187c1.002-1.747,2.68-3.098,6.804-4.729
	c0,0,3.333-1.888,4.544-4.474c0,0,0.396-1.025,1.771-1.584c0.031-0.013-0.233-0.28-1.491,0.419c0,0,1.817-2.353,0.792-2.353
	c0,0,0.373-1.072,1.771-1.515c0.289-0.091,0.676-0.078,1.538-0.442c0,0-1.166,0.023-1.841-0.886c0,0,1.867,0.064,3.822-0.629
	c0.77-0.272,1.048-0.419,2.586,0.327c0,0-0.419-0.885-1.538-0.955c0,0,2.167-0.559,4.451,1.421
	C-208.1-165.873-207.984-165.756-207.844-166.06z"/>
</svg>
