<?xml version="1.0" encoding="utf-8"?>
<!-- Generator: Adobe Illustrator 16.0.0, SVG Export Plug-In . SVG Version: 6.00 Build 0)  -->
<!DOCTYPE svg PUBLIC "-//W3C//DTD SVG 1.1//EN" "http://www.w3.org/Graphics/SVG/1.1/DTD/svg11.dtd">
<svg version="1.1" id="Layer_1" xmlns="http://www.w3.org/2000/svg" xmlns:xlink="http://www.w3.org/1999/xlink" x="0px" y="0px"
	 width="50px" height="50px" viewBox="-245.5 -35.5 50 50" enable-background="new -245.5 -35.5 50 50" xml:space="preserve">
<path d="M-203.026-19.472c-0.13-0.782-1.027-3.408-1.69-5.315c-0.405-1.166-1.457-2.339-2.015-2.849
	c-0.101-0.093-0.253-0.104-0.367-0.029c-0.115,0.075-0.163,0.219-0.118,0.349c0.02,0.059,0.04,0.124,0.056,0.179
	c-2.275-1.802-4.369-1.291-4.461-1.267c-0.143,0.037-0.237,0.172-0.224,0.319c0.003,0.029,0.01,0.057,0.021,0.083
	c-0.258,0.021-0.497,0.1-0.791,0.205l-0.079,0.028c-1.874,0.664-3.691,0.612-3.711,0.612c-0.111,0-0.223,0.059-0.276,0.161
	c-0.054,0.102-0.044,0.226,0.025,0.318c0.277,0.372,0.623,0.607,0.952,0.755c-0.06,0.012-0.116,0.023-0.167,0.032
	c-0.128,0.024-0.235,0.045-0.332,0.076c-1.524,0.482-1.947,1.653-1.964,1.702c-0.032,0.092-0.012,0.176,0.044,0.255
	s0.153,0.108,0.25,0.108c0.061,0.212-0.435,1.12-1.041,1.904c-0.087,0.113-0.083,0.271,0.01,0.379
	c0.045,0.053,0.105,0.086,0.169,0.099c-0.356,0.397-0.488,0.729-0.493,0.744c-1.156,2.467-4.388,4.322-4.383,4.322
	c-3.878,1.535-5.828,2.897-6.954,4.859c-0.184,0.321-0.962,0.194-1.336,0.055c-1.824-0.675-2.894-0.805-3.819-0.467
	c-1.309,0.481-2.133,1.335-2.262,2.344c-0.085,0.671,0.169,1.337,0.633,1.657c4.155,2.871,5.619,5.797,5.633,5.827
	c0.055,0.111,0.175,0.173,0.295,0.167c0.124-0.011,0.228-0.097,0.262-0.216c0.161-0.557,0.051-1.167-0.111-1.658
	c0.221,0.232,0.308,0.437,0.313,0.45c0.047,0.12,0.167,0.19,0.294,0.19c0.101-0.005,0.189-0.06,0.24-0.142
	c-0.118,0.482-0.289,0.774-0.29,0.781c-0.774,0.85-0.934,1.738-0.987,2.417c-0.018,0.241-0.017,0.521-0.014,0.81
	c0.004,0.508,0.009,1.084-0.122,1.372c-0.311,0.682-0.406,1.647-0.434,2.12c-0.256,0.04-0.527,0.132-0.63,0.169
	c-0.068,0.025-0.125,0.073-0.16,0.136c-0.768,1.377,0.38,2.751,0.43,2.809c0.059,0.069,0.143,0.105,0.229,0.105
	c0.04,0,0.08-0.008,0.118-0.024c1.782-0.763,2.014-4.706,2.011-4.806c0.804-2.792,2.036-4.354,2.029-4.354
	c0.742-0.647,1.407-1.166,1.993-1.624c1.133-0.885,1.951-1.524,2.376-2.349c0.239-0.464,0.458-0.908,0.636-1.337
	c0.092,0.003,0.184,0.005,0.275,0.005c5.454,0,8.797-4.865,9.217-5.51c2.104-0.218,4.274-2.188,4.366-2.278
	c0.047-0.03,0.076-0.04,0.08-0.045c0.131,0.12,0.197,0.818,0.144,1.489c-0.206,0.258-0.425,0.67-0.546,0.909l-0.945-0.039
	c-0.049,0-0.094,0.007-0.136,0.027c-0.938,0.426-0.799,2.136-0.781,2.329c0.015,0.154,0.145,0.271,0.299,0.271
	c0.979,0,2.217-1.109,2.496-1.371c1.108-0.449,1.289-0.971,1.322-1.143v-2.582c0.022-1.469-0.098-1.934-0.888-1.982
	c-0.528-0.031-1.883-0.027-2.389-0.025c-0.223-0.646-0.322-2.52-0.154-3.344c0.187-0.919,0.541-1.518,1.05-1.778
	c0.463-0.236,0.959-0.138,1.201-0.065c0.315,2.09,2.164,2.56,2.851,2.662c0.1,0.633,0.309,1.031,0.635,1.211
	c0.438,0.243,0.915,0.013,1.231-0.139c0.068-0.033,0.13-0.064,0.185-0.084C-202.987-18.77-202.954-19.29-203.026-19.472z
	 M-232.573-6.791c-0.172-0.129-0.329-0.247-0.455-0.351c-0.666-0.549-0.985-1.04-0.922-1.42c0.069-0.419,0.594-0.637,0.698-0.677
	c0.772-0.292,1.227-0.368,1.491-0.368c0.228,0,0.314,0.056,0.339,0.078c0.061,0.053,0.035,0.163,0.031,0.18
	c-0.346,1.653,0.686,3.531,0.718,3.588c0.309,0.68,0.382,1.31,0.353,1.834C-230.389-5.15-231.678-6.118-232.573-6.791z
	 M-203.94-19.05c-0.068,0.025-0.147,0.063-0.234,0.105c-0.229,0.111-0.513,0.246-0.679,0.155c-0.101-0.056-0.282-0.259-0.361-0.991
	c-0.016-0.147-0.138-0.262-0.287-0.268c-0.095-0.004-2.33-0.12-2.556-2.34c-0.011-0.105-0.076-0.198-0.172-0.242
	c-0.039-0.017-0.966-0.437-1.868,0.019c-0.684,0.346-1.146,1.085-1.372,2.197c-0.183,0.902-0.104,3.269,0.294,3.921
	c0.055,0.089,0.152,0.144,0.256,0.144c0,0,0.001,0,0.002,0c0.019,0,1.92-0.013,2.542,0.023c0.236,0.015,0.344,0.021,0.324,1.379
	v2.524c-0.05,0.088-0.265,0.381-0.997,0.668c-0.037,0.014-0.07,0.036-0.099,0.063c-0.312,0.301-1.169,1.02-1.837,1.202
	c-0.002-0.495,0.083-1.175,0.392-1.382l1.059,0.043c0.119,0.007,0.232-0.063,0.284-0.172c0.099-0.209,0.399-0.799,0.602-1.021
	c0.044-0.048,0.072-0.109,0.078-0.174c0.052-0.538,0.115-1.825-0.425-2.156c-0.119-0.072-0.371-0.161-0.752,0.089
	c-0.037,0.034-3.685,3.348-5.708,1.723c-0.128-0.105-0.318-0.085-0.421,0.045c-0.104,0.129-0.084,0.318,0.045,0.421
	c0.416,0.335,0.876,0.499,1.353,0.555c-0.884,1.213-3.98,4.938-8.538,4.906c0.353-1.089,0.356-2.086-0.388-3.063
	c-0.102-0.133-0.29-0.157-0.42-0.057c-0.132,0.101-0.157,0.289-0.057,0.42c0.879,1.154,0.548,2.28-0.528,4.369
	c-0.365,0.707-1.14,1.313-2.212,2.15c-0.592,0.463-1.263,0.987-2.054,1.682c-0.054,0.066-1.329,1.666-2.186,4.669
	c-0.053,0.976-0.417,3.515-1.455,4.239c-0.227-0.347-0.611-1.102-0.271-1.833c0.229-0.074,0.472-0.125,0.545-0.115
	c0.087,0.019,0.178-0.004,0.247-0.06c0.069-0.056,0.11-0.14,0.112-0.229c0-0.013,0.028-1.363,0.393-2.164
	c0.186-0.409,0.181-1.027,0.176-1.625c-0.002-0.27-0.005-0.533,0.013-0.759c0.045-0.583,0.18-1.345,0.865-2.104
	c0.044-0.072,1.075-1.79,0.1-3.938c-0.01-0.018-0.967-1.759-0.672-3.173c0.049-0.169,0.061-0.52-0.204-0.764
	c-0.392-0.361-1.194-0.306-2.45,0.168c-0.223,0.084-0.958,0.415-1.078,1.14c-0.101,0.612,0.28,1.279,1.132,1.981
	c0.132,0.109,0.295,0.232,0.476,0.367c0.675,0.507,1.605,1.206,1.911,1.991c-0.21-0.182-0.483-0.36-0.831-0.493
	c-0.122-0.045-0.256-0.01-0.338,0.089s-0.092,0.239-0.025,0.348c0.123,0.2,0.344,0.645,0.459,1.131
	c-0.771-1.134-2.382-3.115-5.253-5.099c-0.229-0.159-0.445-0.566-0.379-1.088c0.058-0.458,0.379-1.308,1.873-1.856
	c0.767-0.28,1.752-0.145,3.405,0.466c0.537,0.199,1.659,0.389,2.065-0.319c0.876-1.527,2.343-2.894,6.692-4.618
	c0.139-0.079,3.43-1.965,4.676-4.625c0.015-0.037,0.378-0.917,1.614-1.419c0.101-0.044,0.171-0.145,0.179-0.254
	c0.008-0.11-0.064-0.238-0.157-0.298c-0.129-0.083-0.361-0.128-0.774-0.011c0.375-0.605,0.668-1.262,0.483-1.64
	c-0.024-0.049-0.065-0.113-0.133-0.169c0.193-0.306,0.617-0.804,1.442-1.065c0.077-0.024,0.161-0.039,0.262-0.058
	c0.267-0.05,0.669-0.126,1.303-0.395c0.132-0.056,0.206-0.198,0.176-0.339c-0.031-0.141-0.164-0.26-0.299-0.237
	c-0.012,0.005-0.559,0.007-1.081-0.305c0.741-0.045,1.932-0.189,3.167-0.627l0.081-0.028c0.657-0.234,0.903-0.323,2.275,0.343
	c0.113,0.055,0.251,0.033,0.342-0.057c0.091-0.089,0.115-0.226,0.06-0.341c-0.01-0.021-0.142-0.292-0.437-0.562
	c0.77,0.105,1.8,0.443,2.866,1.367c0.067,0.068,0.193,0.13,0.34,0.105c0.184-0.033,0.295-0.178,0.355-0.286
	c0.494,0.548,1.068,1.317,1.331,2.073c0.378,1.087,1.529,4.395,1.674,5.254C-203.594-19.264-203.692-19.144-203.94-19.05z"/>
</svg>
