<?xml version="1.0" encoding="UTF-8"?>
<svg xmlns="http://www.w3.org/2000/svg" xmlns:xlink="http://www.w3.org/1999/xlink" width="30pt" height="30pt" viewBox="0 0 30 30" version="1.1">
<g id="surface1">
<path style=" stroke:none;fill-rule:nonzero;fill:rgb(0%,0%,0%);fill-opacity:1;" d="M 28.382812 1.613281 C 27.34375 0.574219 25.960938 0 24.488281 0 C 23.015625 0 21.632812 0.570312 20.59375 1.613281 L 4.027344 18.085938 C 3.925781 18.183594 3.851562 18.300781 3.804688 18.429688 L 0.0546875 28.742188 C -0.0664062 29.074219 0.0117188 29.449219 0.257812 29.707031 C 0.4375 29.898438 0.683594 30 0.9375 30 C 1.03125 30 1.121094 29.988281 1.210938 29.957031 L 10.539062 27.097656 C 10.6875 27.054688 10.820312 26.972656 10.925781 26.863281 L 28.382812 9.40625 C 29.425781 8.367188 30 6.984375 30 5.511719 C 30 4.039062 29.425781 2.65625 28.382812 1.613281 Z M 9.460938 25.46875 L 5.96875 26.539062 C 5.765625 25.941406 5.449219 25.414062 5.015625 24.980469 C 4.640625 24.609375 4.207031 24.316406 3.746094 24.082031 L 5.34375 19.6875 L 7.5 19.6875 L 7.5 21.5625 C 7.5 22.082031 7.917969 22.5 8.4375 22.5 L 10.09375 22.5 Z M 23.261719 11.878906 L 11.839844 23.300781 L 12.167969 21.757812 C 12.226562 21.480469 12.15625 21.191406 11.976562 20.972656 C 11.800781 20.753906 11.53125 20.625 11.25 20.625 L 9.375 20.625 L 9.375 18.75 C 9.375 18.234375 8.953125 17.8125 8.4375 17.8125 L 6.957031 17.8125 L 18.109375 6.726562 L 18.117188 6.738281 C 18.804688 6.050781 19.71875 5.671875 20.691406 5.671875 C 21.660156 5.671875 22.574219 6.050781 23.261719 6.738281 C 23.945312 7.425781 24.328125 8.335938 24.328125 9.308594 C 24.328125 10.28125 23.949219 11.191406 23.261719 11.878906 Z M 27.058594 8.082031 L 26.183594 8.957031 C 26.101562 7.617188 25.542969 6.367188 24.585938 5.410156 C 23.628906 4.453125 22.382812 3.898438 21.039062 3.816406 L 21.917969 2.941406 C 22.601562 2.253906 23.515625 1.875 24.488281 1.875 C 25.460938 1.875 26.371094 2.253906 27.058594 2.941406 C 27.746094 3.628906 28.125 4.539062 28.125 5.511719 C 28.125 6.484375 27.75 7.394531 27.058594 8.082031 Z M 20.898438 7.773438 L 11.523438 17.148438 C 11.15625 17.515625 11.15625 18.109375 11.523438 18.476562 C 11.707031 18.65625 11.949219 18.75 12.1875 18.75 C 12.425781 18.75 12.667969 18.65625 12.851562 18.476562 L 22.226562 9.101562 C 22.59375 8.734375 22.59375 8.140625 22.226562 7.773438 C 21.859375 7.40625 21.265625 7.40625 20.898438 7.773438 Z M 20.898438 7.773438 "/>
</g>
</svg>
