<?xml version="1.0" encoding="UTF-8"?>
<svg xmlns="http://www.w3.org/2000/svg" xmlns:xlink="http://www.w3.org/1999/xlink" width="30pt" height="30pt" viewBox="0 0 30 30" version="1.1">
<g id="surface1">
<path style=" stroke:none;fill-rule:nonzero;fill:rgb(0%,0%,0%);fill-opacity:1;" d="M 28.542969 5.171875 C 28.425781 5.054688 28.277344 4.996094 28.09375 4.996094 L 22.066406 4.996094 L 20.699219 1.738281 C 20.503906 1.253906 20.152344 0.84375 19.648438 0.507812 C 19.140625 0.167969 18.625 0 18.105469 0 L 11.863281 0 C 11.34375 0 10.828125 0.167969 10.320312 0.507812 C 9.8125 0.84375 9.460938 1.253906 9.265625 1.738281 L 7.902344 4.996094 L 1.871094 4.996094 C 1.691406 4.996094 1.542969 5.054688 1.425781 5.171875 C 1.308594 5.285156 1.25 5.4375 1.25 5.617188 L 1.25 6.867188 C 1.25 7.050781 1.308594 7.199219 1.425781 7.316406 C 1.542969 7.433594 1.691406 7.492188 1.871094 7.492188 L 3.746094 7.492188 L 3.746094 26.066406 C 3.746094 27.144531 4.050781 28.066406 4.664062 28.828125 C 5.273438 29.585938 6.007812 29.96875 6.867188 29.96875 L 23.101562 29.96875 C 23.960938 29.96875 24.695312 29.574219 25.304688 28.789062 C 25.917969 28 26.222656 27.066406 26.222656 25.988281 L 26.222656 7.492188 L 28.09375 7.492188 C 28.277344 7.492188 28.425781 7.433594 28.542969 7.316406 C 28.660156 7.199219 28.71875 7.050781 28.71875 6.867188 L 28.71875 5.617188 C 28.71875 5.4375 28.660156 5.285156 28.542969 5.171875 Z M 11.570312 2.710938 C 11.660156 2.59375 11.769531 2.523438 11.902344 2.496094 L 18.085938 2.496094 C 18.214844 2.523438 18.328125 2.59375 18.417969 2.710938 L 19.355469 4.996094 L 10.613281 4.996094 Z M 23.726562 25.988281 C 23.726562 26.273438 23.679688 26.539062 23.589844 26.777344 C 23.496094 27.019531 23.402344 27.195312 23.304688 27.304688 C 23.207031 27.414062 23.140625 27.46875 23.101562 27.46875 L 6.867188 27.46875 C 6.828125 27.46875 6.761719 27.414062 6.664062 27.304688 C 6.566406 27.195312 6.46875 27.019531 6.378906 26.777344 C 6.289062 26.539062 6.242188 26.273438 6.242188 25.988281 L 6.242188 7.492188 L 23.726562 7.492188 Z M 23.726562 25.988281 "/>
<path style=" stroke:none;fill-rule:nonzero;fill:rgb(0%,0%,0%);fill-opacity:1;" d="M 9.363281 23.726562 L 10.613281 23.726562 C 10.796875 23.726562 10.945312 23.667969 11.0625 23.550781 C 11.179688 23.433594 11.238281 23.28125 11.238281 23.101562 L 11.238281 11.863281 C 11.238281 11.679688 11.179688 11.53125 11.0625 11.414062 C 10.945312 11.296875 10.796875 11.238281 10.613281 11.238281 L 9.363281 11.238281 C 9.183594 11.238281 9.035156 11.296875 8.917969 11.414062 C 8.800781 11.53125 8.742188 11.679688 8.742188 11.863281 L 8.742188 23.101562 C 8.742188 23.28125 8.800781 23.433594 8.917969 23.550781 C 9.035156 23.667969 9.183594 23.726562 9.363281 23.726562 Z M 9.363281 23.726562 "/>
<path style=" stroke:none;fill-rule:nonzero;fill:rgb(0%,0%,0%);fill-opacity:1;" d="M 14.359375 23.726562 L 15.609375 23.726562 C 15.789062 23.726562 15.941406 23.667969 16.058594 23.550781 C 16.175781 23.433594 16.230469 23.28125 16.230469 23.101562 L 16.230469 11.863281 C 16.230469 11.679688 16.175781 11.53125 16.058594 11.414062 C 15.941406 11.296875 15.789062 11.238281 15.609375 11.238281 L 14.359375 11.238281 C 14.175781 11.238281 14.027344 11.296875 13.910156 11.414062 C 13.792969 11.53125 13.734375 11.679688 13.734375 11.863281 L 13.734375 23.101562 C 13.734375 23.28125 13.792969 23.433594 13.910156 23.550781 C 14.027344 23.667969 14.175781 23.726562 14.359375 23.726562 Z M 14.359375 23.726562 "/>
<path style=" stroke:none;fill-rule:nonzero;fill:rgb(0%,0%,0%);fill-opacity:1;" d="M 19.355469 23.726562 L 20.601562 23.726562 C 20.785156 23.726562 20.933594 23.667969 21.050781 23.550781 C 21.167969 23.433594 21.226562 23.28125 21.226562 23.101562 L 21.226562 11.863281 C 21.226562 11.679688 21.167969 11.53125 21.050781 11.414062 C 20.933594 11.296875 20.785156 11.238281 20.601562 11.238281 L 19.355469 11.238281 C 19.171875 11.238281 19.023438 11.296875 18.90625 11.414062 C 18.789062 11.53125 18.730469 11.679688 18.730469 11.863281 L 18.730469 23.101562 C 18.730469 23.28125 18.789062 23.433594 18.90625 23.550781 C 19.023438 23.667969 19.171875 23.726562 19.355469 23.726562 Z M 19.355469 23.726562 "/>
</g>
</svg>
